<svg id="Layer_1" data-name="Layer 1" xmlns="http://www.w3.org/2000/svg" viewBox="0 0 374.203 458.871">
  <defs>
    <style>
      .cls-1 {
        fill: #d4c5c6;
      }

      .cls-2 {
        fill: #34a85e;
      }

      .cls-3 {
        fill: #669e83;
      }

      .cls-4 {
        fill: #61947a;
      }
    </style>
  </defs>
  <title>d6f01137-7bbd-4afb-9c3b-78c4487e27b6</title>
  <path id="_Compound_Path_" data-name="&lt;Compound Path&gt;" d="M156.068,159.28c-0.719-3.374-3.134-3.765-5.479-4.417a29.987,29.987,0,0,1-4.189-1.871c0.941-2.889,1.625-5.688,2.743-8.3,4.344-10.148,8.874-20.217,13.245-30.353,4.309-9.992,8.487-20.04,12.77-30.043,1.737-4.058,3.653-8.04,5.394-12.1q8.814-20.528,17.559-41.087,6.14-14.4,12.252-28.808c0.286-.672.6-1.334,1.032-2.3l72.427,24.338c-1.879,4.933-3.629,9.743-5.534,14.492Q268.1,64.234,257.8,89.6c-4.019,9.837-8.356,19.545-12.361,29.388-7.71,18.949-15.284,37.953-22.917,56.933-0.243.6-.5,1.2-0.762,1.812-5.883-1.338-11.621-2.592-17.33-3.965-2.762-.664-4.5.52-4.538,3.359-0.015,1.207.005,2.418,0.1,3.621,0.153,2.04.789,3.614,3.044,4.4q7.4,2.573,14.634,5.589a64.606,64.606,0,0,1,6.631,3.634c2.923,1.648,6.251,2.727,8.386,5.517a32.319,32.319,0,0,1,2.339,4.024,6.267,6.267,0,0,0,.186.762c3.235,4.045,2.57,8.7,2.167,13.337a11.054,11.054,0,0,0,.131,4.3,4.327,4.327,0,0,0,2.471,2.493,3.749,3.749,0,0,0,3.17-.978c3.167-3.533,6.067-7.3,9.163-10.9,2-2.324,4.137-4.533,6.278-6.729,1.364-1.4,1.965-2.6.6-4.522a32.473,32.473,0,0,1-2.894-5.938c-0.759-1.74.017-2.929,1.719-3.36,2.525-.64,5.106-1.056,7.648-1.631,4.825-1.092,9.631-2.266,14.461-3.332,2.472-.546,4.969-1.01,7.475-1.365,2.026-.288,4.228,2.508,3.646,4.974-0.7,2.98-1.82,5.865-2.812,8.773-0.621,1.821-1.309,3.622-2.027,5.407s-1.5,3.558-2.28,5.327c-1.073,2.444-2.2,4.867-3.24,7.324-0.739,1.741-1.521,1.958-2.98.712-2.08-1.776-4.406-1.855-6.45.057q-7.112,6.649-14.046,13.488a3.219,3.219,0,0,0-.685,2.143c0.046,4.282.087,8.539-1.131,12.725a2.259,2.259,0,0,1-1.913,1.908,22.458,22.458,0,0,1-12.652-.6c-1.54-.528-2.409.035-2.417,1.608-0.028,4.935-.061,9.874.071,14.806,0.184,6.9.5,13.789,0.787,20.682,0.106,2.594.566,4.846,3.67,5.7a2.358,2.358,0,0,1,1.47,3.259c-1.25,3.248-2.477,6.5-3.72,9.754-1.838,4.806-3.637,9.628-5.547,14.4a28.589,28.589,0,0,1-2.329,4.436c-2.507,4.027-7,4.172-9.587.162a104.266,104.266,0,0,1-5.808-10.308c-2.393-4.845-4.521-9.821-6.769-14.738-1.628-3.561-.633-5.72,3.173-6.816,2.08-.6,4.188-1.142,5.167-3.4a3.558,3.558,0,0,0,.4-1.319c0.01-5.214.048-10.43-.085-15.641a13.5,13.5,0,0,0-1.075-3.486c-7.18,3.227-13.816,2.425-20.5-.513a38.733,38.733,0,0,0-7.743-2.034c-6.229-1.292-12.524-2.291-18.705-3.773-4.522-1.084-8.894-2.788-13.365-4.107a2.25,2.25,0,0,0-2,.519,38.592,38.592,0,0,0-2.063,4.032,26.9,26.9,0,0,1-1.691,2.924c-1.64,2.368-1.408,4.175,1.031,5.783a49.793,49.793,0,0,0,4.92,2.684c2.713,1.377,5.452,2.7,8.3,4.109-0.29.66-.505,1.2-0.761,1.727-4.143,8.481-8.31,16.951-12.433,25.442q-7.5,15.436-14.933,30.9-7.418,15.363-14.83,30.728t-14.83,30.728q-7.46,15.451-14.925,30.9-7.072,14.643-14.147,29.284c-0.287.594-.616,1.167-1.141,2.157L0,419.673c0.457-.907.794-1.613,1.161-2.3Q14.057,393.182,26.955,369q8.21-15.418,16.379-30.857,8.189-15.427,16.382-30.851,8-15.079,15.994-30.163Q84.4,260.714,93.084,244.3c0.771-1.46,1.964-1.442,3.164-.858,2.813,1.37,5.545,2.9,8.355,4.28,2.705,1.324,5.454,2.561,8.21,3.777,1.4,0.62,3.083.707,3.692-.811a4.447,4.447,0,0,0-.345-3.861c-0.771-.87-2.536-0.912-3.893-1.194-1.283-.266-2.5-0.257-3.371-1.686-0.427-.7-1.9-0.787-2.923-1.1-4.274-1.3-8.851-2.006-12.767-4.006-7.313-3.736-15.368-4.187-23.039-6.277-3.74-1.019-7.481-2.044-11.256-2.917a8.466,8.466,0,0,0-3.311.127c-4.241.774-8.451,2.219-12.7,2.327-6.551.167-12.913,1.274-19.337,2.25-5.482.833-11.015,1.382-16.545,1.823-2.685.214-3.222-.451-3.121-3.157,0.106-2.87.407-5.734,0.679-8.6,0.405-4.262.612-8.563,1.345-12.77,1.573-9.024,2.207-18.248,5.534-26.921,0.618-1.612.847-3.369,1.329-5.038,1.355-4.689,2.673-9.392,4.162-14.039a56.2,56.2,0,0,1,2.491-5.687c1.777-3.965,3.648-7.891,5.318-11.9A79.9,79.9,0,0,1,34.8,130.614a13.329,13.329,0,0,0,1.752-2.92c1.334-3.273,4.232-5.085,6.674-7.311,1.272-1.16,2.333.117,3.188,0.731,6.471,4.643,12.845,9.422,19.3,14.089,4.113,2.974,8.311,5.83,12.473,8.736,1.34,0.936,2.685,1.865,4.026,2.8a1.161,1.161,0,0,1,.467.37c1.269,3.73,4.948,3.987,7.822,5.223,2.993,1.286,6.271,1.893,9.332,3.043,3.991,1.5,7.909,3.2,11.821,4.9a4.7,4.7,0,0,0,4.534-.011c2.231-1.176,4.684-1.615,7.067.007a6.469,6.469,0,0,0,2.089.615,6.006,6.006,0,0,1,1.942.433c3.312,2.326,7.44,1.733,11.014,3.166a13.8,13.8,0,0,0,5.675,1.05,16.242,16.242,0,0,0,5.24-1.667,26.3,26.3,0,0,0,4.184-2.349A28.119,28.119,0,0,0,156.068,159.28ZM194.257,260.6l0.246-.557c-1.025-2.171-2.1-4.322-3.067-6.517-3.156-7.145-2.733-14.8-3.139-22.34-0.223-4.142.872-8.037,1.692-12.049a44.091,44.091,0,0,1,5.7-14.85c1.919-3.067,4.011-6.027,5.894-9.115,1.279-2.1.727-3.35-1.565-4.109-2.594-.859-5.186-1.727-7.8-2.534-8.17-2.526-16.335-5.067-24.529-7.512-2.815-.84-5.74-1.313-8.56-2.138-2.633-.769-5.157-1.923-7.8-2.657-4.76-1.323-9.573-2.454-14.362-3.676-3.818-.974-7.636-1.95-11.447-2.953a4.466,4.466,0,0,0-4.851,1.569,44.784,44.784,0,0,1-3.565,3.544A42.922,42.922,0,0,0,105.229,192.8c-1.166,3.355-2.325,6.712-3.541,10.049a21.106,21.106,0,0,0-1.33,2.9c-0.662,3.459-1.267,6.938-1.676,10.434-0.691,5.91-1.214,11.84-1.812,17.761-0.112,1.107.068,1.819,1.423,2.124,5.019,1.131,10,2.43,15.005,3.628a28.694,28.694,0,0,0,2.88.4c0-4.838-.206-9.4.058-13.943,0.261-4.493.673-9.039,2.862-12.8,16.935,8.645,34.521,15.266,51.985,21.719l-11.58,16.6,0.247,0.8ZM57.389,219.157l0.573,0.1a5.428,5.428,0,0,0,3.834,5.5c5.009,1.459,10.045,2.835,15.014,4.421a64.289,64.289,0,0,1,7.582,3.084c2.774,1.295,5.454.08,5.865-2.948,0.937-6.9,1.874-13.806,2.637-20.729,0.576-5.231,1.236-10.463,3.777-15.123,4.128-7.571,8.472-15.026,12.856-22.453,1.875-3.177.913-6.339-2.514-7.606-5.455-2.016-10.864-4.155-16.317-6.177-2.823-1.047-5.9-1.884-8.433.231a30.366,30.366,0,0,0-8.3,9.946,50.207,50.207,0,0,1-4.356,7.214c-3.854,5.412-6.734,11.093-7.64,17.861C60.765,201.415,58.943,210.268,57.389,219.157ZM194.268,231.07c0.165,3.346.2,6.7,0.523,10.036,0.583,6.1.763,12.3,3.981,17.852,1.46,2.519,3.31,4.173,6.337,4.186a13.1,13.1,0,0,0,3.011-.034,62.6,62.6,0,0,0,8.2-2.338,3.715,3.715,0,0,0,1.918-2.743c0.105-3.93-.162-7.87-0.261-11.806-0.032-1.286-.286-2.4-1.654-2.892-0.793-.286-1.612-0.507-2.387-0.835-1.992-.842-4.873-1.2-5.753-2.707a15.294,15.294,0,0,1-1.867-10.079,30.579,30.579,0,0,0,.429-3.975,8.583,8.583,0,0,1,3.3-6.616,2.87,2.87,0,0,1,1.958-.667c2.287,0.308,4.563.745,6.817,1.248q6.133,1.368,12.234,2.88c1.429,0.351,2.206-.119,2.422-1.547a12.789,12.789,0,0,0,.224-1.983c-0.039-5.363-2.359-10.111-4.066-15.029a8.76,8.76,0,0,0-6.487-5.744,17.166,17.166,0,0,0-9.849.491,25.337,25.337,0,0,0-14.6,12.521A40.079,40.079,0,0,0,194.268,231.07ZM45.451,348.742a3.812,3.812,0,0,0,2.731,3.54q11.337,4.824,22.727,9.525c2.116,0.872,3,.493,4.064-1.57C79.31,351.8,83.59,343.33,87.949,334.9c0.649-1.255.351-2.094-.74-2.657-1.36-.7-2.834-1.179-4.215-1.846-6.485-3.13-12.947-6.309-19.435-9.432-2.416-1.163-3.9-.677-5.121,1.642q-5.919,11.265-11.766,22.567A25.138,25.138,0,0,0,45.451,348.742Zm81.056-4.893c0.374-.727.686-1.31,0.975-1.9q6.282-12.9,12.56-25.807c1.184-2.429,1.1-2.8-1.16-4.357a8.236,8.236,0,0,0-1.218-.7c-6.475-2.988-12.93-6.021-19.441-8.929-5.242-2.342-5.982-1.99-8.319,3.321-0.08.181-.084,0.4-0.164,0.576-1.138,2.559-2.245,5.132-3.434,7.667-2.262,4.825-4.646,9.594-6.816,14.459-0.666,1.493-.072,2.843,1.57,3.634,4.966,2.39,9.882,4.884,14.857,7.255C119.341,340.7,122.83,342.194,126.507,343.849ZM90.038,416.43a10.185,10.185,0,0,0,2.072-2.117c3.675-7.427,7.277-14.89,10.874-22.355,1.443-2.995.7-4.373-2.268-5.821-3.532-1.723-6.88-3.822-10.313-5.749-1.981-1.112-3.973-2.205-5.957-3.312A34.222,34.222,0,0,1,80.812,375c-2.1-1.537-4.471-1.286-5.859.941-1.234,1.98-2.284,4.077-3.382,6.14-0.848,1.594-1.589,3.245-2.472,4.818q-3.427,6.1-6.948,12.146c-0.976,1.676-.229,2.563,1.23,3.34,6.377,3.394,12.726,6.843,19.1,10.236C84.834,413.866,87.235,415.019,90.038,416.43Zm32.5-64.519a58.522,58.522,0,0,0-5.319-4.318,94.657,94.657,0,0,0-18.136-8.944c-2.31-.848-3.638-0.273-4.523,2.043a30.483,30.483,0,0,1-1.942,3.925c-1.954,3.5-3.99,6.947-5.921,10.456-1.193,2.168-2.1,4.505-3.41,6.6-1.977,3.156-2.048,4.251,1.1,6.081,7.048,4.1,14.214,8,21.385,11.879,2.218,1.2,2.89.855,4.035-1.5q5.4-11.077,10.76-22.169C121.234,354.593,121.9,353.222,122.54,351.912ZM68.37,372.423A3.753,3.753,0,0,0,65.8,368.6a11.412,11.412,0,0,1-2.409-.964c-6.295-4.5-13.628-6.78-20.654-9.706-1.646-.685-3.011-0.057-3.766,1.663-0.375.855-.8,1.69-1.233,2.518-3.224,6.16-6.528,12.28-9.66,18.486-1.872,3.709-1.124,5.212,2.764,6.742,3.113,1.225,6.21,2.5,9.267,3.855,4.143,1.84,8.213,3.848,12.383,5.619a3.321,3.321,0,0,0,2.778-.284,9.593,9.593,0,0,0,2.7-3.139c3.191-5.957,6.278-11.972,9.354-17.99A22.872,22.872,0,0,0,68.37,372.423ZM123.939,225.29c-0.505,1.723-1.29,3.228-1.336,4.755-0.219,7.208-.219,14.423-0.341,21.635a2.9,2.9,0,0,0,1.959,2.934c3.46,1.61,6.889,3.287,10.318,4.963,3.239,1.582,6.46,3.2,9.693,4.792,1.465,0.721,2.314.053,3.09-1.215,4.088-6.678,8.253-13.309,12.354-19.979,1.774-2.885.946-5.179-2.251-6.292-2.021-.7-4.113-1.208-6.119-1.949-8.032-2.967-16.037-6.009-24.07-8.974A22.525,22.525,0,0,0,123.939,225.29Zm-17.927,73.766c-0.663-.856-1.234-2.119-2.214-2.737a25.811,25.811,0,0,0-4.946-2.124c-4.893-1.792-9.886-3.338-14.689-5.34-5.757-2.4-7.032-2.01-9.547,3.643-2.717,6.106-5.522,12.173-8.338,18.234-1.4,3.01-.829,4.488,2.215,5.764,2.154,0.9,4.237,1.973,6.353,2.966,4.474,2.1,8.928,4.248,13.434,6.28a4.364,4.364,0,0,0,5.412-2.019q5.752-11.24,11.471-22.5C105.425,300.71,105.59,300.144,106.012,299.056Zm81.147-139.168c0.774,0.272,1.269.458,1.772,0.62q11.16,3.595,22.324,7.177c1.838,0.587,4.161,2.007,5.435,1.376,1.4-.693,1.925-3.28,2.7-5.1,3.252-7.612,6.456-15.244,9.686-22.89a2.84,2.84,0,0,0-.579-0.346c-9.36-2.488-18.715-5-28.1-7.374a2.578,2.578,0,0,0-2.072,1.221c-1.339,2.614-2.476,5.333-3.653,8.029C192.185,148.292,189.72,153.989,187.159,159.888ZM76.214,447.225c3.568-7.48,7.034-14.711,10.464-21.959,1.438-3.038,1.328-3.3-1.673-4.685q-12.657-5.851-25.321-11.689c-1.424-.661-2.433-0.4-3.143,1.032-1.486,2.992-3,5.969-4.494,8.957-1.761,3.521-3.627,7-5.187,10.606a3.97,3.97,0,0,0,.539,3.24,7.7,7.7,0,0,0,3.01,2.209C58.908,439.031,67.439,443.057,76.214,447.225Zm68.074-141.669a3.894,3.894,0,0,0,1.246-1.031q5.576-11.123,11.014-22.315a1.7,1.7,0,0,0-.377-1.6,86.893,86.893,0,0,0-9.69-6.1c-5.038-2.462-10.339-4.383-15.467-6.67-1.337-.6-1.825-0.272-2.386.909-2.375,5-4.9,9.927-7.219,14.95-1.317,2.851-2.412,5.811-3.472,8.771-0.531,1.482-.447,2.992,1.334,3.708,6.876,2.764,13.754,5.525,20.656,8.224A40.14,40.14,0,0,0,144.288,305.556Zm-20.48-40.726c-8.7-3.68-17.254-7.307-25.827-10.886a1.568,1.568,0,0,0-1.412.221,30.949,30.949,0,0,0-4.313,5.191c-2.818,4.993-5.327,10.16-8,15.237-1.629,3.1-2.026,6.118,1.655,7.447,4.327,1.563,8.64,3.164,12.956,4.755,0.686,0.253,1.371.516,2.033,0.824,2.984,1.386,5.959,2.789,9.153,4.287ZM50.666,407.739a10.1,10.1,0,0,0-1.87-2.178c-2.346-1.541-4.788-2.938-7.224-4.336-1.74-1-3.807-1.606-5.242-2.919-3.13-2.864-7.116-3.867-10.791-5.514-2.182-.978-4.021-0.059-5.1,2.038-1.59,3.085-3.125,6.2-4.725,9.28-1.48,2.849-3.052,5.652-4.492,8.52a2.234,2.234,0,0,0-.106,1.892,29.466,29.466,0,0,0,5.4,4.035c6.981,3.584,14.057,6.986,21.141,10.366a2.617,2.617,0,0,0,2.042-.438,4.106,4.106,0,0,0,1.142-1.614q4.6-8.8,9.159-17.626C50.214,408.835,50.377,408.4,50.666,407.739ZM179.552,90.967a2.677,2.677,0,0,0-.469.532c-3.547,8.221-7.062,16.456-10.642,24.662-0.708,1.624.261,2.05,1.426,2.4,3.743,1.122,7.488,2.243,11.25,3.3,4.108,1.156,8.245,2.207,12.348,3.375a2.017,2.017,0,0,0,2.838-1.313c2.8-6.575,5.7-13.1,8.481-19.685,1.743-4.125,1.445-4.648-2.844-6.1-0.063-.021-0.134-0.017-0.2-0.037Zm62.392,19.847c-1.832-.525-3.418-1.016-5.025-1.431-3.751-.968-7.518-1.872-11.265-2.855-1.735-.455-3.434-1.047-5.156-1.552a38.638,38.638,0,0,1-4.214-1.2c-2.8-1.181-4.214-.749-5.418,2-2.66,6.06-5.28,12.138-7.928,18.2-1.017,2.331-.222,3.666,2.358,4.232,2.415,0.529,4.8,1.211,7.182,1.875,5.92,1.649,11.823,3.359,17.762,4.937a2.054,2.054,0,0,0,1.785-.855C235.348,126.5,238.574,118.8,241.944,110.814Zm13.255-31.2c-2.508-.8-4.848-1.527-7.18-2.281-5.839-1.889-11.672-3.8-17.513-5.679-1.708-.551-3.348-0.348-4.126,1.4-2.819,6.342-5.617,12.7-8.2,19.138-1.132,2.826-.192,4.1,2.772,5.068,5.9,1.932,11.789,3.914,17.677,5.891,1.882,0.632,3.747,1.315,5.8,2.038Zm-73.983,78.432c0.357-.762.681-1.415,0.973-2.082,2.921-6.672,5.768-13.378,8.789-20.005,1.23-2.7,1.522-4.141-2.293-5.435-5.81-1.97-11.8-3.422-17.725-5.035a15.469,15.469,0,0,0-4.324-.708,3.007,3.007,0,0,0-2.25,1.4c-2.965,6.584-5.8,13.228-8.638,19.869-0.763,1.784-.287,2.992,1.45,3.73,2.373,1.008,4.738,2.059,7.179,2.876C169.889,154.5,175.446,156.209,181.217,158.049Zm12.051-98.533a22,22,0,0,0-1.748,2.806c-2.92,6.675-5.76,13.384-8.674,20.061-0.483,1.106.066,1.436,0.916,1.747q7.51,2.752,15.013,5.525c1.054,0.391,2.09.833,3.125,1.272,2.441,1.035,4.878,2.082,7.373,3.149l10.938-24.825Zm2.633-5.79c0.421,0.166.833,0.356,1.262,0.493,4.755,1.526,9.526,3,14.265,4.58,3.391,1.129,6.755,2.346,10.1,3.613,1.24,0.47,1.765.123,2.253-1.052,1.767-4.257,3.637-8.472,5.475-12.7,1.057-2.432,2.127-4.859,3.139-7.17l-26.426-9.828Zm35.073,11.71,26.751,8.527,9.022-21.5c-8.454-2.9-16.671-5.708-24.871-8.563-1.187-.413-1.708.026-2.144,1.052C236.868,51.7,233.975,58.429,230.974,65.436ZM249.213,17.9L241.66,36.869c9.286,3.188,17.994,6.191,26.725,9.127a1.555,1.555,0,0,0,1.383-.609c2.069-4.713,4.168-9.419,6.015-14.22,1.037-2.7.179-4.044-2.571-4.993C265.376,23.47,257.538,20.773,249.213,17.9ZM216.781,6.674c-5.046,5.337-4.427,12.7-7.938,18.527l26.53,9.646,8.173-18.9Zm18.472,267.47c-0.474-7.915-.958-16.6-1.531-25.275-0.211-3.19-.327-3.012-3.512-3.394-2.185-.262-4.288-1.16-6.462-1.6a2.247,2.247,0,0,0-1.764.7c-0.088,3.364-.053,6.733.048,10.1,0.035,1.18.445,2.346,0.5,3.527,0.182,4.171.352,8.344,0.4,12.518,0.06,5.542.068,11.086-.05,16.626-0.041,1.92.443,3.1,2.344,3.283a50.889,50.889,0,0,0,7.224.166,2.672,2.672,0,0,0,2.8-2.825C235.269,283.624,235.253,279.275,235.253,274.144ZM73.849,152.7c0-2.631-.527-5.163-2.474-7.01a59.961,59.961,0,0,0-5.516-4.254q-8.587-6.42-17.185-12.825c-1.415-1.057-2.855-1.236-4.169.071a65.5,65.5,0,0,0-5.082,5.39c-1.8,2.245-1.123,4.913,1.335,6.291,2.278,1.277,4.6,2.485,6.814,3.864,3.745,2.332,7.559,4.59,11.087,7.224,3.3,2.461,6.23,5.186,10.772,5.291C72.495,156.813,73.876,155.937,73.849,152.7Zm77.081,15.292c1.061,0.639,2.033,1.249,3.031,1.816a7.651,7.651,0,0,0,1.969.953c2.805,0.63,5.676,1.006,8.442,1.768,6.121,1.686,12.2,3.522,18.282,5.351,3.068,0.923,6.079,2.039,9.164,2.9a3.336,3.336,0,0,0,2.611-.384c2.7-2.176.6-5,.729-7.524a3.137,3.137,0,0,0-2.368-3.356c-2.117-.622-4.255-1.172-6.365-1.816-6.139-1.873-12.252-3.837-18.414-5.632-1.69-.492-3.658-1.066-5.252-0.652C158.225,162.59,153.726,164.1,150.93,167.993ZM41.1,212.542l0.031,0.276a32.98,32.98,0,0,1,4.019.027c3.127,0.387,5-.9,6.269-3.767,1.349-3.041.284-5.682-3.041-6.232a34.2,34.2,0,0,0-5.011-.248c-4.666-.075-9.333-0.14-14-0.162s-9.362-.083-14.033.109a3.391,3.391,0,0,0-2.457,1.851,43.644,43.644,0,0,0-1.394,6.36,3.121,3.121,0,0,0,2.862,3.769c2.277,0.018,4.562-.035,6.83-0.221C27.82,213.76,34.458,213.135,41.1,212.542Zm172.37,82.381c2.254,4.879,4.307,9.358,6.392,13.821,1.35,2.889,2.74,5.758,4.129,8.628a9.926,9.926,0,0,0,1.074,1.911c2.12,2.648,4.908,2.242,6.278-.861,1.482-3.357,3.129-6.648,4.453-10.065,1.652-4.263,3.047-8.625,4.723-13.434h-27.05Zm-150.1-127.8c0.663-.389,2.244-0.812,2.951-1.837,1.366-1.981.389-4.622-1.773-5.824-1.579-.877-3.232-1.627-4.771-2.567-3.294-2.013-6.527-4.127-9.8-6.172-4.531-2.829-9.1-5.6-13.6-8.469a2.723,2.723,0,0,0-3.5.235c-2.563,2.038-2.72,4.927-2.575,7.843,0.1,2.1,1.173,3.4,3.221,4.343,4.43,2.037,8.709,4.409,13.025,6.69A48.6,48.6,0,0,0,63.372,167.123Zm147.409,64.043a16.4,16.4,0,0,0,.044,3.2c0.23,1.132.5,2.715,1.288,3.18a18.727,18.727,0,0,0,5.74,2.075c5.583,1.122,11.221,1.968,16.81,3.065,2.823,0.554,3.653.3,3.459-2.549-0.228-3.333,1.177-6.531.245-9.975-0.378-1.4-.781-2.074-1.9-2.5a91.125,91.125,0,0,0-21.164-5.078,3.585,3.585,0,0,0-2.616,1.189C210.828,225.865,210.721,228.516,210.781,231.166ZM18.626,219.176l-0.033-.273c-1.073,0-2.146-.015-3.218,0-4.394.07-5.359,0.927-5.947,5.256-0.45,3.316.994,5,4.384,4.83,2.6-.13,5.178-0.522,7.767-0.795,7.853-.825,15.7-1.783,23.565-2.4,2.568-.2,3.861-1.187,4.7-3.491,1.234-3.4-.181-5.5-3.851-5.358-2.875.108-5.753,0.181-8.623,0.362q-4.7.3-9.388,0.775C24.856,218.4,21.743,218.81,18.626,219.176Zm28.7-20.8-0.009.61c0.8-.04,1.606-0.057,2.405-0.125,2.2-.187,4.32-1.827,4.393-3.374,0.11-2.333-1.529-3.885-4.324-4.336-3.567-.577-7.111-1.291-10.666-1.936-6.316-1.144-12.631-2.3-18.953-3.408a2.791,2.791,0,0,0-3.533,2.156c-0.547,1.907-1.155,3.8-1.658,5.715-0.624,2.384.567,3.893,3.061,3.957Q32.688,198.007,47.331,198.374Zm8.654-21.323c1.623-.538,3.812.5,4.5-1.881,0.531-1.83-.815-4.2-2.954-5.241-4.879-2.366-9.767-4.717-14.7-6.96-4.022-1.828-8.172-3.38-12.169-5.259-3.633-1.708-5.452-1.165-6.8,2.644a13.362,13.362,0,0,0-.692,4.132,3.044,3.044,0,0,0,2.591,3.33,40.99,40.99,0,0,1,4.492,1.058c7.362,2.454,14.695,4.995,22.057,7.447A28.428,28.428,0,0,0,55.985,177.051ZM22.373,171.22a6.718,6.718,0,0,0-2.047,1.733,12.949,12.949,0,0,0-1.053,3.8c-0.409,2.3.238,3.185,2.454,3.805A123.941,123.941,0,0,0,37.873,184.2c4.871,0.686,9.648,2.036,14.475,3.054a3.413,3.413,0,0,0,4.039-1.878,3.508,3.508,0,0,0-1.491-4.354A11.737,11.737,0,0,0,52,179.69q-13.07-3.919-26.168-7.747C24.872,171.662,23.87,171.528,22.373,171.22Zm264.481,22.665c-0.034-2.877-1.561-4.117-4.1-3.443-4.394,1.164-8.728,2.552-13.087,3.845-1.668.5-3.377,0.885-4.993,1.515-1.671.651-1.682,1.451-.387,2.581a25.726,25.726,0,0,1,3.371,3.4c3.045,3.877,5.988,7.835,8.973,11.759,0.981,1.289,1.812,1.234,2.409-.258,1.063-2.659,2-5.369,3.052-8.032,1.2-3.041,2.469-6.058,3.725-9.079C286.193,195.264,286.63,194.375,286.854,193.885Zm-32.042,34.2L255,228.6a12.625,12.625,0,0,0,2.617-1.49c4.09-3.843,8.112-7.76,12.145-11.665,2.128-2.061,2.245-3.285.3-5.549a32.479,32.479,0,0,0-4.241-4.16,2.323,2.323,0,0,0-2.164.422c-3.567,3.677-7,7.484-10.524,11.2-2.292,2.419-4.7,4.727-6.99,7.149-1.213,1.283-.934,1.891.781,2.475C249.48,227.855,251.987,228.948,254.812,228.089Zm-13.795,9.123h-0.007a42.063,42.063,0,0,0,.063,5.2c0.108,0.861.777,2.254,1.368,2.352a92.654,92.654,0,0,0,9.331.948,1.836,1.836,0,0,0,2.064-2.137c-0.021-1.872-.09-3.749.016-5.615,0.29-5.1-2.313-7.006-7.3-6.715a9.2,9.2,0,0,1-3.307-.374c-1.568-.509-2.171.078-2.216,1.527C240.979,234,241.018,235.608,241.018,237.212Z"/>
  <path id="_Path_" data-name="&lt;Path&gt;" class="cls-1" d="M231.809,418.54c-7.764-.927-15.35-1.207-22.688-3.854-6.728-2.427-13.735-4.093-19.823-8.044a41.05,41.05,0,0,1-4.364-3.487c-0.87-.752-0.747-1.536.036-2.415,2.262-2.537,4.472-2.834,7.4-.92a58.725,58.725,0,0,0,26.595,9.484c6.383,0.638,12.8,1.578,19.179,1.467,7.578-.131,15.009-1.628,21.453-6.2,2.508-1.779,5.307-3.157,7.751-5.011,2.97-2.253,5.6-4.958,8.591-7.178a11.175,11.175,0,0,1,4.912-1.9c2.324-.336,3.729,1.569,3.073,3.856a13.129,13.129,0,0,1-6.135,8.319c-5.062,2.884-9.957,6.063-15.053,8.882a51.386,51.386,0,0,1-20.117,5.888C238.955,417.782,235.3,418.178,231.809,418.54Z"/>
  <path id="_Path_2" data-name="&lt;Path&gt;" class="cls-1" d="M373.908,189.107a4.032,4.032,0,0,1-.008.8c-0.191.919-.414,1.83-0.626,2.744-1.234-.524-3-0.712-3.587-1.643a17.985,17.985,0,0,1-2.207-5.948c-0.886-4.323-1.49-8.7-2.216-13.061a9.725,9.725,0,0,1-.283-1.373c-0.1-5.752-1.9-11.135-3.2-16.667a62.9,62.9,0,0,0-7.117-17.383c-3.976-6.813-8.239-13.586-15.357-17.66-3.47-1.986-7.244-3.442-10.891-5.116-3.4-1.563-6.877-2.989-10.216-4.68-2.211-1.119-3.057-2.935-2.54-4.934a2.338,2.338,0,0,1,1.42-1.547,11.616,11.616,0,0,1,4.856.21,92.592,92.592,0,0,1,12.925,5.488,103.923,103.923,0,0,1,11.343,7.9c7.2,5.354,11.075,13.125,14.657,20.988a117.325,117.325,0,0,1,6.187,16.08c2.36,8.212,5.068,16.374,5.388,25.081,0.131,3.572,1.152,7.112,1.768,10.667Z"/>
  <path id="_Path_3" data-name="&lt;Path&gt;" class="cls-1" d="M223.933,382.755c-3.571-.757-8.038-1.716-12.512-2.648-2.7-.563-5.552-0.726-8.083-1.714a43.533,43.533,0,0,1-8.689-4.768c-0.753-.518-0.874-2.422-0.735-3.627,0.116-1.009.472-2.41,2.249-2.244,0.7,0.066,1.446-.544,2.2-0.708,2.122-.462,3.453,1.16,4.936,2.133,4.2,2.754,8.615,4.7,13.719,4.914a44.533,44.533,0,0,1,6.366.711c3.885,0.73,7.576-.178,11.276-1.082a32.573,32.573,0,0,0,5.774-1.671c4.174-1.9,8.279-3.957,12.329-6.106,2.3-1.219,4.411-2.781,6.659-4.1a1.673,1.673,0,0,1,1.514.043c1.773,1.392,3.063,6.408,2.223,8.487a2.156,2.156,0,0,1-1,1.078c-3.906,1.735-7.952,3.192-11.733,5.161-4.852,2.528-10.073,3.563-15.336,4.519C231.738,381.74,228.348,382.122,223.933,382.755Z"/>
  <path id="_Path_4" data-name="&lt;Path&gt;" class="cls-1" d="M339.273,184.14c0,2.281.17,4.579-.05,6.839a24.149,24.149,0,0,1-1.344,5.58c-0.14.4-1.365,0.613-2.065,0.561a2.218,2.218,0,0,1-1.662-.943,8.678,8.678,0,0,1-.568-3.125c-0.061-3.958-.037-7.917-0.024-11.876,0.028-8.49-2.64-16.163-7.028-23.322-0.735-1.2-1.476-2.4-2.134-3.641-3.273-6.172-9.132-9.169-14.957-12.194-3.019-1.568-6.092-3.033-9.127-4.571a2.051,2.051,0,0,1-1.063-.874,7.818,7.818,0,0,1-.394-2.964,2.731,2.731,0,0,1,2.035-.517,39.584,39.584,0,0,1,13.5,5.483c2.68,1.776,5.3,3.661,8.073,5.274a18.275,18.275,0,0,1,6.665,7.349c2.246,4.029,4.674,7.984,6.555,12.18a35.486,35.486,0,0,1,3.58,14.118C339.291,179.712,339.271,181.926,339.273,184.14Z"/>
  <path id="_Path_5" data-name="&lt;Path&gt;" class="cls-1" d="M221.989,353.928c-2.6-.564-6.79-1.344-10.9-2.451a5.564,5.564,0,0,1-3-2.47,4.056,4.056,0,0,1-.247-3.485,3.484,3.484,0,0,1,4-1.382c9.984,2.365,19.867,3.014,29.065-2.849a9.355,9.355,0,0,0,2.339-1.866c1.241-1.554,2.361-.862,3.029.272a7.749,7.749,0,0,1,1.393,4.27,5,5,0,0,1-2.426,3.261C238.493,350.792,231.518,353.8,221.989,353.928Z"/>
  <path id="_Path_6" data-name="&lt;Path&gt;" class="cls-1" d="M317.311,193.729c-0.581.373-1.348,1.224-2.181,1.294-0.778.066-2.233-.569-2.348-1.115-1.068-5.079-4.029-9.307-6.05-13.946a16.272,16.272,0,0,0-6.08-7.047c-3.1-2.069-6.275-4.056-9.235-6.316a3.785,3.785,0,0,1-1.016-3.078c0.221-1.407,1.551-1.983,2.98-1.633,9.113,2.233,15.995,7.221,19.759,16.061,1.947,4.572,3.693,9.189,4.007,14.217C317.168,192.5,317.216,192.832,317.311,193.729Z"/>
  <path id="_Compound_Path_2" data-name="&lt;Compound Path&gt;" class="cls-2" d="M194.257,260.6l-34.5-8.135-0.247-.8,11.58-16.6c-17.464-6.453-35.051-13.074-51.985-21.719-2.189,3.758-2.6,8.3-2.862,12.8-0.264,4.538-.058,9.1-0.058,13.943a28.694,28.694,0,0,1-2.88-.4c-5-1.2-9.986-2.5-15.005-3.628-1.355-.305-1.535-1.017-1.423-2.124,0.6-5.921,1.121-11.851,1.812-17.761,0.409-3.5,1.014-6.975,1.676-10.434a21.106,21.106,0,0,1,1.33-2.9c1.216-3.337,2.375-6.694,3.541-10.049A42.922,42.922,0,0,1,117.106,174.7a44.784,44.784,0,0,0,3.565-3.544,4.466,4.466,0,0,1,4.851-1.569c3.811,1,7.629,1.979,11.447,2.953,4.788,1.222,9.6,2.353,14.362,3.676,2.641,0.734,5.165,1.888,7.8,2.657,2.821,0.824,5.745,1.3,8.56,2.138,8.194,2.445,16.36,4.986,24.529,7.512,2.61,0.807,5.2,1.675,7.8,2.534,2.292,0.759,2.844,2.012,1.565,4.109-1.883,3.088-3.975,6.048-5.894,9.115a44.091,44.091,0,0,0-5.7,14.85c-0.82,4.013-1.915,7.907-1.692,12.049,0.406,7.539-.018,15.194,3.139,22.34,0.97,2.2,2.042,4.346,3.067,6.517Zm-15.823-48.631c-2.413-.673-4.446-1.186-6.446-1.807q-9.749-3.028-19.478-6.124c-3.349-1.063-6.631-2.392-10.037-3.21-4.541-1.091-9.192-1.72-13.758-2.718-1.7-.372-2.4.065-2.855,1.707-0.841,3.021-.729,3.415,2.156,4.624a21.254,21.254,0,0,1,2.535,1.2,40.255,40.255,0,0,0,14.065,5.405c5.688,0.868,10.671,3.536,16.053,5.131,4.212,1.248,8.279,2.983,12.7,3.4a2.27,2.27,0,0,0,1.855-.67C176.363,216.738,177.3,214.466,178.434,211.967Z"/>
  <path id="_Compound_Path_3" data-name="&lt;Compound Path&gt;" class="cls-2" d="M57.389,219.157c1.553-8.889,3.376-17.742,4.573-26.679,0.906-6.768,3.786-12.449,7.64-17.861a50.207,50.207,0,0,0,4.356-7.214,30.366,30.366,0,0,1,8.3-9.946c2.533-2.116,5.61-1.278,8.433-.231,5.453,2.021,10.862,4.161,16.317,6.177,3.428,1.267,4.389,4.428,2.514,7.606-4.383,7.427-8.728,14.882-12.856,22.453-2.541,4.66-3.2,9.892-3.777,15.123-0.763,6.923-1.7,13.827-2.637,20.729-0.411,3.028-3.091,4.243-5.865,2.948a64.289,64.289,0,0,0-7.582-3.084c-4.969-1.586-10-2.961-15.014-4.421a5.428,5.428,0,0,1-3.834-5.5ZM96.271,178.3a9.354,9.354,0,0,0,1.651-2.671c0.194-.9.057-2.387-0.537-2.864-2.945-2.364-5.851-4.936-9.713-5.705a3.065,3.065,0,0,0-2.575.688c-2.012,2.819-4.283,5.61-5.543,8.777-2.26,5.682-5.24,11.149-6.037,17.361-0.584,4.556-1.327,9.091-1.888,13.649a2.218,2.218,0,0,0,.853,1.8c2.553,1.455,4.358.4,4.218-2.555-0.465-9.808,3.094-18.486,7.47-26.92a17.518,17.518,0,0,1,3.217-4.072,3.211,3.211,0,0,1,4.385-.5Z"/>
  <path id="_Path_7" data-name="&lt;Path&gt;" class="cls-2" d="M194.268,231.07a40.079,40.079,0,0,1,4.439-19.783,25.337,25.337,0,0,1,14.6-12.521,17.166,17.166,0,0,1,9.849-.491,8.76,8.76,0,0,1,6.487,5.744c1.707,4.918,4.027,9.666,4.066,15.029a12.789,12.789,0,0,1-.224,1.983c-0.216,1.428-.993,1.9-2.422,1.547q-6.1-1.5-12.234-2.88c-2.254-.5-4.53-0.94-6.817-1.248a2.87,2.87,0,0,0-1.958.667,8.583,8.583,0,0,0-3.3,6.616,30.579,30.579,0,0,1-.429,3.975,15.294,15.294,0,0,0,1.867,10.079c0.88,1.51,3.761,1.866,5.753,2.707,0.775,0.328,1.594.548,2.387,0.835,1.367,0.494,1.621,1.606,1.654,2.892,0.1,3.937.366,7.876,0.261,11.806a3.715,3.715,0,0,1-1.918,2.743,62.6,62.6,0,0,1-8.2,2.338,13.1,13.1,0,0,1-3.011.034c-3.026-.013-4.877-1.667-6.337-4.186-3.218-5.552-3.4-11.748-3.981-17.852C194.473,237.775,194.433,234.416,194.268,231.07Z"/>
  <path id="_Path_8" data-name="&lt;Path&gt;" class="cls-2" d="M45.451,348.742a25.138,25.138,0,0,1,1.222-3.564q5.824-11.314,11.766-22.567c1.218-2.319,2.705-2.805,5.121-1.642,6.488,3.123,12.95,6.3,19.435,9.432,1.381,0.666,2.855,1.144,4.215,1.846,1.091,0.563,1.389,1.4.74,2.657-4.36,8.427-8.639,16.9-12.977,25.334-1.061,2.063-1.948,2.442-4.064,1.57q-11.392-4.693-22.727-9.525A3.812,3.812,0,0,1,45.451,348.742Z"/>
  <path id="_Path_9" data-name="&lt;Path&gt;" class="cls-2" d="M126.507,343.849c-3.676-1.655-7.165-3.153-10.589-4.785-4.975-2.372-9.891-4.865-14.857-7.255-1.642-.79-2.236-2.141-1.57-3.634,2.17-4.865,4.554-9.634,6.816-14.459,1.189-2.535,2.3-5.108,3.434-7.667,0.08-.181.085-0.395,0.164-0.576,2.337-5.311,3.076-5.663,8.319-3.321,6.511,2.908,12.966,5.942,19.441,8.929a8.236,8.236,0,0,1,1.218.7c2.261,1.56,2.343,1.928,1.16,4.357q-6.286,12.9-12.56,25.807C127.193,342.539,126.88,343.122,126.507,343.849Z"/>
  <path id="_Path_10" data-name="&lt;Path&gt;" class="cls-2" d="M90.038,416.43c-2.8-1.412-5.2-2.564-7.553-3.814-6.378-3.393-12.727-6.842-19.1-10.236-1.459-.777-2.206-1.663-1.23-3.34q3.521-6.046,6.948-12.146c0.884-1.573,1.625-3.225,2.472-4.818,1.1-2.063,2.147-4.16,3.382-6.14,1.388-2.226,3.761-2.477,5.859-.941a34.222,34.222,0,0,0,3.634,2.08c1.984,1.107,3.976,2.2,5.957,3.312,3.433,1.927,6.781,4.026,10.313,5.749,2.968,1.448,3.711,2.826,2.268,5.821-3.6,7.465-7.2,14.928-10.874,22.355A10.185,10.185,0,0,1,90.038,416.43Z"/>
  <path id="_Path_11" data-name="&lt;Path&gt;" class="cls-2" d="M122.54,351.912c-0.637,1.31-1.305,2.681-1.971,4.053q-5.378,11.085-10.76,22.169c-1.145,2.351-1.817,2.7-4.035,1.5-7.171-3.883-14.336-7.781-21.385-11.879-3.147-1.83-3.076-2.925-1.1-6.081,1.309-2.09,2.217-4.427,3.41-6.6,1.931-3.509,3.967-6.96,5.921-10.456a30.483,30.483,0,0,0,1.942-3.925c0.885-2.316,2.213-2.89,4.523-2.043a94.657,94.657,0,0,1,18.136,8.944A58.522,58.522,0,0,1,122.54,351.912Z"/>
  <path id="_Path_12" data-name="&lt;Path&gt;" class="cls-2" d="M68.37,372.423a22.872,22.872,0,0,1-1.051,2.981c-3.076,6.018-6.163,12.032-9.354,17.99a9.593,9.593,0,0,1-2.7,3.139,3.321,3.321,0,0,1-2.778.284c-4.171-1.771-8.241-3.779-12.383-5.619-3.057-1.358-6.154-2.63-9.267-3.855-3.888-1.531-4.636-3.033-2.764-6.742,3.132-6.206,6.435-12.326,9.66-18.486,0.433-.828.858-1.663,1.233-2.518,0.755-1.721,2.12-2.348,3.766-1.663,7.026,2.925,14.359,5.206,20.654,9.706a11.412,11.412,0,0,0,2.409.964A3.753,3.753,0,0,1,68.37,372.423Z"/>
  <path id="_Path_13" data-name="&lt;Path&gt;" class="cls-1" d="M123.939,225.29a22.525,22.525,0,0,1,3.3.668c8.033,2.966,16.038,6.007,24.07,8.974,2.006,0.741,4.1,1.245,6.119,1.949,3.2,1.114,4.025,3.407,2.251,6.292-4.1,6.67-8.266,13.3-12.354,19.979-0.776,1.268-1.626,1.936-3.09,1.215-3.234-1.592-6.455-3.21-9.693-4.792-3.429-1.675-6.858-3.352-10.318-4.963a2.9,2.9,0,0,1-1.959-2.934c0.122-7.212.121-14.426,0.341-21.635C122.649,228.517,123.434,227.013,123.939,225.29Z"/>
  <path id="_Path_14" data-name="&lt;Path&gt;" class="cls-2" d="M106.012,299.056c-0.422,1.088-.587,1.654-0.85,2.171q-5.722,11.255-11.471,22.5a4.364,4.364,0,0,1-5.412,2.019c-4.506-2.032-8.959-4.179-13.434-6.28-2.116-.994-4.2-2.063-6.353-2.966-3.043-1.276-3.613-2.754-2.215-5.764,2.816-6.061,5.621-12.128,8.338-18.234,2.515-5.653,3.79-6.043,9.547-3.643,4.8,2,9.8,3.549,14.689,5.34a25.811,25.811,0,0,1,4.946,2.124C104.777,296.937,105.349,298.2,106.012,299.056Z"/>
  <path id="_Path_15" data-name="&lt;Path&gt;" class="cls-2" d="M187.159,159.888c2.562-5.9,5.026-11.6,7.511-17.284,1.177-2.7,2.314-5.414,3.653-8.029a2.578,2.578,0,0,1,2.072-1.221c9.388,2.377,18.743,4.886,28.1,7.374a2.84,2.84,0,0,1,.579.346c-3.23,7.646-6.434,15.278-9.686,22.89-0.776,1.817-1.3,4.4-2.7,5.1-1.275.631-3.6-.789-5.435-1.376q-11.169-3.565-22.324-7.177C188.428,160.346,187.933,160.16,187.159,159.888Z"/>
  <path id="_Path_16" data-name="&lt;Path&gt;" class="cls-2" d="M76.214,447.225c-8.775-4.168-17.306-8.194-25.8-12.288a7.7,7.7,0,0,1-3.01-2.209,3.97,3.97,0,0,1-.539-3.24c1.559-3.609,3.425-7.085,5.187-10.606,1.494-2.988,3.008-5.965,4.494-8.957,0.71-1.428,1.718-1.693,3.143-1.032Q72.334,414.759,85,420.581c3,1.387,3.111,1.646,1.673,4.685C83.248,432.514,79.781,439.744,76.214,447.225Z"/>
  <path id="_Path_17" data-name="&lt;Path&gt;" class="cls-2" d="M144.288,305.556a40.14,40.14,0,0,1-4.361-1.148c-6.9-2.7-13.78-5.46-20.656-8.224-1.781-.716-1.865-2.226-1.334-3.708,1.06-2.959,2.156-5.92,3.472-8.771,2.32-5.023,4.843-9.952,7.219-14.95,0.561-1.182,1.049-1.506,2.386-.909,5.128,2.287,10.429,4.207,15.467,6.67a86.893,86.893,0,0,1,9.69,6.1,1.7,1.7,0,0,1,.377,1.6q-5.429,11.2-11.014,22.315A3.894,3.894,0,0,1,144.288,305.556Z"/>
  <path id="_Path_18" data-name="&lt;Path&gt;" class="cls-2" d="M123.808,264.83l-13.752,27.077c-3.194-1.5-6.169-2.9-9.153-4.287-0.662-.308-1.347-0.571-2.033-0.824-4.316-1.592-8.63-3.192-12.956-4.755-3.681-1.33-3.285-4.35-1.655-7.447,2.671-5.077,5.18-10.244,8-15.237a30.949,30.949,0,0,1,4.313-5.191,1.568,1.568,0,0,1,1.412-.221C106.553,257.523,115.105,261.15,123.808,264.83Z"/>
  <path id="_Path_19" data-name="&lt;Path&gt;" class="cls-2" d="M50.666,407.739c-0.289.659-.451,1.1-0.664,1.506q-4.569,8.818-9.159,17.626a4.106,4.106,0,0,1-1.142,1.614,2.617,2.617,0,0,1-2.042.438c-7.083-3.38-14.159-6.782-21.141-10.366a29.466,29.466,0,0,1-5.4-4.035,2.234,2.234,0,0,1,.106-1.892c1.44-2.869,3.012-5.671,4.492-8.52,1.6-3.08,3.134-6.194,4.725-9.28,1.08-2.1,2.92-3.015,5.1-2.038,3.676,1.647,7.662,2.65,10.791,5.514,1.435,1.313,3.5,1.921,5.242,2.919,2.436,1.4,4.879,2.8,7.224,4.336A10.1,10.1,0,0,1,50.666,407.739Z"/>
  <path id="_Path_20" data-name="&lt;Path&gt;" class="cls-2" d="M179.552,90.967l22.191,7.138c0.063,0.02.134,0.016,0.2,0.037,4.289,1.449,4.588,1.972,2.844,6.1C202,110.82,199.1,117.349,196.3,123.924a2.017,2.017,0,0,1-2.838,1.313c-4.1-1.168-8.241-2.22-12.348-3.375-3.762-1.058-7.506-2.179-11.25-3.3-1.165-.349-2.134-0.776-1.426-2.4,3.58-8.206,7.095-16.441,10.642-24.662A2.677,2.677,0,0,1,179.552,90.967Z"/>
  <path id="_Path_21" data-name="&lt;Path&gt;" class="cls-2" d="M241.944,110.814c-3.371,7.983-6.6,15.686-9.919,23.345a2.054,2.054,0,0,1-1.785.855c-5.939-1.578-11.842-3.287-17.762-4.937-2.383-.664-4.767-1.346-7.182-1.875-2.58-.566-3.376-1.9-2.358-4.232,2.648-6.065,5.268-12.143,7.928-18.2,1.2-2.744,2.623-3.176,5.418-2a38.638,38.638,0,0,0,4.214,1.2c1.723,0.5,3.421,1.1,5.156,1.552,3.747,0.983,7.514,1.887,11.265,2.855C238.526,109.8,240.112,110.29,241.944,110.814Z"/>
  <path id="_Path_22" data-name="&lt;Path&gt;" class="cls-2" d="M255.2,79.616l-10.765,25.579c-2.055-.724-3.92-1.406-5.8-2.038-5.888-1.977-11.775-3.959-17.677-5.891-2.964-.97-3.9-2.242-2.772-5.068,2.58-6.441,5.378-12.8,8.2-19.138,0.778-1.751,2.418-1.953,4.126-1.4,5.841,1.884,11.674,3.791,17.513,5.679C250.351,78.09,252.691,78.82,255.2,79.616Z"/>
  <path id="_Path_23" data-name="&lt;Path&gt;" class="cls-2" d="M181.217,158.049c-5.771-1.839-11.328-3.55-16.84-5.394-2.441-.816-4.806-1.867-7.179-2.876-1.737-.738-2.213-1.946-1.45-3.73,2.838-6.641,5.673-13.285,8.638-19.869a3.007,3.007,0,0,1,2.25-1.4,15.469,15.469,0,0,1,4.324.708c5.928,1.613,11.915,3.065,17.725,5.035,3.815,1.294,3.523,2.735,2.293,5.435-3.021,6.627-5.867,13.333-8.789,20.005C181.9,156.634,181.574,157.287,181.217,158.049Z"/>
  <path id="_Path_24" data-name="&lt;Path&gt;" class="cls-2" d="M193.268,59.516l26.943,9.737L209.273,94.077c-2.5-1.067-4.932-2.114-7.373-3.149-1.035-.439-2.071-0.882-3.125-1.272q-7.5-2.779-15.013-5.525c-0.851-.312-1.4-0.641-0.916-1.747C185.76,75.706,188.6,69,191.52,62.322A22,22,0,0,1,193.268,59.516Z"/>
  <path id="_Path_25" data-name="&lt;Path&gt;" class="cls-2" d="M195.9,53.726l10.065-22.065,26.426,9.828c-1.012,2.31-2.082,4.737-3.139,7.17-1.838,4.228-3.708,8.443-5.475,12.7-0.488,1.176-1.013,1.522-2.253,1.052-3.342-1.267-6.706-2.484-10.1-3.613-4.738-1.577-9.51-3.053-14.265-4.58C196.734,54.082,196.322,53.892,195.9,53.726Z"/>
  <path id="_Path_26" data-name="&lt;Path&gt;" class="cls-2" d="M230.974,65.436c3-7.007,5.894-13.738,8.758-20.482,0.436-1.026.956-1.465,2.144-1.052,8.2,2.855,16.417,5.659,24.871,8.563l-9.022,21.5Z"/>
  <path id="_Path_27" data-name="&lt;Path&gt;" class="cls-2" d="M249.213,17.9c8.325,2.868,16.163,5.565,24,8.269,2.75,0.949,3.608,2.3,2.571,4.993-1.847,4.8-3.946,9.508-6.015,14.22a1.555,1.555,0,0,1-1.383.609c-8.731-2.936-17.439-5.939-26.725-9.127Z"/>
  <path id="_Path_28" data-name="&lt;Path&gt;" class="cls-2" d="M216.781,6.674l26.766,9.271-8.173,18.9L208.843,25.2C212.354,19.373,211.735,12.011,216.781,6.674Z"/>
  <path id="_Path_29" data-name="&lt;Path&gt;" class="cls-1" d="M235.253,274.144c0,5.131.016,9.479-.008,13.828a2.672,2.672,0,0,1-2.8,2.825,50.889,50.889,0,0,1-7.224-.166c-1.9-.184-2.385-1.363-2.344-3.283,0.118-5.54.11-11.085,0.05-16.626-0.045-4.174-.215-8.348-0.4-12.518-0.051-1.181-.461-2.348-0.5-3.527-0.1-3.365-.136-6.734-0.048-10.1a2.247,2.247,0,0,1,1.764-.7c2.175,0.44,4.277,1.338,6.462,1.6,3.185,0.382,3.3.2,3.512,3.394C234.294,257.547,234.779,266.229,235.253,274.144Z"/>
  <path id="_Path_30" data-name="&lt;Path&gt;" class="cls-3" d="M73.848,152.7c0.028,3.236-1.354,4.112-4.418,4.041-4.542-.1-7.476-2.83-10.772-5.291-3.527-2.634-7.342-4.892-11.087-7.224-2.215-1.379-4.536-2.587-6.814-3.864-2.459-1.378-3.131-4.046-1.335-6.291a65.5,65.5,0,0,1,5.082-5.39c1.314-1.306,2.753-1.128,4.169-.071q8.59,6.416,17.185,12.825a59.961,59.961,0,0,1,5.516,4.254C73.322,147.538,73.851,150.07,73.848,152.7Z"/>
  <path id="_Path_31" data-name="&lt;Path&gt;" class="cls-1" d="M150.93,167.993c2.8-3.9,7.295-5.4,11.829-6.58,1.594-.414,3.562.16,5.252,0.652,6.162,1.8,12.275,3.759,18.414,5.632,2.11,0.644,4.249,1.193,6.365,1.816a3.137,3.137,0,0,1,2.368,3.356c-0.13,2.528,1.976,5.348-.729,7.524a3.336,3.336,0,0,1-2.611.384c-3.084-.858-6.1-1.975-9.164-2.9-6.081-1.829-12.161-3.665-18.282-5.351-2.766-.762-5.637-1.137-8.442-1.768a7.651,7.651,0,0,1-1.969-.953C152.963,169.242,151.991,168.631,150.93,167.993Z"/>
  <path id="_Path_32" data-name="&lt;Path&gt;" class="cls-3" d="M41.1,212.542c-6.641.593-13.279,1.219-19.924,1.763-2.268.186-4.554,0.239-6.83,0.221a3.121,3.121,0,0,1-2.862-3.769,43.644,43.644,0,0,1,1.394-6.36,3.391,3.391,0,0,1,2.457-1.851c4.672-.192,9.355-0.131,14.033-0.109s9.334,0.087,14,.162a34.2,34.2,0,0,1,5.011.248c3.325,0.55,4.39,3.192,3.041,6.232-1.273,2.87-3.142,4.153-6.269,3.767a32.98,32.98,0,0,0-4.019-.027Z"/>
  <path id="_Path_33" data-name="&lt;Path&gt;" class="cls-4" d="M213.469,294.923h27.05c-1.676,4.808-3.071,9.171-4.723,13.434-1.324,3.417-2.971,6.708-4.453,10.065-1.37,3.1-4.158,3.51-6.278.861a9.926,9.926,0,0,1-1.074-1.911c-1.389-2.87-2.779-5.74-4.129-8.628C217.776,304.281,215.723,299.8,213.469,294.923Z"/>
  <path id="_Path_34" data-name="&lt;Path&gt;" class="cls-3" d="M63.372,167.123a48.6,48.6,0,0,1-16.828-5.758c-4.316-2.281-8.594-4.653-13.025-6.69-2.048-.942-3.116-2.246-3.221-4.343-0.146-2.916.012-5.806,2.575-7.843a2.723,2.723,0,0,1,3.5-.235c4.506,2.868,9.073,5.64,13.6,8.469,3.275,2.045,6.507,4.159,9.8,6.172,1.539,0.94,3.193,1.69,4.771,2.567,2.162,1.2,3.139,3.843,1.773,5.824C65.616,166.311,64.035,166.734,63.372,167.123Z"/>
  <path id="_Compound_Path_4" data-name="&lt;Compound Path&gt;" class="cls-1" d="M210.781,231.166c-0.06-2.65.047-5.3,1.9-7.392a3.585,3.585,0,0,1,2.616-1.189,91.125,91.125,0,0,1,21.164,5.078c1.122,0.43,1.525,1.107,1.9,2.5,0.932,3.444-.473,6.642-0.245,9.975,0.195,2.845-.635,3.1-3.459,2.549-5.589-1.1-11.227-1.943-16.81-3.065a18.727,18.727,0,0,1-5.74-2.075c-0.792-.465-1.058-2.048-1.288-3.18A16.4,16.4,0,0,1,210.781,231.166ZM235,229.453c-5.706-1.132-11.3-2.241-16.887-3.346-0.129-.025-0.269.012-0.4-0.005a2.015,2.015,0,0,0-2.5,1.792c1.815,0.626,3.466,1.281,5.166,1.764,3.684,1.047,7.5,1.737,11.053,3.1,2.139,0.82,2.569-.1,3.095-1.595C234.683,230.741,234.774,230.3,235,229.453Z"/>
  <path id="_Path_35" data-name="&lt;Path&gt;" class="cls-3" d="M18.626,219.176c3.117-.366,6.23-0.774,9.353-1.087s6.255-.577,9.388-0.775c2.871-.182,5.748-0.254,8.623-0.362,3.669-.138,5.085,1.954,3.851,5.358-0.836,2.3-2.128,3.291-4.7,3.491-7.87.613-15.712,1.571-23.565,2.4-2.589.272-5.171,0.664-7.767,0.795-3.39.17-4.835-1.514-4.384-4.83,0.588-4.329,1.553-5.185,5.947-5.256,1.073-.017,2.146,0,3.218,0Z"/>
  <path id="_Path_36" data-name="&lt;Path&gt;" class="cls-3" d="M47.331,198.374q-14.642-.37-29.285-0.741c-2.493-.064-3.685-1.573-3.061-3.957,0.5-1.918,1.111-3.808,1.658-5.715a2.791,2.791,0,0,1,3.533-2.156c6.322,1.111,12.637,2.264,18.953,3.408,3.556,0.644,7.1,1.359,10.666,1.936,2.795,0.452,4.434,2,4.324,4.336-0.073,1.547-2.193,3.187-4.393,3.374-0.8.068-1.6,0.085-2.405,0.125Z"/>
  <path id="_Path_37" data-name="&lt;Path&gt;" class="cls-3" d="M55.985,177.051a28.428,28.428,0,0,1-3.68-.729c-7.362-2.452-14.7-4.993-22.057-7.447a40.99,40.99,0,0,0-4.492-1.058,3.044,3.044,0,0,1-2.591-3.33,13.362,13.362,0,0,1,.692-4.132c1.353-3.809,3.171-4.353,6.8-2.644,4,1.879,8.146,3.431,12.169,5.259,4.936,2.243,9.824,4.594,14.7,6.96,2.139,1.037,3.485,3.411,2.954,5.241C59.8,177.554,57.608,176.513,55.985,177.051Z"/>
  <path id="_Path_38" data-name="&lt;Path&gt;" class="cls-3" d="M22.373,171.22c1.5,0.308,2.5.442,3.457,0.723Q38.923,175.785,52,179.69a11.737,11.737,0,0,1,2.9,1.332,3.508,3.508,0,0,1,1.491,4.354,3.413,3.413,0,0,1-4.039,1.878c-4.827-1.018-9.6-2.368-14.475-3.054a123.941,123.941,0,0,1-16.145-3.638c-2.217-.621-2.864-1.5-2.454-3.805a12.949,12.949,0,0,1,1.053-3.8A6.718,6.718,0,0,1,22.373,171.22Z"/>
  <path id="_Path_39" data-name="&lt;Path&gt;" class="cls-4" d="M286.854,193.885c-0.224.49-.661,1.379-1.04,2.292-1.256,3.02-2.522,6.037-3.725,9.079-1.054,2.663-1.99,5.373-3.052,8.032-0.6,1.492-1.428,1.547-2.409.258-2.985-3.924-5.928-7.882-8.973-11.759a25.726,25.726,0,0,0-3.371-3.4c-1.3-1.13-1.285-1.93.387-2.581,1.616-.629,3.325-1.019,4.993-1.515,4.359-1.294,8.694-2.682,13.087-3.845C285.293,189.769,286.82,191.008,286.854,193.885Z"/>
  <path id="_Path_40" data-name="&lt;Path&gt;" class="cls-1" d="M254.812,228.089c-2.826.86-5.332-.234-7.89-1.106-1.715-.584-1.994-1.192-0.781-2.475,2.289-2.422,4.7-4.73,6.99-7.149,3.524-3.72,6.957-7.527,10.524-11.2a2.323,2.323,0,0,1,2.164-.422,32.479,32.479,0,0,1,4.241,4.16c1.942,2.264,1.825,3.488-.3,5.549-4.032,3.9-8.054,7.821-12.145,11.665A12.625,12.625,0,0,1,255,228.6Z"/>
  <path id="_Path_41" data-name="&lt;Path&gt;" class="cls-1" d="M241.018,237.212c0-1.6-.039-3.209.012-4.811,0.046-1.448.649-2.036,2.216-1.527a9.2,9.2,0,0,0,3.307.374c4.988-.291,7.591,1.616,7.3,6.715-0.106,1.866-.037,3.743-0.016,5.615a1.836,1.836,0,0,1-2.064,2.137,92.654,92.654,0,0,1-9.331-.948c-0.591-.1-1.26-1.491-1.368-2.352a42.063,42.063,0,0,1-.063-5.2h0.007Z"/>
  <path id="_Path_42" data-name="&lt;Path&gt;" d="M178.434,211.967c-1.13,2.5-2.07,4.77-3.211,6.936a2.27,2.27,0,0,1-1.855.67c-4.422-.419-8.489-2.153-12.7-3.4-5.382-1.6-10.365-4.264-16.053-5.131a40.255,40.255,0,0,1-14.065-5.405,21.254,21.254,0,0,0-2.535-1.2c-2.884-1.209-3-1.6-2.156-4.624,0.457-1.642,1.153-2.079,2.855-1.707,4.567,1,9.217,1.627,13.758,2.718,3.406,0.818,6.688,2.147,10.037,3.21q9.731,3.088,19.478,6.124C173.988,210.781,176.021,211.295,178.434,211.967Z"/>
  <path id="_Path_43" data-name="&lt;Path&gt;" d="M96.271,178.3l-4.5-3.006a3.211,3.211,0,0,0-4.385.5,17.518,17.518,0,0,0-3.217,4.072c-4.377,8.434-7.936,17.112-7.47,26.92,0.14,2.951-1.665,4.01-4.218,2.555a2.218,2.218,0,0,1-.853-1.8c0.561-4.558,1.3-9.094,1.888-13.649,0.8-6.212,3.777-11.679,6.037-17.361,1.26-3.167,3.53-5.958,5.543-8.777a3.065,3.065,0,0,1,2.575-.688c3.862,0.769,6.768,3.341,9.713,5.705,0.594,0.477.731,1.961,0.537,2.864A9.354,9.354,0,0,1,96.271,178.3Z"/>
  <path id="_Path_44" data-name="&lt;Path&gt;" d="M235,229.453c-0.229.845-.321,1.288-0.469,1.71-0.525,1.491-.955,2.415-3.095,1.595-3.557-1.364-7.369-2.054-11.053-3.1-1.7-.483-3.352-1.138-5.166-1.764a2.015,2.015,0,0,1,2.5-1.792c0.131,0.017.272-.02,0.4,0.005C223.707,227.212,229.3,228.322,235,229.453Z"/>
</svg>
