<svg id="Layer_1" data-name="Layer 1" xmlns="http://www.w3.org/2000/svg" viewBox="0 0 288.773 596.158">
  <defs>
    <style>
      .cls-1 {
        fill: #ebe784;
      }

      .cls-1, .cls-8, .cls-9 {
        stroke: #1a1818;
        stroke-miterlimit: 10;
        stroke-width: 2px;
      }

      .cls-2 {
        fill: #46b6d6;
      }

      .cls-3 {
        fill: #c7c9cb;
      }

      .cls-4 {
        fill: #34a85e;
      }

      .cls-5 {
        fill: #ca6e9a;
      }

      .cls-6 {
        fill: #1a1818;
      }

      .cls-7, .cls-9 {
        fill: #fff;
      }

      .cls-8 {
        fill: none;
      }
    </style>
  </defs>
  <title>72db508a-205e-4519-b326-19e8cf59e781</title>
  <path id="_Path_" data-name="&lt;Path&gt;" class="cls-1" d="M67.669,138.782s3.6,7.047,0,10.4l10.648,0s-5.964-9.192-2.772-10.972Z"/>
  <path id="_Path_2" data-name="&lt;Path&gt;" class="cls-1" d="M129.854,192.2s-2.64,10.667-4.66,13.333l9.013,2.667a35.633,35.633,0,0,1,0-11.688C135.284,190.2,129.854,192.2,129.854,192.2Z"/>
  <path id="_Compound_Path_" data-name="&lt;Compound Path&gt;" d="M135.962,403.418c0-.917-0.048-1.838.017-2.75a17.852,17.852,0,0,1,.373-1.878c0.269-1.485.465-2.987,0.8-4.457,0.408-1.794.888-3.575,1.421-5.336a8.555,8.555,0,0,1,.942-1.7q0.777-1.332,1.568-2.656c0.652-1.085,1.25-2.209,1.988-3.232,0.9-1.25,1.894-2.438,2.9-3.6,0.761-.878,1.659-1.64,2.408-2.527,0.8-.941,1.475-1.979,2.228-2.956a34.416,34.416,0,0,0,2.3-3.533,12.082,12.082,0,0,1,1.8-1.98c0.686-.719,1.358-1.455,2.084-2.131a15.829,15.829,0,0,1,3.409-2.633,2.187,2.187,0,0,0,.974-1.007c0.571-1.095,1.228-2.147,1.761-3.259a17.438,17.438,0,0,1,2.508-3.373c0.956-1.17,1.925-2.33,2.924-3.462,0.609-.69,1.292-1.314,1.932-1.978q1.954-2.028,3.894-4.07a10.9,10.9,0,0,0,1-1.177,3.071,3.071,0,0,1,1.591-1.522,1.025,1.025,0,0,0,.362-0.356,12.008,12.008,0,0,1,1.069-1.216c0.892-.773,1.832-1.489,2.747-2.236a5.094,5.094,0,0,0,.424-0.436c0.473-.491.947-0.981,1.417-1.475a1.258,1.258,0,0,0,.321-0.4,3.569,3.569,0,0,1,1.859-1.817,3.294,3.294,0,0,0,.835-0.758,1.616,1.616,0,0,1,1.441-.659,35.87,35.87,0,0,1,5.428.4,5.077,5.077,0,0,1,3.565,2.859,22.893,22.893,0,0,0,2.541,3.732,2.829,2.829,0,0,1,.289.292,19.013,19.013,0,0,1,2.044,4.243,1.724,1.724,0,0,0,.122.385,24.651,24.651,0,0,0,1.891,3.533c1.231,1.641,2.081,3.584,3.775,4.876a2.334,2.334,0,0,1,.681,1.006,1.41,1.41,0,0,0,.928.882c0.518,0.18,1.036.366,1.564,0.513a77.728,77.728,0,0,1,9.1,3.523,42.065,42.065,0,0,1,7.179,3.794c0.912,0.61,1.953,1.049,2.794,1.738,1.213,0.994,2.3,2.144,3.435,3.228a6.865,6.865,0,0,0,.6.562,9.565,9.565,0,0,1,1.652,1.806c0.7,0.87,1.041,2.1,2.232,2.542a0.658,0.658,0,0,1,.226.209,21.806,21.806,0,0,0,4.217,3.419,11.2,11.2,0,0,1,.836.763c0.613,0.543,1.24,1.069,1.843,1.623s1.182,1.146,1.786,1.707c0.453,0.42.947,0.8,1.386,1.23s0.814,0.916,1.24,1.357c0.593,0.615,1.218,1.2,1.808,1.818,0.759,0.8,1.532,1.582,2.23,2.43a14.141,14.141,0,0,1,.937,1.576c0.69,1.108,1.411,2.2,2.089,3.314,0.248,0.409.4,0.876,0.611,1.308,0.362,0.738.716,1.481,1.121,2.2a1.7,1.7,0,0,0,.616.531,10.917,10.917,0,0,0,3.245,1.269c1.233,0.284,2.443.674,3.652,1.053,2.448,0.767,4.817,1.8,7.418,2.025,1.4,0.121,2.8.316,4.2,0.51,0.68,0.094,1.348.275,2.026,0.392,1.288,0.222,2.574.473,3.871,0.628a5.725,5.725,0,0,1,4.421,2.728c2.141,3.634,2.676,7.47.662,11.4-0.454.886-.914,1.769-1.387,2.645a2.442,2.442,0,0,1-.477.658,4.651,4.651,0,0,0-1.3,1.7c-0.146.36-.578,0.6-0.766,0.949a9.6,9.6,0,0,1-3.11,3.045,6.884,6.884,0,0,1-1.977,1.449,0.437,0.437,0,0,0-.166.12c-0.793.8-1.566,1.626-2.38,2.407a27.031,27.031,0,0,1-5.168,3.915,26.234,26.234,0,0,1-2.784,1.54c-1.512.645-3.071,1.183-4.627,1.72a9.6,9.6,0,0,1-3.506.7,1.035,1.035,0,0,0-1.07.936,30.851,30.851,0,0,1-1.7,5.061,10.464,10.464,0,0,1-.642,1.15q-0.313.582-.6,1.179c-0.3.618-.544,1.263-0.877,1.859a13.891,13.891,0,0,1-2.24,3.563,0.55,0.55,0,0,0-.2.231c-0.137,1.13-1.19,1.631-1.694,2.5A27.2,27.2,0,0,1,248,457.075q-2.33,2.807-4.756,5.535a13.894,13.894,0,0,1-4.658,3.831,5.085,5.085,0,0,0-1.509,1.062,8.535,8.535,0,0,1-2.071,1.322c-0.929.512-1.821,1.092-2.731,1.639a1.856,1.856,0,0,1-.455.238c-1.125.3-2.255,0.574-3.382,0.862a3.035,3.035,0,0,0-.973.287,2.468,2.468,0,0,1-1.427.51,1.1,1.1,0,0,0-.478.172,11.534,11.534,0,0,1-4.354,1.35,1.37,1.37,0,0,0-.592.145,4.375,4.375,0,0,1-2.272.565,2.137,2.137,0,0,0-.512.058,28.98,28.98,0,0,1-3.7,1.164c-1.6.281-3.219,0.765-4.888,0.359a5.086,5.086,0,0,0-1.128-.089c-0.927-.012-1.854,0-2.847,0a32.685,32.685,0,0,1,.875,3.317,35.4,35.4,0,0,1,.906,5.165,12.217,12.217,0,0,0,.4,1.592c0.183,1.182.282,2.377,0.465,3.559,0.174,1.122.446,2.228,0.614,3.351,0.356,2.38.665,4.768,1.009,7.15,0.25,1.734.555,3.461,0.78,5.2,0.2,1.566.328,3.141,0.495,4.712a2.76,2.76,0,0,0,.141.707,42.605,42.605,0,0,1,2.134,8.794c0.115,0.711.228,1.423,0.332,2.135,0.254,1.736-.459,3.314-0.843,4.942a2.711,2.711,0,0,1-.616.942,10.719,10.719,0,0,1-1.547,1.793c-0.786.619-1.634,1.154-2.415,1.8a3.881,3.881,0,0,1-1.866.428c-0.915.118-1.847,0.122-2.758,0.261a15.265,15.265,0,0,1-4.708-.371,11,11,0,0,1-1.628-.632,9.756,9.756,0,0,1-2.4-.891c-0.6-.387-1.045-0.116-1.3.673-0.292.917-.494,1.863-0.8,2.774-0.9,2.7-1.3,5.562-2.523,8.163-0.626,1.33-1.273,2.65-1.905,3.977-0.4.835-.749,1.7-1.185,2.509-0.827,1.542-1.811,3.009-2.525,4.6a14.069,14.069,0,0,1-2.646,3.9c-0.746.795-1.554,1.532-2.29,2.335-0.485.53-.891,1.132-1.335,1.7a7.29,7.29,0,0,1-.586.72c-0.779.769-1.6,1.5-2.351,2.291a4.24,4.24,0,0,0-.853,1.271c-0.835,2.036-1.617,4.094-2.423,6.142a18.457,18.457,0,0,1-2.181,4.2,14.492,14.492,0,0,0-.971,1.581,18.63,18.63,0,0,1-2.893,4c-1.644,1.708-3.267,3.438-4.965,5.091-0.855.832-1.856,1.514-2.787,2.267a2.51,2.51,0,0,0-.446.417,13.227,13.227,0,0,1-3.209,2.866,19.879,19.879,0,0,0-2.226,1.8,7.541,7.541,0,0,1-2.831,1.834,1.937,1.937,0,0,0-.554.258,4.323,4.323,0,0,1-3.6.628,6.12,6.12,0,0,1-3.9-2.64,1.789,1.789,0,0,0-.271-0.311,9.145,9.145,0,0,1-2.782-5.511c-0.176-.876-0.437-1.735-0.6-2.612-0.366-1.923-.7-3.851-1.039-5.779-0.351-2-1.109-3.908-1.2-5.959a1.021,1.021,0,0,0-.768-0.992c-0.819-.259-1.62-0.59-2.453-0.792-1.6-.388-3.221-0.695-4.828-1.06-0.5-.114-0.987-0.3-1.477-0.466s-0.97-.323-1.45-0.5c-0.387-.141-0.768-0.3-1.15-0.454-1.048-.423-2.092-0.859-3.146-1.267a1.318,1.318,0,0,0-1.563.353c-1.074,1.054-2.261,1.994-3.382,3a15.975,15.975,0,0,1-3.527,2.311,0.756,0.756,0,0,0-.28.11c-0.481.907-1.466,1.215-2.2,1.818-2.125,1.757-4.365,3.247-7.316,3.355a17.823,17.823,0,0,1-4.61-.225,12.324,12.324,0,0,1-1.9-.733c-0.19-.078-0.356-0.221-0.549-0.286-2.7-.91-3.918-3.083-4.7-5.579-0.421-1.343-.685-2.735-1-4.109a4.758,4.758,0,0,1-.093-0.923c-0.066-2.166-.1-4.333-0.192-6.5-0.1-2.327-.211-4.655-0.38-6.977-0.167-2.3-.425-4.59-0.614-6.887a13.733,13.733,0,0,1,.043-1.65,35.179,35.179,0,0,1,.214-4.318,5.662,5.662,0,0,0-.683-3.343c-1.38-3.159-1.774-6.558-2.374-9.912a17.78,17.78,0,0,1,.16-5.937c0.142-.916.172-1.85,0.28-2.772,0.132-1.124.272-2.247,0.444-3.365,0.209-1.358.433-2.714,0.693-4.062,0.123-.635.348-1.25,0.522-1.876a3.364,3.364,0,0,0,.2-0.8c0.047-2.451.956-4.7,1.612-7.01,0.169-.594.26-1.212,0.465-1.792,0.365-1.035.806-2.043,1.183-3.074,0.236-.644.378-1.324,0.629-1.961a7.338,7.338,0,0,1,.764-1.445,6.258,6.258,0,0,0,.889-1.937A25.808,25.808,0,0,1,94.19,487.9c0.593-1.388,1.216-2.763,1.86-4.128,0.391-.83.863-1.622,1.268-2.445q1.477-3,2.923-6.017c0.71-1.487,1.3-3.04,2.11-4.469a45.268,45.268,0,0,0,2.273-4.385c0.593-1.375,1.325-2.692,2.033-4.014,0.646-1.206,1.392-2.36,2-3.583,0.719-1.443,1.345-2.932,2-4.408,0.179-.407.307-0.837,0.449-1.26,0.251-.747.519-1.489,0.739-2.246a14.166,14.166,0,0,0,.73-5.689,40,40,0,0,1-.223-4c-0.034-1.916-.016-3.833,0-5.75,0.006-.617.108-1.232,0.127-1.85,0.043-1.436.062-2.872,0.092-4.309a0.608,0.608,0,0,0,.011-0.1c-0.44-2.713.4-5.407,0.118-8.123a11.226,11.226,0,0,1,.2-1.839c0.147-2.187.238-4.378,0.416-6.562,0.2-2.455.358-4.922,0.742-7.351a29.806,29.806,0,0,1,1.632-6.159,6.789,6.789,0,0,1,2.275-2.6,8.717,8.717,0,0,1,1.239-.878,11.6,11.6,0,0,1,6.249-1.325,4.774,4.774,0,0,1,2.628,1.057,18.537,18.537,0,0,1,2.291,1.909c1.389,1.33,2.747,2.694,4.084,4.078a7.893,7.893,0,0,1,.835,1.263c0.176,0.274.349,0.55,0.523,0.826Zm112.106,25.433a11.4,11.4,0,0,0-1.487-7.511,11.73,11.73,0,0,1-.6-2.162,19.09,19.09,0,0,0-.659-2.26c-0.448-1.079-1.015-2.109-1.51-3.169a18.58,18.58,0,0,0-.817-1.881c-1.239-2.026-2.636-3.961-3.779-6.038a17.62,17.62,0,0,0-4.778-5.474c-0.677-.525-1.279-1.146-1.924-1.714-1.08-.952-2.168-1.9-3.249-2.845-0.667-.586-1.341-1.166-1.99-1.773a14.712,14.712,0,0,0-2-1.9,21.32,21.32,0,0,1-2.951-2.6,6.9,6.9,0,0,0-1.119-.881,27.141,27.141,0,0,1-4.814-3.336,8.7,8.7,0,0,0-3.281-2.072,4.44,4.44,0,0,1-.892-0.492c-0.707-.419-1.43-0.814-2.109-1.275a15.707,15.707,0,0,0-2.549-1.456,4.512,4.512,0,0,1-.939-0.792,1.674,1.674,0,0,0-.647-0.486,11.593,11.593,0,0,1-2.3-.969,1.425,1.425,0,0,1-.65-0.54,4.165,4.165,0,0,0-1.171-.744c-0.38.562-.739,0.089-1.038-0.071-1.029-.546-2.028-1.151-3.041-1.727a2.26,2.26,0,0,0-.563-0.251c-1.531-.372-3.073-0.7-4.595-1.105-0.826-.219-1.616-0.571-2.43-0.84-0.615-.2-1.236-0.4-1.866-0.548-0.567-.135-1.154-0.181-1.724-0.3a23.656,23.656,0,0,0-5.339-.056c-1.469.016-2.933,0.321-4.4,0.479a19.354,19.354,0,0,0-4.944.954,35.2,35.2,0,0,0-5.08,2.484,9,9,0,0,0-3.1,2.248,21.753,21.753,0,0,1-3.174,3.188,31.7,31.7,0,0,0-3.936,4.75c-0.618.8-.874,1.87-1.788,2.456-1.332,2.071-3.014,3.906-3.956,6.245a28.181,28.181,0,0,1-1.6,3.5,1.956,1.956,0,0,0-.1.5,4.7,4.7,0,0,1-.263.992,10.913,10.913,0,0,0-1.052,5.077,1.639,1.639,0,0,1-.039.717,6.577,6.577,0,0,0-.335,2.911,30.313,30.313,0,0,0-.038,3.159,27,27,0,0,1,.145,3.878,9.078,9.078,0,0,0,.381,2.42c0.331,1.609.685,3.213,1.045,4.816a2.035,2.035,0,0,0,.276.551,14.517,14.517,0,0,1,1.192,2.038,12.2,12.2,0,0,0,1.991,3.232,21.1,21.1,0,0,1,1.881,2.439,34.111,34.111,0,0,0,6.077,7.218c0.688,0.662,1.264,1.439,1.922,2.134a18.351,18.351,0,0,0,2.125,2.093,44.861,44.861,0,0,1,4.854,4.085,39.565,39.565,0,0,0,3.295,2.787c0.852,0.689,1.75,1.32,2.609,2a9.594,9.594,0,0,1,1.614,1.409,14,14,0,0,0,3.141,2.8,41.7,41.7,0,0,0,5.913,3.738c1.465,0.674,2.907,1.4,4.33,2.161,1.847,0.986,3.693,1.98,5.488,3.056a30.8,30.8,0,0,0,9.112,3.42,5.534,5.534,0,0,0,1.228.154c1.305,0,2.611-.01,3.915-0.068a24.754,24.754,0,0,0,7.473-1.222q0.818-.3,1.648-0.565c2.112-.684,4.284-1.212,5.982-2.812a7.553,7.553,0,0,1,1.9-1.212,11.558,11.558,0,0,0,3.368-2.323,25.245,25.245,0,0,1,2.191-1.98,12.547,12.547,0,0,0,1.19-.782,32.424,32.424,0,0,0,3.416-4.237c0.9-1.341,1.8-2.693,2.823-3.935a3.411,3.411,0,0,0,.809-1.822,3.231,3.231,0,0,1,1.267-2.278,2.452,2.452,0,0,0,.858-1.1,10,10,0,0,1,1.624-3.2,5.543,5.543,0,0,0,1.022-1.874c0.339-.821.661-1.649,0.988-2.476,0.165-.416.348-0.826,0.48-1.252A18.3,18.3,0,0,0,248.068,428.851Zm-106.5,92.785c0.156-.546.292-1.073,0.456-1.591,0.446-1.407.937-2.8,1.344-4.218,0.208-.724.258-1.492,0.41-2.233,0.318-1.547.613-3.1,1-4.63a20.526,20.526,0,0,1,1.125-3.42,15.458,15.458,0,0,0,1.071-3.312c0.187-.906.415-1.805,0.672-2.694,0.505-1.749,1.149-3.464,1.541-5.237,0.491-2.218,1.584-4.24,1.963-6.487a10.856,10.856,0,0,1,.569-1.97c0.8-2.149,1.743-4.253,2.422-6.439,0.487-1.567,1.338-3.019,1.508-4.689a2.578,2.578,0,0,1,.3-0.877c0.624-1.223,1.137-2.488,1.66-3.757a50.015,50.015,0,0,1,2.959-5.65,29.643,29.643,0,0,0,2.517-5.051,1.011,1.011,0,0,0-.2-1.139c-0.846-.89-1.474-2-2.667-2.539a3.2,3.2,0,0,1-.8-0.64c-1.273-1.2-2.581-2.371-3.793-3.632-1.428-1.485-2.771-3.052-4.151-4.583a17.355,17.355,0,0,1-1.839-2.081c-1-1.561-2.336-2.866-3.215-4.534-0.763-1.447-1.9-2.692-2.764-4.093a25.421,25.421,0,0,1-2.123-4,83.279,83.279,0,0,1-2.872-8.361,32.073,32.073,0,0,1-1.193-6.569c-0.033-.549-0.111-1.1-0.182-1.642-0.257-1.974-.529-3.946-0.778-5.921-0.133-1.058-.228-2.12-0.345-3.18a1.262,1.262,0,0,0-.861-1.173,3.294,3.294,0,0,1-1.675-1.6,6.165,6.165,0,0,0-.838-1.157c-1.564-1.542-3.181-3.03-4.732-4.585a5.449,5.449,0,0,0-6.24-1.3,7.219,7.219,0,0,0-3.367,2.41,12.91,12.91,0,0,0-.979,1.9,6.846,6.846,0,0,0-.449,2.27c-0.157,1.083-.508,2.138-0.762,3.208a2.988,2.988,0,0,0-.068.7c0,0.542.067,1.088,0.03,1.627-0.071,1.026-.188,2.049-0.3,3.072a5.681,5.681,0,0,0-.2,1.383,12.265,12.265,0,0,1-.114,4.685,24.974,24.974,0,0,0-.425,4.469c-0.021.441-.044,0.883-0.106,1.319-0.177,1.257.248,2.517-.074,3.786a6.561,6.561,0,0,0,.016,1.733c0.021,0.752.078,1.505,0.063,2.257-0.035,1.748-.123,3.495-0.153,5.243q-0.034,1.939.027,3.878c0.047,1.476.157,2.95,0.216,4.426a12.845,12.845,0,0,1-.026,1.948c-0.119,1.053-.277,2.105-0.492,3.142a10.363,10.363,0,0,1-.83,2.834c-0.8,1.514-1.443,3.106-2.166,4.659a42.644,42.644,0,0,1-1.878,3.886A10.218,10.218,0,0,0,108.141,465a1.9,1.9,0,0,1-.19.478c-0.337.713-.694,1.416-1.014,2.137-0.432.972-.834,1.958-1.258,2.934a1.707,1.707,0,0,1-.283.43,7.949,7.949,0,0,0-1.442,2.827,7.242,7.242,0,0,1-.376.959q-1.615,3.228-3.25,6.446a18.321,18.321,0,0,0-1.2,2.382,33.32,33.32,0,0,1-2.776,6.308,0.948,0.948,0,0,0-.113,1.041c0.518,0.924.992,1.88,1.586,2.753,0.715,1.052,1.53,2.036,2.316,3.039a8.055,8.055,0,0,0,.885.981c1.216,1.112,2.439,2.217,3.679,3.3,1.419,1.242,2.9,2.412,4.275,3.7a33.129,33.129,0,0,0,3.327,2.754,28.517,28.517,0,0,0,5.127,3.251c0.779,0.343,1.45.922,2.2,1.34,1.535,0.856,2.7,2.2,4.215,3.1a48.186,48.186,0,0,0,7.205,3.549,47.155,47.155,0,0,0,5.219,1.877A27.463,27.463,0,0,0,141.573,521.636Zm32.314-165.662a2.307,2.307,0,0,0-1.149.132,16.2,16.2,0,0,1-2.307,1.4c-1.181.872-2.586,1.42-3.626,2.512a8.275,8.275,0,0,1-1.318,1.124,7.385,7.385,0,0,0-1.732,1.068c-0.424.482-1.324,0.314-1.7,0.992a7.291,7.291,0,0,0-2.937,2.349c-1.3,1.6-3.033,2.768-4.228,4.479a13.508,13.508,0,0,0-1.447,2.2,1.981,1.981,0,0,1-.509.758c-0.7.552-.8,1.609-1.687,1.991-0.48,1.317-1.8,2.023-2.37,3.278a38.058,38.058,0,0,0-4.59,6.045c-0.388.563-.774,1.127-1.133,1.708a19.076,19.076,0,0,1-1.942,3.11,6.137,6.137,0,0,0-1.2,2.762c-0.1.325-.085,0.681-0.166,1.012-0.465,1.9-.943,3.792-1.413,5.689a2.165,2.165,0,0,0-.077.51q0,3.226,0,6.453a0.847,0.847,0,0,0,.018.1c0.2,1.533.4,3.065,0.587,4.6,0.217,1.736.392,3.478,0.649,5.208A35.583,35.583,0,0,0,140.844,422c0.169,0.486.374,0.962,0.508,1.458a46.6,46.6,0,0,0,2.388,7.208,31.751,31.751,0,0,0,2.058,3.809c1.024,1.619,2.205,3.138,3.247,4.746a59.405,59.405,0,0,0,4.965,6.425c2.127,2.468,4.44,4.763,6.77,7.036,0.562,0.548,1.227.989,1.839,1.486,0.371,0.3.753,0.6,1.093,0.931,1.248,1.227,2.478,2.472,3.722,3.7a1.645,1.645,0,0,0,.5.357c1.837,0.762,3.416,1.991,5.212,2.842,1.51,0.715,2.848,1.767,4.41,2.432,1.324,0.564,2.573,1.306,3.86,1.959,1.737,0.882,3.473,1.767,5.221,2.626,0.954,0.469,1.917.927,2.9,1.319,1.211,0.481,2.455.877,3.676,1.331a16.814,16.814,0,0,0,2,.8,20.639,20.639,0,0,0,5.542,1,3.4,3.4,0,0,1,.411.033c1.192,0.093,2.384.213,3.578,0.271,1.615,0.079,3.232.12,4.849,0.157a16.369,16.369,0,0,0,2.779-.022,43.488,43.488,0,0,0,4.525-.956,8.451,8.451,0,0,1,1.792-.291,7.614,7.614,0,0,0,1.819-.539c0.032-.01.069-0.007,0.1-0.017,0.623-.19,1.247-0.376,1.866-0.574,0.556-.178,1.115-0.35,1.659-0.561,0.7-.271,1.384-0.588,2.082-0.866a11.379,11.379,0,0,1,1.333-.462c0.86-.224,1.761-0.327,2.588-0.633a23.27,23.27,0,0,0,2.774-1.328c0.91-.482,1.8-1.006,2.678-1.54,0.793-.481,1.535-1.05,2.348-1.493a10.025,10.025,0,0,0,3.243-2.663c0.481-.624,1.022-1.2,1.526-1.809q2.327-2.8,4.648-5.607c0.218-.262.453-0.51,0.663-0.778,1.018-1.3,2.048-2.59,3.037-3.911,0.408-.545.664-1.209,1.1-1.73a13.812,13.812,0,0,0,2.032-3.285,16.557,16.557,0,0,1,.9-1.495,2.474,2.474,0,0,0,.408-0.885,23.034,23.034,0,0,1,1.41-5.059c0.832-2.431,1.893-4.793,2.579-7.262a40.3,40.3,0,0,0,1.575-7.345,4.954,4.954,0,0,1,.531-1.975c0.963-1.7.887-3.569,0.987-5.405,0.031-.57-0.241-1.152-0.262-1.732a12.483,12.483,0,0,0-1.09-5c-0.247-.522-0.328-1.121-0.539-1.664-0.3-.763-0.647-1.5-0.965-2.259-0.28-.662-0.522-1.342-0.826-1.992a23.283,23.283,0,0,1-1.306-2.678,34.939,34.939,0,0,0-2.872-6.045c-0.491-.9-0.946-1.829-1.449-2.725-0.352-.627-0.746-1.233-1.146-1.831-0.551-.826-1.08-1.674-1.7-2.442-0.6-.744-1.339-1.381-1.977-2.1a9.171,9.171,0,0,0-1.339-1.644,8.912,8.912,0,0,1-1.884-1.7c-0.762-.914-1.889-1.425-2.665-2.38a14.415,14.415,0,0,0-2.452-2.177c-1.083-.835-2.2-1.632-3.353-2.368a1.536,1.536,0,0,0-2.144.257c-0.229.255-.51,0.463-0.736,0.721-0.724.825-1.375,1.724-2.163,2.481a12.043,12.043,0,0,0-2.764,3.407,1.2,1.2,0,0,1-.318.4,7.751,7.751,0,0,0-1.9,2.656,14.235,14.235,0,0,1-1.282,2.075c-1.035,1.374-1.013,2.345.18,3.371,0.179,0.154.417,0.238,0.6,0.383a8.437,8.437,0,0,1,1.739,1.418,12.563,12.563,0,0,0,2.939,2.7,21.28,21.28,0,0,1,1.8,1.529c0.457,0.41.861,0.881,1.332,1.274,1.133,0.945,2.345,1.8,3.427,2.8a21.828,21.828,0,0,1,4.486,6.139c0.533,1.03,1.256,1.961,1.888,2.94a15.108,15.108,0,0,1,.916,1.475c0.638,1.295,1.207,2.623,1.849,3.916a10.156,10.156,0,0,1,1.252,3.684,5.9,5.9,0,0,0,.909,2.493,14.536,14.536,0,0,1,1.442,5.137,10.69,10.69,0,0,1-.172,2.874c-0.094.776-.317,1.535-0.439,2.308-0.2,1.287-.359,2.581-0.56,3.867a3.57,3.57,0,0,1-.31.979q-0.737,1.534-1.524,3.043c-0.33.634-.691,1.251-1.051,1.869-0.446.766-.918,1.518-1.355,2.289a22.781,22.781,0,0,1-1.229,2.237,11.017,11.017,0,0,0-1.884,3.744,0.716,0.716,0,0,1-.22.445c-0.778.32-.923,1.163-1.439,1.7a6.457,6.457,0,0,0-1.243,1.882,8.1,8.1,0,0,1-1.807,2.158,5.958,5.958,0,0,0-1.226,1.462,3.667,3.667,0,0,1-1.716,1.851,5.678,5.678,0,0,0-2.546,2.022,3.1,3.1,0,0,1-1.791,1.452,2.989,2.989,0,0,0-.967.589,6.768,6.768,0,0,1-2.491,1.6,1.606,1.606,0,0,0-.481.375,11.224,11.224,0,0,1-3.442,2,14.463,14.463,0,0,1-3.162.9,1.955,1.955,0,0,0-.673.241,7.863,7.863,0,0,1-2.917.871,12.463,12.463,0,0,0-1.421.259,21.355,21.355,0,0,1-6.23.616c-1.409-.1-2.815-0.272-4.225-0.306a7.01,7.01,0,0,1-2.961-.781,6.254,6.254,0,0,0-1.412-.615,29.693,29.693,0,0,1-7.173-2.819c-1.078-.534-2.175-1.028-3.241-1.583-0.545-.283-1.017-0.7-1.562-0.988-1.492-.775-3.019-1.483-4.5-2.271-0.781-.415-1.505-0.938-2.251-1.419-0.894-.576-1.8-1.137-2.67-1.744s-1.724-1.221-2.532-1.9c-0.521-.435-0.9-1.044-1.423-1.473-1.374-1.125-2.653-2.349-4.128-3.375a18.966,18.966,0,0,1-3.945-3.281,11.986,11.986,0,0,0-1.933-1.686,31.33,31.33,0,0,1-4.595-4.255c-0.919-1.067-1.847-2.129-2.827-3.14a30.311,30.311,0,0,1-3.7-4.286c-0.7-1.063-1.411-2.124-2.192-3.128a13.465,13.465,0,0,1-1.981-2.991c-0.41-.977-0.951-1.9-1.426-2.849a18.865,18.865,0,0,1-1.953-5.833c-0.151-1.09-.207-2.193-0.289-3.291-0.036-.479-0.028-0.961-0.044-1.441a37.876,37.876,0,0,1-.058-4.82c0.064-.679-0.031-1.377.075-2.046a31.025,31.025,0,0,0,.427-3.887,13.273,13.273,0,0,1,.247-1.834,28,28,0,0,1,2.4-6.329,52.84,52.84,0,0,1,2.787-5.153,5.911,5.911,0,0,1,1.392-1.752,7.335,7.335,0,0,0,1.669-1.918c0.392-.6.781-1.209,1.21-1.786a56.057,56.057,0,0,1,4.766-5.653c0.383-.393.73-0.824,1.134-1.193,0.654-.6,1.341-1.158,2.014-1.733A33.183,33.183,0,0,1,166,373.522a32.315,32.315,0,0,1,3.711-1.975c0.426-.21.962-0.2,1.376-0.426a8.718,8.718,0,0,1,3.13-.913c2.627-.32,5.261-0.583,7.894-0.85a4.167,4.167,0,0,1,1.438.009c1.607,0.422,3.275.069,4.9,0.517,0.88,0.242,1.778.419,2.652,0.737,1.251,0.455,2.548.784,3.819,1.184,1.47,0.462,2.974.847,4.389,1.442s2.734,1.409,4.1,2.128c2.338,1.235,4.681,2.459,7.009,3.713,0.538,0.29,1.021.683,1.532,1.026,0.824,0.553,1.651,1.1,2.474,1.656,0.711,0.479,1.43.946,2.124,1.449s1.355,1.042,2.034,1.561c0.434,0.332.868,0.665,1.312,0.982,0.836,0.6,1.682,1.181,2.52,1.776a1.109,1.109,0,0,0,1.347-.1,4.318,4.318,0,0,0,1.692-2.272,3.692,3.692,0,0,1,.46-1.023c0.661-1,1.3-2.019,2.052-2.943a38.989,38.989,0,0,1,4.95-5.494,18.944,18.944,0,0,0,1.971-2.252,3.1,3.1,0,0,0-.681-1,2.493,2.493,0,0,1-1.494-1.826,1.236,1.236,0,0,0-.292-0.25c-0.165-.205-0.308-0.427-0.46-0.643a3.182,3.182,0,0,0-.312-0.443,9.52,9.52,0,0,1-1.363-1.353,7.245,7.245,0,0,0-2.717-2.44,8.426,8.426,0,0,1-1-.72,14.941,14.941,0,0,0-1.472-1.106,13.879,13.879,0,0,1-2.8-1.873,2.216,2.216,0,0,0-.906-0.447,5.386,5.386,0,0,1-2.162-.819,1.687,1.687,0,0,0-.975-0.273,2.769,2.769,0,0,1-1.66-.7,8.537,8.537,0,0,0-1.526-.777c-0.277-.134-0.569-0.238-0.837-0.386-1.221-.673-2.633-0.883-3.84-1.622a4.1,4.1,0,0,0-1.5-.227,1.858,1.858,0,0,1-.6-0.108,17.737,17.737,0,0,0-5.191-1.564c-0.8-.146-1.585-0.355-2.384-0.491a20.942,20.942,0,0,0-5.277-.693,11.019,11.019,0,0,1-3.983,0,0.955,0.955,0,0,0-.7.087,2.752,2.752,0,0,1-2.539.254,2.422,2.422,0,0,0-.615-0.054c-0.924-.049-1.848-0.1-2.773-0.138a1.245,1.245,0,0,0-.694.043,2.675,2.675,0,0,1-1.809.475,11.211,11.211,0,0,0-3.484.591,12.122,12.122,0,0,1-4.858.422,0.487,0.487,0,0,0-.19.129,2.694,2.694,0,0,1,.08.257A1.762,1.762,0,0,1,173.887,355.974Zm-8.921,104.453c-0.15.266-.266,0.5-0.408,0.716a9.638,9.638,0,0,0-.735,1.087,18.873,18.873,0,0,1-1.669,3.705,5.8,5.8,0,0,0-.422.939c-0.339.675-.7,1.34-1.043,2.012-0.231.45-.461,0.9-0.678,1.36-0.174.368-.333,0.743-0.489,1.118-0.419,1.008-.9,2-1.235,3.032a47.661,47.661,0,0,1-1.53,5.228c-0.339.745-.595,1.528-0.865,2.3s-0.514,1.562-.77,2.344c-0.85,2.6-1.729,5.193-2.542,7.805-0.693,2.226-1.312,4.475-1.962,6.714-0.152.524-.3,1.051-0.44,1.578-0.557,2.051-1.1,4.105-1.671,6.154-0.238.859-.568,1.694-0.768,2.561-0.464,2.011-.869,4.035-1.311,6.051q-0.331,1.513-.707,3.015c-0.309,1.228-.664,2.445-0.954,3.677a1.1,1.1,0,0,0,.719,1.316,15.591,15.591,0,0,0,2.152.718c2.646,0.586,5.314,1.079,7.953,1.7a16.893,16.893,0,0,0,4.993.433,13.961,13.961,0,0,1,1.649.032c2.334,0.125,4.667.266,7,.385,0.541,0.028,1.088-.034,1.629,0,0.854,0.049,1.707.214,2.558,0.2,1.265-.02,2.529-0.154,3.793-0.236q2.311-.15,4.622-0.294c1.027-.065,2.054-0.116,3.08-0.2a6.075,6.075,0,0,0,1-.192c0.529-.134,1.045-0.33,1.579-0.428,1.046-.191,2.1-0.332,3.153-0.5a1.435,1.435,0,0,0,1.424-1.353,12.522,12.522,0,0,0,.378-2.933,9.18,9.18,0,0,1,.278-2.14c0.117-.607.367-1.19,0.461-1.8q0.48-3.1.886-6.219a25.427,25.427,0,0,1,1.568-7.332c0.165-.366.206-0.722,0.7-0.728a0.906,0.906,0,0,1,1.011.807,5.613,5.613,0,0,1,.035,1.432c-0.085.782-.249,1.556-0.367,2.335-0.158,1.052-.224,2.127-0.482,3.153a9.543,9.543,0,0,0-.27,2.131c-0.034,1.374-.122,2.746-0.212,4.118a7.894,7.894,0,0,1-.211.9,30.355,30.355,0,0,0-.588,3.344,21.335,21.335,0,0,1-.588,4.8,1.468,1.468,0,0,0,.694,1.687,8.825,8.825,0,0,0,4.241,1.744c1.583,0.193,3.13.653,4.791,0.26,1.349-.319,2.7-0.472,3.7-1.565a14.716,14.716,0,0,1,1.179-1.268,3.625,3.625,0,0,0,1.2-2.971,22.858,22.858,0,0,0-.6-5.295c-0.585-2.119-.661-4.361-1.584-6.39a1.592,1.592,0,0,1-.1-0.5c-0.1-.991-0.125-1.993-0.286-2.973-0.333-2.036-.024-4.15-0.757-6.136a2.291,2.291,0,0,1-.031-0.513c-0.165-1.465-.261-2.942-0.517-4.391-0.383-2.163-.351-4.383-0.932-6.515a1.459,1.459,0,0,1-.01-0.309,23.772,23.772,0,0,0-.761-4.989c-0.182-.7-0.251-1.42-0.373-2.131s-0.228-1.424-.375-2.129c-0.237-1.139-.529-2.267-0.747-3.409a1.556,1.556,0,0,0-1.4-1.414c-1.085-.109-2.17-0.217-3.252-0.348a6.625,6.625,0,0,1-1.206-.253c-2.09-.665-4.2-1.272-6.253-2.045-2.4-.906-4.746-1.962-7.117-2.95-0.158-.066-0.332-0.092-0.487-0.162-1.1-.49-2.207-0.949-3.276-1.492-1.131-.574-2.2-1.263-3.333-1.841-0.912-.467-1.9-0.794-2.8-1.274s-1.736-1.109-2.634-1.61c-1.078-.6-2.206-1.115-3.289-1.71C167.215,461.764,166.107,461.09,164.966,460.427ZM94.512,494.895c-0.287.729-.538,1.47-0.863,2.177a32.028,32.028,0,0,0-2.314,7.575,2.746,2.746,0,0,0,.849,2.615,13.549,13.549,0,0,1,.928,1.1c0.494,0.617.958,1.26,1.472,1.86a9.452,9.452,0,0,1,1.932,3.017,3.29,3.29,0,0,0,.722,1.1c1.449,1.559,2.926,3.093,4.389,4.64a11.977,11.977,0,0,0,.963,1.057c0.709,0.588,1.469,1.113,2.2,1.676,0.489,0.377.96,0.777,1.442,1.163,0.885,0.709,1.785,1.4,2.656,2.127,1.316,1.1,2.338,2.527,3.864,3.387a8.426,8.426,0,0,1,1.214.774,28.027,28.027,0,0,0,4.585,2.481,11.142,11.142,0,0,0,3.545,1.53,2.719,2.719,0,0,1,.873.526,4.894,4.894,0,0,0,.422.3c1.341,0.673,2.691,1.328,4.027,2.01,1.492,0.762,2.9,1.736,4.659,1.8a1.186,1.186,0,0,1,.295.092c1.078,0.348,2.16.685,3.232,1.05,0.353,0.12.676,0.323,1.022,0.467a7.094,7.094,0,0,0,1.02.366,24.37,24.37,0,0,1,4.386,1.1,30.912,30.912,0,0,0,4.277,1.389,1,1,0,0,1,.3.07c1.138,0.842,2.562.606,3.822,1a3.943,3.943,0,0,0,1.624.019,3.611,3.611,0,0,1,2.492.369,1.441,1.441,0,0,0,.973.135,4.536,4.536,0,0,1,2.431.232c0.386,0.124.8,0.144,1.2,0.239,1.226,0.293,2.561-.169,3.73.544a0.793,0.793,0,0,0,.4.013c0.714-.038,1.428-0.1,2.143-0.115,0.961-.023,1.923-0.044,2.883-0.012,1.562,0.052,3.122-.189,4.683-0.012,0.065,0.007.135-.04,0.2-0.039a14.091,14.091,0,0,1,1.725.045,2.371,2.371,0,0,0,1.694-.16,2.29,2.29,0,0,1,.79-0.18q1.371-.237,2.744-0.461c0.3-.049.605-0.074,0.908-0.112,0.606-.077,1.215-0.141,1.817-0.241a13.925,13.925,0,0,1,1.505-.306c1.339-.069,2.3-0.427,2.642-1.974,0.341-1.529,1.035-2.978,1.528-4.476,0.322-.977.563-1.98,0.84-2.971,1.107-.728.407-1.994,0.864-2.926a2.877,2.877,0,0,0,.234-1.207,12.037,12.037,0,0,0-.163-1.5,7.2,7.2,0,0,0-2.866.386,3.416,3.416,0,0,1-1.008.188c-1.918.169-3.837,0.335-5.757,0.48-0.754.057-1.519,0-2.269,0.091a44.1,44.1,0,0,1-6.68.295c-1.1-.041-2.2-0.007-3.295-0.06-1.612-.078-3.224-0.3-4.833-0.283a49.788,49.788,0,0,1-6.475-.361c-1.466-.174-2.917-0.474-4.371-0.735-0.875-.157-1.745-0.346-2.617-0.52-0.673-.134-1.354-0.233-2.016-0.408-0.829-.218-1.639-0.5-2.462-0.748-1.314-.389-2.636-0.753-3.947-1.152-1.115-.339-2.215-0.728-3.331-1.065-1.973-.594-3.989-1.065-5.92-1.773-2.06-.755-4.048-1.712-6.055-2.609-0.527-.235-0.991-0.609-1.512-0.86a36.525,36.525,0,0,1-5.878-3.6c-1.353-1-2.775-1.908-4.183-2.832-0.542-.356-1.155-0.606-1.691-0.97-1.194-.81-2.369-1.648-3.531-2.5a15.9,15.9,0,0,1-1.4-1.206c-0.477-.445-0.9-0.949-1.391-1.377-1.527-1.332-3.086-2.627-4.61-3.962-0.566-.5-1.021-1.128-1.615-1.584a14.732,14.732,0,0,1-2.933-2.889c-0.552-.746-1.076-1.513-1.616-2.268A1.748,1.748,0,0,0,94.512,494.895ZM90.7,509.668l-0.292.049a9.836,9.836,0,0,0-.671,2.109c-0.048.717-.207,1.428-0.323,2.14-0.182,1.117-.444,2.227-0.537,3.351a61.263,61.263,0,0,1-.662,6.358,10.22,10.22,0,0,0,.316,4.6,14.264,14.264,0,0,1,.4,1.812,22.1,22.1,0,0,0,2.34,7.444c1.173,2.213,2.337,4.43,3.529,6.632a15.676,15.676,0,0,0,3.268,4.688c1.125,0.982,2.092,2.162,3.274,3.108a6.623,6.623,0,0,1,.945.949,10.179,10.179,0,0,0,3.925,3.242,1.084,1.084,0,0,1,.351.21,18.885,18.885,0,0,0,4.731,3.259c2.142,1.092,4.28,2.192,6.423,3.282,0.275,0.14.57,0.241,0.853,0.366,1.7,0.747,3.383,1.523,5.1,2.235,1.107,0.46,2.246.848,3.385,1.226,0.714,0.237.98,0.026,1.156-.706,0.217-.9.451-1.8,0.722-2.687,0.29-.95.673-1.872,0.942-2.827,0.551-1.954,1.066-3.917,1.57-5.884,0.349-1.362.645-2.737,0.981-4.1,0.254-1.033.543-2.057,0.8-3.09,0.327-1.335.655-2.671,0.941-4.015a1.325,1.325,0,0,0-.831-1.6,9.523,9.523,0,0,0-1.662-.528,7.779,7.779,0,0,1-3.446-1.541,0.769,0.769,0,0,0-.414-0.26c-0.855.3-1.431-.331-2.093-0.621a13.568,13.568,0,0,1-2.757-1.389,14.489,14.489,0,0,0-4.212-2.129,17.251,17.251,0,0,1-3.644-1.894c-0.928-.579-1.927-1.043-2.878-1.587a5.425,5.425,0,0,1-1.427-.969c-1.65-1.879-3.768-3.2-5.614-4.847-2.021-1.8-4.322-3.276-6.073-5.392-1.358-1.641-2.812-3.2-4.205-4.814a4.4,4.4,0,0,1-.8-1.193,19.61,19.61,0,0,0-2.457-3.8C91.363,510.439,91.021,510.062,90.7,509.668Zm65.918,59.713,0.039,0.191a16.908,16.908,0,0,0,1.87-.459c0.837-.3,1.643-0.694,2.457-1.06,1.533-.69,3.078-1.354,4.586-2.095,1.382-.679,2.726-1.438,4.078-2.177a6.045,6.045,0,0,0,1.029-.682c0.933-.8,1.872-1.589,2.754-2.439,1.209-1.164,2.375-2.374,3.547-3.576,0.38-.39.685-0.857,1.085-1.223a16.706,16.706,0,0,0,3.26-3.822,18.929,18.929,0,0,1,1.954-3.5,1.468,1.468,0,0,0-.06-1.245,0.928,0.928,0,0,0-1.115-.219c-2.469.368-4.94,0.719-7.409,1.08a29.337,29.337,0,0,1-4.944-.125c-0.719-.016-1.44.03-2.159,0.072-0.441.026-.879,0.136-1.319,0.138-1.064,0-2.135.028-3.192-.07a31.652,31.652,0,0,1-5.025-.5,15.862,15.862,0,0,0-4.972-.773,5.337,5.337,0,0,1-1.132-.017,42.915,42.915,0,0,1-5.652-1.006c-0.99-.288-2.011-0.477-2.987-0.8s-1.889-.817-2.862-1.143a20.468,20.468,0,0,0-2.794-.708c-0.759-.14-0.879-0.013-1.046.76-0.1.469-.1,0.963-0.234,1.422a80.062,80.062,0,0,0-1.826,8.671,22.756,22.756,0,0,1-.61,2.279c-0.165.6-.352,1.186-0.5,1.786a33.658,33.658,0,0,1-1.56,5.877,8.549,8.549,0,0,0-.566,2.292c-0.163,1.166.055,1.469,1.173,1.8,1.65,0.488,3.308.946,4.966,1.407a2.32,2.32,0,0,0,.506.034c1.407,0.066,2.82.067,4.218,0.213a36.851,36.851,0,0,0,6.055.3,3.328,3.328,0,0,0,1.017-.15,3.983,3.983,0,0,1,2.711-.118,2.989,2.989,0,0,0,1.6.024C154.563,569.582,155.6,569.517,156.621,569.381Zm14.771-3.333a4,4,0,0,0-2.352,1.287,13.533,13.533,0,0,1-5.11,2.8,8.728,8.728,0,0,0-1.521.626c-0.968.445-1.907,0.962-2.9,1.348a6.918,6.918,0,0,1-3.279.773,0.752,0.752,0,0,0-.574.13,1.1,1.1,0,0,1-1.228.247,11.354,11.354,0,0,0-3.787.1,35.47,35.47,0,0,1-8.929-.14,21.821,21.821,0,0,0-3.359-.027,9.729,9.729,0,0,0,.115,1.342c0.348,1.471.76,2.928,1.1,4.4,0.58,2.545,1.112,5.1,1.686,7.648a12.833,12.833,0,0,0,.56,1.874,10.527,10.527,0,0,0,2.765,3.667,2.385,2.385,0,0,0,2.732.526,9.514,9.514,0,0,0,2.885-2.113c1.952-1.618,3.849-3.3,5.761-4.968,1.525-1.329,3.129-2.582,4.534-4.029a58.564,58.564,0,0,0,5.342-6.134,43.317,43.317,0,0,0,4.43-7.169C170.587,567.541,170.967,566.867,171.392,566.048ZM91.123,544.319l-0.247.1a15.879,15.879,0,0,0,.015,2.141c0.318,2.316.069,4.687,0.692,6.971a0.865,0.865,0,0,1,.017.206q0.1,4.331.2,8.661a15.149,15.149,0,0,0,.113,2.47c0.37,1.926.842,3.832,1.277,5.744a5.572,5.572,0,0,0,4.867,4.53c0.808,0.143,1.644.13,2.452,0.274a3.844,3.844,0,0,0,2.6-.433,35.6,35.6,0,0,0,5.223-3.477,17.931,17.931,0,0,1,2.981-1.99,7.181,7.181,0,0,0,1.987-1.258c0.568-.6,1.138-1.193,1.661-1.827,0.424-.514.324-0.865-0.285-1.222-1.63-.956-3.283-1.872-4.891-2.863-1.343-.827-2.672-1.685-3.939-2.622-1.544-1.142-3.062-2.328-4.5-3.6-0.895-.789-1.587-1.8-2.433-2.652-1.865-1.872-3.775-3.7-5.654-5.557a3.163,3.163,0,0,1-.439-0.68Q91.964,545.779,91.123,544.319ZM260.494,434.162a2.129,2.129,0,0,0,1.827.275c1.551-.552,3.118-1.07,4.628-1.719a33.609,33.609,0,0,0,3.758-1.94,14.468,14.468,0,0,0,2.927-2.056c1.681-1.676,3.446-3.244,5.264-4.764a31.773,31.773,0,0,0,2.895-2.756c0.673-.725,1.157-1.623,1.816-2.363a8.751,8.751,0,0,0,1.529-2.3c0.29-.66.625-1.3,0.94-1.948a7.681,7.681,0,0,0,.515-6,2.916,2.916,0,0,0-.667-1.022,1.275,1.275,0,0,0-1.756-.2c-1.259.763-2.5,1.561-3.77,2.3-1.241.723-2.506,1.409-3.775,2.082-0.69.367-1.4,0.7-2.122,1a21.938,21.938,0,0,1-2.5.933,21.445,21.445,0,0,1-3.973,1.049c-1.152.1-2.293,0.335-3.484,0.518a11.99,11.99,0,0,1-.012,1.635,9.557,9.557,0,0,1-1.077,4.153,0.789,0.789,0,0,0-.093.294c-0.254,1.451-.47,2.911-0.768,4.353-0.291,1.406-.289,2.887-1.024,4.185C260.817,431.2,260.832,432.7,260.494,434.162Zm-72.409-81.821a2.61,2.61,0,0,0-.091-1.556,36.579,36.579,0,0,1-1.026-4.073,0.61,0.61,0,0,1,.033-0.306,8.932,8.932,0,0,0,.207-3.044,18.793,18.793,0,0,1,1.459-6.908,1.528,1.528,0,0,0-.339-1.808c-0.194-.194-0.37-0.405-0.557-0.612a2.5,2.5,0,0,0-2.517,1.25,9.339,9.339,0,0,1-1.559,1.749c-0.956.927-1.948,1.818-2.932,2.715a22.8,22.8,0,0,0-1.83,1.646c-1.086,1.232-2.073,2.552-3.147,3.795-0.938,1.086-1.96,2.1-2.909,3.176-1.061,1.206-2.08,2.449-3.121,3.673a10.153,10.153,0,0,1-1.23,1.376,6.11,6.11,0,0,0-2.13,2.665,2.051,2.051,0,0,1-.577.661c-0.146.139-.359,0.212-0.492,0.36-0.575.634-1.137,1.28-1.693,1.931-0.17.2-.3,0.428-0.519,0.735a1.427,1.427,0,0,0,.578.067,9.877,9.877,0,0,0,1.326-.784c0.6-.438,1.143-0.952,1.742-1.389,1.056-.769,2.134-1.507,3.209-2.25a2.251,2.251,0,0,1,.618-0.331c1.829-.537,3.8-0.515,5.543-1.395a0.992,0.992,0,0,1,.3-0.069c2.032-.3,4.059-0.643,6.1-0.87C184.335,352.544,186.152,352.476,188.085,352.341Zm71.009,46.528a52.1,52.1,0,0,0,2.337,5.806c1.032,1.894,1.457,4,2.42,5.9a3,3,0,0,1,.2,1.2c0.037,0.935.138,1.131,1.073,1.331a10.955,10.955,0,0,0,4.807-.237c1.359-.316,2.683-0.792,4.01-1.233a13.9,13.9,0,0,0,1.591-.69c0.769-.368,1.53-0.753,2.29-1.14,0.549-.28,1.111-0.542,1.632-0.87,1.511-.952,3-1.944,4.508-2.9,0.71-.448.761-0.956,0.013-1.329a6.383,6.383,0,0,0-1.761-.547c-1.522-.259-3.052-0.484-4.585-0.664-1.446-.169-2.81-0.8-4.316-0.67a7.276,7.276,0,0,1-1.811-.324c-0.265-.049-0.534-0.077-0.8-0.115a11.524,11.524,0,0,1-1.821-.277c-1.567-.492-3.105-1.073-4.664-1.592C262.566,399.97,260.906,399.451,259.094,398.868Zm-68.7-64.512c-0.136.464-.227,0.9-0.391,1.308a9.461,9.461,0,0,0-1.022,4.218,1.3,1.3,0,0,1-.065.406,7.843,7.843,0,0,0-.181,3.573,1.681,1.681,0,0,1-.016.611,6.713,6.713,0,0,0,.051,3.942c0.314,0.751.4,1.6,0.728,2.344a1.968,1.968,0,0,0,1.733,1.418c1.1,0.04,2.2.083,3.293,0.161,2.84,0.2,5.708.2,8.451,1.144a4.836,4.836,0,0,0,.935.135,0.987,0.987,0,0,0-.08-1.172,1.286,1.286,0,0,1-.263-0.55,11.942,11.942,0,0,0-2-3.984,33.472,33.472,0,0,1-2.351-4.036c-0.565-1.113-.977-2.316-1.645-3.385-0.605-.969-0.912-2.17-2.08-2.725a1.252,1.252,0,0,1-.3-0.5,5.066,5.066,0,0,0-1.6-2.224A4.076,4.076,0,0,0,190.391,334.356Z"/>
  <path id="_Compound_Path_2" data-name="&lt;Compound Path&gt;" class="cls-2" d="M248.068,428.851a18.3,18.3,0,0,1-1.048,5.676c-0.132.426-.316,0.836-0.48,1.252-0.327.826-.65,1.654-0.988,2.476a5.543,5.543,0,0,1-1.022,1.874,10,10,0,0,0-1.624,3.2,2.452,2.452,0,0,1-.858,1.1,3.231,3.231,0,0,0-1.267,2.278,3.411,3.411,0,0,1-.809,1.822c-1.025,1.242-1.924,2.594-2.823,3.935a32.424,32.424,0,0,1-3.416,4.237,12.547,12.547,0,0,1-1.19.782,25.245,25.245,0,0,0-2.191,1.98,11.558,11.558,0,0,1-3.368,2.323,7.553,7.553,0,0,0-1.9,1.212c-1.7,1.6-3.87,2.128-5.982,2.812q-0.828.268-1.648,0.565a24.754,24.754,0,0,1-7.473,1.222c-1.3.057-2.61,0.067-3.915,0.068a5.534,5.534,0,0,1-1.228-.154,30.8,30.8,0,0,1-9.112-3.42c-1.8-1.076-3.641-2.07-5.488-3.056-1.423-.759-2.865-1.487-4.33-2.161A41.7,41.7,0,0,1,180,455.139a14,14,0,0,1-3.141-2.8,9.594,9.594,0,0,0-1.614-1.409c-0.859-.68-1.757-1.312-2.609-2a39.565,39.565,0,0,1-3.295-2.787,44.861,44.861,0,0,0-4.854-4.085,18.351,18.351,0,0,1-2.125-2.093c-0.658-.695-1.234-1.472-1.922-2.134a34.111,34.111,0,0,1-6.077-7.218,21.1,21.1,0,0,0-1.881-2.439,12.2,12.2,0,0,1-1.991-3.232A14.517,14.517,0,0,0,149.3,422.9a2.035,2.035,0,0,1-.276-0.551c-0.36-1.6-.713-3.207-1.045-4.816a9.078,9.078,0,0,1-.381-2.42,27,27,0,0,0-.145-3.878,30.313,30.313,0,0,1,.038-3.159,6.577,6.577,0,0,1,.335-2.911,1.639,1.639,0,0,0,.039-0.717,10.913,10.913,0,0,1,1.052-5.077,4.7,4.7,0,0,0,.263-0.992,1.956,1.956,0,0,1,.1-0.5,28.181,28.181,0,0,0,1.6-3.5c0.942-2.338,2.624-4.174,3.956-6.245,0.914-.586,1.17-1.652,1.788-2.456a31.7,31.7,0,0,1,3.936-4.75,21.753,21.753,0,0,0,3.174-3.188,9,9,0,0,1,3.1-2.248,35.2,35.2,0,0,1,5.08-2.484,19.354,19.354,0,0,1,4.944-.954c1.468-.158,2.933-0.463,4.4-0.479a23.656,23.656,0,0,1,5.339.056c0.57,0.123,1.158.17,1.724,0.3,0.63,0.15,1.251.344,1.866,0.548,0.814,0.269,1.6.621,2.43,0.84,1.522,0.4,3.064.733,4.595,1.105a2.26,2.26,0,0,1,.563.251c1.014,0.576,2.012,1.18,3.041,1.727,0.3,0.159.658,0.632,1.038,0.071a4.165,4.165,0,0,1,1.171.744,1.425,1.425,0,0,0,.65.54,11.593,11.593,0,0,0,2.3.969,1.674,1.674,0,0,1,.647.486,4.512,4.512,0,0,0,.939.792,15.707,15.707,0,0,1,2.549,1.456c0.679,0.461,1.4.856,2.109,1.275a4.44,4.44,0,0,0,.892.492,8.7,8.7,0,0,1,3.281,2.072,27.141,27.141,0,0,0,4.814,3.336,6.9,6.9,0,0,1,1.119.881,21.32,21.32,0,0,0,2.951,2.6,14.712,14.712,0,0,1,2,1.9c0.649,0.607,1.322,1.187,1.99,1.773,1.081,0.95,2.17,1.893,3.249,2.845,0.644,0.568,1.246,1.189,1.924,1.714a17.62,17.62,0,0,1,4.778,5.474c1.142,2.077,2.54,4.012,3.779,6.038a18.58,18.58,0,0,1,.817,1.881c0.5,1.061,1.062,2.09,1.51,3.169a19.09,19.09,0,0,1,.659,2.26,11.73,11.73,0,0,0,.6,2.162A11.4,11.4,0,0,1,248.068,428.851Zm-66.3-26.992a9.681,9.681,0,0,0,1.44-.093,5.45,5.45,0,0,0,1.732-.552,12.128,12.128,0,0,0,3.73-4.064,11,11,0,0,0,.92-2.373c0.279-.817-0.055-1.75.456-2.535a0.373,0.373,0,0,0-.02-0.3,2.378,2.378,0,0,1,.009-1.515,2.514,2.514,0,0,0-.622-2.478,7.337,7.337,0,0,1-.56-0.86,8.855,8.855,0,0,0-1.126-1.3,7.476,7.476,0,0,0-3.434-1.539c-1.069-.223-2.159-0.361-3.216-0.631a5.618,5.618,0,0,0-3.969.653,5.849,5.849,0,0,0-1.491,1.211,10.761,10.761,0,0,0-.975,1.306c-0.6.834-1.215,1.659-1.785,2.514a2.57,2.57,0,0,0-.346.954c-0.164.913-.261,1.837-0.428,2.749a6.243,6.243,0,0,0,1.673,5.591A9.966,9.966,0,0,0,181.771,401.859Zm36.774,21.611c0.028,2.461.384,4.335,1.59,5.928a5.253,5.253,0,0,0,2.071,1.963c1.24,0.5,2.472,1.039,3.75,1.416a28.221,28.221,0,0,0,3.337.632,2.061,2.061,0,0,0,1.488-.256,28.358,28.358,0,0,0,4.089-3.259,2.163,2.163,0,0,0,.433-0.573c1.15-2.138,1.184-4.493,1.186-6.818a9.259,9.259,0,0,0-1.407-4.171,2.132,2.132,0,0,0-1.1-1.036,16.058,16.058,0,0,0-3.718-1.134,11.2,11.2,0,0,0-7.615.978,6.319,6.319,0,0,0-2.262,1.735C219.3,420.418,218.367,421.983,218.545,423.47Zm4.969,14.075a4.222,4.222,0,0,0,.344,3.777,10.762,10.762,0,0,0,8.465,4.627,2.42,2.42,0,0,0,2.274-1.76,12.873,12.873,0,0,0,.192-1.845,2.1,2.1,0,0,0-.258-1.07A9.2,9.2,0,0,0,233.494,440a12.464,12.464,0,0,0-4.165-2.612A6.211,6.211,0,0,0,223.514,437.544Zm-55.8-40.627c-0.238-1.083.756-1.7,1-2.726-0.37-.419-0.785-0.867-1.172-1.338a3.733,3.733,0,0,1-.629-0.92,4.9,4.9,0,0,0-2.75-2.631,29.31,29.31,0,0,0-3.518-1.091,2.406,2.406,0,0,0-1.688.266,0.928,0.928,0,0,0-.536,1,0.834,0.834,0,0,1-.254.423,2.287,2.287,0,0,0-.12,2.716,10.89,10.89,0,0,0,3.089,2.835c0.447,0.242.826,0.607,1.262,0.875C164.034,397.334,165.679,398.341,167.715,396.917Zm18.6,35.216c-0.041-.892-0.035-1.548-0.111-2.2a1.326,1.326,0,0,0-1.278-1.224,21.973,21.973,0,0,0-6.535.162,12.356,12.356,0,0,0-2.321.751,0.871,0.871,0,0,0-.456,1.128,0.749,0.749,0,0,0,.828.623,2.239,2.239,0,0,0,.967-0.229,6.672,6.672,0,0,1,4.247-.864,2.393,2.393,0,0,0,1.021-.072,0.837,0.837,0,0,1,.99.358,3.875,3.875,0,0,1,.6,1.378,6.867,6.867,0,0,1,0,2.055,13.874,13.874,0,0,0,.434,4.668,1.419,1.419,0,0,0,1.307.979,1.152,1.152,0,0,0,.789-1.267,9.322,9.322,0,0,0-.57-3.316,2.455,2.455,0,0,1-.083-1.019C186.18,433.332,186.267,432.617,186.313,432.134Z"/>
  <path id="_Compound_Path_3" data-name="&lt;Compound Path&gt;" class="cls-3" d="M141.573,521.636a27.463,27.463,0,0,1-5.3-1.043,47.155,47.155,0,0,1-5.219-1.877,48.186,48.186,0,0,1-7.205-3.549c-1.516-.895-2.68-2.239-4.215-3.1-0.75-.418-1.421-1-2.2-1.34a28.517,28.517,0,0,1-5.127-3.251,33.129,33.129,0,0,1-3.327-2.754c-1.37-1.293-2.856-2.462-4.275-3.7-1.24-1.085-2.463-2.19-3.679-3.3a8.055,8.055,0,0,1-.885-0.981c-0.786-1-1.6-1.987-2.316-3.039-0.594-.873-1.068-1.829-1.586-2.753a0.948,0.948,0,0,1,.113-1.041,33.32,33.32,0,0,0,2.776-6.308,18.321,18.321,0,0,1,1.2-2.382q1.63-3.221,3.25-6.446a7.242,7.242,0,0,0,.376-0.959,7.949,7.949,0,0,1,1.442-2.827,1.707,1.707,0,0,0,.283-0.43c0.424-.976.826-1.961,1.258-2.934,0.32-.72.677-1.424,1.014-2.137a1.9,1.9,0,0,0,.19-0.478,10.218,10.218,0,0,1,1.642-3.517,42.644,42.644,0,0,0,1.878-3.886c0.723-1.553,1.37-3.145,2.166-4.659a10.363,10.363,0,0,0,.83-2.834c0.216-1.037.373-2.089,0.492-3.142a12.845,12.845,0,0,0,.026-1.948c-0.059-1.476-.169-2.95-0.216-4.426q-0.062-1.938-.027-3.878c0.03-1.748.118-3.495,0.153-5.243,0.015-.752-0.042-1.5-0.063-2.257a6.561,6.561,0,0,1-.016-1.733c0.322-1.27-.1-2.529.074-3.786,0.061-.436.085-0.879,0.106-1.319a24.974,24.974,0,0,1,.425-4.469,12.265,12.265,0,0,0,.114-4.685,5.681,5.681,0,0,1,.2-1.383c0.115-1.023.231-2.046,0.3-3.072,0.037-.539-0.028-1.084-0.03-1.627a2.988,2.988,0,0,1,.068-0.7c0.255-1.07.605-2.124,0.762-3.208a6.846,6.846,0,0,1,.449-2.27,12.91,12.91,0,0,1,.979-1.9,7.219,7.219,0,0,1,3.367-2.41,5.449,5.449,0,0,1,6.24,1.3c1.551,1.555,3.169,3.043,4.732,4.585a6.165,6.165,0,0,1,.838,1.157,3.294,3.294,0,0,0,1.675,1.6,1.262,1.262,0,0,1,.861,1.173c0.117,1.06.212,2.122,0.345,3.18,0.249,1.975.521,3.947,0.778,5.921,0.071,0.546.149,1.093,0.182,1.642a32.073,32.073,0,0,0,1.193,6.569,83.279,83.279,0,0,0,2.872,8.361,25.421,25.421,0,0,0,2.123,4c0.864,1.4,2,2.645,2.764,4.093,0.879,1.668,2.213,2.973,3.215,4.534a17.355,17.355,0,0,0,1.839,2.081c1.38,1.531,2.723,3.1,4.151,4.583,1.212,1.261,2.52,2.43,3.793,3.632a3.2,3.2,0,0,0,.8.64c1.193,0.538,1.821,1.648,2.667,2.539a1.011,1.011,0,0,1,.2,1.139,29.643,29.643,0,0,1-2.517,5.051,50.015,50.015,0,0,0-2.959,5.65c-0.523,1.269-1.036,2.535-1.66,3.757a2.578,2.578,0,0,0-.3.877c-0.171,1.67-1.021,3.122-1.508,4.689-0.68,2.186-1.62,4.29-2.422,6.439a10.856,10.856,0,0,0-.569,1.97c-0.379,2.247-1.472,4.269-1.963,6.487-0.392,1.772-1.036,3.488-1.541,5.237-0.257.889-.485,1.788-0.672,2.694a15.458,15.458,0,0,1-1.071,3.312,20.526,20.526,0,0,0-1.125,3.42c-0.391,1.529-.685,3.083-1,4.63-0.153.742-.2,1.509-0.41,2.233-0.407,1.418-.9,2.811-1.344,4.218C141.864,520.562,141.728,521.089,141.573,521.636ZM127.606,400.442c0.427-.851.435-0.936-0.136-1.24a2.438,2.438,0,0,0-2.7-.2,1.48,1.48,0,0,1-.873.265,1.491,1.491,0,0,0-1.634,1.126,10.753,10.753,0,0,0-.584,1.752,3.019,3.019,0,0,0,1.73,3.086,5.817,5.817,0,0,0,2.534.234,1.827,1.827,0,0,0,1.99-1.144,1.678,1.678,0,0,0-2.109-1,1.507,1.507,0,0,1-1.783-.617,1.067,1.067,0,0,1,.35-1.9A3.823,3.823,0,0,1,127.606,400.442Z"/>
  <path id="_Path_3" data-name="&lt;Path&gt;" class="cls-3" d="M173.887,355.974a1.762,1.762,0,0,0-.026-0.216,2.694,2.694,0,0,0-.08-0.257,0.487,0.487,0,0,1,.19-0.129,12.122,12.122,0,0,0,4.858-.422,11.211,11.211,0,0,1,3.484-.591,2.675,2.675,0,0,0,1.809-.475,1.245,1.245,0,0,1,.694-0.043c0.925,0.04,1.849.09,2.773,0.138a2.422,2.422,0,0,1,.615.054,2.752,2.752,0,0,0,2.539-.254,0.955,0.955,0,0,1,.7-0.087,11.019,11.019,0,0,0,3.983,0,20.942,20.942,0,0,1,5.277.693c0.8,0.136,1.586.345,2.384,0.491a17.737,17.737,0,0,1,5.191,1.564,1.858,1.858,0,0,0,.6.108,4.1,4.1,0,0,1,1.5.227c1.206,0.739,2.618.949,3.84,1.622,0.268,0.148.561,0.252,0.837,0.386a8.537,8.537,0,0,1,1.526.777,2.769,2.769,0,0,0,1.66.7,1.687,1.687,0,0,1,.975.273,5.386,5.386,0,0,0,2.162.819,2.216,2.216,0,0,1,.906.447,13.879,13.879,0,0,0,2.8,1.873,14.941,14.941,0,0,1,1.472,1.106,8.426,8.426,0,0,0,1,.72,7.245,7.245,0,0,1,2.717,2.44,9.52,9.52,0,0,0,1.363,1.353,3.182,3.182,0,0,1,.312.443c0.151,0.216.295,0.438,0.46,0.643a1.236,1.236,0,0,1,.292.25,2.493,2.493,0,0,0,1.494,1.826,3.1,3.1,0,0,1,.681,1,18.944,18.944,0,0,1-1.971,2.252,38.989,38.989,0,0,0-4.95,5.494c-0.754.924-1.391,1.946-2.052,2.943a3.692,3.692,0,0,0-.46,1.023,4.318,4.318,0,0,1-1.692,2.272,1.109,1.109,0,0,1-1.347.1c-0.838-.595-1.684-1.179-2.52-1.776-0.444-.318-0.878-0.65-1.312-0.982-0.679-.519-1.342-1.06-2.034-1.561s-1.413-.97-2.124-1.449c-0.823-.554-1.65-1.1-2.474-1.656-0.51-.343-0.993-0.735-1.532-1.026-2.328-1.254-4.671-2.478-7.009-3.713-1.361-.719-2.682-1.533-4.1-2.128s-2.919-.98-4.389-1.442c-1.272-.4-2.568-0.729-3.819-1.184-0.874-.317-1.771-0.494-2.652-0.737-1.627-.448-3.3-0.1-4.9-0.517a4.167,4.167,0,0,0-1.438-.009c-2.633.267-5.267,0.531-7.894,0.85a8.718,8.718,0,0,0-3.13.913c-0.415.223-.951,0.216-1.376,0.426A32.315,32.315,0,0,0,166,373.522,33.183,33.183,0,0,0,163,376.035c-0.674.575-1.361,1.136-2.014,1.733-0.4.369-.752,0.8-1.134,1.193a56.057,56.057,0,0,0-4.766,5.653c-0.429.576-.818,1.183-1.21,1.786a7.335,7.335,0,0,1-1.669,1.918,5.911,5.911,0,0,0-1.392,1.752,52.84,52.84,0,0,0-2.787,5.153,28,28,0,0,0-2.4,6.329,13.273,13.273,0,0,0-.247,1.834,31.025,31.025,0,0,1-.427,3.887c-0.106.669-.012,1.367-0.075,2.046a37.876,37.876,0,0,0,.058,4.82c0.016,0.48.008,0.963,0.044,1.441,0.082,1.1.138,2.2,0.289,3.291a18.865,18.865,0,0,0,1.953,5.833c0.475,0.95,1.016,1.872,1.426,2.849a13.465,13.465,0,0,0,1.981,2.991c0.78,1,1.491,2.066,2.192,3.128a30.311,30.311,0,0,0,3.7,4.286c0.979,1.011,1.908,2.073,2.827,3.14a31.33,31.33,0,0,0,4.595,4.255,11.986,11.986,0,0,1,1.933,1.686,18.966,18.966,0,0,0,3.945,3.281c1.475,1.026,2.754,2.25,4.128,3.375,0.525,0.43.9,1.038,1.423,1.473,0.808,0.675,1.667,1.294,2.532,1.9s1.776,1.168,2.67,1.744c0.746,0.481,1.47,1,2.251,1.419,1.485,0.788,3.012,1.5,4.5,2.271,0.545,0.283,1.018.7,1.562,0.988,1.066,0.555,2.163,1.05,3.241,1.583a29.693,29.693,0,0,0,7.173,2.819,6.254,6.254,0,0,1,1.412.615,7.01,7.01,0,0,0,2.961.781c1.41,0.033,2.816.2,4.225,0.306a21.355,21.355,0,0,0,6.23-.616,12.463,12.463,0,0,1,1.421-.259,7.863,7.863,0,0,0,2.917-.871,1.955,1.955,0,0,1,.673-0.241,14.463,14.463,0,0,0,3.162-.9,11.224,11.224,0,0,0,3.442-2,1.606,1.606,0,0,1,.481-0.375,6.768,6.768,0,0,0,2.491-1.6,2.989,2.989,0,0,1,.967-0.589,3.1,3.1,0,0,0,1.791-1.452,5.678,5.678,0,0,1,2.546-2.022,3.667,3.667,0,0,0,1.716-1.851,5.958,5.958,0,0,1,1.226-1.462,8.1,8.1,0,0,0,1.807-2.158,6.457,6.457,0,0,1,1.243-1.882c0.516-.54.661-1.383,1.439-1.7a0.716,0.716,0,0,0,.22-0.445,11.017,11.017,0,0,1,1.884-3.744,22.781,22.781,0,0,0,1.229-2.237c0.437-.771.909-1.523,1.355-2.289,0.36-.618.721-1.235,1.051-1.869q0.786-1.509,1.524-3.043a3.57,3.57,0,0,0,.31-0.979c0.2-1.287.358-2.581,0.56-3.867,0.122-.773.345-1.532,0.439-2.308a10.69,10.69,0,0,0,.172-2.874,14.536,14.536,0,0,0-1.442-5.137,5.9,5.9,0,0,1-.909-2.493,10.156,10.156,0,0,0-1.252-3.684c-0.641-1.293-1.211-2.621-1.849-3.916a15.108,15.108,0,0,0-.916-1.475c-0.632-.979-1.355-1.91-1.888-2.94a21.828,21.828,0,0,0-4.486-6.139c-1.082-1-2.294-1.855-3.427-2.8-0.471-.393-0.875-0.864-1.332-1.274a21.28,21.28,0,0,0-1.8-1.529,12.563,12.563,0,0,1-2.939-2.7,8.437,8.437,0,0,0-1.739-1.418c-0.188-.145-0.426-0.229-0.6-0.383-1.193-1.026-1.216-2-.18-3.371a14.235,14.235,0,0,0,1.282-2.075,7.751,7.751,0,0,1,1.9-2.656,1.2,1.2,0,0,0,.318-0.4,12.043,12.043,0,0,1,2.764-3.407c0.788-.757,1.439-1.656,2.163-2.481,0.226-.257.506-0.466,0.736-0.721a1.536,1.536,0,0,1,2.144-.257c1.152,0.736,2.27,1.533,3.353,2.368a14.415,14.415,0,0,1,2.452,2.177c0.776,0.955,1.9,1.466,2.665,2.38a8.912,8.912,0,0,0,1.884,1.7,9.171,9.171,0,0,1,1.339,1.644c0.638,0.719,1.373,1.356,1.977,2.1,0.624,0.769,1.152,1.617,1.7,2.442,0.4,0.6.794,1.2,1.146,1.831,0.5,0.9.958,1.821,1.449,2.725a34.939,34.939,0,0,1,2.872,6.045A23.283,23.283,0,0,0,258.9,402.8c0.3,0.65.547,1.33,0.826,1.992,0.319,0.755.669,1.5,0.965,2.259,0.211,0.543.291,1.142,0.539,1.664a12.483,12.483,0,0,1,1.09,5c0.02,0.58.293,1.161,0.262,1.732-0.1,1.836-.023,3.7-0.987,5.405a4.954,4.954,0,0,0-.531,1.975,40.3,40.3,0,0,1-1.575,7.345c-0.686,2.469-1.747,4.831-2.579,7.262a23.034,23.034,0,0,0-1.41,5.059,2.474,2.474,0,0,1-.408.885,16.557,16.557,0,0,0-.9,1.495,13.812,13.812,0,0,1-2.032,3.285c-0.433.52-.688,1.185-1.1,1.73-0.989,1.321-2.019,2.612-3.037,3.911-0.21.268-.446,0.516-0.663,0.778q-2.325,2.8-4.648,5.607c-0.5.607-1.044,1.185-1.526,1.809a10.025,10.025,0,0,1-3.243,2.663c-0.813.442-1.555,1.012-2.348,1.493-0.88.534-1.769,1.058-2.678,1.54a23.27,23.27,0,0,1-2.774,1.328c-0.827.306-1.728,0.409-2.588,0.633a11.379,11.379,0,0,0-1.333.462c-0.7.278-1.381,0.595-2.082,0.866-0.544.211-1.1,0.383-1.659,0.561-0.62.2-1.244,0.384-1.866,0.574-0.033.01-.069,0.007-0.1,0.017a7.614,7.614,0,0,1-1.819.539,8.451,8.451,0,0,0-1.792.291,43.488,43.488,0,0,1-4.525.956,16.369,16.369,0,0,1-2.779.022c-1.617-.037-3.234-0.079-4.849-0.157-1.194-.058-2.385-0.178-3.578-0.271a3.4,3.4,0,0,0-.411-0.033,20.639,20.639,0,0,1-5.542-1,16.814,16.814,0,0,1-2-.8c-1.221-.455-2.466-0.851-3.676-1.331-0.987-.392-1.95-0.85-2.9-1.319-1.748-.859-3.484-1.744-5.221-2.626-1.287-.653-2.535-1.395-3.86-1.959-1.562-.665-2.9-1.717-4.41-2.432-1.8-.851-3.376-2.08-5.212-2.842a1.645,1.645,0,0,1-.5-0.357c-1.244-1.231-2.474-2.476-3.722-3.7-0.34-.335-0.722-0.629-1.093-0.931-0.612-.5-1.277-0.938-1.839-1.486-2.331-2.273-4.643-4.568-6.77-7.036a59.405,59.405,0,0,1-4.965-6.425c-1.042-1.608-2.223-3.127-3.247-4.746a31.751,31.751,0,0,1-2.058-3.809,46.6,46.6,0,0,1-2.388-7.208c-0.134-.5-0.339-0.972-0.508-1.458a35.583,35.583,0,0,1-1.232-6.552c-0.257-1.73-.432-3.472-0.649-5.208-0.192-1.533-.391-3.066-0.587-4.6a0.847,0.847,0,0,1-.018-0.1q-0.005-3.226,0-6.453a2.165,2.165,0,0,1,.077-0.51c0.47-1.9.949-3.791,1.413-5.689,0.081-.331.069-0.688,0.166-1.012a6.137,6.137,0,0,1,1.2-2.762,19.076,19.076,0,0,0,1.942-3.11c0.359-.581.745-1.146,1.133-1.708a38.058,38.058,0,0,1,4.59-6.045c0.565-1.255,1.891-1.961,2.37-3.278,0.89-.382.983-1.439,1.687-1.991a1.981,1.981,0,0,0,.509-0.758,13.508,13.508,0,0,1,1.447-2.2c1.195-1.711,2.924-2.883,4.228-4.479a7.291,7.291,0,0,1,2.937-2.349c0.374-.679,1.274-0.51,1.7-0.992a7.385,7.385,0,0,1,1.732-1.068,8.275,8.275,0,0,0,1.318-1.124c1.04-1.092,2.445-1.64,3.626-2.512a16.2,16.2,0,0,0,2.307-1.4A2.307,2.307,0,0,1,173.887,355.974Z"/>
  <path id="_Path_4" data-name="&lt;Path&gt;" class="cls-3" d="M164.966,460.427c1.14,0.663,2.249,1.337,3.385,1.96,1.083,0.594,2.211,1.108,3.289,1.71,0.9,0.5,1.726,1.129,2.634,1.61s1.889,0.807,2.8,1.274c1.129,0.578,2.2,1.267,3.333,1.841,1.069,0.543,2.181,1,3.276,1.492,0.155,0.07.33,0.1,0.487,0.162,2.37,0.988,4.715,2.044,7.117,2.95,2.05,0.773,4.163,1.38,6.253,2.045a6.625,6.625,0,0,0,1.206.253c1.082,0.131,2.167.24,3.252,0.348a1.556,1.556,0,0,1,1.4,1.414c0.218,1.142.51,2.27,0.747,3.409,0.147,0.705.253,1.419,0.375,2.129s0.191,1.436.373,2.131a23.772,23.772,0,0,1,.761,4.989,1.459,1.459,0,0,0,.01.309c0.581,2.132.549,4.352,0.932,6.515,0.256,1.449.353,2.926,0.517,4.391a2.291,2.291,0,0,0,.031.513c0.733,1.986.423,4.1,0.757,6.136,0.161,0.98.19,1.982,0.286,2.973a1.592,1.592,0,0,0,.1.5c0.924,2.029,1,4.271,1.584,6.39a22.858,22.858,0,0,1,.6,5.295,3.625,3.625,0,0,1-1.2,2.971,14.716,14.716,0,0,0-1.179,1.268c-1,1.093-2.351,1.247-3.7,1.565-1.661.392-3.207-.067-4.791-0.26a8.825,8.825,0,0,1-4.241-1.744,1.468,1.468,0,0,1-.694-1.687,21.335,21.335,0,0,0,.588-4.8,30.355,30.355,0,0,1,.588-3.344,7.894,7.894,0,0,0,.211-0.9c0.09-1.371.178-2.744,0.212-4.118a9.543,9.543,0,0,1,.27-2.131c0.258-1.027.324-2.1,0.482-3.153,0.117-.779.282-1.553,0.367-2.335a5.613,5.613,0,0,0-.035-1.432,0.906,0.906,0,0,0-1.011-.807c-0.492.006-.534,0.362-0.7,0.728a25.427,25.427,0,0,0-1.568,7.332q-0.408,3.114-.886,6.219c-0.094.609-.344,1.192-0.461,1.8a9.18,9.18,0,0,0-.278,2.14,12.522,12.522,0,0,1-.378,2.933,1.435,1.435,0,0,1-1.424,1.353c-1.051.163-2.107,0.3-3.153,0.5-0.535.1-1.05,0.294-1.579,0.428a6.075,6.075,0,0,1-1,.192c-1.025.08-2.053,0.132-3.08,0.2q-2.311.146-4.622,0.294c-1.264.082-2.528,0.216-3.793,0.236-0.851.013-1.7-.151-2.558-0.2-0.541-.031-1.087.031-1.629,0-2.334-.12-4.668-0.26-7-0.385a13.961,13.961,0,0,0-1.649-.032,16.893,16.893,0,0,1-4.993-.433c-2.639-.617-5.307-1.11-7.953-1.7a15.591,15.591,0,0,1-2.152-.718,1.1,1.1,0,0,1-.719-1.316c0.29-1.232.646-2.449,0.954-3.677q0.377-1.5.707-3.015c0.441-2.016.846-4.04,1.311-6.051,0.2-.866.53-1.7,0.768-2.561,0.567-2.048,1.114-4.1,1.671-6.154,0.143-.527.288-1.054,0.44-1.578,0.649-2.239,1.269-4.488,1.962-6.714,0.813-2.612,1.692-5.2,2.542-7.805,0.256-.782.5-1.568,0.77-2.344s0.527-1.558.865-2.3a47.661,47.661,0,0,0,1.53-5.228c0.336-1.035.816-2.024,1.235-3.032,0.156-.376.315-0.751,0.489-1.118,0.217-.458.447-0.909,0.678-1.36,0.345-.672.7-1.337,1.043-2.012a5.8,5.8,0,0,1,.422-0.939,18.873,18.873,0,0,0,1.669-3.705,9.638,9.638,0,0,1,.735-1.087C164.7,460.926,164.816,460.693,164.966,460.427Z"/>
  <path id="_Path_5" data-name="&lt;Path&gt;" class="cls-4" d="M94.512,494.895a1.748,1.748,0,0,1,1.543,1.025c0.54,0.755,1.063,1.522,1.616,2.268a14.732,14.732,0,0,0,2.933,2.889c0.594,0.455,1.048,1.087,1.615,1.584,1.524,1.335,3.083,2.631,4.61,3.962,0.491,0.428.914,0.932,1.391,1.377a15.9,15.9,0,0,0,1.4,1.206c1.162,0.855,2.338,1.693,3.531,2.5,0.536,0.364,1.149.614,1.691,0.97,1.408,0.924,2.83,1.832,4.183,2.832a36.525,36.525,0,0,0,5.878,3.6c0.522,0.251.986,0.624,1.512,0.86,2.007,0.9,3.995,1.854,6.055,2.609,1.93,0.708,3.947,1.178,5.92,1.773,1.116,0.336,2.216.726,3.331,1.065,1.311,0.4,2.633.763,3.947,1.152,0.822,0.243,1.633.53,2.462,0.748,0.662,0.174,1.344.274,2.016,0.408,0.872,0.174,1.742.363,2.617,0.52,1.455,0.261,2.906.561,4.371,0.735a49.788,49.788,0,0,0,6.475.361c1.61-.019,3.221.205,4.833,0.283,1.1,0.053,2.2.019,3.295,0.06a44.1,44.1,0,0,0,6.68-.295c0.75-.086,1.515-0.034,2.269-0.091,1.92-.145,3.839-0.311,5.757-0.48a3.416,3.416,0,0,0,1.008-.188,7.2,7.2,0,0,1,2.866-.386,12.037,12.037,0,0,1,.163,1.5,2.877,2.877,0,0,1-.234,1.207c-0.456.932,0.243,2.2-.864,2.926-0.277.991-.518,1.994-0.84,2.971-0.494,1.5-1.187,2.947-1.528,4.476-0.345,1.547-1.3,1.9-2.642,1.974a13.925,13.925,0,0,0-1.505.306c-0.6.1-1.211,0.163-1.817,0.241-0.3.039-.607,0.063-0.908,0.112q-1.373.223-2.744,0.461a2.29,2.29,0,0,0-.79.18,2.371,2.371,0,0,1-1.694.16,14.091,14.091,0,0,0-1.725-.045c-0.067,0-.137.047-0.2,0.039-1.561-.177-3.121.064-4.683,0.012-0.96-.032-1.922-0.012-2.883.012-0.715.017-1.428,0.078-2.143,0.115a0.793,0.793,0,0,1-.4-0.013c-1.168-.713-2.5-0.251-3.73-0.544-0.4-.095-0.816-0.115-1.2-0.239a4.536,4.536,0,0,0-2.431-.232,1.441,1.441,0,0,1-.973-0.135,3.611,3.611,0,0,0-2.492-.369,3.943,3.943,0,0,1-1.624-.019c-1.26-.394-2.683-0.157-3.822-1a1,1,0,0,0-.3-0.07,30.912,30.912,0,0,1-4.277-1.389,24.37,24.37,0,0,0-4.386-1.1,7.094,7.094,0,0,1-1.02-.366c-0.346-.144-0.669-0.347-1.022-0.467-1.072-.365-2.154-0.7-3.232-1.05a1.186,1.186,0,0,0-.295-0.092c-1.761-.067-3.167-1.041-4.659-1.8-1.336-.682-2.686-1.336-4.027-2.01a4.894,4.894,0,0,1-.422-0.3,2.719,2.719,0,0,0-.873-0.526,11.142,11.142,0,0,1-3.545-1.53,28.027,28.027,0,0,1-4.585-2.481,8.426,8.426,0,0,0-1.214-.774c-1.527-.86-2.548-2.291-3.864-3.387-0.871-.726-1.771-1.418-2.656-2.127-0.482-.386-0.953-0.786-1.442-1.163-0.73-.563-1.49-1.088-2.2-1.676a11.977,11.977,0,0,1-.963-1.057c-1.463-1.547-2.94-3.08-4.389-4.64a3.29,3.29,0,0,1-.722-1.1,9.452,9.452,0,0,0-1.932-3.017c-0.514-.6-0.977-1.243-1.472-1.86a13.549,13.549,0,0,0-.928-1.1,2.746,2.746,0,0,1-.849-2.615,32.028,32.028,0,0,1,2.314-7.575C93.974,496.364,94.225,495.624,94.512,494.895Z"/>
  <path id="_Path_6" data-name="&lt;Path&gt;" class="cls-3" d="M90.7,509.668c0.317,0.394.66,0.771,0.947,1.186a19.61,19.61,0,0,1,2.457,3.8,4.4,4.4,0,0,0,.8,1.193c1.393,1.612,2.847,3.173,4.205,4.814,1.751,2.116,4.053,3.591,6.073,5.392,1.846,1.645,3.964,2.969,5.614,4.847a5.425,5.425,0,0,0,1.427.969c0.951,0.544,1.95,1.008,2.878,1.587a17.251,17.251,0,0,0,3.644,1.894,14.489,14.489,0,0,1,4.212,2.129,13.568,13.568,0,0,0,2.757,1.389c0.662,0.29,1.238.916,2.093,0.621a0.769,0.769,0,0,1,.414.26,7.779,7.779,0,0,0,3.446,1.541,9.523,9.523,0,0,1,1.662.528,1.325,1.325,0,0,1,.831,1.6c-0.286,1.344-.614,2.68-0.941,4.015-0.253,1.033-.543,2.057-0.8,3.09-0.335,1.366-.632,2.741-0.981,4.1-0.5,1.966-1.019,3.93-1.57,5.884-0.269.955-.652,1.877-0.942,2.827-0.271.886-.5,1.785-0.722,2.687-0.176.733-.442,0.944-1.156,0.706-1.139-.378-2.278-0.766-3.385-1.226-1.712-.711-3.4-1.487-5.1-2.235-0.283-.125-0.578-0.226-0.853-0.366-2.143-1.091-4.281-2.19-6.423-3.282a18.885,18.885,0,0,1-4.731-3.259,1.084,1.084,0,0,0-.351-0.21,10.179,10.179,0,0,1-3.925-3.242,6.623,6.623,0,0,0-.945-0.949c-1.182-.947-2.149-2.126-3.274-3.108a15.676,15.676,0,0,1-3.268-4.688c-1.193-2.2-2.357-4.42-3.529-6.632a22.1,22.1,0,0,1-2.34-7.444,14.264,14.264,0,0,0-.4-1.812,10.22,10.22,0,0,1-.316-4.6,61.263,61.263,0,0,0,.662-6.358c0.093-1.124.355-2.234,0.537-3.351,0.116-.712.275-1.423,0.323-2.14a9.836,9.836,0,0,1,.671-2.109Z"/>
  <path id="_Path_7" data-name="&lt;Path&gt;" class="cls-3" d="M156.621,569.381c-1.021.136-2.058,0.2-3.057,0.434a2.989,2.989,0,0,1-1.6-.024,3.983,3.983,0,0,0-2.711.118,3.328,3.328,0,0,1-1.017.15,36.851,36.851,0,0,1-6.055-.3c-1.4-.146-2.812-0.147-4.218-0.213a2.32,2.32,0,0,1-.506-0.034c-1.657-.462-3.316-0.919-4.966-1.407-1.119-.331-1.336-0.634-1.173-1.8a8.549,8.549,0,0,1,.566-2.292,33.658,33.658,0,0,0,1.56-5.877c0.147-.6.335-1.19,0.5-1.786a22.756,22.756,0,0,0,.61-2.279,80.062,80.062,0,0,1,1.826-8.671c0.13-.459.133-0.953,0.234-1.422,0.167-.773.287-0.9,1.046-0.76a20.468,20.468,0,0,1,2.794.708c0.972,0.326,1.889.818,2.862,1.143s2,0.516,2.987.8a42.915,42.915,0,0,0,5.652,1.006,5.337,5.337,0,0,0,1.132.017,15.862,15.862,0,0,1,4.972.773,31.652,31.652,0,0,0,5.025.5c1.057,0.1,2.128.073,3.192,0.07,0.44,0,.878-0.112,1.319-0.138,0.719-.042,1.44-0.088,2.159-0.072a29.337,29.337,0,0,0,4.944.125c2.47-.361,4.941-0.712,7.409-1.08a0.928,0.928,0,0,1,1.115.219,1.468,1.468,0,0,1,.06,1.245,18.929,18.929,0,0,0-1.954,3.5,16.706,16.706,0,0,1-3.26,3.822c-0.4.365-.705,0.833-1.085,1.223-1.172,1.2-2.338,2.412-3.547,3.576-0.883.85-1.821,1.643-2.754,2.439a6.045,6.045,0,0,1-1.029.682c-1.352.739-2.7,1.5-4.078,2.177-1.508.741-3.053,1.4-4.586,2.095-0.814.366-1.62,0.756-2.457,1.06a16.908,16.908,0,0,1-1.87.459Z"/>
  <path id="_Path_8" data-name="&lt;Path&gt;" class="cls-3" d="M171.392,566.048c-0.425.819-.805,1.492-1.132,2.19a43.317,43.317,0,0,1-4.43,7.169,58.564,58.564,0,0,1-5.342,6.134c-1.4,1.446-3.009,2.7-4.534,4.029-1.912,1.666-3.809,3.35-5.761,4.968a9.514,9.514,0,0,1-2.885,2.113,2.385,2.385,0,0,1-2.732-.526,10.527,10.527,0,0,1-2.765-3.667,12.833,12.833,0,0,1-.56-1.874c-0.573-2.547-1.105-5.1-1.686-7.648-0.336-1.474-.748-2.93-1.1-4.4a9.729,9.729,0,0,1-.115-1.342,21.821,21.821,0,0,1,3.359.027,35.47,35.47,0,0,0,8.929.14,11.354,11.354,0,0,1,3.787-.1,1.1,1.1,0,0,0,1.228-.247,0.752,0.752,0,0,1,.574-0.13,6.918,6.918,0,0,0,3.279-.773c0.991-.386,1.93-0.9,2.9-1.348a8.728,8.728,0,0,1,1.521-.626,13.533,13.533,0,0,0,5.11-2.8A4,4,0,0,1,171.392,566.048Z"/>
  <path id="_Path_9" data-name="&lt;Path&gt;" class="cls-3" d="M91.123,544.319q0.844,1.458,1.689,2.915a3.163,3.163,0,0,0,.439.68c1.88,1.857,3.789,3.685,5.654,5.557,0.846,0.849,1.538,1.863,2.433,2.652,1.44,1.269,2.958,2.455,4.5,3.6,1.267,0.937,2.6,1.8,3.939,2.622,1.608,0.991,3.262,1.907,4.891,2.863,0.608,0.357.708,0.708,0.285,1.222-0.523.634-1.093,1.231-1.661,1.827a7.181,7.181,0,0,1-1.987,1.258,17.931,17.931,0,0,0-2.981,1.99,35.6,35.6,0,0,1-5.223,3.477,3.844,3.844,0,0,1-2.6.433c-0.808-.144-1.644-0.131-2.452-0.274a5.572,5.572,0,0,1-4.867-4.53c-0.436-1.913-.908-3.819-1.277-5.744a15.149,15.149,0,0,1-.113-2.47q-0.1-4.33-.2-8.661a0.865,0.865,0,0,0-.017-0.206c-0.623-2.284-.374-4.655-0.692-6.971a15.879,15.879,0,0,1-.015-2.141Z"/>
  <path id="_Path_10" data-name="&lt;Path&gt;" class="cls-3" d="M260.494,434.162c0.338-1.458.323-2.962,1.073-4.287,0.735-1.3.734-2.779,1.024-4.185,0.3-1.442.513-2.9,0.768-4.353a0.789,0.789,0,0,1,.093-0.294,9.557,9.557,0,0,0,1.077-4.153,11.99,11.99,0,0,0,.012-1.635c1.191-.183,2.332-0.421,3.484-0.518A21.445,21.445,0,0,0,272,413.688a21.938,21.938,0,0,0,2.5-.933c0.721-.3,1.431-0.636,2.122-1,1.269-.674,2.533-1.359,3.775-2.082,1.272-.741,2.511-1.539,3.77-2.3a1.275,1.275,0,0,1,1.756.2,2.916,2.916,0,0,1,.667,1.022,7.681,7.681,0,0,1-.515,6c-0.315.649-.649,1.289-0.94,1.948a8.751,8.751,0,0,1-1.529,2.3c-0.659.74-1.143,1.638-1.816,2.363a31.773,31.773,0,0,1-2.895,2.756c-1.819,1.52-3.584,3.087-5.264,4.764a14.468,14.468,0,0,1-2.927,2.056,33.609,33.609,0,0,1-3.758,1.94c-1.51.65-3.078,1.167-4.628,1.719A2.129,2.129,0,0,1,260.494,434.162Z"/>
  <path id="_Path_11" data-name="&lt;Path&gt;" class="cls-3" d="M188.085,352.341c-1.933.135-3.75,0.2-5.553,0.4-2.04.227-4.066,0.574-6.1,0.87a0.992,0.992,0,0,0-.3.069c-1.744.88-3.714,0.858-5.543,1.395a2.251,2.251,0,0,0-.618.331c-1.075.743-2.153,1.481-3.209,2.25-0.6.437-1.143,0.951-1.742,1.389a9.877,9.877,0,0,1-1.326.784,1.427,1.427,0,0,1-.578-0.067c0.215-.308.35-0.536,0.519-0.735,0.556-.651,1.118-1.3,1.693-1.931,0.134-.147.347-0.22,0.492-0.36a2.051,2.051,0,0,0,.577-0.661,6.11,6.11,0,0,1,2.13-2.665,10.153,10.153,0,0,0,1.23-1.376c1.042-1.223,2.06-2.467,3.121-3.673,0.948-1.077,1.971-2.09,2.909-3.176,1.074-1.243,2.061-2.563,3.147-3.795a22.8,22.8,0,0,1,1.83-1.646c0.985-.9,1.977-1.788,2.932-2.715a9.339,9.339,0,0,0,1.559-1.749,2.5,2.5,0,0,1,2.517-1.25c0.187,0.207.364,0.418,0.557,0.612a1.528,1.528,0,0,1,.339,1.808,18.793,18.793,0,0,0-1.459,6.908,8.932,8.932,0,0,1-.207,3.044,0.61,0.61,0,0,0-.033.306,36.579,36.579,0,0,0,1.026,4.073A2.61,2.61,0,0,1,188.085,352.341Z"/>
  <path id="_Path_12" data-name="&lt;Path&gt;" class="cls-4" d="M259.094,398.868c1.812,0.583,3.472,1.1,5.122,1.651,1.558,0.519,3.1,1.1,4.664,1.592a11.524,11.524,0,0,0,1.821.277c0.267,0.038.536,0.066,0.8,0.115a7.276,7.276,0,0,0,1.811.324c1.507-.125,2.87.5,4.316,0.67,1.534,0.18,3.063.405,4.585,0.664a6.383,6.383,0,0,1,1.761.547c0.748,0.373.7,0.881-.013,1.329-1.511.953-3,1.945-4.508,2.9-0.52.328-1.082,0.59-1.632,0.87-0.76.387-1.521,0.772-2.29,1.14a13.9,13.9,0,0,1-1.591.69c-1.328.441-2.651,0.917-4.01,1.233a10.955,10.955,0,0,1-4.807.237c-0.935-.2-1.036-0.4-1.073-1.331a3,3,0,0,0-.2-1.2c-0.962-1.9-1.388-4.005-2.42-5.9A52.1,52.1,0,0,1,259.094,398.868Z"/>
  <path id="_Path_13" data-name="&lt;Path&gt;" class="cls-4" d="M190.391,334.356a4.076,4.076,0,0,1,3.192.684,5.066,5.066,0,0,1,1.6,2.224,1.252,1.252,0,0,0,.3.5c1.168,0.555,1.474,1.756,2.08,2.725,0.668,1.069,1.08,2.271,1.645,3.385a33.472,33.472,0,0,0,2.351,4.036,11.942,11.942,0,0,1,2,3.984,1.286,1.286,0,0,0,.263.55,0.987,0.987,0,0,1,.08,1.172,4.836,4.836,0,0,1-.935-0.135c-2.743-.941-5.611-0.941-8.451-1.144-1.1-.078-2.195-0.121-3.293-0.161a1.968,1.968,0,0,1-1.733-1.418c-0.325-.745-0.413-1.592-0.728-2.344a6.713,6.713,0,0,1-.051-3.942,1.681,1.681,0,0,0,.016-0.611,7.843,7.843,0,0,1,.181-3.573,1.3,1.3,0,0,0,.065-0.406A9.461,9.461,0,0,1,190,335.664C190.164,335.257,190.255,334.82,190.391,334.356Z"/>
  <path id="_Compound_Path_4" data-name="&lt;Compound Path&gt;" d="M181.771,401.859a9.966,9.966,0,0,1-8.012-3.263,6.243,6.243,0,0,1-1.673-5.591c0.166-.912.264-1.837,0.428-2.749a2.57,2.57,0,0,1,.346-0.954c0.569-.855,1.184-1.68,1.785-2.514a10.761,10.761,0,0,1,.975-1.306,5.849,5.849,0,0,1,1.491-1.211,5.618,5.618,0,0,1,3.969-.653c1.057,0.27,2.146.408,3.216,0.631a7.476,7.476,0,0,1,3.434,1.539,8.855,8.855,0,0,1,1.126,1.3,7.337,7.337,0,0,0,.56.86,2.514,2.514,0,0,1,.622,2.478,2.378,2.378,0,0,0-.009,1.515,0.373,0.373,0,0,1,.02.3c-0.511.784-.177,1.717-0.456,2.535a11,11,0,0,1-.92,2.373,12.128,12.128,0,0,1-3.73,4.064,5.45,5.45,0,0,1-1.732.552A9.681,9.681,0,0,1,181.771,401.859Zm4.476-4.492c-1.207-.569-2.256-1.054-3.3-1.558a2.312,2.312,0,0,1-.854-0.531,7.354,7.354,0,0,1-1.548-3.089c-0.122-.666-0.251-1.332-0.35-2a1.845,1.845,0,0,1-.007-0.892c0.266-.663.628-1.287,0.935-1.934a3.912,3.912,0,0,0,.364-0.951,0.541,0.541,0,0,0-.543-0.71c-1.238-.022-2.5-0.081-3.514.817a12.546,12.546,0,0,0-1.29,1.327,0.877,0.877,0,0,0,.129,1.388,14.934,14.934,0,0,1,1.447,1.714c0.275,0.38.362,0.9,0.651,1.264a4.745,4.745,0,0,1,.9,2.582,13.112,13.112,0,0,1-.418,3.4c-0.115.62-.1,0.931,0.5,1.148a4.722,4.722,0,0,0,1.974.431,15.992,15.992,0,0,0,3.192-.763A3.486,3.486,0,0,0,186.247,397.367Zm1.294-2.566a17.618,17.618,0,0,0,.414-3.274,6.888,6.888,0,0,0-2.2-4.733,2,2,0,0,0-2.879.147,19.385,19.385,0,0,0-1.152,2.292,0.894,0.894,0,0,0-.062.5,5.366,5.366,0,0,0,.949,2.991,0.922,0.922,0,0,1,.21.457,1.733,1.733,0,0,0,1.455,1.419,9.76,9.76,0,0,0,1.83.2C186.509,394.822,186.911,394.8,187.541,394.8Zm-12.914-4.28c-0.818.548-.532,1.313-0.691,1.949a4.576,4.576,0,0,0,1.083,4.189,4.263,4.263,0,0,0,2.135,1.689,12.434,12.434,0,0,0,.525-2.953A6.549,6.549,0,0,0,174.628,390.521Z"/>
  <path id="_Compound_Path_5" data-name="&lt;Compound Path&gt;" d="M218.545,423.47c-0.178-1.486.755-3.052,1.843-4.593a6.319,6.319,0,0,1,2.262-1.735,11.2,11.2,0,0,1,7.615-.978,16.058,16.058,0,0,1,3.718,1.134,2.132,2.132,0,0,1,1.1,1.036,9.259,9.259,0,0,1,1.407,4.171c0,2.325-.036,4.68-1.186,6.818a2.163,2.163,0,0,1-.433.573,28.358,28.358,0,0,1-4.089,3.259,2.061,2.061,0,0,1-1.488.256,28.221,28.221,0,0,1-3.337-.632c-1.278-.378-2.51-0.917-3.75-1.416a5.253,5.253,0,0,1-2.071-1.963C218.93,427.8,218.573,425.931,218.545,423.47Zm14.77,4.7a1.684,1.684,0,0,0,1.064-1.495,18.123,18.123,0,0,1,.263-2.45,6.511,6.511,0,0,0-.635-4.18,2.363,2.363,0,0,0-1.767-1.42c-0.431-.108-0.861-0.221-1.286-0.351a1.1,1.1,0,0,0-1.5.648,7.594,7.594,0,0,0-.638,4.117,4.836,4.836,0,0,0,2.513,4.214C231.982,427.618,232.687,427.883,233.316,428.17Zm-7.284,1.953a6.632,6.632,0,0,0,3.128,1.147c1.147,0.189,1.858-.417,2.6-1.3-0.327-.185-0.572-0.35-0.837-0.469a5.837,5.837,0,0,1-3.592-6.09,10.257,10.257,0,0,0,.012-1.131,12.877,12.877,0,0,1,.106-1.522c0.087-.541.286-1.064,0.373-1.6a1.223,1.223,0,0,0-.136-0.754,1.068,1.068,0,0,0-1.447-.409,16.789,16.789,0,0,0-2.228.79,4.067,4.067,0,0,0-2.061,1.415c0.492,0.212.931,0.391,1.36,0.591a3.556,3.556,0,0,1,.795.447c0.388,0.327.7,0.752,1.1,1.05a1.879,1.879,0,0,1,.784,1.386,22.228,22.228,0,0,0,.343,2.749A4.762,4.762,0,0,1,226.031,430.122Zm-0.889-3.014c-0.159-.877-0.339-1.817-0.5-2.761a2.03,2.03,0,0,0-1.1-1.542,23.27,23.27,0,0,0-2.452-1.043c-0.486-.18-0.783.028-0.829,0.6a9.157,9.157,0,0,0-.014,2.158c0.356,2.237,1.288,4.116,3.5,5.1,0.688,0.3.941,0.245,1.123-.483A17.234,17.234,0,0,0,225.143,427.109Z"/>
  <path id="_Compound_Path_6" data-name="&lt;Compound Path&gt;" class="cls-5" d="M223.514,437.544a6.211,6.211,0,0,1,5.816-.156A12.464,12.464,0,0,1,233.494,440a9.2,9.2,0,0,1,1.036,1.274,2.1,2.1,0,0,1,.258,1.07,12.873,12.873,0,0,1-.192,1.845,2.42,2.42,0,0,1-2.274,1.76,10.762,10.762,0,0,1-8.465-4.627A4.222,4.222,0,0,1,223.514,437.544Zm3.751,0.692c-0.61.075-1.224,0.126-1.829,0.231a0.626,0.626,0,0,0-.5,1.037,8.788,8.788,0,0,0,1.139,1.589A12.123,12.123,0,0,0,232,444.447a1.06,1.06,0,0,0,1.23-.273,1.137,1.137,0,0,0,.034-1.448c-0.754-.927-1.543-1.832-2.384-2.681a16.011,16.011,0,0,0-1.434-1A3.059,3.059,0,0,0,227.264,438.236Z"/>
  <path id="_Compound_Path_7" data-name="&lt;Compound Path&gt;" class="cls-5" d="M167.715,396.917c-2.036,1.424-3.68.416-5.317-.589-0.436-.268-0.815-0.633-1.262-0.875a10.89,10.89,0,0,1-3.089-2.835,2.287,2.287,0,0,1,.12-2.716,0.834,0.834,0,0,0,.254-0.423,0.928,0.928,0,0,1,.536-1,2.406,2.406,0,0,1,1.688-.266,29.31,29.31,0,0,1,3.518,1.091,4.9,4.9,0,0,1,2.75,2.631,3.733,3.733,0,0,0,.629.92c0.387,0.471.8,0.919,1.172,1.338C168.471,395.22,167.477,395.834,167.715,396.917ZM160.8,389.8c-1.612-.013-2.022.618-1.488,1.7a2.2,2.2,0,0,0,.425.582,20,20,0,0,0,5.05,3.864,1.9,1.9,0,0,0,1.58.11,0.9,0.9,0,0,0,.485-1.466c-0.112-.171-0.288-0.3-0.406-0.467a6.75,6.75,0,0,1-.846-1.284,3.638,3.638,0,0,0-1.582-1.7,5.12,5.12,0,0,0-.882-0.517C162.251,390.287,161.346,389.99,160.8,389.8Z"/>
  <path id="_Path_14" data-name="&lt;Path&gt;" d="M186.313,432.134c-0.046.483-.133,1.2-0.176,1.916a2.455,2.455,0,0,0,.083,1.019,9.322,9.322,0,0,1,.57,3.316,1.152,1.152,0,0,1-.789,1.267,1.419,1.419,0,0,1-1.307-.979A13.874,13.874,0,0,1,184.26,434a6.867,6.867,0,0,0,0-2.055,3.875,3.875,0,0,0-.6-1.378,0.837,0.837,0,0,0-.99-0.358,2.393,2.393,0,0,1-1.021.072,6.672,6.672,0,0,0-4.247.864,2.239,2.239,0,0,1-.967.229,0.749,0.749,0,0,1-.828-0.623,0.871,0.871,0,0,1,.456-1.128,12.356,12.356,0,0,1,2.321-.751,21.973,21.973,0,0,1,6.535-.162,1.326,1.326,0,0,1,1.278,1.224C186.278,430.585,186.272,431.242,186.313,432.134Z"/>
  <path id="_Path_15" data-name="&lt;Path&gt;" d="M127.606,400.442a3.823,3.823,0,0,0-3.22.359,1.067,1.067,0,0,0-.35,1.9,1.507,1.507,0,0,0,1.783.617,1.678,1.678,0,0,1,2.109,1,1.827,1.827,0,0,1-1.99,1.144,5.817,5.817,0,0,1-2.534-.234,3.019,3.019,0,0,1-1.73-3.086,10.753,10.753,0,0,1,.584-1.752,1.491,1.491,0,0,1,1.634-1.126,1.48,1.48,0,0,0,.873-0.265,2.438,2.438,0,0,1,2.7.2C128.041,399.507,128.033,399.592,127.606,400.442Z"/>
  <path id="_Path_16" data-name="&lt;Path&gt;" class="cls-6" d="M186.247,397.367a3.486,3.486,0,0,1-1.728,1.642,15.992,15.992,0,0,1-3.192.763,4.722,4.722,0,0,1-1.974-.431c-0.6-.217-0.613-0.527-0.5-1.148a13.112,13.112,0,0,0,.418-3.4,4.745,4.745,0,0,0-.9-2.582c-0.289-.364-0.377-0.884-0.651-1.264a14.934,14.934,0,0,0-1.447-1.714,0.877,0.877,0,0,1-.129-1.388,12.546,12.546,0,0,1,1.29-1.327c1.016-.9,2.276-0.84,3.514-0.817a0.541,0.541,0,0,1,.543.71,3.912,3.912,0,0,1-.364.951c-0.307.647-.669,1.271-0.935,1.934a1.845,1.845,0,0,0,.007.892c0.1,0.67.228,1.336,0.35,2a7.354,7.354,0,0,0,1.548,3.089,2.312,2.312,0,0,0,.854.531C183.991,396.313,185.04,396.8,186.247,397.367Z"/>
  <path id="_Path_17" data-name="&lt;Path&gt;" class="cls-7" d="M187.541,394.8c-0.63,0-1.032.022-1.431-.005a9.76,9.76,0,0,1-1.83-.2,1.733,1.733,0,0,1-1.455-1.419,0.922,0.922,0,0,0-.21-0.457,5.366,5.366,0,0,1-.949-2.991,0.894,0.894,0,0,1,.062-0.5,19.385,19.385,0,0,1,1.152-2.292,2,2,0,0,1,2.879-.147,6.888,6.888,0,0,1,2.2,4.733A17.618,17.618,0,0,1,187.541,394.8Z"/>
  <path id="_Path_18" data-name="&lt;Path&gt;" class="cls-7" d="M174.628,390.521a6.549,6.549,0,0,1,3.052,4.874,12.434,12.434,0,0,1-.525,2.953,4.263,4.263,0,0,1-2.135-1.689,4.576,4.576,0,0,1-1.083-4.189C174.1,391.833,173.81,391.069,174.628,390.521Z"/>
  <path id="_Path_19" data-name="&lt;Path&gt;" class="cls-7" d="M233.316,428.17c-0.628-.287-1.334-0.552-1.984-0.916a4.836,4.836,0,0,1-2.513-4.214,7.594,7.594,0,0,1,.638-4.117,1.1,1.1,0,0,1,1.5-.648c0.425,0.13.855,0.243,1.286,0.351a2.363,2.363,0,0,1,1.767,1.42,6.511,6.511,0,0,1,.635,4.18,18.123,18.123,0,0,0-.263,2.45A1.684,1.684,0,0,1,233.316,428.17Z"/>
  <path id="_Path_20" data-name="&lt;Path&gt;" class="cls-6" d="M226.031,430.122a4.762,4.762,0,0,0,.3-3.709,22.228,22.228,0,0,1-.343-2.749,1.879,1.879,0,0,0-.784-1.386c-0.406-.3-0.716-0.724-1.1-1.05a3.556,3.556,0,0,0-.795-0.447c-0.429-.2-0.869-0.379-1.36-0.591a4.067,4.067,0,0,1,2.061-1.415,16.789,16.789,0,0,1,2.228-.79,1.068,1.068,0,0,1,1.447.409,1.223,1.223,0,0,1,.136.754c-0.087.541-.285,1.064-0.373,1.6a12.877,12.877,0,0,0-.106,1.522,10.257,10.257,0,0,1-.012,1.131,5.837,5.837,0,0,0,3.592,6.09c0.266,0.119.511,0.285,0.837,0.469-0.737.888-1.449,1.494-2.6,1.3A6.632,6.632,0,0,1,226.031,430.122Z"/>
  <path id="_Path_21" data-name="&lt;Path&gt;" class="cls-7" d="M225.143,427.109a17.234,17.234,0,0,1-.261,2.022c-0.181.728-.434,0.787-1.123,0.483-2.217-.98-3.148-2.859-3.5-5.1a9.157,9.157,0,0,1,.014-2.158c0.046-.568.343-0.776,0.829-0.6a23.27,23.27,0,0,1,2.452,1.043,2.03,2.03,0,0,1,1.1,1.542C224.8,425.292,224.984,426.232,225.143,427.109Z"/>
  <path id="_Path_22" data-name="&lt;Path&gt;" class="cls-5" d="M227.264,438.236a3.059,3.059,0,0,1,2.185.807,16.011,16.011,0,0,1,1.434,1c0.84,0.849,1.63,1.754,2.384,2.681a1.137,1.137,0,0,1-.034,1.448,1.06,1.06,0,0,1-1.23.273,12.123,12.123,0,0,1-5.929-3.354,8.788,8.788,0,0,1-1.139-1.589,0.626,0.626,0,0,1,.5-1.037C226.04,438.363,226.654,438.311,227.264,438.236Z"/>
  <path id="_Path_23" data-name="&lt;Path&gt;" class="cls-5" d="M160.8,389.8c0.544,0.19,1.448.487,2.337,0.825a5.12,5.12,0,0,1,.882.517,3.638,3.638,0,0,1,1.582,1.7,6.75,6.75,0,0,0,.846,1.284c0.119,0.168.294,0.3,0.406,0.467a0.9,0.9,0,0,1-.485,1.466,1.9,1.9,0,0,1-1.58-.11,20,20,0,0,1-5.05-3.864,2.2,2.2,0,0,1-.425-0.582C158.78,390.417,159.19,389.787,160.8,389.8Z"/>
  <ellipse id="_Path_24" data-name="&lt;Path&gt;" class="cls-1" cx="67.603" cy="70.766" rx="66.603" ry="69.766"/>
  <ellipse id="_Path_25" data-name="&lt;Path&gt;" class="cls-1" cx="217.161" cy="65.341" rx="64.604" ry="59.37" transform="translate(102.75 261.143) rotate(-76.447)"/>
  <ellipse id="_Path_26" data-name="&lt;Path&gt;" class="cls-1" cx="139.889" cy="126.647" rx="70.274" ry="66.871" transform="translate(-16.013 232.962) rotate(-76.447)"/>
  <line id="_Path_27" data-name="&lt;Path&gt;" class="cls-8" x1="129.87" y1="206.903" x2="123.827" y2="400.651"/>
  <polyline id="_Path_28" data-name="&lt;Path&gt;" class="cls-8" points="72.99 149.184 125.143 401.352 188.44 173.913"/>
  <path id="_Path_29" data-name="&lt;Path&gt;" class="cls-8" d="M276.667,274.094"/>
  <path id="_Path_30" data-name="&lt;Path&gt;" class="cls-9" d="M189.424,118.188s7.346-20.569-16.927-32.742,4.537-15.207,19.106,6.3S193.111,127.423,189.424,118.188Z"/>
  <path id="_Path_31" data-name="&lt;Path&gt;" class="cls-9" d="M262.6,48.432s-0.774-20.062-21.127-25.589-1.193-14.634,15.081,1.406S267.8,55.891,262.6,48.432Z"/>
  <path id="_Path_32" data-name="&lt;Path&gt;" class="cls-9" d="M112.182,45.143s1.394-20.274-23.527-24.979,0.227-14.761,18.784.764S117.84,52.466,112.182,45.143Z"/>
  <ellipse id="_Path_33" data-name="&lt;Path&gt;" class="cls-9" cx="154.163" cy="71.591" rx="4.663" ry="3.75"/>
  <ellipse id="_Path_34" data-name="&lt;Path&gt;" class="cls-9" cx="224.519" cy="10.894" rx="4.019" ry="3.638"/>
  <ellipse id="_Path_35" data-name="&lt;Path&gt;" class="cls-9" cx="69.75" cy="10.032" rx="5.25" ry="4.5"/>
</svg>
