<svg id="Layer_1" data-name="Layer 1" xmlns="http://www.w3.org/2000/svg" viewBox="0 0 149.799 67.984">
  <defs>
    <style>
      .cls-1 {
        fill: #c7c9cb;
      }
    </style>
  </defs>
  <title>3c5019fe-544b-4d0c-8b7d-df65eaaa9023</title>
  <path id="_Compound_Path_" data-name="&lt;Compound Path&gt;" d="M102.728,24.3c0.855,0,1.517.039,2.173-.008a12.434,12.434,0,0,1,4.738.766,43.892,43.892,0,0,1,13.638,7.609,11.9,11.9,0,0,1,4.014,6.372c0.36,1.292.874,2.548,1.136,3.856a1.43,1.43,0,0,0,1.459,1.315,32.372,32.372,0,0,1,14.756,5.353c4.077,2.884,5.432,7.145,5.112,12.013-0.066,1-.179,2-0.177,3,0,1.552-.118,1.784-1.577,2.3a0.717,0.717,0,0,0-.2.022c-1.234,1.674-2.773,1.04-4.3.593a4.066,4.066,0,0,0-1-.091,96.616,96.616,0,0,1-10.564-1.164c-3.588-.508-7.219-0.729-10.835-1.026q-7.426-.609-14.858-1.133c-1.137-.081-2.285-0.009-3.428-0.017-5.849-.045-11.7-0.138-17.546-0.131C76.19,63.934,67.111,64,58.032,64.066c-6.594.045-13.188,0.068-19.781,0.191-7.724.144-15.447,0.37-23.169,0.592-2.823.081-5.642,0.323-8.464,0.355a26.924,26.924,0,0,1-4.811-.4C0.253,64.538-.078,63.982.014,62.41A29.014,29.014,0,0,1,.4,57.6c2.082-9,5.72-17.078,13.754-22.454,1.563-1.046,3.018-2.259,4.621-3.235a13.73,13.73,0,0,1,3-1.113,7.536,7.536,0,0,1,1.2-.121,3.423,3.423,0,0,0,3.057-2.583c1.444-3.97,3.113-7.922,6.075-11.057a21.887,21.887,0,0,1,4.669-3.768,36.331,36.331,0,0,1,6.057-2.7c3.417-1.254,6.9-.717,10.353-0.066,0.39,0.074.777,0.169,1.14,0.249a2.18,2.18,0,0,0,.514-0.42,20.7,20.7,0,0,1,8.539-7.779,25.1,25.1,0,0,1,9.3-2.422A24.616,24.616,0,0,1,83.2,1.307,28.739,28.739,0,0,1,95.7,9.79c2.836,3.212,5.276,6.627,6.311,10.865C102.289,21.8,102.47,22.978,102.728,24.3ZM146.5,65.277c0.073-1.787.007-3.267,0.22-4.706,0.421-2.846-.744-5.111-2.425-7.194a12.825,12.825,0,0,0-4.94-3.353,39.617,39.617,0,0,0-9.82-2.859,4.746,4.746,0,0,0-1.586.113c-1.437.251-2.187-.2-2.425-1.6-0.169-.994-0.2-2.014-0.386-3-0.662-3.426-1.874-6.514-5.031-8.5-3.107-1.959-5.986-4.192-9.556-5.478a18.623,18.623,0,0,0-8.291-.935c-1.347.125-1.86-.127-2.194-1.406a26.45,26.45,0,0,1-.647-3.367,16.584,16.584,0,0,0-3.029-7.6c-2.618-3.7-5.562-7.076-9.6-9.306A20.915,20.915,0,0,0,76.676,3.075c-2.269,0-4.539.425-6.809,0.651A15.248,15.248,0,0,0,62.614,6.54a18.545,18.545,0,0,0-5.847,6.015c-1.19,2.1-1.688,2.034-3.912,1.14a11.955,11.955,0,0,0-4.3-.924A18.262,18.262,0,0,0,33.3,20.482c-2.011,2.7-3.189,6.033-4.671,9.115-1.049,2.181-2.217,4.076-5.027,4.146a8.375,8.375,0,0,0-5.648,2.331c-0.881.819-1.916,1.471-2.866,2.218-2.437,1.917-4.8,3.907-6.3,6.708-0.82,1.534-1.741,3.021-2.465,4.6A42.412,42.412,0,0,0,3.015,59.72,12.661,12.661,0,0,0,3,61.824a29.484,29.484,0,0,0,3.147.33c1.676,0,3.352-.167,5.029-0.211,5.039-.132,10.078-0.26,15.117-0.347,3.228-.055,6.457-0.027,9.685-0.048,5.64-.037,11.28-0.069,16.919-0.135,1.948-.023,3.894-0.2,5.841-0.209,5.632-.035,11.265-0.069,16.9-0.017,6.449,0.059,12.9.2,19.344,0.324,5.763,0.111,11.525.227,17.287,0.382,2.551,0.069,5.1.226,7.649,0.372a103.439,103.439,0,0,1,13.3,1.875c1.377,0.26,2.883,0,4.193.417C140.321,65.478,143.257,64.941,146.5,65.277Z" transform="translate(0)"/>
  <path id="_Path_" data-name="&lt;Path&gt;" class="cls-1" d="M146.5,65.277c-3.242-.336-6.177.2-9.086-0.719-1.31-.414-2.816-0.156-4.193-0.417a103.439,103.439,0,0,0-13.3-1.875c-2.548-.146-5.1-0.3-7.649-0.372-5.762-.156-11.524-0.271-17.287-0.382-6.448-.124-12.9-0.265-19.344-0.324C70,61.136,64.37,61.17,58.738,61.2c-1.947.012-3.894,0.186-5.841,0.209-5.639.066-11.279,0.1-16.919,0.135-3.228.021-6.458-.007-9.685,0.048-5.04.086-10.078,0.215-15.117,0.347-1.677.044-3.353,0.207-5.029,0.211A29.484,29.484,0,0,1,3,61.824a12.661,12.661,0,0,1,.016-2.1A42.412,42.412,0,0,1,6.327,49.6C7.052,48.02,7.972,46.533,8.792,45c1.5-2.8,3.859-4.791,6.3-6.708,0.95-.747,1.985-1.4,2.866-2.218A8.375,8.375,0,0,1,23.6,33.743c2.811-.07,3.978-1.965,5.027-4.146,1.483-3.082,2.66-6.413,4.671-9.115a18.262,18.262,0,0,1,15.252-7.711,11.955,11.955,0,0,1,4.3.924c2.225,0.894,2.722.96,3.912-1.14A18.545,18.545,0,0,1,62.614,6.54a15.248,15.248,0,0,1,7.253-2.814c2.27-.227,4.539-0.651,6.809-0.651A20.915,20.915,0,0,1,86.788,6.083c4.037,2.23,6.982,5.6,9.6,9.306a16.584,16.584,0,0,1,3.029,7.6,26.45,26.45,0,0,0,.647,3.367c0.334,1.279.847,1.531,2.194,1.406a18.623,18.623,0,0,1,8.291.935c3.57,1.285,6.448,3.519,9.556,5.478,3.157,1.99,4.369,5.078,5.031,8.5,0.191,0.989.217,2.008,0.386,3,0.238,1.4.988,1.852,2.425,1.6a4.746,4.746,0,0,1,1.586-.113,39.617,39.617,0,0,1,9.82,2.859,12.825,12.825,0,0,1,4.94,3.353c1.68,2.083,2.846,4.347,2.425,7.194C146.505,62.01,146.571,63.49,146.5,65.277Z" transform="translate(0)"/>
</svg>
