<svg id="Layer_1" data-name="Layer 1" xmlns="http://www.w3.org/2000/svg" viewBox="0 0 231.667 93.507">
  <defs>
    <style>
      .cls-1 {
        fill: #c7c9cb;
      }
    </style>
  </defs>
  <title>df159bc6-341d-4906-ae5d-ed7e400480cb</title>
  <path id="_Compound_Path_" data-name="&lt;Compound Path&gt;" d="M167.856,49.211a17.149,17.149,0,0,0,1.689-.588c1.274-.6,2.5-1.294,3.794-1.847,1.58-.676,3.155.061,4.726,0.193,4.8,0.4,8.946,2.764,13.171,4.742,1.747,0.818,3.166,2.466,4.537,3.922a28.722,28.722,0,0,1,2.973,4.071,33.678,33.678,0,0,1,5.11,16.79c0.174,2.96,1.2,3.955,4.093,3.232,4.4-1.1,8.648-.123,12.983.312,3.845,0.386,6.785,2.356,9.759,4.438,0.556,0.389,1.237.9,0.873,1.615a2.308,2.308,0,0,1-1.507,1.082c-2.52.35-5.058,0.582-7.594,0.791q-4,.331-8.019.538c-3.668.194-7.34,0.31-11.007,0.514-2.88.16-5.751,0.493-8.632,0.588-3.693.123-7.392,0.038-11.086,0.133-2.679.069-5.354,0.3-8.032,0.428-2.485.118-4.971,0.205-7.457,0.282-3.356.1-6.7,0.1-10.066-.032a94.182,94.182,0,0,0-10.649.7c-4.626.344-9.252,0.673-13.876,1.039-5.363.424-10.726,0.854-16.083,1.337A3.013,3.013,0,0,1,114.072,91a2.323,2.323,0,0,1,.537-1.608c1.716-1.978,3.577-3.832,5.261-5.834,1.546-1.838,2.932-3.811,4.511-5.884a3.609,3.609,0,0,0-.915-0.323c-4.305.078-8.611,0.151-12.915,0.278-1.814.054-3.622,0.288-5.436,0.34q-16.235.464-32.472,0.873c-5.042.127-10.088,0.145-15.129,0.317-3.089.105-6.169,0.555-9.256,0.589-4.491.05-8.945,0.743-13.47,0.421a73.686,73.686,0,0,0-9.255.446,7.961,7.961,0,0,1-1.6.072c-3.173-.481-6.274.011-9.416,0.423-4.05.531-8.1,1.311-12.224,1.009a10.694,10.694,0,0,0-1.462.095,3.043,3.043,0,0,1-.761-2.937,28.127,28.127,0,0,0,.316-4.393,17.044,17.044,0,0,1,1.442-7.248C2.4,66.344,2.857,65,3.495,63.742c1.378-2.715,2.926-5.362,5.611-6.989A8.954,8.954,0,0,1,15.2,55.108c1.472,0.224,1.635,0,2.179-1.451,1.107-2.957,2.186-5.928,3.4-8.841a9.966,9.966,0,0,1,1.931-3.042C24.8,39.6,26.822,37.3,29.456,35.766a8.212,8.212,0,0,1,7.555-.627c1.031,0.419,2.253,1.114,3.163.864,0.82-.225,1.43-1.513,1.963-2.43,2.155-3.713,5.212-6.687,8.165-9.693,2.684-2.732,5.837-5.173,9.665-5.962,3.782-.78,7.729-1.408,11.436.647,0.941,0.522,1.914.987,2.877,1.468a6.219,6.219,0,0,1,3.3,2.819,3.255,3.255,0,0,0,.89.646c0-.846-0.045-1.421.01-1.986a10.736,10.736,0,0,1,.407-2.775,74.729,74.729,0,0,1,3.529-8.332A18.62,18.62,0,0,1,85.888,6.52,21.782,21.782,0,0,1,103.1.032a32.522,32.522,0,0,1,10.738,2.591c1.6,0.66,3.235,1.277,4.766,2.08,3.96,2.075,6.643,5.475,8.747,9.258,1.092,1.964,1.515,4.3,2.247,6.465a3.986,3.986,0,0,0,.524,1.295,1.507,1.507,0,0,0,1.124.6c2.924-1.029,5.881-.116,8.812-0.246a20.858,20.858,0,0,1,12.217,3.505,6.217,6.217,0,0,1,1.159.8c2.741,2.774,5.618,5.436,8.127,8.409a23.912,23.912,0,0,1,3.491,6.081c1.019,2.4,1.629,4.965,2.424,7.457C167.557,48.569,167.681,48.8,167.856,49.211ZM129.707,27.33a2.74,2.74,0,0,1-2.176-2.6,11.638,11.638,0,0,0-.727-2.713c-0.57-1.723-1.21-3.423-1.776-5.146-1.775-5.4-5.222-9.13-10.729-10.834-1.606-.5-3.184-1.09-4.8-1.542-4.658-1.3-9.229-1.789-14.036-.136a22.92,22.92,0,0,0-9.953,7.223c-2.137,2.469-2.847,5.612-3.638,8.662a12.52,12.52,0,0,0-.136,3.578c0.039,0.986.227,1.911-1.176,2.092a2.119,2.119,0,0,0-.856.733c-1.172,1.172-2.14,1.085-3.17-.26a17.724,17.724,0,0,0-1.792-2.157c-1.753-1.659-4.1-2.236-6.2-3.271-1.551-.765-3.046-0.007-4.564-0.034a13.883,13.883,0,0,0-10.192,4.652c-2.975,3.051-6.363,5.852-8.437,9.724-0.694,1.3-1.373,2.6-2.091,3.886a10.02,10.02,0,0,1-1.2,1.831,1.312,1.312,0,0,1-1.994.114c-1.066-1.28-2.625-1.563-3.942-2.325a4.172,4.172,0,0,0-4.433.021c-3.213,2.094-6.33,4.411-7.845,8.159a49.165,49.165,0,0,0-3.465,11.137c-0.362,2.436-2.139,3.006-3.98,1.365a2.389,2.389,0,0,0-2.152-.844,7.825,7.825,0,0,0-4.705,2.5C6.819,64.4,5.519,68.278,4.705,72.3c-0.375,1.857-.064,3.853-0.064,5.97a13.165,13.165,0,0,0,2.8.153,106.448,106.448,0,0,1,14.038-1.452c4.5-.114,9-0.437,13.5-0.6,3.558-.128,7.123-0.091,10.681-0.239,4.164-.174,8.32-0.524,12.484-0.691,2.486-.1,4.982.059,7.471,0.008,4.5-.092,9.008-0.312,13.513-0.375C85.722,74.988,92.316,75,98.91,74.943c2.019-.017,4.037-0.094,6.055-0.165,3.63-.128,7.258-0.29,10.888-0.405,3.417-.109,6.869.356,10.229-0.684a6.23,6.23,0,0,1,1.6-.144c0.783-.027,1.627.133,1.793,0.958a2.716,2.716,0,0,1-.493,1.81c-0.854,1.284-1.825,2.491-2.779,3.707-1.318,1.68-2.667,3.336-3.994,5.01-1.116,1.407-2.219,2.825-3.528,4.493a9.285,9.285,0,0,0,1.919.427c1.816-.031,3.63-0.145,5.445-0.243,2.552-.137,5.1-0.334,7.656-0.42,2.685-.091,5.377-0.017,8.061-0.131,5.575-.235,11.145-0.608,16.721-0.8,3.626-.128,7.261.014,10.889-0.071,4.5-.105,9.005-0.342,13.509-0.48,3.559-.109,7.121-0.123,10.68-0.236,4.5-.143,9.007-0.307,13.507-0.535,2.819-.143,5.632-0.4,8.446-0.644,2.676-.228,5.355-0.45,8.02-0.777a12.2,12.2,0,0,0,2.527-1.007c-1.1-.639-1.768-1.058-2.463-1.418-2.329-1.209-4.953-1.139-7.442-1.634a18.306,18.306,0,0,0-4.619-.257A29.682,29.682,0,0,0,204,82.434c-1.675.545-2.558-.2-2.76-1.918a12.207,12.207,0,0,1-.067-1.614,31.329,31.329,0,0,0-7.558-20.992,18.424,18.424,0,0,0-3.4-3.43c-3.109-2.191-6.766-3.232-10.354-4.33a35.034,35.034,0,0,0-4.754-.785,3.866,3.866,0,0,0-3.246.724c-1.107.931-2.187,1.788-3.787,1.439a1.928,1.928,0,0,0-.868.426,1.6,1.6,0,0,1-2.519-.948,8.224,8.224,0,0,1-.4-1.768,24.873,24.873,0,0,0-7.5-15.25c-0.9-.912-1.725-1.89-2.608-2.816a18.355,18.355,0,0,0-6.326-4.567,19.619,19.619,0,0,0-7.026-1.575c-1.6-.032-3.221.079-4.81-0.092a5.952,5.952,0,0,0-5.481,1.838A4.014,4.014,0,0,1,129.707,27.33Z"/>
  <path id="_Path_" data-name="&lt;Path&gt;" class="cls-1" d="M129.707,27.33a4.014,4.014,0,0,0,.827-0.554,5.952,5.952,0,0,1,5.481-1.838c1.588,0.17,3.206.059,4.81,0.092a19.619,19.619,0,0,1,7.026,1.575,18.355,18.355,0,0,1,6.326,4.567c0.882,0.926,1.711,1.9,2.608,2.816a24.873,24.873,0,0,1,7.5,15.25,8.224,8.224,0,0,0,.4,1.768,1.6,1.6,0,0,0,2.519.948,1.928,1.928,0,0,1,.868-0.426c1.6,0.349,2.681-.508,3.787-1.439a3.866,3.866,0,0,1,3.246-.724,35.034,35.034,0,0,1,4.754.785c3.588,1.1,7.245,2.139,10.354,4.33a18.424,18.424,0,0,1,3.4,3.43A31.329,31.329,0,0,1,201.174,78.9a12.207,12.207,0,0,0,.067,1.614c0.2,1.714,1.085,2.463,2.76,1.918a29.682,29.682,0,0,1,7.541-1.142,18.306,18.306,0,0,1,4.619.257c2.489,0.5,5.114.425,7.442,1.634,0.694,0.361,1.359.78,2.463,1.418a12.2,12.2,0,0,1-2.527,1.007c-2.665.327-5.344,0.549-8.02,0.777-2.813.239-5.627,0.5-8.446,0.644-4.5.228-9,.392-13.507,0.535-3.559.113-7.121,0.127-10.68,0.236-4.5.138-9,.375-13.509,0.48-3.628.085-7.263-.057-10.889,0.071-5.576.2-11.146,0.569-16.721,0.8-2.684.113-5.376,0.04-8.061,0.131-2.554.087-5.1,0.283-7.656,0.42-1.814.1-3.629,0.212-5.445,0.243a9.285,9.285,0,0,1-1.919-.427c1.309-1.669,2.412-3.086,3.528-4.493,1.327-1.674,2.676-3.329,3.994-5.01,0.953-1.215,1.925-2.423,2.779-3.707a2.716,2.716,0,0,0,.493-1.81c-0.166-.825-1.01-0.985-1.793-0.958a6.23,6.23,0,0,0-1.6.144c-3.36,1.039-6.812.575-10.229,0.684-3.63.116-7.258,0.277-10.888,0.405-2.018.071-4.036,0.148-6.055,0.165-6.594.055-13.188,0.045-19.782,0.136-4.505.062-9.008,0.282-13.513,0.375-2.489.051-4.985-.107-7.471-0.008-4.164.167-8.32,0.517-12.484,0.691-3.557.148-7.122,0.111-10.681,0.239-4.5.162-9,.484-13.5,0.6A106.448,106.448,0,0,0,7.445,78.427a13.165,13.165,0,0,1-2.8-.153c0-2.116-.311-4.112.064-5.97C5.519,68.278,6.819,64.4,9.544,61.144a7.825,7.825,0,0,1,4.705-2.5,2.389,2.389,0,0,1,2.152.844c1.842,1.641,3.618,1.071,3.98-1.365a49.165,49.165,0,0,1,3.465-11.137c1.514-3.748,4.632-6.066,7.845-8.159a4.172,4.172,0,0,1,4.433-.021c1.317,0.762,2.876,1.045,3.942,2.325a1.312,1.312,0,0,0,1.994-.114,10.02,10.02,0,0,0,1.2-1.831c0.718-1.284,1.4-2.589,2.091-3.886,2.074-3.872,5.462-6.673,8.437-9.724a13.883,13.883,0,0,1,10.192-4.652c1.518,0.027,3.013-.731,4.564.034,2.1,1.035,4.443,1.611,6.2,3.271a17.724,17.724,0,0,1,1.792,2.157c1.03,1.345,2,1.432,3.17.26a2.119,2.119,0,0,1,.856-0.733c1.4-.18,1.216-1.105,1.176-2.092a12.52,12.52,0,0,1,.136-3.578c0.792-3.05,1.5-6.192,3.638-8.662a22.92,22.92,0,0,1,9.953-7.223c4.807-1.653,9.378-1.163,14.036.136,1.618,0.452,3.2,1.045,4.8,1.542,5.506,1.7,8.954,5.433,10.729,10.834,0.567,1.724,1.206,3.424,1.776,5.146a11.638,11.638,0,0,1,.727,2.713A2.74,2.74,0,0,0,129.707,27.33Z"/>
</svg>
