<svg id="Layer_1" data-name="Layer 1" xmlns="http://www.w3.org/2000/svg" viewBox="0 0 398.49 643.535">
  <defs>
    <style>
      .cls-1 {
        fill: #2ab9d8;
      }

      .cls-2 {
        fill: #edf0f1;
      }

      .cls-3 {
        fill: #c7c9cb;
      }

      .cls-4 {
        fill: #e0e1e3;
      }

      .cls-5 {
        fill: #34a85e;
      }

      .cls-6 {
        fill: #de80ae;
      }

      .cls-7 {
        fill: #fff;
      }
    </style>
  </defs>
  <title>256080bc-9dbe-4c09-a489-3339c8c3b387</title>
  <path id="_Path_" data-name="&lt;Path&gt;" d="M398.49,220.723a7.457,7.457,0,0,0-1.759,5.267,51.1,51.1,0,0,1-2.216,14.755,17.646,17.646,0,0,0-.184,3.67,9.187,9.187,0,0,1-.385,2.628,43.908,43.908,0,0,0-2.119,7.935,60.109,60.109,0,0,1-3.539,10.572c-1.4,3.6-2.414,7.3-3.575,10.973-1.03,3.258-2.8,6.281-4.217,9.418-0.4.879-.448,2.154-1.106,2.632-2.619,1.906-2.5,5.146-4.013,7.561-0.718,1.148-1.433,2.3-2.062,3.5-0.52.99-.866,2.071-1.376,3.067a19.853,19.853,0,0,1-1.274,1.917q-1.334,1.992-2.664,3.988c-0.656.984-1.28,1.99-1.969,2.949-1.791,2.492-3.577,4.989-5.432,7.433-0.785,1.034-1.781,1.907-2.606,2.914-0.988,1.205-1.845,2.52-2.85,3.709-1.979,2.34-3.928,4.718-6.06,6.914-2.891,2.978-5.821,5.94-8.963,8.643a88.587,88.587,0,0,1-7.875,5.664c-4.342,2.974-8.626,6.049-13.114,8.786a52.47,52.47,0,0,1-13.678,6.226,5.706,5.706,0,0,0-1.623,1.195,14.5,14.5,0,0,0,1.438,1.1c0.847,0.5,1.779.87,2.606,1.4,1.61,1.038,3.039,2.564,4.788,3.13,2.174,0.7,3.281,2.645,5.263,3.525,4,1.777,7.862,3.87,11.808,5.778,2.165,1.047,4.377,2,6.582,2.956a4.865,4.865,0,0,0,1.332.279c2.229,0.277,4.5.355,6.679,0.849,3.006,0.682,4.834,3.25,5.315,6.3,0.311,1.972,1.583,3.879,1.545,5.8a6.01,6.01,0,0,0,2.263,5.215,13.37,13.37,0,0,0,3.072,1.876c2.733,1.194,4.078,3.479,5.4,5.986,1.923,3.648-.117,6.387-1.7,9.262-0.294.535-1.181,0.715-1.578,1.227a36.41,36.41,0,0,0-3.165,4.521c-1.1,1.976-1.884,4.123-2.923,6.134a4.281,4.281,0,0,1-1.66,1.812c-2.323,1.184-4.64,2.653-7.133,3.168a76.448,76.448,0,0,1-11.173,1.071,33.536,33.536,0,0,1-5.922-.284,25.28,25.28,0,0,1-3.686-1.04,3.78,3.78,0,0,0-1.509-.327c-3.3.575-6.129-.8-9.018-2.028a24.541,24.541,0,0,0-5.385-1.9,3.86,3.86,0,0,0-2.878,1.384c-0.693.806-.108,1.852,0.794,2.51a1.676,1.676,0,0,1,.776,2.247,0.749,0.749,0,0,0-.019.606c2.345,3.664,2.269,8.234,4.277,11.927,1.812,3.332,2.439,6.994,3.813,10.43,1.356,3.391,1.735,7.165,2.645,10.744,0.7,2.771,1.643,5.483,2.33,8.257,0.47,1.9.447,3.936,1.068,5.768,1.143,3.372.629,6.863,1.092,10.275,0.334,2.466.27,4.983,0.465,7.471a16.249,16.249,0,0,0,.579,2.895c0.633,2.367,1.268,4.685-.508,6.914a2.205,2.205,0,0,0-.126,1.849c0.818,2.043,1.444,3.9.786,6.293-0.705,2.569-.42,5.4-0.719,8.095-0.328,2.958-.784,5.9-1.273,8.841-0.272,1.636-.84,3.178.381,4.769,0.466,0.607.318,1.7,0.418,2.569a17,17,0,0,0,.37,3.268c0.359,1.11.475,2.358,0.81,3.3,1.338,3.745.569,7.784,2.021,11.484,0.528,1.345.26,3,.386,4.5,0.121,1.446.221,2.9,0.451,4.328,0.131,0.816.815,1.635,0.716,2.381-0.587,4.413,1.9,8.7.538,13.092a11.392,11.392,0,0,0,.2,6.1,2.721,2.721,0,0,1,.038.77c-0.129,1.9-.2,3.816-0.43,5.707-0.156,1.255-.628,2.469-0.826,3.722-0.192,1.218-.175,2.468-0.317,3.7-0.44,3.78-.577,7.64-1.493,11.3a16.185,16.185,0,0,1-3.638,6.434,26.186,26.186,0,0,1-11.341,7.458,4.087,4.087,0,0,1-1.359.065,17.311,17.311,0,0,1-3.458-.152,30.52,30.52,0,0,1-4.695-1.565c-2.212-.906-4.383-1.916-6.553-2.92-1.765-.816-3.563-1.589-5.237-2.567-1.511-.882-2.857-2.041-4.312-3.024a15.878,15.878,0,0,0-1.557-.67,19.407,19.407,0,0,1-3.188-1.8c-1.551-1.241-2.957-2.664-4.414-4.021-0.493-.459-0.933-0.974-1.431-1.426-1.115-1.013-2.249-2-3.378-3-0.774-.684-1.6-1.319-2.315-2.056a2.692,2.692,0,0,0-3.392-.6c-2.7,1.19-5.486,2.2-8.2,3.382-2.08.905-4.088,1.977-6.151,2.926a14.3,14.3,0,0,1-2.218.732c-2.308.63-4.63,1.211-6.934,1.853-4.462,1.242-8.866,2.751-13.39,3.688-3.05.631-6.267,0.437-9.4,0.681-1.275.1-2.53,0.494-3.8,0.557-2.34.115-4.687,0.123-7.03,0.1a59.621,59.621,0,0,1-6.481-.254c-1.822-.217-3.586-0.894-5.4-1.188-1.138-.184-2.343.073-3.5-0.059-3.2-.367-6.4-0.744-9.571-1.3a2.924,2.924,0,0,0-3.1,1.044c-2.582,2.784-5.289,5.47-8.124,8-2.231,1.988-4.752,3.647-7.092,5.518-1.12.895-2.057,2.019-3.185,2.9-2.779,2.177-5.422,4.451-8.846,5.8A36.241,36.241,0,0,1,134,643.391c-2.262-.2-4.455-1.158-6.718-1.379a16.319,16.319,0,0,1-9.462-4.315c-1.823-1.626-4.057-3.278-4.9-5.4-1.236-3.1-3.445-5.9-3.422-9.518a26.322,26.322,0,0,0-.836-4.623c-1.249-7-1.435-14.076-1.614-21.151-0.04-1.595.317-3.2,0.427-4.8,0.221-3.234.468-6.468,0.575-9.707,0.121-3.665-.131-7.356.2-11,0.32-3.468-.781-6.829-0.452-10.212,0.249-2.561-1.078-4.555-1.628-6.815-0.545-2.242-1.363-4.417-1.94-6.652-0.295-1.143-.21-2.383-0.5-3.528-0.454-1.8-1.132-3.534-1.606-5.325a17.173,17.173,0,0,1-.129-2.247,4.306,4.306,0,0,0-.46-1.866c-1.015-1.473-.982-3.064-1.066-4.755-0.144-2.876-.778-5.725-0.984-8.6a41.738,41.738,0,0,1,.188-5.909c0.068-.952.821-1.955-0.457-2.676a0.708,0.708,0,0,1-.192-0.577c0.319-2.971.69-5.937,0.978-8.911,0.107-1.112-.066-2.252.055-3.36,0.423-3.873,1.212-7.731,1.3-11.609,0.09-3.839,1.328-7.581.6-11.519-0.3-1.6.63-3.426,0.974-5.154a15.615,15.615,0,0,0,.3-2.126c0.067-1.157-.05-2.335.112-3.475,0.618-4.327,1.256-8.653,2.018-12.955a44.54,44.54,0,0,1,1.4-4.615c0.658-2.249,1.26-4.514,1.928-6.759,0.487-1.637,1.042-3.254,1.622-5.051a2.565,2.565,0,0,0-.961.084c-2.138,1.186-4.332,2.295-6.359,3.651-3.652,2.444-7.282,4.824-11.618,5.993-2.7.727-5.247,1.989-7.909,2.872-3.252,1.078-6.521,2.142-9.851,2.925a5.019,5.019,0,0,1-3.227-.881,32.33,32.33,0,0,1-4.337-3.259,1.593,1.593,0,0,1-.1-1.052c-1.03-1.083-1.843-2.084-2.806-2.911A24.88,24.88,0,0,0,60,442.023c-1.622-1-3.3-1.919-4.929-2.91a1.144,1.144,0,0,1-.281-0.7,4.8,4.8,0,0,0-1.514-2.67c-0.831-.833-0.743-2.722-0.786-4.156a17.232,17.232,0,0,1,.519-3.62,5.125,5.125,0,0,1,.539-1.571c1.851-3.249,3.718-6.49,5.625-9.705a23.761,23.761,0,0,1,1.986-2.812c1.2-1.487,1.163-2.346-.36-3.452a7.267,7.267,0,0,1-3.131-6.532c0-2.017,1.077-2.84,2.078-3.925,1.471-1.6,3.163-2.989,4.642-4.579,2.133-2.293,4.5-4.118,7.676-4.682a3.761,3.761,0,0,0,1.124-.5c2.306-1.3,4.617-2.6,6.895-3.95,0.522-.31.859-0.933,1.383-1.236,1.557-.9,3.217-1.632,4.741-2.584,2.764-1.726,5.449-3.576,8.185-5.347a20.346,20.346,0,0,1,2.809-1.611c3.871-1.7,7.615-3.561,10.428-7.37-0.977-.356-1.832-0.966-2.635-0.9-2.451.188-3.966-1.569-5.867-2.51-0.411-.2-0.72-0.642-1.14-0.8-3.294-1.212-6.059-3.33-9-5.156-2.147-1.335-4.481-2.406-6.5-3.91-3.2-2.384-6.179-5.051-9.282-7.561-1.675-1.355-3.373-2.691-5.149-3.906a2.678,2.678,0,0,0-1.453-.2,55.844,55.844,0,0,0-3.885-4.256c-2.462-2.195-5.242-4.054-7.564-6.38-2.849-2.854-5.348-6.055-8.03-9.078-0.828-.933-1.843-1.706-2.628-2.67-2.055-2.525-4.131-5.043-6.006-7.7-1.726-2.444-2.473-5.492-5.377-7.223-1.181-.7-1.693-2.62-2.374-4.049-0.774-1.625-1.4-3.321-2.088-4.986a0.242,0.242,0,0,0-.114-0.106c-2.516-1.235-2.437-4.151-3.926-6.086-2.339-3.039-4.4-6.293-6.541-9.481a5.021,5.021,0,0,1-.815-1.85c-0.648-3.7-2.979-6.566-4.631-9.777a30.1,30.1,0,0,1-1.98-5.855c-0.485-1.771-1.566-3.455-.995-5.428a0.345,0.345,0,0,0-.056-0.3c-2.617-1.869-1.984-4.987-2.737-7.517-1.353-4.55-2.233-9.242-3.253-13.887a11.538,11.538,0,0,1-.077-2.5,24.474,24.474,0,0,0,.051-2.958c-0.288-2.439-.767-4.857-1.031-7.3-0.315-2.916-.459-5.849-0.726-8.77C1.433,210.7,1.067,206.394.558,202.1a40.8,40.8,0,0,1-.032-11.5c0.125-.762-0.437-1.611-0.46-2.426-0.07-2.542-.1-5.088-0.021-7.63,0.105-3.56.2-7.126,0.521-10.67,0.251-2.781.862-5.529,1.263-8.3,0.311-2.149.405-4.338,0.843-6.458,0.922-4.464,2.049-8.885,3.008-13.341,0.568-2.637.869-5.334,1.5-7.955a30.367,30.367,0,0,1,1.868-5.3c1.316-2.939,2.835-5.786,4.167-8.718a7.364,7.364,0,0,0,.829-3.213c-0.129-2.617,1.532-4.452,2.522-6.574,0.923-1.976,1.974-3.892,2.99-5.823a9.373,9.373,0,0,1,1.2-1.993c1.944-2.134,2.565-4.956,3.949-7.35,2.007-3.471,4.483-6.675,6.816-9.952,2.294-3.223,4.825-6.29,6.951-9.617,2.607-4.082,5.938-7.5,9.166-11.041,2.9-3.177,5.578-6.547,8.435-9.761,0.822-.925,1.972-1.548,2.882-2.4,2.491-2.345,4.934-4.739,7.394-7.116,0.527-.509,1-1.08,1.572-1.537,4.107-3.308,8.142-6.716,12.384-9.844,2.721-2.007,5.791-3.534,8.64-5.375A85.9,85.9,0,0,1,107.8,18.7c5.688-1.941,11.174-4.5,16.914-6.255,3.829-1.168,7.481-3.029,11.686-3.119,2.2-.047,4.385-1.124,6.573-1.747,2.057-.586,4.107-1.195,6.164-1.778,3.7-1.049,7.362-2.252,11.109-3.077,3.163-.7,6.426-0.936,9.639-1.417,0.443-.066.834-0.445,1.279-0.534,0.876-.177,1.77-0.272,2.66-0.367a41.623,41.623,0,0,1,4.432-.4c3.226,0.006,6.452.167,9.679,0.223,1.623,0.028,3.25-.1,4.872-0.046,4.682,0.144,9.389-.7,14.054.379a8.852,8.852,0,0,0,1.819-.226c2.55-.02,5.1-0.074,7.651.038,2.855,0.126,5.716.316,8.551,0.665,3.492,0.43,6.967,1.017,10.434,1.622a12.109,12.109,0,0,1,1.773.952c0.993,0.374,2.025.651,3.052,0.927,1.126,0.3,2.27.54,3.4,0.839,2.352,0.622,4.693,1.288,7.05,1.892,1.246,0.319,2.54.466,3.767,0.838,0.854,0.259,1.61.823,2.448,1.154,1.323,0.524,2.708.9,4.014,1.461,2.856,1.226,5.642,2.619,8.526,3.771,2.258,0.9,4.625,1.528,6.932,2.31,0.655,0.222,1.256.6,1.909,0.832a36.974,36.974,0,0,1,3.656,1.229c3.034,1.454,5.993,3.063,9.016,4.541,1.257,0.615,2.22,1.917,3.878,1.671a1.069,1.069,0,0,1,.871.479c0.084,1.692,1.341,1.31,2.393,1.635a30.35,30.35,0,0,1,4.783,2.261c2.388,1.232,4.753,2.51,7.128,3.766,0.045,0.024.107,0.015,0.151,0.04,2.254,1.274,4.546,2.486,6.742,3.854a23.075,23.075,0,0,1,2.661,2.321c2.782,2.406,5.389,5.076,8.424,7.1,1.92,1.283,2.642,3.941,5.328,4.291a2.84,2.84,0,0,1,1.535,1.659c0.782,1.816,2.462,2.6,3.852,3.732a12.322,12.322,0,0,1,1.545,1.711c1.9,2.27,3.738,4.587,5.687,6.809,1.111,1.267,2.483,2.31,3.562,3.6,0.661,0.79.891,1.93,1.5,2.779a12.936,12.936,0,0,0,2,1.908,4.487,4.487,0,0,1,.843.615c2.065,3.177,4.06,6.4,6.152,9.558a94.238,94.238,0,0,1,5.944,10.892c1.032,2.116,2.676,3.925,3.872,5.973,1.166,2,2.054,4.153,3.18,6.174a25.779,25.779,0,0,0,2.158,2.955c1.106,1.45,2.24,2.879,3.335,4.338a1.043,1.043,0,0,1,.163.748,2.371,2.371,0,0,0,1.133,2.821,1.144,1.144,0,0,1,.339,1.064c-0.7,1.17.273,1.672,0.792,2.4a47.733,47.733,0,0,1,3.907,5.738c0.556,1.081.2,2.6,0.443,3.889a8.889,8.889,0,0,0,1,1.614,7.952,7.952,0,0,1,.461,1.71c0.272,1.3.439,2.63,0.792,3.908,0.7,2.547,1.487,5.072,2.28,7.593a5.065,5.065,0,0,0,.669.508,1.918,1.918,0,0,1,.532,1.164,4.457,4.457,0,0,0,1.156,5.092,1.828,1.828,0,0,1,.177,1.176,4.4,4.4,0,0,0-.127,1.692,10.6,10.6,0,0,1,1.19,5.234c-0.035,1.59.76,3.18,1,4.8a78.847,78.847,0,0,1,.973,8.426,27.221,27.221,0,0,0,1.359,6.519,1.455,1.455,0,0,1,.172.429c-0.336,2.894,1.1,5.5,1.323,8.3,0.049,0.608-.211,1.239-0.18,1.852,0.092,1.868.32,3.73,0.376,5.6,0.071,2.35.028,4.7,0.02,7.056a4.145,4.145,0,0,0-.157.592c0.676,3.4-.14,6.837.2,10.259,0.151,1.509-.317,3.071-0.361,4.613A11.257,11.257,0,0,0,398.49,220.723Z" transform="translate(0 0)"/>
  <path id="_Path_2" data-name="&lt;Path&gt;" class="cls-1" d="M71.828,279.033a8.389,8.389,0,0,0-.142-1.561c-1.163-4.145-2.386-8.273-3.524-12.424-0.286-1.042-.295-2.157-0.5-3.226-0.441-2.349-.938-4.687-1.386-7.035-0.56-2.93-1.231-5.847-1.6-8.8-0.322-2.585-.282-5.215-0.419-7.825a19.3,19.3,0,0,0-.25-2.88c-0.6-2.891-.061-5.727.4-8.546a37.048,37.048,0,0,1,1.782-8.029,56.424,56.424,0,0,0,2.516-8.958c0.473-2.071,2.181-3.876,2.575-5.945,0.924-4.848,3.861-8.565,6.733-12.156,2.283-2.854,5.514-4.988,8.462-7.262,3.034-2.34,6.216-4.493,9.381-6.657a12.112,12.112,0,0,1,2.322-.89c1.376-.558,2.724-1.184,4.114-1.7a28.079,28.079,0,0,0,3.013-.926c2.031-1.038,3.886-2.468,5.983-3.318a86.12,86.12,0,0,1,8.31-2.6c1.242-.362,2.519-0.607,3.786-0.878,1.476-.315,2.959-0.594,4.437-0.9,2.445-.506,4.877-1.086,7.335-1.516,3.489-.611,7.006-1.062,10.492-1.688,1.739-.312,3.425-0.907,5.155-1.283,0.728-.158,1.515-0.022,2.261-0.125,1.793-.247,3.57-0.621,5.368-0.825,2.059-.233,4.135-0.31,6.2-0.506,4.609-.437,9.224-0.835,13.82-1.384,3.082-.368,6.121-1.106,9.206-1.426,3.51-.364,7.05-0.434,10.575-0.66,1.184-.076,2.361-0.319,3.544-0.341,2.025-.038,4.052.052,6.078,0.063,3.544,0.02,7.088,0,10.632.052a7.789,7.789,0,0,1,1.891.446,2.335,2.335,0,0,0,.522.284c3.191-1.436,6.322.213,9.485,0.2,3.059-.013,6.117.41,9.178,0.45,1.633,0.021,3.268-.467,4.909-0.529a22.3,22.3,0,0,1,4,.318c2.807,0.406,5.6.88,8.4,1.343,0.407,0.067.794,0.241,1.2,0.33a28.7,28.7,0,0,0,5.655,1.145,45.457,45.457,0,0,1,12.777,1.573,2.3,2.3,0,0,0,1.081.065c3.441-.712,6.553.732,9.789,1.415,2.756,0.581,5.571.887,8.323,1.483,2.173,0.471,4.492.6,6.313,2.183a6.531,6.531,0,0,0,1.453.565c1.289,0.622,2.561,1.277,3.838,1.924,2.269,1.151,4.595,2.207,6.788,3.49a39.229,39.229,0,0,1,5.759,3.938,97.265,97.265,0,0,1,8.363,7.878,16.53,16.53,0,0,1,4.349,7.369c0.547,2.3,1.906,4.406,2.9,6.6a4.173,4.173,0,0,1,.3.715c0.646,2.668,1.434,5.313,1.882,8.015,0.733,4.42,1.243,8.877,1.85,13.318a2.665,2.665,0,0,0,.138.607c0.972,2.486.848,5.062,0.833,7.671-0.009,1.609.727,3.207,0.935,4.835a36.317,36.317,0,0,1,.472,6.457c-0.2,3.765-.209,7.525-1.244,11.265-0.762,2.754-.491,5.788-0.737,8.692-0.08.951-.36,1.883-0.513,2.83-0.3,1.837-.542,3.681-0.852,5.515-0.315,1.861-.569,3.744-1.059,5.561a59.674,59.674,0,0,1-2.043,6.06c-0.732,1.884-1.655,3.693-2.417,5.567-0.12.294,0.317,0.788,0.24,1.131a28.145,28.145,0,0,1-.974,3.385q-1.68,4.642-3.451,9.251c-1.1,2.861-2.377,5.658-3.339,8.562-1.453,4.385-2.827,8.738-6.014,12.308-1.436,1.609-2.33,3.689-3.633,5.434a48.113,48.113,0,0,1-4.432,5.239,96.663,96.663,0,0,1-9.224,8.642,54.194,54.194,0,0,1-10.011,5.956c-4.246,1.986-8.7,3.546-13.132,5.107-2.409.849-4.952,1.316-7.433,1.96-3.143.816-6.269,1.711-9.436,2.422-1.447.325-2.984,0.224-4.462,0.44-1,.145-1.948.614-2.946,0.75-3.339.456-6.7,0.737-10.029,1.263-2.148.34-4.228,1.1-6.373,1.477-5.063.879-10.059,2.074-15.28,2.065-3.838-.006-7.672.791-11.519,1.092a34.3,34.3,0,0,1-4.461-.24,2.11,2.11,0,0,0-.726.1,14.545,14.545,0,0,1-7.68-.143,1.583,1.583,0,0,0-.452-0.082c-2.741.229-5.478,0.6-8.222,0.658-2,.04-4-0.457-6-0.485a18.62,18.62,0,0,0-3.332.674,4.917,4.917,0,0,1-1.615.032c-1.971-.319-3.924-0.763-5.9-1.038-3.266-.454-6.553-0.758-9.815-1.233-1.817-.264-3.594-0.795-5.406-1.106-0.9-.154-1.841,0-2.745-0.129a90.416,90.416,0,0,1-9.585-1.481c-4.321-1.08-8.541-2.567-12.8-3.887q-4.688-1.453-9.369-2.93a1.5,1.5,0,0,1-.707-0.314c-1.633-2.037-4.157-2.039-6.3-2.952-2.245-.958-4.138-2.748-6.165-4.2-0.544-.39-0.97-0.951-1.527-1.318-4.368-2.875-8.077-6.514-12-9.934-4.45-3.883-7.125-8.863-9.985-13.755a85.99,85.99,0,0,1-3.9-8.755c-0.484-1.094-1.131-2.124-1.535-3.243-1.332-3.694-2.536-7.435-3.9-11.118-0.461-1.246-1.416-2.312-1.851-3.563-1.28-3.681-2.434-7.406-3.584-11.131a13.661,13.661,0,0,1-.31-2.319Z" transform="translate(0 0)"/>
  <path id="_Path_3" data-name="&lt;Path&gt;" class="cls-2" d="M306.723,357.917c1.855-1.512,3.718-3.014,5.564-4.538,2.332-1.925,4.7-3.813,6.963-5.815,3.089-2.732,6.259-5.4,9.085-8.391a48.052,48.052,0,0,0,5.381-7.3c1.627-2.555,2.93-5.315,4.438-7.95A23,23,0,0,1,340.717,320c3.12-3.516,4.655-7.878,6.53-12.034,1.406-3.118,2.344-6.445,3.528-9.665a61.3,61.3,0,0,0,2.657-7.137,89.447,89.447,0,0,0,1.176-8.911c0.163-1.295.331-2.59,0.539-3.879,0.726-4.5,1.49-9,2.185-13.505,0.091-.591-0.266-1.248-0.193-1.846,0.334-2.72.695-5.439,1.148-8.141,0.5-3,1.461-5.933.518-9.046-0.252-.831.152-1.844,0.161-2.775,0.01-1.123-.135-2.249-0.109-3.371,0.022-.915.331-1.835,0.279-2.739-0.142-2.493-.366-4.984-0.635-7.467-0.3-2.742-.678-5.474-1.028-8.21a10.77,10.77,0,0,0-.285-1.838c-0.487-1.562-1.247-3.038-.693-4.794,0.155-.493-0.383-1.168-0.465-1.778-0.191-1.427-.294-2.865-0.441-4.3a12.759,12.759,0,0,0-.226-1.755c-0.533-2.155-1.107-4.3-1.675-6.489-0.781.222-.9-0.379-1-1.461a23.549,23.549,0,0,0-1.04-4.1c-0.067-.237-0.338-0.419-0.4-0.655-1.056-4.317-2.137-8.629-3.086-12.97a2.505,2.505,0,0,1,.694-1.948c1.582-1.544,3.032-3.085,3.158-5.47a4.547,4.547,0,0,1,.653-1.381c0.9-1.965,1.874-3.9,2.648-5.914a15.852,15.852,0,0,0,.578-3.243,6.769,6.769,0,0,1,.3-2.04c1.425-2.7.858-5.788,1.755-8.521,0.84-2.558.549-5.131,0.91-7.677,0.256-1.81.661-3.608,0.785-5.425a10.979,10.979,0,0,0-.543-2.829,3.74,3.74,0,0,1-.218-1.063c0.223-2.148.618-4.287,0.7-6.439a30.121,30.121,0,0,0-.5-4.108c-0.179-1.777-.145-3.587-0.464-5.336a13.122,13.122,0,0,0-2.884-6.78,41.987,41.987,0,0,1-3.487-5.291,1.383,1.383,0,0,0-.6-0.648c-2.125-.4-4.261-0.748-6.394-1.106a1.4,1.4,0,0,1-.6-0.074c-0.89-1.652-1.989-.54-2.97-0.2-1.01.351-1.883,0.7-2.933-.074a2.33,2.33,0,0,0-1.88.252q-7.333,3.846-14.608,7.8c-4.637,2.508-9.1,5.446-13.95,7.412-2.445.99-5.1,2.537-8.1,1.9a6.7,6.7,0,0,0-1.6.458c-2.3.262-4.586,1.093-6.831-.606-1.134-.858-2.73-1.1-4.119-1.743-0.74-.268-1.476-0.549-2.221-0.8-1.127-.383-2.247-0.8-3.4-1.106-2.287-.609-4.239-2.191-6.824-2.072-0.731.034-1.521-1.2-1.935-1.549-2.477-.7-4.655-1.3-6.815-1.946-1.286-.387-2.561-0.825-3.81-1.317-1.95-.768-3.849-1.666-5.813-2.393-4.44-1.643-8.915-3.207-13.667-3.668-1.825-.177-3.7.049-5.5-0.226-2.363-.36-4.678-1.033-7.014-1.574a3.235,3.235,0,0,0-.6-0.165c-2.733-.07-5.475-0.294-8.2-0.144a48.314,48.314,0,0,1-10.237-.915c-2.4-.377-4.9-0.074-7.3-0.44-2.821-.431-5.512.288-8.237,0.548-4.65.443-9.269,1.237-13.889,1.956-2.411.375-4.791,0.943-7.2,1.352a73.561,73.561,0,0,1-9.4,1.409c-4.571.174-8.751,1.847-13.118,2.78-2.644.565-5.346,0.928-7.926,1.7-3.48,1.044-6.849,2.453-10.3,3.6-2.143.711-4.376,1.147-6.525,1.843-3.771,1.222-7.561,2.392-10.909,4.661-1.4.949-3.068,1.493-4.551,2.332-3.349,1.894-6.668,3.841-9.981,5.8-1.916,1.132-3.785,2.342-5.7,3.477a2.057,2.057,0,0,1-1.041.142c-3.1-.076-6.2-0.03-9.28-0.311a25.118,25.118,0,0,1-5.4-1.339c-2.037-.665-4.007-1.533-6.015-2.29-5.573-2.1-11.031-4.65-16.766-6.127-4.205-1.083-8.815-1.152-12.911,1.341a12.3,12.3,0,0,1-2.017.8c-3.743,1.439-4.876,4.7-5.361,8.176a31.034,31.034,0,0,0-.375,9.278c0.418,2.665-.422,5.5-0.383,8.26a57.231,57.231,0,0,0,.873,6.141c0.348,2.8.634,5.6,0.914,8.4,0.341,3.411.678,6.823,0.95,10.24,0.077,0.975-.251,2-0.1,2.949,0.423,2.614,1,5.2,1.526,7.8a3.2,3.2,0,0,1,.224.571c-0.179,5.266,1.885,10.044,3.289,14.957a27.569,27.569,0,0,0,1.908,4.625,8.9,8.9,0,0,1,.958,5.109c-0.347,3.459-.215,6.963-0.4,10.442-0.162,3.115-.951,6.277-0.6,9.32,0.43,3.761-.421,7.429-0.073,11.136q0.4,4.258.73,8.522c0.323,4.082.6,8.168,0.946,12.248a13.41,13.41,0,0,0,.533,2.23,5.469,5.469,0,0,1,.249.574c0.437,3.319.734,6.663,1.326,9.954a45.3,45.3,0,0,0,1.916,7.026c1.364,3.863,2.942,7.649,4.383,11.485,0.97,2.583,1.784,5.226,2.814,7.784,0.595,1.477,1.53,2.814,2.217,4.259,0.417,0.876.5,1.929,1,2.744,1.125,1.847,2.408,3.6,3.637,5.384a5.8,5.8,0,0,1,1.073,1.5c0.818,3.2,3.089,5.505,4.952,8.034,1.876,2.546,4.344,4.7,5.935,7.4,2.147,3.634,5.83,5.806,8.053,9.329,0.8,1.265,2.328,2.056,3.475,3.117,0.645,0.6,1.106,1.409,1.795,1.936,1.4,1.068,2.965,1.92,4.323,3.031a21.448,21.448,0,0,1,2.4,2.715,3.1,3.1,0,0,0,.682.776c1.665,0.895,3.388,1.687,5.02,2.636a2.644,2.644,0,0,1,1.189,1.5c0.286,1.316,1.148,1.677,2.276,1.959a6.216,6.216,0,0,1,1.669.957,6.544,6.544,0,0,1,1.234.9,3.944,3.944,0,0,1,1.324,1.778c0.039,0.391-.945,1.129-1.579,1.3-2.015.528-3.537-.435-5.01-1.779a14.984,14.984,0,0,0-3.333-1.9c-1.64-.845-3.483-1.3-4.56-3.085-0.36-.6-1.4-0.763-2.083-1.192-1.19-.744-2.346-1.542-3.52-2.313a11.693,11.693,0,0,0-1.176-.731,45.076,45.076,0,0,1-5.97-3.01c-2.105-1.479-3.851-3.46-5.837-5.122-1.85-1.549-3.811-2.967-5.725-4.44a1.1,1.1,0,0,1-.266-0.162c-1.456-2.258-3.749-3.4-5.986-4.68-0.7-.4-0.978-1.467-1.608-2.059-2.74-2.573-5.574-5.046-8.3-7.63-1.944-1.84-3.854-3.729-5.641-5.721-3.3-3.677-6.579-7.376-9.687-11.211-1.114-1.374-1.637-3.21-2.565-4.754-0.774-1.286-1.741-2.457-2.635-3.67-0.211-.286-0.512-0.51-0.7-0.808-2.867-4.567-5.741-9.13-8.571-13.72-1.5-2.439-2.929-4.927-4.387-7.395-1.177-1.992-2.5-3.914-3.486-6-1.124-2.385-1.9-4.93-2.9-7.378a24.8,24.8,0,0,0-2.286-4.915c-0.942-1.35-.944-2.756-1.143-4.2a18.174,18.174,0,0,0-.414-2.237c-0.719-2.681-1.562-5.333-2.177-8.036a25.6,25.6,0,0,1-.191-3.8,7.594,7.594,0,0,0-.4-1.088q-0.589-2.425-1.128-4.862c-0.156-.707-0.233-1.431-0.38-2.14a3.7,3.7,0,0,1-.3-0.861c0.471-4.973-1.477-9.647-1.778-14.522-0.006-.1-0.063-0.2-0.068-0.306-0.155-3.652-.279-7.305-0.477-10.955-0.053-.968-0.421-1.918-0.488-2.887-0.219-3.151-.884-6.39-0.4-9.439,0.517-3.246-.743-6.311-0.093-9.523,0.432-2.133-.053-4.435.137-6.638,0.229-2.65.766-5.272,1.114-7.914a11.274,11.274,0,0,0,.137-3.1c-0.677-4.476,1.085-8.632,1.611-12.946a61.389,61.389,0,0,1,3.609-14.318c0.907-2.4,1.012-5.09,1.757-7.565a38.359,38.359,0,0,1,2.236-4.721c0.562-1.224,1.406-2.466,1.478-3.737,0.123-2.171,1.5-3.4,2.682-4.876a3.956,3.956,0,0,0,.817-2.261c0.046-3.377,1.449-6.246,3.062-9.081,0.707-1.244,1.18-2.619,1.859-3.881a24.067,24.067,0,0,1,2.134-3.429c2.506-3.212,5.033-6.393,6.2-10.407a5.5,5.5,0,0,1,.8-1.144c1.046-1.667,1.977-3.417,3.142-5s2.605-2.941,3.836-4.47q3.482-4.326,6.855-8.74c3.3-4.338,6.633-8.63,10.815-12.2,1.745-1.489,3.228-3.28,4.906-4.852,3.549-3.322,7.051-6.707,10.756-9.849,3.909-3.316,7.94-6.506,12.089-9.516,3.594-2.607,7.482-4.805,11.139-7.33,4.806-3.317,10.341-5,15.619-7.263,1.857-.8,3.574-1.963,5.477-2.6,2.344-.781,4.828-1.131,7.227-1.762,2.546-.669,5.056-1.472,7.595-2.169,1.832-.5,3.7-0.891,5.527-1.4,2.621-.732,5.507-0.685,7.735-2.6a0.766,0.766,0,0,1,.606-0.053c2.817,0.811,5.213-.709,7.764-1.377,1.6-.418,3.213-0.752,4.807-1.175,1.847-.489,3.66-1.123,5.524-1.527a44.231,44.231,0,0,1,4.4-.534c1.845-.209,3.686-0.525,5.536-0.6,4.19-.165,8.385-0.17,12.576-0.324,1.553-.057,3.093-0.451,4.645-0.506,1.731-.062,3.47.092,5.206,0.139,1.177,0.032,2.354.048,3.531,0.061,2.33,0.027,4.661.022,6.99,0.083a18.352,18.352,0,0,0,3.041.246c5.564-.832,10.916.456,16.314,1.426,5.923,1.065,11.871,1.99,17.788,3.083,1.408,0.26,2.709,1.229,4.11,1.371,2.623,0.266,4.619,1.706,6.875,2.78,3.1,1.476,6.551,2.207,9.842,3.285,0.95,0.311,1.871.709,2.8,1.08,2.523,1.01,5.064,1.981,7.558,3.059,1.7,0.737,3.339,1.638,5.014,2.445,0.681,0.328,1.408.565,2.079,0.91q1.582,0.814,3.115,1.722c1.717,1.019,3.371,2.151,5.128,3.094,2.137,1.148,4.385,2.09,6.529,3.226,4.446,2.355,8.953,4.62,13.244,7.236a61.179,61.179,0,0,1,7.069,5.6c2.308,1.929,4.569,3.915,6.8,5.929a16.4,16.4,0,0,1,2.665,2.83c1.438,2.119,3.646,3.163,5.66,4.517,1.369,0.92,3.249,1.385,3.574,3.429a0.6,0.6,0,0,0,.272.368,19.1,19.1,0,0,1,5.836,5.942c1.227,1.74,2.705,3.3,3.942,5.035,1.349,1.891,2.238,4.22,3.884,5.765,2.6,2.436,4.093,5.564,6.083,8.363,1.415,1.99,2.187,4.427,3.354,6.607,0.822,1.535,1.823,2.973,2.747,4.453q0.87,1.393,1.749,2.78c1.262,1.989,2.563,3.954,3.78,5.97,0.74,1.226,1.324,2.546,2.032,3.793,1.331,2.342,3.045,4.535,3.967,7.024,1.127,3.042,3.152,5.711,3.476,9.131,0.153,1.617,1.358,3.131,2.072,4.7,1.533,3.364,3.176,6.659,3.825,10.384,0.445,2.558,1.425,5.02,2.123,7.536,0.9,3.235,1.882,6.454,2.582,9.733,0.457,2.141.427,4.382,0.7,6.567,0.173,1.367.591,2.7,0.762,4.071,0.494,3.944.925,7.9,1.368,11.846,0.4,3.593.821,7.184,1.17,10.783,0.293,3.019.651,6.044,0.691,9.071,0.038,2.866-.309,5.736-0.465,8.606-0.054,1,.033,2-0.078,2.993-0.371,3.3-.809,6.6-1.21,9.894-0.174,1.431-.275,2.873-0.486,4.3-0.428,2.9-.91,5.788-1.366,8.682-0.448,2.848-.8,5.715-1.367,8.539-0.355,1.771-1.075,3.465-1.549,5.216-0.625,2.3-1.257,4.613-1.73,6.951-0.914,4.519-1.236,9.16-3.117,13.468-1.746,4-3.47,8.014-4.992,12.1a23.651,23.651,0,0,1-3.589,6.278c-2.042,2.655-3.435,5.8-5.182,8.693-1.51,2.5-3.15,4.918-4.686,7.4-1.277,2.064-2.468,4.182-3.737,6.251a23.523,23.523,0,0,1-1.717,2.41c-1.721,2.144-3.385,4.345-5.242,6.367-2.033,2.212-4.322,4.187-6.383,6.375-3.565,3.786-6.876,7.824-10.6,11.442-3.3,3.2-6.956,6.04-10.552,8.917-2.224,1.779-4.866,3.084-6.9,5.042-2.8,2.7-6.358,3.936-9.58,5.811a11.178,11.178,0,0,1-2.553.764Z" transform="translate(0 0)"/>
  <path id="_Path_4" data-name="&lt;Path&gt;" class="cls-3" d="M208.008,152.651c-0.554-4.023-1.119-7.937-1.625-11.858-0.6-4.611-1.042-9.244-1.737-13.839-0.508-3.355-1.406-6.651-1.958-10a55.2,55.2,0,0,1-.706-7.448,2.366,2.366,0,0,1,1.518-1.644,13.723,13.723,0,0,1,3.571-.1c4.33,0.116,8.664.2,12.989,0.426a35.09,35.09,0,0,1,4.571.834,13.024,13.024,0,0,0,1.536.272c4.168,0.275,8.355.37,12.5,0.842a80.167,80.167,0,0,1,9.69,1.86c3.367,0.813,6.7,1.78,10,2.86,2.14,0.7,4.15,1.787,6.261,2.589,3.261,1.24,6.565,2.365,9.831,3.592a3.178,3.178,0,0,1,1.147.972c1.687,1.983,4.068,1.747,6.293,2.01a11.336,11.336,0,0,1,5.9,2.929,15.057,15.057,0,0,0,2.721,1.655,7.955,7.955,0,0,0,1.787.574c2.223,0.538,4.454,1.045,6.678,1.578a10.232,10.232,0,0,1,1.634.492c2.813,1.2,5.717,2.243,8.385,3.711,1.864,1.026,3.379,2.676,5.1,3.982a2.16,2.16,0,0,0,1.594.572c0.928-.46,2.7.353,2.72-1.409,0.009-.832-0.7-1.676-1.094-2.509a6,6,0,0,0-4-3.221,16.484,16.484,0,0,1-4.129-2.268,8.6,8.6,0,0,1-1.539-1.809,17.566,17.566,0,0,1,2.265-1.763c0.778-.432,1.765-0.486,2.547-0.913q6.781-3.7,13.5-7.517a32.113,32.113,0,0,0,3.279-2.142,25.9,25.9,0,0,1,12.785-4.939,11.373,11.373,0,0,1,3.27.186c0.943,0.174,1.72.574,1.26,1.915-0.653,1.9-1.147,3.86-1.639,5.812-0.636,2.523-1.928,5.152-1.63,7.574,0.431,3.5-.812,6.409-1.656,9.521-1.3,4.808-2.475,9.659-4,14.4-0.435,1.353-1.846,2.423-2.9,3.538a3.168,3.168,0,0,0-.912,3.546c0.72,1.781,2.346,1.946,3.491.414a29.889,29.889,0,0,0,5.687-12.069c0.275-1.369.962-2.654,1.245-4.022a16.547,16.547,0,0,0-.036-2.786,3.468,3.468,0,0,1,.363-1.113c1.144-2.839,2.642-5.575,2.571-8.768a3.314,3.314,0,0,0-.159-1.686c-1.192-1.6-.156-2.65.63-3.918a5.363,5.363,0,0,0,.316-2.377c0.03-.538-0.133-1.092-0.074-1.623,0.094-.858.373-1.7,0.441-2.557,0.111-1.41,1.217-1.707,2.222-2.028,1.039-.332,1.57.217,1.949,1.238a43.176,43.176,0,0,1,2.7,12.085,83.086,83.086,0,0,1-.322,12.82c-0.344,4.264-1.463,8.463-2.205,12.7-0.149.85-.024,1.753-0.209,2.591-0.7,3.185-1.475,6.354-2.245,9.524a5.091,5.091,0,0,1-.494.976c-0.755,1.516-1.488,3.043-2.27,4.545a6.219,6.219,0,0,1-1.07,1.578,2.072,2.072,0,0,1-1.352.705,3.131,3.131,0,0,1-.885-1.476c-0.79-2-1.322-4.123-3.035-5.63a11.616,11.616,0,0,1-1.394-1.481c-1.093-1.372-1.724-1.335-2.346.306-0.534,1.407-.006,2.39.932,3.7,1.5,2.1,2.254,4.748,3.27,7.187,0.986,2.366,1.944,4.746,2.835,7.149,0.316,0.853.313,1.822,0.608,2.686,0.919,2.694,1.956,5.347,2.854,8.048,0.373,1.124.458,2.341,0.772,3.488a16.393,16.393,0,0,0,.9,2.213,3.216,3.216,0,0,1,.4.649c0.163,1.246.207,2.51,0.42,3.746,0.468,2.714,1.023,5.413,1.525,8.121,0.68,3.665,1.454,7.316,1.982,11,0.485,3.385.8,6.8,0.989,10.218,0.1,1.83-.455,3.7-0.3,5.522,0.151,1.8-.4,3.617-0.2,5.228,0.291,2.333-.221,4.525-0.254,6.772a46.526,46.526,0,0,1-1.008,6.776c-0.226,1.368-.488,2.729-0.732,4.093a3.911,3.911,0,0,1-.1.617c-1.453,4.092-.759,8.442-1.525,12.614a18.979,18.979,0,0,0-.706,3.2c-0.007,3.6-1.04,7.036-1.563,10.546a26.462,26.462,0,0,1-2.129,6.208c-1.322,3.121-2.946,6.12-4.18,9.272a82.84,82.84,0,0,1-6.675,12.792c-2.727,4.483-5.029,9.224-7.519,13.851a3.779,3.779,0,0,1-.48.8c-4.182,4.516-8.3,9.1-12.6,13.5-2.323,2.379-4.961,4.452-7.46,6.66a46.846,46.846,0,0,1-3.732,3.237,62.806,62.806,0,0,1-8.29,5.458c-4.032,1.987-8.348,3.39-12.491,5.164a47.6,47.6,0,0,0-4.423,2.512q-2.585,1.455-5.2,2.86a1.549,1.549,0,0,1-.887.224c-2.767-.436-5.206.8-7.763,1.449a7.506,7.506,0,0,1-2.622.261c-2.834-.318-5.317.664-7.775,1.848a3.373,3.373,0,0,1-.825.095,14.3,14.3,0,0,0-3.434.691c-1.285.59-2.236,1.647-3.965,1.385-0.943-.143-2.01,1-3.088,1.2a74.878,74.878,0,0,1-10.217,1.441,14.432,14.432,0,0,0-4.183,1.2,13.81,13.81,0,0,1-3.531.168,16.259,16.259,0,0,0-1.932.194,26.961,26.961,0,0,1-3.75.66c-2.315.051-4.88-.767-6.88-0.009-1.844.7-3.3-.329-4.8,0.092-4.776,1.339-9.47.151-14.2-.188-3.458-.248-6.919-0.446-10.375-0.725-1.135-.092-2.256-0.367-3.383-0.56a3.227,3.227,0,0,0-1.383-.213c-2.239.809-4.11-.739-6.194-0.875-2.024-.133-4.057-0.264-6.059-0.569-2.453-.374-4.928.091-7.4-1.08-2.153-1.017-4.831-.859-7.194-1.516a44.18,44.18,0,0,1-6.03-2.386c-2.086-.929-4.115-1.975-6.5-1.782a1.644,1.644,0,0,1-1.045-.173,17.994,17.994,0,0,0-5.214-2.586,99.69,99.69,0,0,1-12.876-5.511c-3.188-1.671-6.685-3.043-9.059-6.016a1.834,1.834,0,0,0-.87-0.648c-2.884-.729-4.749-2.8-6.746-4.8-1.745-1.752-3.848-3.14-5.706-4.787-1.595-1.413-3.054-2.978-4.6-4.443a2.521,2.521,0,0,0-1.08-.542,5.111,5.111,0,0,1-3.522-2.867,19.521,19.521,0,0,0-6.372-7.188,44.225,44.225,0,0,1-4.843-4.635,1.306,1.306,0,0,1-.419-0.976c0.72-2.782-1.253-4.545-2.412-6.622-0.377-.675-0.567-1.467-1-2.094-0.806-1.162-1.814-2.187-2.587-3.368-1.519-2.324-3-4.677-4.375-7.089-1.291-2.268-2.515-4.585-3.592-6.961-0.984-2.171-1.712-4.456-2.589-6.677-0.549-1.392-1.189-2.748-1.735-4.141a4.191,4.191,0,0,1-.2-1.342,10.324,10.324,0,0,0-1.4-5.182,26.56,26.56,0,0,1-2.047-4.977c-0.36-1.013-.524-2.1-0.8-3.141a2.287,2.287,0,0,1-.308-0.843c1.1-3.065-1.355-5.724-.926-8.783,0.257-1.829-.721-3.84-0.429-5.654a11.025,11.025,0,0,0-.7-5.97c-0.362-.95.1-2.18-0.049-3.252a41.739,41.739,0,0,1-.414-10.222,38.112,38.112,0,0,0-.334-6.318,2.373,2.373,0,0,1,0-.919,7.686,7.686,0,0,0,.145-3.913,30.719,30.719,0,0,1,.317-6.515c0.219-2.565.507-5.123,0.768-7.684,0.141-1.379.184-2.778,0.455-4.131,0.418-2.085,1.021-4.133,1.488-6.209a5.353,5.353,0,0,0,.167-2.138c-0.774-3.865,1.129-7.279,1.756-10.9a18.662,18.662,0,0,0,.652-2.242,2.138,2.138,0,0,0-.715-1.675,2.428,2.428,0,0,0-1.982-.076c-1.4.665-2.155,2.776-1.944,4.352a5.892,5.892,0,0,1-.174,2.622c-0.879,2.538-1.912,5.022-3.071,8.006-1.414-4.184-2.7-7.92-3.937-11.672a23.146,23.146,0,0,1-1.061-8.953c0.129-1.853-.12-3.731-0.16-5.6-0.034-1.542.042-3.088-.026-4.627-0.091-2.054-.315-4.1-0.409-6.155-0.2-4.3-1.136-8.508-.855-12.888,0.311-4.833-.125-9.712-0.205-14.572a2.526,2.526,0,0,1,.321-1.629A3.418,3.418,0,0,1,44.125,136c0.292-.024.841,0.969,0.982,1.568,0.829,3.524,1.234,7.186,2.417,10.58,2.066,5.929,4.552,11.713,6.947,17.523,0.836,2.028,1.939,3.945,2.891,5.926,0.8,1.669,1.779,2.922,4,1.756a4.234,4.234,0,0,0-.946-3.445c-1.7-2.2-2.756-4.9-4.049-7.412-0.714-1.385-1.4-2.789-2.018-4.217-0.319-.734-0.275-1.693-0.734-2.289-2.769-3.594-2.683-8.219-4.467-12.187-0.887-1.973-.615-4.461-0.9-6.712-0.118-.93-0.343-1.847-0.484-2.775a3.38,3.38,0,0,1,3.338-4.067c0.918-.054,1.83-0.27,2.747-0.285a20.176,20.176,0,0,1,2.56.226c0.3,0.034.6,0.178,0.9,0.187,2.123,0.061,4.25.036,6.366,0.181a6.124,6.124,0,0,1,2.014.8c2.573,1.223,5.061,2.672,7.723,3.647,2.833,1.038,5.831,1.627,8.75,2.434,0.4,0.109.739,0.4,1.133,0.52,1.4,0.437,2.716.983,4.332,0.483,0.831-.257,1.955.434,3.261,0.78-0.726.809-1.162,1.383-1.685,1.863-2.79,2.564-5.572,5.14-8.423,7.635-1.031.9-2.472,1.4-3.329,2.423a27.819,27.819,0,0,0-3.492,5.327,2.008,2.008,0,0,0,1.2,2.692,1.267,1.267,0,0,0,1.093-.174c5.073-4.151,10.333-8.108,15.1-12.59a105.8,105.8,0,0,1,10.176-8.271c2.577-1.886,4.915-4.1,7.763-5.636,3.329-1.8,6.616-3.668,9.959-5.437,0.856-.453,1.889-0.56,2.775-0.97a22.215,22.215,0,0,0,4.634-2.425c2.082-1.664,4.6-1.825,6.939-2.608,3.007-1,5.967-2.15,8.976-3.149,1.845-.613,3.734-1.1,5.62-1.581,3.781-.959,7.559-1.934,11.368-2.773a44.356,44.356,0,0,1,4.943-.554c1.792-.187,3.6-0.265,5.371-0.583,1.5-.27,2.935-0.951,4.439-1.213,5.424-.945,10.855-1.858,16.3-2.637a34.651,34.651,0,0,1,6.71-.274,2.612,2.612,0,0,1,1.7,1.791c1.638,10.325,3.144,20.672,4.716,31.008,0.346,2.272.954,4.509,1.217,6.787,0.309,2.68-.953,4.236-3.641,4.495-3.35.322-6.732,0.326-10.076,0.693-3.222.354-6.407,1.041-9.621,1.486-1.02.141-2.087-.1-3.125-0.037-1.339.078-2.668,0.316-4.007,0.426-2.916.239-5.856,0.3-8.748,0.7-2.358.329-4.649,1.11-6.994,1.574-0.821.162-1.733-.159-2.565-0.023-1.691.277-3.339,0.873-5.034,1.052-2.912.308-5.856,0.308-8.768,0.612a40.817,40.817,0,0,0-5.115,1.073c-1.044.248-2.054,0.644-3.1,0.885-3.162.729-6.327,1.445-9.505,2.1a10.228,10.228,0,0,1-2.8.17c-2.882-.219-5.356,1.014-7.92,2.015-1.245.486-2.658,0.555-3.887,1.071-3.4,1.427-6.738,2.988-10.1,4.5-3.5,1.574-7.109,2.952-10.466,4.79-2.636,1.443-4.894,3.56-7.439,5.191a35.448,35.448,0,0,0-10.014,9.271c-2.32,3.282-4.834,6.543-5.327,10.811a8.439,8.439,0,0,1-1.435,3.6,16.575,16.575,0,0,0-2.626,7.958,17.4,17.4,0,0,1-2.272,6.712,6.321,6.321,0,0,0-.511,2.208c-0.219,1.817-.334,3.646-0.564,5.461a13.039,13.039,0,0,0,.853,6.509c0.724,1.9.464,4.175,0.646,6.284,0.154,1.787.3,3.576,0.485,5.36q0.367,3.488.805,6.969c0.1,0.769.3,1.524,0.45,2.286,1.02,5.057,1.715,10.209,3.16,15.142,1.235,4.214,1.274,8.615,2.608,12.767,1.289,4.012,2.5,8.057,3.963,12,1.247,3.355,2.815,6.591,4.241,9.879a3.046,3.046,0,0,1,.354.846c0.418,4.779,2.781,8.881,4.575,13.178,0.722,1.728,1.509,3.434,2.375,5.094a5.962,5.962,0,0,0,1.509,1.754,12.964,12.964,0,0,1,3.473,5.2,12.138,12.138,0,0,0,2.53,3.021c1.57,1.682,3.808,3.073,4.6,5.053,0.841,2.093,2.915,1.971,3.948,3.466a14.2,14.2,0,0,0,3.41,3.136c1.908,1.394,4.021,2.514,5.884,3.96,1.735,1.347,3.238,2.988,4.883,4.456a9,9,0,0,0,1.91,1.318,23.193,23.193,0,0,0,3.733,1.629,6.642,6.642,0,0,0,3.4.374c1.619-.444,2.828.253,4.2,0.7a7.458,7.458,0,0,0,2.181.165,5.284,5.284,0,0,1,1.679-.09c2.786,1.13,5.484,2.492,8.307,3.509a39.615,39.615,0,0,0,5.721,1.256q5.735,1.14,11.48,2.228a6.028,6.028,0,0,0,1.381-.1,2.1,2.1,0,0,1,1.024,0c0.763,1.477,2.145.928,3.311,1.122,1.116,0.185,2.2.535,3.317,0.743a70.168,70.168,0,0,0,9.884.868c1.6,0.069,3.591-.874,4.883,1.015a0.679,0.679,0,0,0,.574.136c3.78-.807,7.556-0.227,11.339-0.047,1.6,0.076,3.206-.266,4.809-0.258,3.474,0.018,6.958.331,10.42,0.168,4.294-.2,8.578-0.713,12.854-1.195,2.63-.3,5.294-1.318,7.839-1.045a20.831,20.831,0,0,0,7.639-.9c2.509-.644,4.965-1.371,7.662-1.1,1.374,0.139,2.82-.667,4.258-0.889,4.027-.62,8.121-0.914,12.087-1.792,4.32-.957,8.783-1.159,12.986-2.859,2.774-1.122,5.887-1.379,8.794-2.212,1.9-.543,3.673-1.482,5.54-2.141,2.484-.877,5.025-1.593,7.5-2.5a22.083,22.083,0,0,0,4.028-1.93c5.566-3.455,10.276-7.9,15.052-12.37,3.514-3.292,5.663-7.47,8.945-10.809a4.3,4.3,0,0,0,.581-1.085c0.733-1.428,1.493-2.844,2.187-4.291,0.58-1.209,1.082-2.456,1.618-3.686,0.39-.894.816-1.775,1.162-2.687,0.487-1.283.912-2.588,1.368-3.883,0.623-1.768,1.23-3.541,1.878-5.3,1.212-3.286,2.031-6.811,3.791-9.775,1.828-3.079,1.842-6.384,2.583-9.609a3.233,3.233,0,0,1,.265-0.891c1.057-1.832,2.156-3.64,3.207-5.474,1.487-2.6.924-5.5,1.261-8.279,0.368-3.034,1.028-6.032,1.517-9.052,0.231-1.424.37-2.864,0.527-4.3a9.178,9.178,0,0,1,.138-1.868c1.322-3.927.848-8.035,1.2-12.052a50.429,50.429,0,0,0-.251-8.249c-0.1-1.305-.752-2.569-0.847-3.874-0.18-2.486-.074-4.991-0.213-7.482a13.582,13.582,0,0,0-.681-4.637c-1.81-4.1-1.561-8.554-2.574-12.775-0.335-1.393.286-3.006-1.262-4.174-0.485-.366-0.413-1.708-0.312-2.569,0.268-2.273-1.152-3.77-2.249-5.437a2.223,2.223,0,0,1-.518-1.08c0.128-3.673-2.27-6.14-4.442-8.478a110,110,0,0,0-9.565-8.773,64.145,64.145,0,0,0-7.138-5.237,40.156,40.156,0,0,0-5.08-2.24c-0.925-.418-1.8-0.943-2.7-1.411-0.967-.5-1.924-1.026-2.914-1.478-2.124-.969-4.246-1.95-6.413-2.817a15.07,15.07,0,0,0-2.746-.579,2.407,2.407,0,0,1-.93-0.149c-2.255-1.784-4.989-2.178-7.673-2.756-1.59-.342-3.132-0.942-4.732-1.191-3.246-.5-6.516-0.848-9.776-1.258a19.559,19.559,0,0,0-2.167-.254c-0.838-.011-1.677.151-2.515,0.155-0.821,0-1.644-.09-2.465-0.159a3.111,3.111,0,0,0-.6-0.144c-4.049.623-7.6-1.723-11.514-1.919-5.674-.284-11.38-0.373-17-1.1-3.61-.466-7.184-0.239-10.763-0.5-3.1-.227-6.2-0.635-9.3-0.9-0.824-.071-1.667.1-2.5,0.116-1.418.019-2.837-.024-4.255,0C209.337,152.462,208.683,152.579,208.008,152.651Z" transform="translate(0 0)"/>
  <path id="_Path_5" data-name="&lt;Path&gt;" class="cls-4" d="M110.913,496.473a3.4,3.4,0,0,0,.253-1.053,1.256,1.256,0,0,0-.439-0.935,26.61,26.61,0,0,1-3.735-1.368,2.821,2.821,0,0,1-.881-2.144c0-2.037.237-4.073,0.375-6.109,0.169-2.492.3-4.987,0.514-7.475,0.1-1.213.717-2.5,0.468-3.6-0.93-4.142.725-8.037,1.106-12.016,0.409-4.274,2.2-8.424,3.477-12.6,0.632-2.076,1.447-4.1,2.178-6.143a0.519,0.519,0,0,0,.076-0.3c-1.547-2.586,1.6-4,1.55-6.28-0.057-2.39,1.042-4.5,2.055-6.655a34.2,34.2,0,0,0,1.689-5.969c1.168-4.481,2.366-8.955,3.455-13.456,0.5-2.075.678-4.229,1.173-6.307,0.927-3.892,2.207-7.713,2.916-11.64a50.7,50.7,0,0,0,.978-13.63,29.881,29.881,0,0,0-.716-3.837c-0.353-1.565.466-2.714,2.022-2.433a13.935,13.935,0,0,1,2.848,1.325c1.745,0.771,3.479,1.582,5.272,2.224,1.383,0.495,2.859.721,4.276,1.129,3.151,0.908,6.306,1.812,9.431,2.8,1.751,0.556,3.4,1.483,5.178,1.89,2.024,0.464,4.142.5,6.209,0.795,1.015,0.146,2,.509,3.008.69,2.089,0.374,4.178.791,6.286,1.014,4.636,0.491,9.283.892,13.929,1.284,0.931,0.078,1.886-.13,2.818-0.056,0.8,0.063,1.57.426,2.369,0.508,1.516,0.156,3.042.21,4.564,0.3q4.782,0.282,9.565.557c1.519,0.088,3.12.1,3.891,1.727a8.791,8.791,0,0,1,.814,2.823q0.762,7.619,1.368,15.253c0.125,1.6-.1,3.236.026,4.841,0.11,1.443.622,2.86,0.694,4.3,0.188,3.746.178,7.5,0.345,11.249,0.2,4.436.513,8.867,0.747,13.3,0.177,3.344.256,6.695,0.482,10.035,0.1,1.546.616,3.072,0.661,4.615,0.112,3.824,0,7.654.105,11.478,0.059,2.046.4,4.083,0.606,6.125a2.764,2.764,0,0,1,.056.77,62.817,62.817,0,0,0-.617,16.426c0.177,2.491-.371,5.026-0.35,7.539,0.034,4,.268,8,0.419,12,0.028,0.733.108,1.468,0.083,2.2-0.055,1.55-1.173,2.257-2.671,2.047a24.74,24.74,0,0,0-3.335.142c-2.158,0-4.317-.026-6.472-0.119-2.656-.115-5.311-0.285-7.963-0.475-3.161-.227-6.319-0.5-9.478-0.75a2.916,2.916,0,0,0-1.226-.009,3.43,3.43,0,0,1-3.925-.576c-0.257-.228-1.02.129-1.552,0.2a9.619,9.619,0,0,1-5.033-1.1,7.38,7.38,0,0,0-2.513-.24c-1.122-.045-2.262.071-3.367-0.079-3.8-.515-7.6-1.071-11.388-1.716a15.055,15.055,0,0,1-2.673-1.078c-0.81-.312-1.641-0.571-2.462-0.855a25.69,25.69,0,0,0-3.064-1.036c-1.725-.36-3.507-0.456-5.22-0.856-2.193-.512-4.335-1.238-6.512-1.824-0.728-.2-1.5-0.23-2.242-0.37a2.934,2.934,0,0,1-1.595-.421c-1.887-2.681-5.076-1.658-7.514-2.739-1.575-.7-3.26-1.146-4.89-1.722-1.1-.39-2.2-0.814-3.3-1.207a2.673,2.673,0,0,1-.753-0.169c-1.375-1.17-2.76-1.542-4.25.174Z" transform="translate(0 0)"/>
  <path id="_Path_6" data-name="&lt;Path&gt;" class="cls-4" d="M285.7,371.123c0.388,2.706.713,5.174,1.11,7.632,0.171,1.061.484,2.1,0.744,3.144a2.087,2.087,0,0,1,.259.868c-0.69,1.805.62,3.111,1.005,4.653,0.631,2.522.712,5.175,1.222,7.735,0.286,1.437-.6,3.1.837,4.353a2.922,2.922,0,0,1,0,1.363,1.981,1.981,0,0,0,.14,1.17c1.32,1.012.894,2.416,1.027,3.724a13.34,13.34,0,0,0,.691,2.722c0.19,0.585.561,1.11,0.772,1.69,0.6,1.651,1.221,3.3,1.719,4.983a18.915,18.915,0,0,1,.732,3.639,11.632,11.632,0,0,0,2.352,6.014,2.628,2.628,0,0,1,.477.775c0.7,2.466,1.331,4.952,2.065,7.408,0.878,2.935,1.834,5.846,2.763,8.765,1.235,3.878,2.438,7.768,3.727,11.628,1.346,4.03,3.056,7.963,4.073,12.07a37.914,37.914,0,0,0,2.63,7.625c0.917,1.886-.762,4.35-3.038,5.687a45.305,45.305,0,0,0-5.08,3.573c-3.23,2.553-6.347,5.251-9.6,7.769a41.473,41.473,0,0,1-4.142,2.406c-2.3,1.38-4.514,2.9-6.869,4.167-1.924,1.034-4.037,1.712-6,2.679-2.458,1.211-4.854,2.549-7.269,3.847-0.548.294-1.04,0.7-1.6,0.967-1.672.8-3.334,1.642-5.062,2.3a23.114,23.114,0,0,1-2.576.331c-1.9.475-3.754,1.123-5.656,1.577-2.219.529-4.578,0.642-6.677,1.452-2.409.93-4.769,0.606-7.181,0.7-1.043.042-2.017,1-3.088,1.33-1.922.589-4.1,1.8-5.8,1.356-4.164-1.083-8.033.414-12.031,0.473-0.31,0-.618.1-0.929,0.128-2.494.249-2.592,0.241-2.923-2.163-0.4-2.895-.479-5.842-1.009-8.709-0.925-5-.157-10-0.141-14.989,0.014-4.364.586-8.727,0.566-13.089-0.019-3.993-.574-7.981-0.752-11.977-0.114-2.553.146-5.123,0.032-7.676-0.2-4.5-.6-9-0.838-13.5-0.165-3.074-.2-6.155-0.308-9.233-0.1-2.751-.245-5.5-0.342-8.252-0.085-2.388-.025-4.786-0.228-7.163-0.166-1.947-.685-3.861-0.939-5.8-0.248-1.895-.318-3.812-0.54-5.711-0.219-1.877-.582-3.738-0.78-5.617-0.123-1.169.031-2.367-.1-3.535-0.251-2.282-.642-4.547-0.92-6.826-0.184-1.5,1.914-2.976,3.407-2.7a16.378,16.378,0,0,0,3.959.063c1.026-.062,2.034-0.387,3.061-0.486,3.113-.3,6.232-0.55,9.348-0.829a1.423,1.423,0,0,0,.587-0.2c3.989-2.41,8.609-1.544,12.878-2.5,1.547-.345,3.085-0.738,4.616-1.147a49.7,49.7,0,0,1,6.895-1.836,102.247,102.247,0,0,0,18.7-4.459C278.959,374.475,282.043,372.746,285.7,371.123Z" transform="translate(0 0)"/>
  <path id="_Path_7" data-name="&lt;Path&gt;" class="cls-4" d="M105.942,535.917l-0.754,1.605-0.264-.02a3.416,3.416,0,0,1,.253-1.479c0.843-1.067.25-1.95,0.008-3.016a30.9,30.9,0,0,1-.481-5.251c-0.074-1.454.1-2.931-.087-4.365-0.18-1.356.755-1.889,1.526-2.476,0.669-.51,1.191,0,1.9.487,2.178,1.517,4.463,3.4,6.932,3.824,2.217,0.377,3.748,2.187,6.036,2.078a4.967,4.967,0,0,1,2.081.977c0.317,0.17.566,0.482,0.892,0.62,3.7,1.565,7.334,3.3,11.123,4.594,2.776,0.948,5.069,3.026,8.175,3.2a46.95,46.95,0,0,1,5.588.934,10.148,10.148,0,0,1,1.19.282c2.909,0.89,5.79,1.885,8.732,2.646,1.481,0.383,3.089.248,4.6,0.537,1.184,0.226,2.3.781,3.47,1.119a2.249,2.249,0,0,0,1.466.082c2.5-1.325,4.835.189,7.241,0.323,0.4,0.022.8,0.143,1.2,0.177,3.546,0.3,7.092.605,10.64,0.881,1.823,0.142,3.654.194,5.476,0.347,3.523,0.3,7.038.818,10.565,0.905,3.608,0.09,7.226-.252,10.842-0.338a1.871,1.871,0,0,1,1.452.57,30.594,30.594,0,0,1,1,5.493c0.247,4.23.329,8.471,0.427,12.709q0.191,8.255.29,16.512c0.014,1.235-.237,2.472-0.255,3.71-0.058,3.866.006,7.736-.124,11.6a37.816,37.816,0,0,1-.759,4.3c-0.273,1.795-.4,3.613-0.721,5.4a52.3,52.3,0,0,1-1.544,7.275c-0.848,2.567-3.335,3.716-6,3.359-1.878-.252-3.774-0.38-5.666-0.511s-3.832-.071-5.717-0.326c-3.286-.444-6.549-1.06-9.819-1.616-1.163-.2-2.314-0.469-3.481-0.64-2.6-.38-5.211-0.716-7.393-1.013a24.138,24.138,0,0,0-3-1.289,41.737,41.737,0,0,1-7.856-2.661c-2.116-1.046-4.565-1.395-6.8-2.222a93.944,93.944,0,0,1-11.086-4.446c-3.022-1.581-5.645-3.923-8.448-5.923a14.947,14.947,0,0,0-2.318-1.575c-2.262-1.034-3.133-3.138-4.184-5.124a2.33,2.33,0,0,0-.6-1.06c-3.474-1.185-3.35-4.88-5.085-7.265a4.008,4.008,0,0,1-.12-1.813c-0.059-.978.077-1.959-1.408-2.2-0.422-.068-0.775-1.3-0.938-2.04a2.044,2.044,0,0,0-1.246-1.6c-1.064-.594-1.726-1.921-2.537-2.951a19.086,19.086,0,0,0-1.688-2.223,19.7,19.7,0,0,1-6.251-10.305c-0.283-1.307-1.18-2.468-1.618-3.756-0.917-2.7-1.848-5.406-2.523-8.171-0.575-2.356-.775-4.8-1.2-7.2a8.974,8.974,0,0,0-.653-1.679Z" transform="translate(0 0)"/>
  <path id="_Path_8" data-name="&lt;Path&gt;" class="cls-4" d="M316.889,513.2a13.75,13.75,0,0,1,.4,2.874q-0.3,4.023-.858,8.026c-0.378,2.734-.458,5.444-2.4,7.885-1.055,1.324-.828,3.666-1.189,5.548-0.2,1.033-.35,2.082-0.639,3.09a37.1,37.1,0,0,0-1.441,4.634,11.176,11.176,0,0,1-2.152,4.918,27.83,27.83,0,0,0-1.325,2.627c-0.448.807-1.025,1.542-1.466,2.352-1.151,2.117-2.269,4.253-3.382,6.39-2.064,3.963-3.856,8.1-6.247,11.85a61.247,61.247,0,0,1-7.457,9.3c-2.689,2.81-5.521,5.609-9.374,6.933a1.145,1.145,0,0,0-.634.44c-1.161,2.349-3.4,2.945-5.652,3.525a0.75,0.75,0,0,0-.427.172c-1.594,2.871-5.147,3.005-7.279,5.272a7.775,7.775,0,0,1-5.827,2.884,1.232,1.232,0,0,0-.714.286c-3.2,2.486-7.072,3.224-10.844,4.259-1.58.434-3.057,1.246-4.637,1.678-2.529.691-5.107,1.2-7.66,1.806a5.664,5.664,0,0,0-1.484.486c-2.82,1.594-6.027,1.848-9.062,2.7-1.307.366-2.512,1.123-3.827,1.421a3.86,3.86,0,0,1-2.3-.506,1.727,1.727,0,0,1-.167-1.424c1.2-4.019,1.2-8.166,1.593-12.29a87.441,87.441,0,0,0,.025-11.323,85.719,85.719,0,0,1,.083-10.214c0.293-3.353-.143-6.644-0.186-9.963-0.025-1.921.252-3.85,0.177-5.767-0.1-2.661-.346-5.321-0.645-7.968-0.3-2.675-.857-5.325-1.078-8a2.671,2.671,0,0,1,2.223-2.7c2.9-.707,5.846-1.293,8.8-1.716,3.349-.48,6.731-0.718,10.1-1.086a17.855,17.855,0,0,0,2.095-.4c3.536-.824,7.035-1.876,10.611-2.441,5.482-.867,10.391-3.635,15.766-4.617,4.7-.859,8.9-2.989,13.377-4.385,3.288-1.025,6.305-2.893,9.494-4.268,2.585-1.114,5.245-2.056,7.875-3.067a2.33,2.33,0,0,0,.743-0.208c2.7-2.705,6.812-2.842,9.653-5.567C311.316,514.942,314.189,514.4,316.889,513.2Z" transform="translate(0 0)"/>
  <path id="_Path_9" data-name="&lt;Path&gt;" class="cls-5" d="M136.615,529.033c-1.164-.558-2.2-1.152-3.314-1.559-0.888-.326-1.879-0.357-2.788-0.636-2.284-.7-4.593-1.356-6.8-2.258-1.008-.412-1.8-1.361-2.688-1.775A18.315,18.315,0,0,1,118,521.93c-1.823-.874-3.557-1.933-5.344-2.884-2.4-1.276-5.371-1.612-6.929-4.291a1.9,1.9,0,0,0-1.312.217,7.526,7.526,0,0,0-1.277,1.154l-0.4-.327a9.722,9.722,0,0,1,1.212-1.554,3.682,3.682,0,0,0,1.271-3.638c-0.241-1.523-.8-3.106-0.576-4.565,0.357-2.339-.7-4.895,1.081-7.038,1.374-1.653,2.873-1.889,4.873-.892,1.787,0.89,3.711,1.5,5.556,2.278,2.048,0.864,4.088,1.752,6.106,2.684a6.673,6.673,0,0,0,3.252.883c1.143-.042,2.294,1.011,3.493,1.436q5.3,1.88,10.654,3.636c2.4,0.788,4.827,1.479,7.33,2.24,0.7-.934,1.376-0.788,2.365-0.043a7.4,7.4,0,0,0,2.892.9c3.779,0.789,7.556,1.6,11.355,2.277,3.916,0.7,7.843,1.384,11.792,1.838s7.937,0.544,11.893.944a24.806,24.806,0,0,1,4.138,1.169c1.45-1.725,3.528-.4,5.413-0.467,2.014-.072,4.039.229,6.062,0.31,2.958,0.117,5.922-.232,8.861.659a10.847,10.847,0,0,0,4.187.078c2.062-.225,4.282.623,6.179-0.839a0.641,0.641,0,0,1,.462-0.008,10.9,10.9,0,0,0,6.538-.633,1.756,1.756,0,0,1,.606.057c1.374,0.076,2.751.236,4.122,0.2,3-.073,6.008-0.18,9-0.411a20.977,20.977,0,0,0,3.09-.863c4.136-.991,8.286-1.924,12.417-2.934,3.009-.736,5.985-1.871,8.939-2.456,3.351-.663,6.077-2.383,9.1-3.538a94.7,94.7,0,0,0,10.109-4.83,15.035,15.035,0,0,0,3.215-2.617,11.175,11.175,0,0,1,5.176-2.515,9.864,9.864,0,0,0,2.894-1.782c0.818-.589,1.523-1.332,2.337-1.926,2.977-2.174,5.991-4.3,8.966-6.475,1.321-.966,2.555-2.052,3.887-3a14.743,14.743,0,0,1,2.293-1.049,31.7,31.7,0,0,0,.019,3.355c0.282,2.41.687,4.806,0.982,7.215a4.517,4.517,0,0,1-.23,1.526,6.273,6.273,0,0,0,.645,4.017c0.555,1.347.234,3.052,0.778,4.407,0.563,1.4-.155,2.045-0.883,2.856a0.526,0.526,0,0,1-.123.1c-2.175,1.286-4.329,2.607-6.531,3.843-2,1.121-4.03,2.18-6.076,3.21-3.306,1.663-6.608,3.341-9.964,4.9-3.691,1.714-7.51,3.165-11.149,4.977-4.672,2.327-9.682,3.572-14.629,5.053-5.184,1.552-10.318,3.281-15.532,4.725-3.494.967-7.088,1.573-10.637,2.339a43.6,43.6,0,0,1-6.574,1.346c-3.186.18-5.949,1.917-9.023,2.182-5,.431-10.03.5-15.044,0.779-2.58.143-5.151,0.5-7.731,0.585-1.425.05-2.859-.324-4.294-0.375-3.706-.131-7.418-0.114-11.12-0.309-1.587-.083-3.147-0.6-4.732-0.821a29.1,29.1,0,0,0-6.368-.678c-4.4.376-8.589-.482-12.794-1.484A47.21,47.21,0,0,0,153.4,535.49c-1.808-.005-3.616-1.07-5.416-1.679-0.289-.1-0.513-0.392-0.8-0.484-2.878-.914-5.741-1.883-8.654-2.669C136.93,530.226,136.756,530.246,136.615,529.033Z" transform="translate(0 0)"/>
  <path id="_Path_10" data-name="&lt;Path&gt;" class="cls-5" d="M57.181,432.253c0.458-1.083.887-2.15,1.357-3.2,0.68-1.518,1.347-3.044,2.1-4.527,0.581-1.148,1.295-2.228,1.924-3.353,0.348-.622.659-1.267,0.96-1.914,0.411-.882.849-1.757,1.184-2.669,0.843-2.3,1.957-4.564,2.317-6.94a3.724,3.724,0,0,0-2.117-3.737c-1.339-.643-1.473-2.41-0.029-3.7,1.943-1.741,3.518-3.963,6.355-4.634a13.958,13.958,0,0,0,3.79-2.133c4.38-2.744,9.1-4.924,13.147-8.24,1.291-1.058,3.152-1.389,4.6-2.3,3.689-2.324,7.185-4.97,10.954-7.148,4.5-2.6,7.493-6.561,10.608-10.487a2.028,2.028,0,0,1,1.734-.666c2.053,0.8,4.038,1.78,6.011,2.768a1.125,1.125,0,0,1,.383,1.018c-0.47,1.388.408,2.25,0.9,3.389a23.359,23.359,0,0,1,1.158,5.718,11.821,11.821,0,0,1-.028,2.293c-0.148,3.269-1.872,5.715-4.182,7.817-1.312,1.193-2.785,2.215-4.045,3.456-2.183,2.149-4.185,4.485-6.4,6.6-2.606,2.492-5.4,4.788-8.032,7.251-3.267,3.055-6.442,6.209-9.683,9.292-2.09,1.988-4.381,3.787-6.306,5.919-2.885,3.195-6.421,5.546-9.82,8.071A31.707,31.707,0,0,1,71.83,432.3c-2.484,1.316-4.889,2.8-7.427,3.994a4.931,4.931,0,0,1-6.179-1.519A10.766,10.766,0,0,1,57.181,432.253Z" transform="translate(0 0)"/>
  <path id="_Path_11" data-name="&lt;Path&gt;" class="cls-5" d="M301.71,392.678c0.693-1,.19-1.337-0.827-1.636a4.439,4.439,0,0,1-2.163-1.287c-1.38-1.74-2.731-3.411-5.139-3.684a0.738,0.738,0,0,1-.527-0.256c-0.5-2.769-2.408-5.128-2.255-8.1,0.113-2.2.022-4.407,0.022-6.675l-1.74-.306c0.052-1.229.929-1.747,1.847-2.225a23.885,23.885,0,0,1,3.046-1.528,23.354,23.354,0,0,1,4.195-1.031,3.56,3.56,0,0,1,1.455.736c0.482,0.238.977,0.453,1.477,0.65,0.13,0.051.412-.055,0.438,0,1.089,2.271,4.733,1.349,5.321,4.25a0.586,0.586,0,0,0,.452.344c1.92-.16,3.146,1.249,4.609,2.067,2.28,1.275,4.4,2.855,6.726,4.025,3.4,1.712,7.062,2.942,10.367,4.809a34.743,34.743,0,0,0,11.324,4.195,11.315,11.315,0,0,0,2.016.233,3.276,3.276,0,0,1,3.271,3.622,4.707,4.707,0,0,0-.032,1.074,18.494,18.494,0,0,0,.633,4.523,13.581,13.581,0,0,0,2.7,4.247,52.284,52.284,0,0,0,5,4.384,16.189,16.189,0,0,0,2.41,1.684c1.7,0.953,2.244,2.394,1.247,4.039-1.194,1.969-2.464,3.9-3.813,5.765-1.113,1.538-2.2,1.665-3.924.92-1.755-.758-3.56-1.4-5.352-2.076-2.919-1.093-5.9-2.049-8.752-3.287a52.979,52.979,0,0,1-5.666-3.157c-2.225-1.31-4.363-2.777-6.643-3.98-2.1-1.106-4.561-1.637-6.44-3a20.911,20.911,0,0,0-5.62-2.69,0.871,0.871,0,0,1-.422-0.174C308.841,395.718,304.9,394.94,301.71,392.678Z" transform="translate(0 0)"/>
  <path id="_Path_12" data-name="&lt;Path&gt;" class="cls-4" d="M137.886,602.679a2.806,2.806,0,0,1,.838-0.044c2.782,1.4,5.942,2.005,8.39,4.151a8.5,8.5,0,0,0,3.263,1.716c2.385,0.654,4.837,1.066,7.265,1.561a25.563,25.563,0,0,1,3.67.725c2.429,0.887,4.785,1.972,7.182,2.948,0.852,0.347,1.762.559,2.6,0.935,0.939,0.42,1.261,1.115.476,1.973-1.368,1.5-2.712,3.019-4.163,4.432-2.258,2.2-4.55,4.371-6.916,6.453a42.18,42.18,0,0,1-5.416,4.25c-2.756,1.717-5.544,3.625-8.592,4.568-3.269,1.011-6.846,1.121-10.307,1.389a40.312,40.312,0,0,1-6.485-.213,14.579,14.579,0,0,1-3.631-.814c-1.132-.4-1.283-1.43-0.992-2.5q2.056-7.564,4.133-15.123c0.674-2.456,1.005-5.088,2.127-7.32,1.515-3.013,2.9-6.2,5.439-8.592A2.917,2.917,0,0,1,137.886,602.679Z" transform="translate(0 0)"/>
  <path id="_Path_13" data-name="&lt;Path&gt;" class="cls-4" d="M121.917,392.807a5.577,5.577,0,0,1,.135,1.682c-1.389,5.5-2.789,10.991-4.265,16.465-0.959,3.556-2.09,7.066-3.061,10.619-0.481,1.759-.7,3.59-1.186,5.346a8.85,8.85,0,0,1-1.321,2.618,3.1,3.1,0,0,1-1.4.772c-1.122.444-2.484,0.573-3.357,1.3-3.346,2.786-7.3,4.477-11.063,6.514a21.3,21.3,0,0,0-3.155,2.022c-2.63,2.1-6,2.232-9,3.174-2.554.8-4.616,2.32-7,3.313-5.021,2.1-10.455-.974-10.1-6.411,0.062-.946,1.222-1.958,2.092-2.677a32.358,32.358,0,0,1,3.357-2.01c6-3.821,12.073-7.509,16.9-12.906,1.616-1.808,3.773-3.126,5.637-4.721,1.02-.873,1.9-1.915,2.921-2.779,2.216-1.867,4.711-3.46,6.672-5.558,1.8-1.926,4.463-3.216,5.107-6.125a0.674,0.674,0,0,1,.2-0.238C113.579,399.436,116.76,395.257,121.917,392.807Z" transform="translate(0 0)"/>
  <path id="_Path_14" data-name="&lt;Path&gt;" class="cls-4" d="M296.111,390.914a3.287,3.287,0,0,0,2.9,2.61c0.7,0.106,1.3,1.053,1.9,1.663a3.949,3.949,0,0,0,.9,1.151c1.779,0.436,2.552,2.124,3.933,2.981,2.6,1.611,5.3,3.058,8.009,4.48,2.142,1.125,4.4,2.028,6.53,3.177,3.273,1.767,6.476,3.662,9.711,5.5a48.89,48.89,0,0,0,5.274,2.922c1.975,0.817,4.125,1.2,6.167,1.866,2.472,0.809,4.912,1.715,7.362,2.59,2.254,0.8,2.7,2.49.995,4.223a9.8,9.8,0,0,1-3.134,2.286,40.794,40.794,0,0,1-7.534,2.414,48.029,48.029,0,0,1-9.079.78,5.158,5.158,0,0,1-3.31-1.788,1.055,1.055,0,0,0-1.532-.389,11.175,11.175,0,0,1-3.675.321,40.888,40.888,0,0,1-4.159-.567,9.478,9.478,0,0,1-1.536-.287c-1.841-.6-3.67-1.234-5.5-1.863-1.282-.441-2.567-0.873-3.837-1.348-1.63-.609-3.178-1.913-5.083-0.06a5.507,5.507,0,0,1-.531-1.969c0.69-2.844-1.347-4.942-1.93-7.429-0.429-1.831-.945-3.646-1.5-5.444-0.506-1.637-1.162-3.227-1.658-4.867a15.925,15.925,0,0,1-.271-2.208c-0.153-1.008-.287-2.026-0.537-3.012a46.331,46.331,0,0,1-1.416-5.3C293.378,391.817,294.88,391.475,296.111,390.914Z" transform="translate(0 0)"/>
  <path id="_Path_15" data-name="&lt;Path&gt;" class="cls-4" d="M305.92,624.847c-2.629-1.185-5.893-.6-8.514-2.712-1.232-.992-3.169-1.063-4.7-1.739a20.077,20.077,0,0,1-3-1.916c-2.72-1.841-5.5-3.61-8.128-5.57a77.892,77.892,0,0,1-6.364-5.344,13.454,13.454,0,0,1-2.092-2.992,1.063,1.063,0,0,1,.133-1.011c2.27-2,4.229-4.388,7.29-5.394a5.625,5.625,0,0,0,2.608-2.068,18.368,18.368,0,0,1,6.194-5.466c1.794-1.031,2.938-3.156,4.474-4.69,0.688-.687,1.675-1.632,2.437-1.557a3.2,3.2,0,0,1,2.779,2.339c0.391,1.2,1.47,2.149,2.026,3.314,1.846,3.874,3.659,7.766,5.361,11.705,1.466,3.392,2.8,6.844,4.118,10.3,0.573,1.5.912,3.084,1.474,4.587,0.244,0.651.918,1.145,1.148,1.8,0.225,0.637.443,1.777,0.132,2.022-1.9,1.5-3.94,2.824-5.968,4.154A4.2,4.2,0,0,1,305.92,624.847Z" transform="translate(0 0)"/>
  <path id="_Path_16" data-name="&lt;Path&gt;" class="cls-4" d="M317.553,548.443c0.461,2.129,1.015,4.242,1.367,6.389,1.083,6.6.6,13.36,2.336,19.942,0.91,3.452.748,7.222,0.8,10.853,0.054,3.472-.157,6.954-0.4,10.422-0.183,2.583-.576,5.153-0.934,7.721a54.56,54.56,0,0,1-.961,5.6c-0.539,2.175-1.3,4.3-2,6.57a32.524,32.524,0,0,1-2.289-3.452c-0.992-1.953-1.84-3.986-2.647-6.025-1.069-2.7-1.946-5.479-3.08-8.15-1.2-2.834-2.577-5.6-3.937-8.362-1.7-3.462-3.482-6.889-5.205-10.342a2.645,2.645,0,0,1,.44-2.964c2.2-3.149,4.684-6.1,5.581-10.069a25.27,25.27,0,0,1,2.955-6.35c1.669-3.007,3.487-5.932,5.273-8.873,0.613-1.01,1.32-1.963,1.983-2.941Z" transform="translate(0 0)"/>
  <path id="_Path_17" data-name="&lt;Path&gt;" class="cls-4" d="M112.489,573.123c1.726-.491,2.433.152,3.151,1.4,1.515,2.633,3.277,5.1,3.974,8.154a7.575,7.575,0,0,0,1.757,2.754c2.009,2.455,4.077,4.861,6.135,7.276,1.578,1.852,3,3.735,2.663,6.412-0.07.551,0.467,1.166,0.445,1.741-0.055,1.459.166,3.16-.5,4.322-2.306,4.036-3.139,8.513-4.445,12.86-1.293,4.3-2.763,8.556-4.179,12.823a10.157,10.157,0,0,1-.7,1.4c-1.591-1.515-3.108-2.9-4.558-4.355-1.863-1.867-2.073-4.4-2.476-6.8a33.632,33.632,0,0,1-.073-4.551,17.949,17.949,0,0,0-.258-2.169c-0.319-2.094-.666-4.185-0.978-6.28a25.2,25.2,0,0,1-.45-3.688c0-3.852.24-7.707,0.153-11.556-0.068-3.009-.48-6.011-0.748-9.015a4.222,4.222,0,0,1-.169-0.763C111.644,579.724,112.078,576.357,112.489,573.123Z" transform="translate(0 0)"/>
  <path id="_Path_18" data-name="&lt;Path&gt;" d="M257.485,232.7c-1.76.942-2.746,0.228-3.281-1.49a2.287,2.287,0,0,0-.678-1.036c-2.144-1.766-2.752-4.278-3.833-6.7-1.985-4.445-.824-8.623-0.324-12.933a25.482,25.482,0,0,1,.521-3.21c0.877-3.528,2.559-6.758,5.583-8.708,2.6-1.675,5.7-2.594,8.629-3.712,1.149-.438,2.475-0.391,3.655-0.771,2.255-.727,4.328.134,6.462,0.526,0.527,0.1,1.054.2,1.586,0.255,3.579,0.385,6.857,1.491,9.179,4.392a55.282,55.282,0,0,1,5.311,7.418c1,1.794,1.288,4,1.769,6.059,0.245,1.046.065,2.2,0.34,3.231,0.673,2.538-1.481,4.1-1.988,6.21-0.109.454-.32,0.885-0.418,1.341a8.7,8.7,0,0,1-2.143,4.186,45.57,45.57,0,0,0-3.993,5.774c-1.525,2.339-4.066,2.731-6.443,3.4-1.548.436-3.143,0.716-4.728,1.008a6.6,6.6,0,0,1-1.546-.018,25.979,25.979,0,0,1-12.571-3.664A5.65,5.65,0,0,1,257.485,232.7Z" transform="translate(0 0)"/>
  <path id="_Path_19" data-name="&lt;Path&gt;" d="M139.894,245.97a4.24,4.24,0,0,0-4.312-2.2,15.431,15.431,0,0,1-15.182-9.733,14.9,14.9,0,0,0-.889-1.354c-1.7-3.249-2.6-6.614-1.41-10.268a1.313,1.313,0,0,0,.088-0.919c-1.363-1.869.053-3.648,0.151-5.457,0.12-2.213.321-4.446,1.879-6.239,0.57-.656,1.176-1.281,1.772-1.914a25.747,25.747,0,0,1,10.355-6.617c1.059-.374,2.349-0.061,3.528-0.139a20.147,20.147,0,0,0,2.091-.333l10.4,2.482a9.907,9.907,0,0,1,2.127,1.147,29.752,29.752,0,0,1,2.409,2.709c1.235,1.426,2.5,2.83,3.688,4.294a6.656,6.656,0,0,1,1.48,2.329q1.336,5.42,2.377,10.912a28.092,28.092,0,0,1,.27,4.023c-1.1,2.231-1.918,4.1-2.928,5.852a50.664,50.664,0,0,1-2.993,4.35,1.281,1.281,0,0,1-.887.572c-1.7-.6-1.884.792-2.344,1.749-1.093,2.277-3.442,2.658-5.37,3.716C144.206,246.024,141.964,244.882,139.894,245.97Z" transform="translate(0 0)"/>
  <path id="_Path_20" data-name="&lt;Path&gt;" d="M214.761,313c0.773,2.955,3.421,3.919,4.429,5.714,1.389,2.475,4.2,2.878,5.489,5.108a1.641,1.641,0,0,0,1.11.8c2.406-.015,2.736,2.092,3.8,3.451a4.052,4.052,0,0,1-4.692.062c-1.588-1.221-3.222-2.382-4.867-3.525a7.029,7.029,0,0,0-1.418-.575,5.117,5.117,0,0,0-3.708-4.789,1.621,1.621,0,0,0-1.3.217c-1.918,1.819-3.768,3.708-5.642,5.573-2.162,2.152-4.283,4.348-6.535,6.4a2.037,2.037,0,0,1-1.912-.184,2.635,2.635,0,0,1-1.106-1.962,8.785,8.785,0,0,1,1.808-3.2c1.893-2.194,3.921-4.272,5.924-6.368a13.478,13.478,0,0,1,1.176-.763c1.019-.852,1.976-1.779,3.013-2.607C211.673,315.274,213.068,314.27,214.761,313Z" transform="translate(0 0)"/>
  <path id="_Path_21" data-name="&lt;Path&gt;" class="cls-6" d="M303.506,241.414a56.779,56.779,0,0,1,8.052,1.51,5.1,5.1,0,0,1,3.851,4.478,4.424,4.424,0,0,1-2.248,4.466c-8.072,5.33-16.781,5.176-25.68,2.832a10.551,10.551,0,0,1-3.787-2.133c-1.353-1.108-.813-2.648-0.374-4.059,0.616-1.979,2.353-2.706,4.01-3.41,5.136-2.183,10.418-3.742,16.115-3.188Z" transform="translate(0 0)"/>
  <path id="_Path_22" data-name="&lt;Path&gt;" class="cls-6" d="M118.039,268.533c-4.748.027-9.436-.28-13.542-3.044-2.66-1.79-3.075-4.551-.608-6.246a26.3,26.3,0,0,1,6.824-2.814,17.589,17.589,0,0,1,4.478-.687c3.307-.174,6.622-0.3,9.933-0.278a26.8,26.8,0,0,1,6.017.6,4.72,4.72,0,0,1,3,2.067,4.844,4.844,0,0,1-.095,3.959,10.861,10.861,0,0,1-7.068,5.095q-4.42.892-8.842,1.77Z" transform="translate(0 0)"/>
  <path id="_Path_23" data-name="&lt;Path&gt;" d="M44.145,102.987c0.813-2.216,1.516-4.48,2.462-6.637,1.741-3.97,3.439-7.978,5.51-11.776a56.59,56.59,0,0,1,5.451-7.825c2.835-3.587,5.808-7.069,8.812-10.518A34.748,34.748,0,0,1,76.138,58.8c0.656-.36,1.156-0.992,1.781-1.421,1.49-1.022,3.012-2,4.52-2.992,2.387-1.577,4.692-3.3,7.183-4.694,2.4-1.342,4.9-2.889,7.53-3.368,4.84-.88,9.783-1.793,14.745-0.277,2.526,0.772,4.679,1.773,5.362,4.626a41.533,41.533,0,0,1,1.461,5.9,7.081,7.081,0,0,1-1.138,3.837,50.989,50.989,0,0,1-5.121,7.765,60.457,60.457,0,0,1-7.794,7.385c-2.363,1.911-5.154,3.285-7.611,5.092-1.967,1.447-3.567,3.416-5.6,4.75-3.745,2.464-6.482,5.937-9.611,9.01-5.086,4.995-9.98,10.185-15.067,15.178a17.14,17.14,0,0,1-12.636,5.037c-5.362-.091-9.7-5.077-9.578-10.708,0.006-.256.038-0.512,0.059-0.767Z" transform="translate(0 0)"/>
  <path id="_Path_24" data-name="&lt;Path&gt;" d="M144.822,49.855a70.187,70.187,0,0,1-7.2-.044,11.839,11.839,0,0,1-8.485-5.118c-3.542-4.762-1.1-8.673,1.111-12.825,2.643-4.961,7.335-6.7,12.287-7.789,1.763-.389,3.833.775,5.677,0.545a6.485,6.485,0,0,1,5.07,1.178,34.416,34.416,0,0,1,4.076,4.309,5,5,0,0,1,1.028,1.707,6.329,6.329,0,0,1,.536,2.84c-1.159,6.27-4.989,10.708-10.212,14A13.571,13.571,0,0,1,144.822,49.855Z" transform="translate(0 0)"/>
  <path id="_Path_25" data-name="&lt;Path&gt;" class="cls-7" d="M267.391,209.253l-2.333,1.838a9.831,9.831,0,0,1-.146-2.043c0.33-2.126.858-4.226,1.1-6.359a4.319,4.319,0,0,1,4.658-3.928,50.978,50.978,0,0,1,8.756,1.087c1.24,0.3,2.27,1.722,3.25,2.77a13.49,13.49,0,0,1,2.3,3.142c1,2.022,1.809,4.14,2.607,6.252,0.44,1.165-.937,2.926-2.443,3.178-1.848.309-3.7,0.643-5.566,0.778-1.744.126-3.543,0.137-4.865-1.383a0.645,0.645,0,0,0-.421-0.184c-2.943-.115-4.534-2.1-6-4.286A6.371,6.371,0,0,0,267.391,209.253Z" transform="translate(0 0)"/>
  <path id="_Path_26" data-name="&lt;Path&gt;" class="cls-7" d="M256.349,222.9c0.734,0.223,1.469.438,2.2,0.671a4.053,4.053,0,0,1,1.285.474q3.885,3.067,7.706,6.217c0.574,0.473,1.2.9,0.56,1.933-0.7,1.117-1.8,1.886-2.722,1.32-3.187-1.954-6.739-3.419-9.234-6.4-0.5-.593-1.331-0.907-1.807-1.509a1.54,1.54,0,0,1-.053-1.461,13.135,13.135,0,0,1,1.927-1.771Z" transform="translate(0 0)"/>
  <path id="_Path_27" data-name="&lt;Path&gt;" class="cls-7" d="M141.909,205.667c2.28-.293,4.987,1.092,7.264,2.7,1.84,1.3,3.074,3.6,4.267,5.636a33.4,33.4,0,0,1,2.342,5.6c1.077,2.985-.648,6.127-3.36,5.927a34.1,34.1,0,0,1-5.559-1.255c-1.145-.284-2.562-0.307-3.351-1.012-1.55-1.387-3.371-1.624-5.209-1.932-1.021-.171-1.117-0.528-1.114-1.545a5.93,5.93,0,0,0-1.01-3.556c-2.15-2.636-2.519-5.728-.587-8.463C136.95,205.851,138.981,205.636,141.909,205.667Z" transform="translate(0 0)"/>
  <path id="_Path_28" data-name="&lt;Path&gt;" class="cls-7" d="M122.832,229.593a0.548,0.548,0,1,0-.111.171c2.521-2.044,2.46-1.963,5.08.017,1.487,1.124,3.432,1.7,4.772,2.945a12.648,12.648,0,0,1,2.81,4.415c0.212,0.514-.736,1.63-1.346,2.293-0.21.228-1.016-.05-1.534-0.168a4.122,4.122,0,0,0-.834-0.4c-2.978.3-3.9-2.487-5.8-3.8-0.656-.453-1.379-0.821-1.986-1.329a2.419,2.419,0,0,1-.8-1.225A23.812,23.812,0,0,1,122.832,229.593Z" transform="translate(0 0)"/>
  <path id="_Path_29" data-name="&lt;Path&gt;" class="cls-6" d="M297.832,254.7c-3.959-.074-7.568-0.527-10.895-2.2-1.628-.816-1.749-3.662-0.113-4.517a41.953,41.953,0,0,1,6.5-2.551,29.275,29.275,0,0,1,15.567-1.189c1.293,0.287,2.473,1.481,3.494,2.474,0.9,0.875.494,1.989-.295,2.805a14.153,14.153,0,0,1-8.971,4.295C301.266,254.018,299.432,254.425,297.832,254.7Z" transform="translate(0 0)"/>
  <path id="_Path_30" data-name="&lt;Path&gt;" class="cls-6" d="M123.529,257.152c3.072,0.2,5.319.292,7.555,0.5a2.008,2.008,0,0,1,1.569,3.059,8.353,8.353,0,0,1-6.074,5.049,31.97,31.97,0,0,1-18.306-.972c-0.866-.314-2.079-0.723-2.332-1.391a2.838,2.838,0,0,1,.742-2.608,11.712,11.712,0,0,1,4.595-2.124C115.6,257.947,119.977,257.571,123.529,257.152Z" transform="translate(0 0)"/>
  <path id="_Path_31" data-name="&lt;Path&gt;" class="cls-7" d="M103.789,49.486c2.04,0.116,4.543.187,7.03,0.42a4.171,4.171,0,0,1,3.533,5.294,24.911,24.911,0,0,1-1.8,4.3c-0.621,1.306-1.406,2.534-2.023,3.842-1.162,2.466-3.367,3.931-5.383,5.507-4.787,3.742-9.576,7.506-14.6,10.908-3.709,2.51-6.112,6.2-9.321,9.128-1.86,1.7-3.808,3.3-5.661,5a18.75,18.75,0,0,0-1.252,1.746c-2.321,2.717-4.586,5.491-7.043,8.08a37.377,37.377,0,0,1-4.295,3.394c-1.138.889-2.318,1.732-3.393,2.693-2.875,2.569-9.184,1.381-10.3-2.261a10.148,10.148,0,0,1,.4-5.772,78.562,78.562,0,0,1,3.552-7.625c1.129-2.462,2.17-4.964,3.252-7.447a31.575,31.575,0,0,1,6.92-9.9c1.942-1.918,3.572-4.154,5.525-6.059,2.11-2.058,4.378-3.966,6.681-5.808,1.874-1.5,4.4-2.441,5.744-4.284,1.9-2.62,4.872-3.216,7.184-4.963,1.7-1.282,3.675-2.189,5.392-3.447C96.762,50.161,100.13,50.315,103.789,49.486Z" transform="translate(0 0)"/>
  <path id="_Path_32" data-name="&lt;Path&gt;" class="cls-7" d="M132.824,40.76c0.1-4.047,1.906-6.479,3.941-8.861,2.328-2.725,5.648-3.151,8.747-3.451,2.151-.209,4.505.753,6.62,1.575,0.809,0.314,1.144,1.742,1.8,2.576,0.83,1.047.451,1.875,0,2.985a13.453,13.453,0,0,1-5.224,6.074c-0.793.541-1.278,1.519-2.043,2.121-3.113,2.45-8.989,2.04-12.144-.426A8.206,8.206,0,0,1,132.824,40.76Z" transform="translate(0 0)"/>
</svg>
