<svg id="Layer_1" data-name="Layer 1" xmlns="http://www.w3.org/2000/svg" viewBox="0 0 150.005 71.746">
  <defs>
    <style>
      .cls-1 {
        fill: #c7c9cb;
      }
    </style>
  </defs>
  <title>9f5e1226-e0a7-4081-b1dc-36cb49c6d169</title>
  <path id="_Compound_Path_" data-name="&lt;Compound Path&gt;" d="M16.4,40.292c-0.241-1.429-.494-2.61-0.628-3.8a8.067,8.067,0,0,1,.879-4.693c0.489-.949.784-2,1.184-2.993a4.3,4.3,0,0,1,.608-1.261c2.664-3.02,4.989-6.368,8.393-8.676a12.982,12.982,0,0,1,6.135-2.352,43.928,43.928,0,0,0,4.759-.818,1.66,1.66,0,0,0,.865-0.718,2.341,2.341,0,0,0,.238-0.972c0.721-5.429,4.2-8.821,8.519-11.622,1.588-1.03,3.137-2.158,5.086-2.311C53.912-.042,55.4.006,56.876,0.036A23.158,23.158,0,0,1,74.057,7.654a2.35,2.35,0,0,0,2.739.854,15.535,15.535,0,0,1,4.977-.21c1.869,0.149,3.713.609,5.57,0.917a12.615,12.615,0,0,1,6.884,3.951,29.378,29.378,0,0,1,4.81,7.18,11.92,11.92,0,0,1,.759,3.317c0.134,0.7.2,1.4,0.326,2.311,0.743-.3,1.236-0.461,1.691-0.694a10.749,10.749,0,0,1,8.2-.8c2.968,0.85,6.074,1.253,8.786,2.866,1.964,1.168,3.862,2.4,4.873,4.61,0.445,0.973,1.126,1.837,1.582,2.806,0.965,2.048,1.852,4.133,2.9,6.5,1.389,0,3.121-.106,4.834.024,2.778,0.211,5.476.742,7.521,2.913a1.927,1.927,0,0,0,.81.585c2.111,0.547,3.127,2.282,4.138,3.923a39.576,39.576,0,0,1,4.464,11.388c0.325,1.312-.349,2.174-1.455,2.977-2.5,1.81-5.4,1.349-8.147,1.62-3.878.384-7.787,0.573-11.685,0.615-3.136.034-6.274-.307-9.414-0.42a44.514,44.514,0,0,0-7.254-.047,42.125,42.125,0,0,1-8.824-.26,103.057,103.057,0,0,0-15.512.314c-3.153.226-6.307,0.448-9.456,0.723-4.15.362-8.29,0.856-12.446,1.139-4.294.293-8.6,0.362-12.9,0.6s-8.616.32-12.867,0.905q-10.4,1.431-20.847,2.2c-5.163.385-10.321,0.844-15.48,1.27-1.913.158-2.833-.461-3.1-2.29a25.576,25.576,0,0,1-.459-6.619A19.332,19.332,0,0,1,2.8,54.9a59.313,59.313,0,0,1,5.224-8.122,26.753,26.753,0,0,1,7.113-5.837C15.541,40.708,15.966,40.516,16.4,40.292ZM146.151,61.076a34.889,34.889,0,0,0-3.2-9.9c-1.191-2.622-3.709-3.759-5.81-5.368a0.573,0.573,0,0,0-.189-0.07c-3.22-.934-6.423-1.4-9.682-0.073-2.147.876-2.837,0.44-3.06-1.822a22.444,22.444,0,0,0-3.361-9.606,10.008,10.008,0,0,0-5.913-4.55c-1.865-.564-3.773-0.991-5.616-1.615a9.321,9.321,0,0,0-4.57-.22c-2.014.316-3.33,1.622-4.609,3.046a2.231,2.231,0,0,1-2.34.844c-1.038-.3-1.191-1.21-1.293-2.082-0.171-1.47-.2-2.959-0.419-4.422-0.242-1.648-.229-3.372-1.2-4.848-0.74-1.121-1.457-2.257-2.174-3.393a8.278,8.278,0,0,0-5.431-3.838c-1.371-.3-2.764-0.5-4.126-0.835-2.474-.609-4.8-0.953-6.971,1.034-1.616,1.48-2.955,1.079-3.7-.985a7.1,7.1,0,0,0-2.622-3.484C68.4,7.85,66.789,7.02,65.284,6.035,61.437,3.514,57.111,3.646,52.8,3.755a4.276,4.276,0,0,0-2.109.56,37.048,37.048,0,0,0-4.739,3.4,11.481,11.481,0,0,0-3.835,9.556c0.083,1.865-1.014,3.058-2.676,2.587-2.854-.809-5.49-0.006-8.11.788a14.364,14.364,0,0,0-3.676,2.007,22.183,22.183,0,0,0-5.329,5.735c-2.194,3.042-3.652,6.288-2.335,10.16,0.194,0.571.295,1.175,0.444,1.762,0.636,2.493.165,3.236-2.371,3.828a8.6,8.6,0,0,0-2.676.793A24.628,24.628,0,0,0,7.649,53.3c-0.689,1.153-1.205,2.417-1.955,3.525A12.761,12.761,0,0,0,3.631,67c0.259,1.234.428,1.458,1.732,1.389,3.222-.171,6.449-0.3,9.662-0.58,5.026-.439,10.043-0.984,15.063-1.492,4.213-.427,8.424-0.871,12.637-1.3,2.74-.277,5.477-0.694,8.223-0.774q13.516-.4,26.975-1.628,10.447-.968,20.933-1.5a24.678,24.678,0,0,1,9.379.99,6.829,6.829,0,0,0,2.6.119c2.338-.161,4.67-0.4,7.006-0.591a3.574,3.574,0,0,1,1.2.079c3.506,0.953,7.092.369,10.629,0.453,3.819,0.091,7.652-.359,11.477-0.609C142.733,61.458,144.312,61.258,146.151,61.076Z"/>
  <path id="_Path_" data-name="&lt;Path&gt;" class="cls-1" d="M146.151,61.076c-1.839.182-3.419,0.382-5,.486-3.825.251-7.658,0.7-11.477,0.609-3.537-.084-7.123.5-10.629-0.453a3.574,3.574,0,0,0-1.2-.079c-2.336.188-4.669,0.43-7.006,0.591a6.829,6.829,0,0,1-2.6-.119,24.678,24.678,0,0,0-9.379-.99q-10.478.536-20.933,1.5-13.466,1.248-26.975,1.628c-2.746.08-5.483,0.5-8.223,0.774-4.213.426-8.424,0.871-12.637,1.3-5.02.509-10.037,1.054-15.063,1.492-3.213.28-6.44,0.409-9.662,0.58-1.3.069-1.473-.155-1.732-1.389a12.761,12.761,0,0,1,2.063-10.18c0.75-1.108,1.266-2.372,1.955-3.525a24.628,24.628,0,0,1,7.736-8.368,8.6,8.6,0,0,1,2.676-.793c2.536-.593,3.007-1.335,2.371-3.828-0.15-.587-0.25-1.19-0.444-1.762-1.317-3.872.141-7.119,2.335-10.16a22.183,22.183,0,0,1,5.329-5.735,14.364,14.364,0,0,1,3.676-2.007c2.62-.795,5.256-1.6,8.11-0.788,1.663,0.471,2.759-.722,2.676-2.587A11.481,11.481,0,0,1,45.95,7.711a37.048,37.048,0,0,1,4.739-3.4,4.276,4.276,0,0,1,2.109-.56c4.314-.109,8.64-0.241,12.487,2.279,1.5,0.985,3.115,1.815,4.581,2.852a7.1,7.1,0,0,1,2.622,3.484c0.746,2.064,2.085,2.466,3.7.985,2.17-1.987,4.5-1.643,6.971-1.034,1.361,0.335,2.754.538,4.126,0.835a8.278,8.278,0,0,1,5.431,3.838c0.717,1.136,1.434,2.272,2.174,3.393,0.975,1.476.962,3.2,1.2,4.848,0.215,1.463.248,2.951,0.419,4.422,0.1,0.872.255,1.784,1.293,2.082a2.231,2.231,0,0,0,2.34-.844c1.279-1.424,2.6-2.73,4.609-3.046a9.321,9.321,0,0,1,4.57.22c1.843,0.624,3.751,1.051,5.616,1.615a10.008,10.008,0,0,1,5.913,4.55,22.444,22.444,0,0,1,3.361,9.606c0.223,2.263.914,2.7,3.06,1.822,3.259-1.33,6.462-.862,9.682.073a0.573,0.573,0,0,1,.189.07c2.1,1.61,4.618,2.746,5.81,5.368A34.889,34.889,0,0,1,146.151,61.076Z"/>
</svg>
