<svg id="Layer_1" data-name="Layer 1" xmlns="http://www.w3.org/2000/svg" viewBox="0 0 291.995 300.059">
  <defs>
    <style>
      .cls-1 {
        fill: #eabb4a;
      }

      .cls-2 {
        fill: #ff922f;
      }

      .cls-3 {
        fill: #d33e38;
      }
    </style>
  </defs>
  <title>461c5c19-9b85-4fb6-b4bb-8333c5d6bfae</title>
  <path d="M39.54,120.259c1.506,0.257,2.621.5,3.75,0.63,4.8,0.556,9.609,1.06,14.408,1.63,1,0.118,1.964.475,2.957,0.648,0.947,0.164,1.931.148,2.862,0.365,0.973,0.228,1.9.64,3.1,1.058a4.241,4.241,0,0,0-.185-1.52,80.333,80.333,0,0,0-4.828-7.349A29,29,0,0,0,54,108.631a13.546,13.546,0,0,1-2.857-3.067,1.069,1.069,0,0,1-.16-0.945,1.053,1.053,0,0,1,.861-0.312c3.851,0.307,7.7.609,11.544,1.009a23.008,23.008,0,0,1,2.523.819,3.734,3.734,0,0,0,1.328-.2c-0.21-.306-0.427-0.606-0.628-0.918-0.437-.68-0.851-1.375-1.3-2.046-1.035-1.541-2.139-3.038-3.119-4.613-1.179-1.9-2.968-3.463-3.319-5.814-0.227-1.517-1.644-2.109-2.37-3.237a28.582,28.582,0,0,0-1.933-2.342,31.955,31.955,0,0,1-2.189-2.826c-0.693-1.088-1.149-2.328-1.846-3.414-0.746-1.163-1.719-2.179-2.473-3.337-1.1-1.682-2.062-3.446-3.129-5.147a11,11,0,0,0-1.166-1.332,1.549,1.549,0,0,1-.526-0.639c0.3-1.765-1.1-2.68-1.873-3.908-1.307-2.084-2.587-4.186-3.912-6.258-0.74-1.157-1.587-2.245-2.313-3.41a12.584,12.584,0,0,1-1.51-2.874c-0.646-2.135-2.433-3.389-3.623-5.1a18.142,18.142,0,0,1-1.357-2.106,40.5,40.5,0,0,0-3.712-5.264c-1.522-2.1-2.561-4.539-4.047-6.665-1.662-2.378-3.584-4.575-5.4-6.84-1.58-1.965-3.239-3.87-4.744-5.89a37.778,37.778,0,0,1-2.615-4.233c-0.546-.98-0.928-2.05-1.4-3.074C5.9,12.831,5.089,11,4.211,9.205,3.022,6.773,1.772,4.371.558,1.951A4.414,4.414,0,0,1,0,0C3.162,1.476,6.354,2.894,9.476,4.45c1.815,0.9,3.54,1.995,5.263,3.07a23.556,23.556,0,0,1,2.073,1.659c0.765,0.608,1.505,1.256,2.317,1.795,2.549,1.692,5.108,3.37,7.7,5,2.254,1.417,4.6,2.688,6.819,4.16a43.452,43.452,0,0,1,3.689,3.042c1.086,0.91,2.212,1.777,3.246,2.743,2.644,2.469,6.059,3.7,8.989,5.679,2.337,1.581,4.326,3.67,6.52,5.471q5.152,4.229,10.38,8.366c0.725,0.577,1.626.943,2.311,1.556,1.218,1.089,2.293,2.338,3.5,3.436,1.242,1.126,2.568,2.161,3.874,3.213a18.722,18.722,0,0,0,1.732,1.243c1.195,0.756,2.43,1.45,3.612,2.224a2.936,2.936,0,0,1,1.308,1.209c0.388,1.422,1.567,1.895,2.583,2.641,1.3,0.958,2.461,2.114,3.756,3.087,1.251,0.939,2.612,1.73,3.891,2.634,0.529,0.374.942,0.911,1.456,1.311,1.9,1.481,3.931,2.819,5.7,4.438a18.822,18.822,0,0,0,4.254,2.609,3.726,3.726,0,0,1,1.289.914c1.072,1.436,2.669,2,4.191,2.708a0.978,0.978,0,0,1,.454.227c0.44,2.316,3.247,1.95,4.275,3.8,0.422,0.761,2.139.836,3.289,1.136a1.059,1.059,0,0,0,.834-0.433,16.112,16.112,0,0,0,1.629-2.6,4.692,4.692,0,0,0,.608-2.514c-0.54-2.954-.286-6.086-1.839-8.829a1,1,0,0,1-.112-0.518c0.242-4.679-1.564-8.764-3.666-12.772a18.86,18.86,0,0,1-.868-2.243,5.575,5.575,0,0,1-.089-0.814,27.692,27.692,0,0,1,5.268,1.391c4.616,2.257,9.16,4.655,12.844,8.4,1.064,1.082,2.576,1.709,3.8,2.654a20.334,20.334,0,0,1,2.693,2.528c1.243,1.391,2.317,2.943,4.294,3.421a6.981,6.981,0,0,1,1.006.624,1.672,1.672,0,0,0,1.091.279,1.553,1.553,0,0,0,.636-1.18c-0.624-3.292-.677-6.683-2.037-9.852-1.5-3.5-2.784-7.092-4.086-10.672-0.663-1.823-1.093-3.732-1.757-5.555-0.523-1.436-1.241-2.8-2.008-4.494,2.949,0.155,5.574-.282,8.019,1.27a26.249,26.249,0,0,0,3.914,1.615c4.254,1.8,8.518,3.58,12.737,5.461a8.068,8.068,0,0,1,2.415,1.836c1.391,1.456,3.3,1.111,4.968,1.555,0.577,0.154.928-.348,0.7-1.06-0.539-1.691-1.022-3.4-1.557-5.093a2.07,2.07,0,0,0-.506-0.773c-2.554-2.61-3.291-6.215-5.071-9.248a3.158,3.158,0,0,1-.152-0.918c1.206,0.21,2.308.318,3.363,0.6,3.933,1.054,7.968,1.778,11.554,3.91,2.581,1.534,5.451,2.641,7.852,4.4,2.879,2.113,5.366,4.756,8.085,7.1,1.23,1.059,2.611,1.945,4.268,3.162a25.05,25.05,0,0,0-.048-4.643c-0.634-3.075-1.52-6.1-2.311-9.139-0.257-.989-0.591-1.961-0.786-2.96a20.415,20.415,0,0,1-.136-2.551c0.93,0.692,1.556,1.111,2.128,1.594a13.892,13.892,0,0,0,2.384,2.084c2.675,1.33,4.037,3.864,5.723,6.056,1.159,1.507,2.786,1.719,4.295,2.088,1.406,0.344,2.5-1.722,2.062-3.446-0.705-2.747-1.368-5.505-2.047-8.259a5.251,5.251,0,0,1-.182-0.778c-0.291-3.311-.513-6.629-0.884-9.931a30.6,30.6,0,0,0-.941-3.878c-0.1-.42-0.2-0.842-0.3-1.251,4.2,0.7,6.967,3.609,10.031,6.037,1.686,1.336,3.409,2.626,5.076,3.984,0.506,0.412.85,1.015,1.324,1.473,2.258,2.184,4.519,4.366,6.81,6.515,1.7,1.592,3.237,3.243,3.4,5.748a0.992,0.992,0,0,0,.633.619c1.327-.5,1.9.511,2.488,1.274,1.24,1.623,2.437,3.288,3.524,5.016,2.081,3.3,4.049,6.679,6.116,9.992,0.58,0.929,1.375,1.721,2.009,2.619,1.788,2.534,3.659,5.022,5.253,7.675,0.589,0.981.442,2.385,0.738,3.57a11.078,11.078,0,0,0,.814,1.7c0.342,0.765.676,1.535,0.97,2.319,0.491,1.309.3,2.824,1.557,3.916a2.724,2.724,0,0,1,.86,3.242,1.459,1.459,0,0,0,.016.911,17.616,17.616,0,0,1,.963,4.541c0.09,2.018,1.294,3.986,2.018,5.976a1.684,1.684,0,0,1,.267.725c-1.255,1.654.46,2.735,0.718,4.089,0.566,2.978,1.285,5.946.813,9.043a7.711,7.711,0,0,0,2.38,7.261,1.194,1.194,0,0,0,1.077.19,15.258,15.258,0,0,0,2.9-3.365c1-1.96,1.538-4.148,2.38-6.2,0.618-1.5,1.4-2.937,2.125-4.4a7.18,7.18,0,0,0,.624-1.165c0.744-2.726,1.447-5.462,2.163-8.195-0.047-.015.084-0.012,0.107,0.039,1.088,2.417,2.092,4.875,3.267,7.249a35.14,35.14,0,0,0,3.469,6.122c2.582,3.308,3.806,7.078,4.685,11.067,0.6,2.719,1.493,5.377,2.027,8.107a32.628,32.628,0,0,1,.647,6.471c-0.023,2.889.135,5.673,1.629,8.238a1.406,1.406,0,0,1,.178.889c-0.381,2,.472,3.92.1,6.013a68.059,68.059,0,0,0-.519,9.463c-0.114,3.145-.1,6.3-0.3,9.437-0.156,2.4.138,4.8-.805,7.214-0.836,2.138-.907,4.572-1.361,6.866-0.137.692-.524,1.34-0.627,2.034-0.387,2.588-.58,5.212-1.087,7.774-0.428,2.167-1.192,4.267-1.8,6.4-0.342,1.194-.653,2.4-1.019,3.583-0.548,1.776-1.109,3.55-1.713,5.308-0.288.838-.8,1.61-1.019,2.46-0.621,2.36-1.009,4.789-1.737,7.113-1.632,5.21-3.18,10.468-5.229,15.517-1.073,2.644-1.871,5.4-3.116,7.972q-1.159,2.4-2.318,4.792a3.191,3.191,0,0,0-.463,1.094c-0.117,2.637-1.553,4.589-3.09,6.584a33.18,33.18,0,0,0-2.793,4.833c-1.077,2.036-1.794,4.335-3.183,6.117a70.89,70.89,0,0,1-6.242,6.365c-2.491,2.473-5.664,3.829-8.784,5.235-2.253,1.015-4.642,1.731-6.876,2.781-2.447,1.15-4.783,2.536-7.173,3.809q-3.464,1.846-6.94,3.667a1.448,1.448,0,0,1-.637.189,15.027,15.027,0,0,0-7.475,2.15c-1.338.748-3.094,0.723-4.64,1.13q-2.622.69-5.2,1.539c-1.686.555-3.3,1.353-5.017,1.78-3.443.857-6.929,1.544-10.4,2.28-2.391.506-4.792,0.966-7.185,1.464-3.432.714-6.833,1.712-10.3,2.08-2.528.269-4.978,0.7-7.465,1.169-2.629.494-5.4,0.237-8.11,0.293-3.717.076-7.414-.309-11.156,0.439a37.03,37.03,0,0,1-8.512.246c-0.67-.024-1.305-1-2.07-1.632a57.253,57.253,0,0,1,5.44-3.2c3.034-1.369,6.175-2.5,9.28-3.707a11.407,11.407,0,0,1,1.424-.331,2.4,2.4,0,0,0,2.137-1.916,2.827,2.827,0,0,0-1.114-2.925c-1.641-1.313-3.577-1.3-5.445-1.4-2.8-.152-5.617-0.085-8.425-0.04a36.514,36.514,0,0,1-8.619-.679,15.917,15.917,0,0,0-3.2-.132,18.546,18.546,0,0,1-8.522-1.744,5.359,5.359,0,0,0-1.919-.216c-1.367-.116-2.736-0.221-4.1-0.336a41.87,41.87,0,0,1-9.656-2.306c-3.4-1.128-6.912-1.9-10.35-2.917-1.65-.487-3.236-1.187-4.859-1.768a25.453,25.453,0,0,1-2.507-.835c-1.346-.649-2.638-1.411-3.942-2.145-1.382-.778-2.74-1.6-4.127-2.367-3.265-1.806-6.5-3.683-9.83-5.353-2.461-1.233-5.073-2.161-7.6-3.27-1.53-.672-3.022-1.431-4.815-2.286a37.473,37.473,0,0,0,6.064-.771c3.871-1.162,7.883-.535,11.781-1.257,3.966-.734,8.063-0.722,11.92-2.107,1.924-.691,3.85-1.382,5.8-1.986a12.75,12.75,0,0,1,2.862-.511,3.684,3.684,0,0,0,2.98-1.188,2.4,2.4,0,0,1,1.034-.448c0.94-.345,1.882-0.727,2.025-1.877,0.134-1.081.192-2.337-1-2.806-2.339-.922-3.853-2.692-5.473-4.483-1.865-2.062-4.013-3.869-6.064-5.759-1.921-1.771-3.928-3.452-5.8-5.276a43.865,43.865,0,0,1-3.109-3.645c-1.768-2.155-3.51-4.331-5.273-6.489-2.469-3.022-4.931-6.052-7.441-9.04a9.755,9.755,0,0,0-1.672-1.294l0.383-.566c0.86,0.313,1.708.665,2.583,0.931,2.358,0.719,4.7,1.542,7.1,2.042a3.215,3.215,0,0,0,3.453-1.575c0.758-1.284-.1-2.373-0.486-3.61-0.733-2.325-3.094-2.8-4.363-4.469-1.358-1.791-2.971-3.388-4.482-5.061-1.04-1.152-2.095-2.29-3.246-3.547l7.371-.544,0.175-.37c-1.61-1.342-3.233-2.669-4.822-4.035-0.559-.48-1.011-1.081-1.552-1.586-0.62-.579-1.292-1.1-1.924-1.666a4.825,4.825,0,0,1-1.292-1.288c-0.651-1.417-2.043-1.544-3.2-2.107a12.154,12.154,0,0,1-2.7-1.568c-1.769-1.533-3.422-3.2-5.115-4.82-0.186-.178-0.33-0.4-0.681-0.835,0.661-.036,1.111-0.081,1.56-0.082,4.861-.005,9.721.011,14.582-0.02a6.6,6.6,0,0,0,2.075-.362c1.746-.6,2.047-2.023.616-3.17a16.533,16.533,0,0,1-4.492-5.595,17.522,17.522,0,0,0-2.16-2.834,11.534,11.534,0,0,1-1.126-1.316c-1.11-1.945-2.114-3.951-3.252-5.879-0.889-1.507-1.994-2.889-2.864-4.406-1-1.753-1.854-3.595-2.772-5.4-0.289-.568-0.575-1.138-0.874-1.7-1.175-2.214-2.4-4.4-3.51-6.65-0.562-1.143-.82-2.436-1.391-3.573-0.238-.474-1.085-0.62-1.386-1.089a28.418,28.418,0,0,1-1.295-2.71c-1.321-2.636-2.67-5.258-4-7.892C40.106,121.674,39.928,121.177,39.54,120.259Zm36.6,79.113c1.115,1.406,2.08,2.848,3.271,4.07,1.822,1.87,3.756,3.64,5.73,5.351,1.054,0.914,2.335,1.563,3.438,2.427,1.606,1.257,3.168,2.574,4.687,3.935a1.366,1.366,0,0,1,.186,1.2,1.227,1.227,0,0,1-.933.5c-0.931.07-1.871,0.031-2.807,0.032-2.452,0-4.905-.017-7.357.017a1.786,1.786,0,0,0-2.04,1.681c-0.063,1.118.691,1.623,1.73,1.855a3.431,3.431,0,0,1,1.215.678c1.557,1.171,3.093,2.369,4.638,3.554a46.017,46.017,0,0,1,4.317,3.385c0.709,0.694,1,1.791,2.222,1.916a2.9,2.9,0,0,1,2.385,1.867,2.25,2.25,0,0,0,.522.554c0.806,0.78,1.638,1.536,2.414,2.345a5.986,5.986,0,0,0,1.144,1.418c1.213,0.572,2.568.842,3.784,1.41a2.026,2.026,0,0,1,1.058,1.4,1.466,1.466,0,0,0,1.482,1.61c1.024,0.192,2.363.374,2.923,1.074,2,2.505,3.737,5.228,5.652,7.982-0.974.449-1.736,0.781-2.481,1.148-4.525,2.23-9,4.577-13.589,6.661a50.386,50.386,0,0,1-7.8,2.668c-2.609.7-5.315,1.03-7.955,1.629a2.34,2.34,0,0,0-1.439,1.123,1.8,1.8,0,0,0,.21,1.676,19.7,19.7,0,0,0,4.057,2.031c1.364,0.475,2.973.354,4.24,0.975a22.105,22.105,0,0,0,8,2.624c2.1,0.167,4.2.413,6.284,0.744a21.58,21.58,0,0,1,4.555,1.079,15.477,15.477,0,0,0,6.266,1.27,5.4,5.4,0,0,1,1.184.156c1.123,0.22,2.244.453,3.365,0.686,0.95,0.2,1.918.337,2.842,0.618,2.45,0.746,4.831,1.774,7.474,1.645a0.831,0.831,0,0,1,.615.153c1.1,1.6,2.72,1,4.2,1.043,1.163,0.031,2.326.105,3.487,0.2,1.389,0.112,2.774.275,4.163,0.4a3.892,3.892,0,0,1,1.315.038,11.433,11.433,0,0,0,5.358.983,11.4,11.4,0,0,1,1.861.122c3.013,0.564,6.01,1.214,9.03,1.731,1.471,0.252,1.576.346,1.012,1.754-1.018,2.54-2.32,5.023-1.795,7.916a0.721,0.721,0,0,1-.015.266c-0.264,1.282.559,1.819,1.565,2.065a3.891,3.891,0,0,0,1.837-.077c1.843-.485,3.636-1.194,5.5-1.564,3.52-.7,7.076-1.225,10.615-1.829a1.982,1.982,0,0,0,.621-0.2,16.555,16.555,0,0,1,7.961-2.2,12.965,12.965,0,0,0,3.612-1.06c0.97-.319,1.906-0.751,2.887-1.024,3.924-1.093,7.863-2.132,11.791-3.212,2.952-.812,5.905-1.622,8.839-2.5,2.466-.735,4.931-1.489,7.347-2.37,2.119-.772,4.165-1.746,6.254-2.6,1.468-.6,2.959-1.146,4.433-1.735a24.725,24.725,0,0,1,3.328-1.347,10.327,10.327,0,0,0,5.38-3,55.7,55.7,0,0,1,4.45-4.344c4.554-3.883,8.8-7.983,11.617-13.4,0.766-1.473,2.249-2.569,3.377-3.861a6.231,6.231,0,0,0,.962-1.387c0.547-1.155,1.01-2.35,1.52-3.523a29.8,29.8,0,0,0,1.947-4.516c1.656-6.694,3.944-13.18,6.192-19.683,0.62-1.793,1.509-3.616,1.576-5.45a22.008,22.008,0,0,1,2.046-8.212,29.575,29.575,0,0,0,2.339-10.054,7.129,7.129,0,0,1,1.213-4.132,1.136,1.136,0,0,0-.26-1.821c-0.949-.643-0.549-1.261-0.3-2.065a27.193,27.193,0,0,0,.767-3.72c0.171-1.032.3-2.075,0.369-3.118,0.144-2.091,1.342-4.224-.239-6.267a1.325,1.325,0,0,1-.016-0.9c0.269-1.334.623-2.652,0.837-3.993,0.121-.758-0.056-1.563.053-2.325,0.29-2.033.665-4.054,1-6.081a0.837,0.837,0,0,0-.094-0.373,11.161,11.161,0,0,1-.652-5.782,26.012,26.012,0,0,0,.313-4.625,13.119,13.119,0,0,1,.259-3.907c0.414-1.481.942-3.208-.231-4.737a1.647,1.647,0,0,1-.178-0.908q-0.076-3.873-.123-7.747c-0.077-5.646.031-11.3-.956-16.9a2.019,2.019,0,0,0-4.015-.285c-0.308,1.071-.605,2.144-0.918,3.213a52.667,52.667,0,0,1-1.769,5.826,47.638,47.638,0,0,1-3.154,5.847c-1,1.662-2.147,3.235-3.262,4.825a1.063,1.063,0,0,1-.758.449c-1.558-.127-2.241,1.052-3.137,1.96-0.875.887-1.82,1.705-2.941,2.746-0.222-1.048-.332-1.692-0.5-2.322a42.914,42.914,0,0,1-1.8-11.256,5.058,5.058,0,0,0-1.433-4.005c-1.044-.991-1.073-2.2-1.138-3.534a64.571,64.571,0,0,0-.835-7.758c-0.434-2.527-1.209-4.994-1.725-7.51-0.427-2.087-.6-4.227-1.053-6.308-0.68-3.138-2.583-5.889-2.993-9.126a0.945,0.945,0,0,0-.083-0.254c-1.608-3.657-3.163-7.338-4.86-10.953a2.232,2.232,0,0,1,.459-2.95c-0.589-.395-1.114-0.719-1.608-1.085a6.523,6.523,0,0,1-1.566-1.29c-0.928-1.335-1.725-2.761-2.572-4.151q-0.756-1.24-1.5-2.485c-0.6-1-1.195-2-1.815-2.991-0.632-1.006-1.365-1.956-1.929-3-1.51-2.793-2.867-5.671-4.456-8.417-0.859-1.484-2.253-2.663-3.073-4.162-1.261-2.306-3.35-3.5-5.487-4.678-2.6-1.43-3.941-.658-3.865,2.282,0.069,2.7.318,5.4,0.509,8.095,0.078,1.1.172,2.209,0.326,3.3,0.512,3.644,1.056,7.284,1.581,10.926a4.347,4.347,0,0,1,.006.667c-0.013,1.057-.594,1.329-1.5,1.021a3.252,3.252,0,0,1-1.283-.671c-1.022-1.049-1.95-2.187-2.947-3.261-1.05-1.132-2.119-2.248-3.217-3.333a9,9,0,0,1-1.47-1.2,21.863,21.863,0,0,1-1.63-3.31,2.162,2.162,0,0,0-2.529-1.391,1.8,1.8,0,0,0-1.269,2.3,19.23,19.23,0,0,1,.273,2.633c0.08,2.58.112,5.162,0.165,7.743,0.05,2.4.124,4.8,0.124,7.2a1.066,1.066,0,0,1-.631.8,1.155,1.155,0,0,1-.991-0.389c-0.992-1.526-1.86-3.132-2.86-4.652-2.468-3.752-4.187-7.965-7.968-10.869-3.757-2.886-7.15-6.257-10.613-9.512-1.16-1.091-2.256-1.6-3.755-.869a6.63,6.63,0,0,1-.046,2.238,3.259,3.259,0,0,0,.366,3.045,11.711,11.711,0,0,1,1.6,5.967,23.525,23.525,0,0,0,1.193,8c0.478,1.285.281,2.822,0.4,4.373-0.259-.167-0.375-0.224-0.47-0.3-3.7-3.156-7.359-6.358-11.1-9.459-3.115-2.579-6.235-5.173-9.543-7.489-1.5-1.05-3-2.411-5.11-2.4a18.176,18.176,0,0,1-2.235-.58,5.769,5.769,0,0,0-2.659-.01c-0.985.378-1.034,1.452-.8,2.438a8.187,8.187,0,0,0,.417,1.674,53.758,53.758,0,0,1,3.273,7.08c1.063,3.387,2.382,6.663,2.3,10.3-0.054,2.5.071,5-.039,7.489-0.07,1.578-.425,3.143-0.646,4.671-1.589.128-11.129-5.483-14.653-7.708a70.7,70.7,0,0,1-12.872-10.489,18.085,18.085,0,0,0,.205,3.294,10.72,10.72,0,0,1,.127,1.851c-0.13,2.215-.275,4.43-0.491,6.638a7.108,7.108,0,0,1-.589,2.115c-0.746,1.7-1.506,3.406-2.376,5.048-1.1,2.066-2.288,4.082-3.487,6.091a1.3,1.3,0,0,1-.938.633c-1.348-.229-2.944-0.226-3.953-0.977-2.549-1.9-5.68-2.853-7.982-5.1a1.485,1.485,0,0,0-.453-0.278,37.126,37.126,0,0,1-8.618-5.7c-2.458-2-4.911-4-7.434-5.91-2.081-1.577-4.32-2.948-6.38-4.55-1.921-1.495-3.731-3.139-5.526-4.786-1.306-1.2-2.393-2.66-3.784-3.739-2.34-1.814-4.887-3.36-7.263-5.13-1.556-1.159-2.91-2.587-4.453-3.766-1.835-1.4-3.9-2.519-5.647-4.018-4.543-3.9-8.955-7.953-13.44-11.921C40.606,34.461,37.74,32,34.9,29.523a31.222,31.222,0,0,0-2.494-2.2c-2.107-1.473-4.308-2.814-6.419-4.282-1.417-.985-2.722-2.131-4.121-3.143s-2.883-1.967-4.329-2.946a2.465,2.465,0,0,0,.477,1.371c1.725,2.583,3.5,5.133,5.181,7.743,2.379,3.691,4.664,7.442,7.041,11.134,2.568,3.988,5.184,7.944,7.8,11.9,1.888,2.852,3.647,5.806,6.219,8.14a5.082,5.082,0,0,1,.6.874q2.227,3.145,4.458,6.288c1.587,2.248,3.483,4.35,4.655,6.8a16.09,16.09,0,0,0,4.206,6,1.581,1.581,0,0,1,.389,1.287,2.226,2.226,0,0,0,1.194,2.667,7.1,7.1,0,0,1,1.575,1.7,15.006,15.006,0,0,0,1.358,1.652c1.7,1.489,3.6,2.838,3.812,5.342a6.144,6.144,0,0,0,1.871,3.733c1.27,1.355,2.529,2.7,2.853,4.634a1.212,1.212,0,0,0,.328.559c1.533,1.662,3.109,3.285,4.593,4.99a7.514,7.514,0,0,1,.828,1.78,1.941,1.941,0,0,0,.31.409c0.562,0.653,1.167,1.274,1.683,1.963,0.648,0.866,1.233,1.781,1.829,2.685,1.432,2.173,2.971,4.287,4.241,6.551,0.835,1.489.222,2.154-1.439,2.279-2.689.2-4.989-1.031-7.433-1.77-1.935-.586-3.9-1.084-5.885-1.481-0.731-.147-1.506.352-0.871,1.187,1.522,2,3.16,3.918,4.819,5.81,1.364,1.555,3.456,2.278,4.614,4.134,1.011,1.619,2.295,3.066,3.407,4.625,0.772,1.082,1.457,2.226,2.251,3.45a18.882,18.882,0,0,1-4.274-.64c-3.372-1.364-6.943-1.751-10.443-2.5-2.007-.43-4.156-0.227-5.978-1.533a5.162,5.162,0,0,0-2.58-.947c-2.4-.13-4.813-0.045-7.221-0.052-1.042,0-1.257.519-.854,1.376,0.652,1.386,1.343,2.754,2.008,4.135a8.92,8.92,0,0,1,.449,1.1,15.3,15.3,0,0,0,1.018,3.113c1.545,2.6,2.175,5.76,4.711,7.754a0.67,0.67,0,0,1,.195.343,16.158,16.158,0,0,0,2.358,5.181,80.792,80.792,0,0,0,5.777,8.053c1.576,1.785,2.224,4.328,4.544,5.524a3.053,3.053,0,0,1,1.038,1.026,64.6,64.6,0,0,0,8.293,9.8c0.542,0.54.5,0.913-.19,1.185-1.732.677-3.436,1.464-5.219,1.964a11.511,11.511,0,0,1-7.476.058c-1.606-.657-2.769-0.724-4.09.407a20.948,20.948,0,0,1,1.769,1.2c2.145,1.8,4.211,3.69,6.412,5.413,1.129,0.884,2.556,1.38,3.714,2.234,1.381,1.019,3.246,1.066,4.422,2.579,0.836,1.076,1.152,2.361.563,3.15-0.846,1.134-2.31,2.509-3.506,2.505A4.86,4.86,0,0,0,76.141,199.372Z"/>
  <path class="cls-1" d="M76.141,199.372a4.86,4.86,0,0,1,3.8-1.549c1.2,0,2.66-1.371,3.506-2.505,0.589-.789.273-2.074-0.563-3.15-1.176-1.513-3.041-1.56-4.422-2.579-1.158-.854-2.585-1.351-3.714-2.234-2.2-1.723-4.267-3.617-6.412-5.413a20.948,20.948,0,0,0-1.769-1.2c1.321-1.131,2.484-1.064,4.09-.407a11.511,11.511,0,0,0,7.476-.058c1.783-.5,3.487-1.287,5.219-1.964,0.695-.272.732-0.645,0.19-1.185a64.6,64.6,0,0,1-8.293-9.8,3.053,3.053,0,0,0-1.038-1.026c-2.321-1.2-2.968-3.739-4.544-5.524a80.792,80.792,0,0,1-5.777-8.053,16.158,16.158,0,0,1-2.358-5.181,0.67,0.67,0,0,0-.195-0.343c-2.536-1.994-3.166-5.156-4.711-7.754a15.3,15.3,0,0,1-1.018-3.113,8.92,8.92,0,0,0-.449-1.1c-0.664-1.381-1.356-2.749-2.008-4.135-0.4-.857-0.188-1.379.854-1.376,2.408,0.007,4.82-.078,7.221.052a5.162,5.162,0,0,1,2.58.947c1.822,1.306,3.971,1.1,5.978,1.533,3.5,0.749,7.071,1.136,10.443,2.5a18.882,18.882,0,0,0,4.274.64c-0.794-1.224-1.479-2.368-2.251-3.45-1.112-1.559-2.4-3.006-3.407-4.625-1.158-1.856-3.251-2.578-4.614-4.134-1.659-1.892-3.3-3.808-4.819-5.81-0.635-.835.14-1.334,0.871-1.187,1.982,0.4,3.95.9,5.885,1.481,2.444,0.74,4.744,1.974,7.433,1.77,1.661-.126,2.274-0.79,1.439-2.279-1.27-2.264-2.808-4.378-4.241-6.551-0.6-.9-1.181-1.819-1.829-2.685-0.515-.688-1.12-1.309-1.683-1.963a1.941,1.941,0,0,1-.31-0.409,7.514,7.514,0,0,0-.828-1.78c-1.483-1.7-3.06-3.328-4.593-4.99a1.212,1.212,0,0,1-.328-0.559c-0.324-1.936-1.583-3.279-2.853-4.634a6.144,6.144,0,0,1-1.871-3.733c-0.216-2.5-2.114-3.853-3.812-5.342a15.006,15.006,0,0,1-1.358-1.652,7.1,7.1,0,0,0-1.575-1.7,2.226,2.226,0,0,1-1.194-2.667,1.581,1.581,0,0,0-.389-1.287,16.09,16.09,0,0,1-4.206-6c-1.172-2.448-3.068-4.55-4.655-6.8q-2.222-3.148-4.458-6.288a5.082,5.082,0,0,0-.6-0.874c-2.572-2.334-4.331-5.288-6.219-8.14-2.618-3.955-5.234-7.912-7.8-11.9-2.377-3.692-4.662-7.443-7.041-11.134-1.682-2.61-3.457-5.16-5.181-7.743a2.465,2.465,0,0,1-.477-1.371c1.445,0.979,2.915,1.924,4.329,2.946s2.7,2.157,4.121,3.143C28.1,24.513,30.3,25.853,32.4,27.327a31.222,31.222,0,0,1,2.494,2.2c2.844,2.482,5.709,4.938,8.536,7.439,4.485,3.968,8.9,8.021,13.44,11.921,1.745,1.5,3.812,2.616,5.647,4.018,1.543,1.179,2.9,2.607,4.453,3.766,2.376,1.771,4.923,3.316,7.263,5.13,1.391,1.078,2.478,2.54,3.784,3.739,1.8,1.648,3.605,3.291,5.526,4.786,2.059,1.6,4.3,2.974,6.38,4.55,2.523,1.911,4.976,3.915,7.434,5.91a37.126,37.126,0,0,0,8.618,5.7,1.485,1.485,0,0,1,.453.278c2.3,2.247,5.433,3.2,7.982,5.1,1.009,0.751,2.605.748,3.953,0.977A1.3,1.3,0,0,0,119.3,92.2c1.2-2.009,2.392-4.025,3.487-6.091,0.87-1.642,1.63-3.345,2.376-5.048a7.108,7.108,0,0,0,.589-2.115c0.216-2.208.361-4.423,0.491-6.638a10.72,10.72,0,0,0-.127-1.851,18.085,18.085,0,0,1-.205-3.294,70.7,70.7,0,0,0,12.872,10.489c3.524,2.224,13.064,7.836,14.653,7.708,0.221-1.528.576-3.093,0.646-4.671,0.11-2.492-.015-4.993.039-7.489,0.079-3.635-1.241-6.911-2.3-10.3a53.758,53.758,0,0,0-3.273-7.08,8.187,8.187,0,0,1-.417-1.674c-0.231-.986-0.181-2.06.8-2.438a5.769,5.769,0,0,1,2.659.01,18.176,18.176,0,0,0,2.235.58c2.111-.014,3.61,1.346,5.11,2.4,3.308,2.316,6.428,4.91,9.543,7.489,3.745,3.1,7.406,6.3,11.1,9.459,0.095,0.081.21,0.138,0.47,0.3-0.118-1.551.079-3.087-.4-4.373a23.525,23.525,0,0,1-1.193-8,11.711,11.711,0,0,0-1.6-5.967,3.259,3.259,0,0,1-.366-3.045,6.63,6.63,0,0,0,.046-2.238c1.5-.731,2.595-0.222,3.755.869,3.463,3.254,6.856,6.625,10.613,9.512,3.781,2.9,5.5,7.118,7.968,10.869,1,1.52,1.868,3.127,2.86,4.652a1.155,1.155,0,0,0,.991.389,1.066,1.066,0,0,0,.631-0.8c0-2.4-.074-4.8-0.124-7.2-0.053-2.581-.085-5.163-0.165-7.743a19.23,19.23,0,0,0-.273-2.633,1.8,1.8,0,0,1,1.269-2.3,2.162,2.162,0,0,1,2.529,1.391,21.863,21.863,0,0,0,1.63,3.31,9,9,0,0,0,1.47,1.2c1.1,1.085,2.167,2.2,3.217,3.333,1,1.074,1.925,2.212,2.947,3.261a3.252,3.252,0,0,0,1.283.671c0.909,0.308,1.49.036,1.5-1.021a4.347,4.347,0,0,0-.006-0.667c-0.525-3.642-1.069-7.282-1.581-10.926-0.154-1.1-.248-2.2-0.326-3.3-0.191-2.7-.44-5.394-0.509-8.095-0.075-2.94,1.265-3.713,3.865-2.282,2.136,1.175,4.225,2.371,5.487,4.678,0.82,1.5,2.215,2.678,3.073,4.162,1.589,2.746,2.946,5.624,4.456,8.417,0.563,1.042,1.3,1.991,1.929,3,0.62,0.987,1.211,1.993,1.815,2.991q0.752,1.243,1.5,2.485c0.847,1.391,1.645,2.816,2.572,4.151a6.523,6.523,0,0,0,1.566,1.29c0.494,0.366,1.019.69,1.608,1.085a2.232,2.232,0,0,0-.459,2.95c1.7,3.615,3.252,7.3,4.86,10.953a0.945,0.945,0,0,1,.083.254c0.41,3.237,2.313,5.988,2.993,9.126,0.451,2.081.626,4.221,1.053,6.308,0.515,2.516,1.291,4.983,1.725,7.51a64.571,64.571,0,0,1,.835,7.758c0.065,1.338.093,2.543,1.138,3.534a5.058,5.058,0,0,1,1.433,4.005,42.914,42.914,0,0,0,1.8,11.256c0.164,0.63.274,1.274,0.5,2.322,1.121-1.04,2.066-1.859,2.941-2.746,0.9-.908,1.579-2.087,3.137-1.96a1.063,1.063,0,0,0,.758-0.449c1.115-1.589,2.263-3.163,3.262-4.825a47.638,47.638,0,0,0,3.154-5.847,52.667,52.667,0,0,0,1.769-5.826c0.313-1.069.611-2.142,0.918-3.213a2.019,2.019,0,0,1,4.015.285c0.987,5.6.879,11.251,0.956,16.9q0.053,3.874.123,7.747a1.647,1.647,0,0,0,.178.908c1.172,1.529.645,3.256,0.231,4.737a13.119,13.119,0,0,0-.259,3.907,26.012,26.012,0,0,1-.313,4.625,11.161,11.161,0,0,0,.652,5.782,0.837,0.837,0,0,1,.094.373c-0.33,2.027-.705,4.048-1,6.081-0.109.762,0.068,1.567-.053,2.325-0.214,1.341-.569,2.66-0.837,3.993a1.325,1.325,0,0,0,.016.9c1.581,2.043.384,4.176,0.239,6.267-0.072,1.043-.2,2.086-0.369,3.118a27.193,27.193,0,0,1-.767,3.72c-0.253.8-.653,1.422,0.3,2.065a1.136,1.136,0,0,1,.26,1.821,7.129,7.129,0,0,0-1.213,4.132,29.575,29.575,0,0,1-2.339,10.054,22.008,22.008,0,0,0-2.046,8.212c-0.067,1.834-.956,3.657-1.576,5.45-2.248,6.5-4.536,12.989-6.192,19.683a29.8,29.8,0,0,1-1.947,4.516c-0.511,1.173-.974,2.368-1.52,3.523a6.231,6.231,0,0,1-.962,1.387c-1.127,1.292-2.61,2.388-3.377,3.861-2.818,5.418-7.063,9.518-11.617,13.4a55.7,55.7,0,0,0-4.45,4.344,10.327,10.327,0,0,1-5.38,3,24.725,24.725,0,0,0-3.328,1.347c-1.473.589-2.965,1.133-4.433,1.735-2.09.857-4.135,1.83-6.254,2.6-2.416.88-4.881,1.635-7.347,2.37-2.934.874-5.887,1.685-8.839,2.5-3.928,1.08-7.867,2.12-11.791,3.212-0.981.273-1.917,0.7-2.887,1.024a12.965,12.965,0,0,1-3.612,1.06,16.555,16.555,0,0,0-7.961,2.2,1.982,1.982,0,0,1-.621.2c-3.54.6-7.1,1.129-10.615,1.829-1.862.371-3.655,1.079-5.5,1.564a3.891,3.891,0,0,1-1.837.077c-1.006-.246-1.829-0.783-1.565-2.065a0.721,0.721,0,0,0,.015-0.266c-0.525-2.893.777-5.376,1.795-7.916,0.564-1.408.459-1.5-1.012-1.754-3.02-.517-6.017-1.167-9.03-1.731a11.4,11.4,0,0,0-1.861-.122,11.433,11.433,0,0,1-5.358-.983,3.892,3.892,0,0,0-1.315-.038c-1.389-.12-2.774-0.283-4.163-0.4-1.16-.094-2.323-0.168-3.487-0.2-1.478-.039-3.1.552-4.2-1.043a0.831,0.831,0,0,0-.615-0.153c-2.643.128-5.024-.9-7.474-1.645-0.924-.282-1.893-0.421-2.842-0.618-1.121-.233-2.241-0.467-3.365-0.686a5.4,5.4,0,0,0-1.184-.156,15.477,15.477,0,0,1-6.266-1.27,21.58,21.58,0,0,0-4.555-1.079c-2.082-.331-4.183-0.577-6.284-0.744a22.105,22.105,0,0,1-8-2.624c-1.266-.621-2.876-0.5-4.24-0.975a19.7,19.7,0,0,1-4.057-2.031,1.8,1.8,0,0,1-.21-1.676,2.34,2.34,0,0,1,1.439-1.123c2.639-.6,5.345-0.93,7.955-1.629a50.386,50.386,0,0,0,7.8-2.668c4.592-2.084,9.064-4.43,13.589-6.661,0.745-.367,1.507-0.7,2.481-1.148-1.914-2.754-3.647-5.477-5.652-7.982-0.56-.7-1.9-0.882-2.923-1.074a1.466,1.466,0,0,1-1.482-1.61,2.026,2.026,0,0,0-1.058-1.4c-1.216-.567-2.571-0.838-3.784-1.41a5.986,5.986,0,0,1-1.144-1.418c-0.776-.809-1.608-1.564-2.414-2.345a2.25,2.25,0,0,1-.522-0.554,2.9,2.9,0,0,0-2.385-1.867c-1.219-.125-1.514-1.222-2.222-1.916a46.017,46.017,0,0,0-4.317-3.385c-1.545-1.186-3.082-2.384-4.638-3.554a3.431,3.431,0,0,0-1.215-.678c-1.039-.232-1.793-0.737-1.73-1.855a1.786,1.786,0,0,1,2.04-1.681c2.452-.034,4.9-0.014,7.357-0.017,0.936,0,1.876.037,2.807-.032a1.227,1.227,0,0,0,.933-0.5,1.366,1.366,0,0,0-.186-1.2c-1.519-1.361-3.081-2.678-4.687-3.935-1.1-.864-2.384-1.513-3.438-2.427-1.974-1.711-3.908-3.481-5.73-5.351C78.221,202.22,77.256,200.777,76.141,199.372Zm41.632-33.365,0.123,0.2a4.3,4.3,0,0,1-.637.42c-1.992.867-.516,3.475-2.27,4.525a2.068,2.068,0,0,0-.245,1.523,9.3,9.3,0,0,1-.855,5.727,16.6,16.6,0,0,0-.551,1.632c-0.535,1.255.171,2.384,0.285,3.574,0.152,1.576-.382,3.217.5,4.731a1.107,1.107,0,0,1-.091.777c-0.445,1.177-.648,2.3.391,3.311a1.136,1.136,0,0,1,.206.748,46.389,46.389,0,0,0,1.344,9.424,14.265,14.265,0,0,0,.217,2.062c0.791,2.109,1.759,4.152,2.535,6.267,0.432,1.177.58,2.457,0.939,3.666a1.646,1.646,0,0,0,.764.936,5.115,5.115,0,0,1,2.557,2.576c0.655,1.364,2.362,2.141,2.257,3.962a0.532,0.532,0,0,0,.169.2c1.759,2.108,2.678,4.966,5.49,6.139a0.566,0.566,0,0,1,.311.406c-0.067,1.351,1.089,1.777,1.822,2.55a19.847,19.847,0,0,1,1.314,1.961,13.747,13.747,0,0,0,1.588,1.895c1.667,1.56,4.037,2.247,5.35,4.272a1.468,1.468,0,0,0,.706.311c1.491,0.533,3,1.016,4.472,1.6,2.143,0.851,4.314,1.663,6.37,2.695a24.112,24.112,0,0,0,7.207,2.6c3.85,0.595,7.6,1.864,11.448,2.449,5.4,0.82,10.835,1.516,16.281,1.811,4.08,0.221,8.262.535,12.224-1.259,1.721-.779,3.783-0.856,5.43-1.737,3.8-2.031,7.5-4.261,11.119-6.595,4.07-2.623,8.017-5.438,11.993-8.2a5.134,5.134,0,0,0,1.111-1.3,47.387,47.387,0,0,1,3.222-4.556,43.567,43.567,0,0,0,5.708-8.345,55.84,55.84,0,0,1,3.508-5.16c1.236-1.74,2.609-3.391,2.232-5.775a5.614,5.614,0,0,1,.223-1.841c0.334-1.745.675-3.488,1.049-5.224,0.594-2.758,1.2-5.515,1.833-8.264,0.429-1.859,1.236-3.691,1.314-5.558,0.219-5.265.239-10.544,0.141-15.814a12.93,12.93,0,0,0-1.092-5.09c-1.5-3.216-3.339-6.264-4-9.824a7.891,7.891,0,0,0-.9-1.9,6.678,6.678,0,0,1-.427-0.789c-0.59-1.753-1.128-3.524-1.754-5.263a2.072,2.072,0,0,0-.878-1.112c-1.335-.644-1.691-1.825-2.06-3.1a12.065,12.065,0,0,0-1.2-2.6c-0.466-.81-1.331-1.479-1.544-2.33a6.081,6.081,0,0,0-3.125-4.146c-0.743-.412-1.044-1.566-1.759-2.093-1.834-1.353-3.308-3.244-5.645-3.883a2.388,2.388,0,0,1-.818-0.662c-0.946-.894-1.59-2.184-3.12-2.31a0.978,0.978,0,0,1-.486-0.428c-1.838-2.4-4.556-3.544-7.167-4.678a57.651,57.651,0,0,0-7.118-2.041,13.931,13.931,0,0,1-1.582-.7c-0.732-.314-1.452-0.671-2.209-0.912-2.446-.78-4.918-1.481-7.358-2.279-1.6-.522-3.124-1.536-4.737-1.669-3.5-.289-7.072-0.893-10.5.64a5.046,5.046,0,0,1-2.353.337,19.282,19.282,0,0,0-7.933,1.4,57.692,57.692,0,0,1-7.074,2.222,94.769,94.769,0,0,0-17.437,5.686,34.111,34.111,0,0,0-8.735,4.786c-2.043,1.695-4.476,3.037-6.152,5.028a50.087,50.087,0,0,0-5.261,8.236,42.16,42.16,0,0,0-2.116,5.529,2.087,2.087,0,0,1-.433.812c-2.548,2.317-2.4,5.707-3.351,8.628-0.965,2.963-.262,6.336-2.15,9.248Z"/>
  <path class="cls-2" d="M229.686,244.666s32.5-23.058,29-74.9c0,0,2-39.424-29-56.609,0,0-18.407-19.186-17.7-24.186l3.3,19s-13.66-12-17.128-19l2.926,14s-20.873-24-26.634-25c0,0,7.761,23,0,23,0,0-15.166,7-25.963-5,0,0,3.338,7,1.27,13,0,0-43.068,2-58.068-12,0,0,22.906,23,21.453,38,0,0-14.808,1.814-21.453-8l15,22.588s-11,4.526-20,.469c0,0,9,22.288,14,24.616,0,0-3,7.667-8,8.5a80.4,80.4,0,0,0,14,3.9s-10,14.758-12,13.593c0,0,24.7,56.335,72.6,54.835C167.285,255.473,197.186,263.36,229.686,244.666Z"/>
  <path d="M117.773,166.006l-1.378.069c1.888-2.912,1.185-6.286,2.15-9.248,0.952-2.922.8-6.312,3.351-8.628a2.087,2.087,0,0,0,.433-0.812,42.16,42.16,0,0,1,2.116-5.529,50.087,50.087,0,0,1,5.261-8.236c1.677-1.99,4.109-3.333,6.152-5.028a34.111,34.111,0,0,1,8.735-4.786,94.769,94.769,0,0,1,17.437-5.686A57.692,57.692,0,0,0,169.1,115.9a19.282,19.282,0,0,1,7.933-1.4,5.046,5.046,0,0,0,2.353-.337c3.432-1.532,7.005-.929,10.5-0.64,1.613,0.133,3.141,1.147,4.737,1.669,2.44,0.8,4.912,1.5,7.358,2.279,0.756,0.241,1.476.6,2.209,0.912a13.931,13.931,0,0,0,1.582.7,57.651,57.651,0,0,1,7.118,2.041c2.611,1.134,5.329,2.28,7.167,4.678a0.978,0.978,0,0,0,.486.428c1.53,0.126,2.174,1.417,3.12,2.31a2.388,2.388,0,0,0,.818.662c2.337,0.639,3.811,2.53,5.645,3.883,0.715,0.527,1.016,1.681,1.759,2.093a6.081,6.081,0,0,1,3.125,4.146c0.214,0.851,1.078,1.519,1.544,2.33a12.065,12.065,0,0,1,1.2,2.6c0.369,1.275.725,2.456,2.06,3.1a2.072,2.072,0,0,1,.878,1.112c0.626,1.739,1.165,3.51,1.754,5.263a6.678,6.678,0,0,0,.427.789,7.891,7.891,0,0,1,.9,1.9c0.662,3.561,2.5,6.609,4,9.824a12.93,12.93,0,0,1,1.092,5.09c0.1,5.27.078,10.549-.141,15.814-0.078,1.867-.885,3.7-1.314,5.558-0.634,2.749-1.239,5.506-1.833,8.264-0.374,1.736-.715,3.48-1.049,5.224a5.614,5.614,0,0,0-.223,1.841c0.377,2.384-1,4.035-2.232,5.775a55.84,55.84,0,0,0-3.508,5.16,43.567,43.567,0,0,1-5.708,8.345,47.387,47.387,0,0,0-3.222,4.556,5.134,5.134,0,0,1-1.111,1.3c-3.976,2.767-7.923,5.581-11.993,8.2-3.621,2.334-7.322,4.563-11.119,6.595-1.647.881-3.709,0.957-5.43,1.737-3.961,1.794-8.143,1.48-12.224,1.259-5.445-.3-10.884-0.99-16.281-1.811-3.851-.586-7.6-1.854-11.448-2.449a24.112,24.112,0,0,1-7.207-2.6c-2.057-1.032-4.227-1.844-6.37-2.695-1.471-.584-2.981-1.067-4.472-1.6a1.468,1.468,0,0,1-.706-0.311c-1.313-2.025-3.682-2.712-5.35-4.272a13.747,13.747,0,0,1-1.588-1.895,19.847,19.847,0,0,0-1.314-1.961c-0.733-.772-1.889-1.2-1.822-2.55a0.566,0.566,0,0,0-.311-0.406c-2.812-1.172-3.731-4.03-5.49-6.139a0.532,0.532,0,0,1-.169-0.2c0.105-1.821-1.6-2.6-2.257-3.962a5.115,5.115,0,0,0-2.557-2.576,1.646,1.646,0,0,1-.764-0.936c-0.359-1.209-.506-2.488-0.939-3.666-0.776-2.114-1.744-4.157-2.535-6.267a14.265,14.265,0,0,1-.217-2.062,46.389,46.389,0,0,1-1.344-9.424,1.136,1.136,0,0,0-.206-0.748c-1.039-1.013-.836-2.135-0.391-3.311a1.107,1.107,0,0,0,.091-0.777c-0.882-1.515-.349-3.155-0.5-4.731-0.114-1.19-.821-2.319-0.285-3.574a16.6,16.6,0,0,1,.551-1.632,9.3,9.3,0,0,0,.855-5.727,2.068,2.068,0,0,1,.245-1.523c1.754-1.05.278-3.658,2.27-4.525a4.3,4.3,0,0,0,.637-0.42Zm5.451,31.515c2.205,1.206,2.1,3.457,2.452,5.362a20.075,20.075,0,0,0,3.847,8.442q2.047,2.743,3.994,5.56a4.8,4.8,0,0,1,.57,1.538c0.219,0.857.208,1.819,1.593,1.611a1.43,1.43,0,0,1,1.115.818c0.317,1.114.682,2.013,2.067,1.962a0.831,0.831,0,0,1,.584.294c1.24,1.564,2.458,3.146,3.682,4.723l-0.3.217c1.561,0.908,3.778.639,4.7,2.729a1.765,1.765,0,0,0,1.173.784c2.012,0.368,2.856,1.9,3.554,3.2a11.869,11.869,0,0,1,3.18.453c1.726,0.776,3.307,1.867,4.983,2.763a28.453,28.453,0,0,0,3.833,1.81,30.606,30.606,0,0,0,3.533.763c0.647,0.146,1.272.393,1.919,0.538,1.384,0.311,2.991.238,4.122,0.942,2.849,1.773,5.8.872,8.731,0.843,1.019-.01,2.04.058,3.059,0.036,1.253-.027,2.51-0.065,3.756-0.185,1.085-.1,2.1-0.333,2.638,1.055a1.71,1.71,0,0,0,1.315.885c1.761-.092,3.512-0.372,5.268-0.578a2.556,2.556,0,0,1,.4.012c3.034,0.123,5.819-.235,7.439-3.344,0.448-.859,1.749-1.466.306-2.54a1.2,1.2,0,0,1-.23-0.881,2.021,2.021,0,0,0-1.456-2c-1.794-.851-3.49-2.029-5.372-2.54a4.781,4.781,0,0,1-3.9-4.443c-0.011-.084,0-0.171,0-0.431,1.13-.9,2.326-1.882,3.556-2.814a1.016,1.016,0,0,1,.819-0.1c0.658,0.228,1.285.546,1.892,0.814a3.156,3.156,0,0,0,.191,1.568c1.7,1.638,3.116,3.606,5.466,4.508,1.965,0.754,2,1.361.692,3.047a2.632,2.632,0,0,0-.277,3.313,1.085,1.085,0,0,0,.391-0.179,4.823,4.823,0,0,1,4.045-2.2,2.312,2.312,0,0,0,1.441-.584c1.431-1.363,2.776-2.816,4.176-4.213a8.5,8.5,0,0,1,1.77-1.544c1.876-1.025,3.293-2.327,3.642-4.572a3.053,3.053,0,0,1,.869-1.078c0.487-.575,1.064-0.923.735-2.009-0.649-2.143.025-3.046,2.139-3.813a2.723,2.723,0,0,0,.91-0.853,13.723,13.723,0,0,1,1.066-1.321c1.715-1.522,3.667-2.9,2.7-5.7a0.9,0.9,0,0,1,.09-0.647c1.2-2.187,2.451-4.347,3.612-6.555a5.546,5.546,0,0,0,.4-1.813c0.378-2.782-1.459-5.807.921-8.373a0.567,0.567,0,0,0,.07-0.255q0.7-3.352,1.4-6.7a5.559,5.559,0,0,0,.4-2.257,4.241,4.241,0,0,1,.863-4.112,2.713,2.713,0,0,0,.59-2.45c-0.335-1.826-1.611-3.513-.785-5.544A2.932,2.932,0,0,0,239.1,170a15.005,15.005,0,0,0-.619-1.6c-0.873-1.748-1.819-3.46-2.66-5.222-0.888-1.86-2.217-3.719-2.374-5.658a4.914,4.914,0,0,0-2.194-3.654c-1.812-1.485-1.9-1.376-.708-3.3a2.963,2.963,0,0,0,.21-0.341c0.314-.705-0.125-1.176-0.682-1.046-1.261.3-1.677-.277-1.954-1.345a5.731,5.731,0,0,0-.811-1.365,21.277,21.277,0,0,1-2-3.386c-0.611-1.635-1.258-3.034-3.23-3.242a1.227,1.227,0,0,1-.545-0.361c-1.769-1.537-3.474-3.156-5.316-4.6a46.523,46.523,0,0,0-5.575-3.847,6.254,6.254,0,0,1-3.152-3.233,2.464,2.464,0,0,0-.945-0.968c-1.222-.85-2.558-1.556-3.7-2.5a10.665,10.665,0,0,0-6.235-2.091c-2.18-.19-4.382-0.11-6.572-0.207-1.516-.067-3.025-0.28-4.541-0.341a34.978,34.978,0,0,0-4.648.011c-2.48.234-5.073-.26-7.407,1.1a6.04,6.04,0,0,1-1.556.21,64.321,64.321,0,0,0-6.646,1.669c-0.876.3-1.371,0.537-2.068-.2a1.529,1.529,0,0,0-1.216-.272c-0.818,1.292-1.989,1.13-3.155.88a9.54,9.54,0,0,0-1.741,2.507,1.569,1.569,0,0,1-1.865,1.272,10.722,10.722,0,0,0-5.448,1.358c-0.829.4-1.732,1.162-2.5,1.055-1.636-.229-2.625.69-3.632,1.539a35.005,35.005,0,0,0-3.634,3.615c-0.677.766-1.067,1.778-1.706,2.586-1.171,1.48-2.478,2.853-3.63,4.346-0.507.657-.693,1.554-1.166,2.246a16.117,16.117,0,0,0-2.52,4.448c-1.01,3.326-2.517,6.5-3.745,9.761-0.8,2.134-1.509,4.306-2.2,6.479-0.267.84-.355,1.735-0.558,2.6-0.362,1.537-.758,3.066-1.124,4.6-0.256,1.077-.446,2.171-0.733,3.239a11.058,11.058,0,0,0-.376,6.038,2.007,2.007,0,0,1-.32.893l0.763,0.456c-0.049,1.092-.112,2.041-0.126,2.991-0.009.594,0.058,1.19,0.086,1.785,0.088,1.876-.829,3.835.749,5.584A2.16,2.16,0,0,1,123.225,197.521Z"/>
  <path class="cls-3" d="M123.225,197.521a2.16,2.16,0,0,0,.154-3.027c-1.578-1.748-.661-3.708-0.749-5.584-0.028-.6-0.095-1.19-0.086-1.785,0.014-.95.077-1.9,0.126-2.991l-0.763-.456a2.007,2.007,0,0,0,.32-0.893,11.058,11.058,0,0,1,.376-6.038c0.288-1.068.477-2.162,0.733-3.239,0.365-1.536.761-3.065,1.124-4.6,0.2-.862.291-1.757,0.558-2.6,0.691-2.173,1.4-4.345,2.2-6.479,1.229-3.263,2.736-6.435,3.745-9.761a16.117,16.117,0,0,1,2.52-4.448c0.472-.692.659-1.589,1.166-2.246,1.152-1.493,2.459-2.866,3.63-4.346,0.639-.807,1.029-1.82,1.706-2.586a35.005,35.005,0,0,1,3.634-3.615c1.008-.849,2-1.767,3.632-1.539,0.771,0.108,1.675-.655,2.5-1.055a10.722,10.722,0,0,1,5.448-1.358,1.569,1.569,0,0,0,1.865-1.272,9.54,9.54,0,0,1,1.741-2.507c1.165,0.25,2.336.412,3.155-.88a1.529,1.529,0,0,1,1.216.272c0.7,0.732,1.192.5,2.068,0.2a64.321,64.321,0,0,1,6.646-1.669,6.04,6.04,0,0,0,1.556-.21c2.333-1.363,4.926-.869,7.407-1.1a34.978,34.978,0,0,1,4.648-.011c1.516,0.06,3.025.274,4.541,0.341,2.19,0.1,4.392.017,6.572,0.207a10.665,10.665,0,0,1,6.235,2.091c1.138,0.947,2.474,1.652,3.7,2.5a2.464,2.464,0,0,1,.945.968,6.254,6.254,0,0,0,3.152,3.233,46.523,46.523,0,0,1,5.575,3.847c1.843,1.442,3.547,3.061,5.316,4.6a1.227,1.227,0,0,0,.545.361c1.972,0.209,2.619,1.607,3.23,3.242a21.277,21.277,0,0,0,2,3.386,5.731,5.731,0,0,1,.811,1.365c0.277,1.068.693,1.64,1.954,1.345,0.557-.13,1,0.34.682,1.046a2.963,2.963,0,0,1-.21.341c-1.194,1.922-1.1,1.813.708,3.3a4.914,4.914,0,0,1,2.194,3.654c0.157,1.939,1.486,3.8,2.374,5.658,0.841,1.762,1.788,3.474,2.66,5.222a15.005,15.005,0,0,1,.619,1.6,2.932,2.932,0,0,1,.469,1.483c-0.825,2.032.45,3.719,0.785,5.544a2.713,2.713,0,0,1-.59,2.45,4.241,4.241,0,0,0-.863,4.112,5.559,5.559,0,0,1-.4,2.257q-0.7,3.353-1.4,6.7a0.567,0.567,0,0,1-.07.255c-2.38,2.566-.542,5.591-0.921,8.373a5.546,5.546,0,0,1-.4,1.813c-1.161,2.207-2.411,4.368-3.612,6.555a0.9,0.9,0,0,0-.09.647c0.971,2.795-.981,4.175-2.7,5.7a13.723,13.723,0,0,0-1.066,1.321,2.723,2.723,0,0,1-.91.853c-2.114.766-2.788,1.67-2.139,3.813,0.329,1.086-.248,1.434-0.735,2.009a3.053,3.053,0,0,0-.869,1.078c-0.349,2.245-1.765,3.547-3.642,4.572a8.5,8.5,0,0,0-1.77,1.544c-1.4,1.4-2.745,2.85-4.176,4.213a2.312,2.312,0,0,1-1.441.584,4.823,4.823,0,0,0-4.045,2.2,1.085,1.085,0,0,1-.391.179,2.632,2.632,0,0,1,.277-3.313c1.309-1.687,1.273-2.294-.692-3.047-2.35-.9-3.766-2.87-5.466-4.508a3.156,3.156,0,0,1-.191-1.568c-0.607-.268-1.234-0.585-1.892-0.814a1.016,1.016,0,0,0-.819.1c-1.231.933-2.426,1.912-3.556,2.814,0,0.259-.009.346,0,0.431a4.781,4.781,0,0,0,3.9,4.443c1.881,0.51,3.578,1.689,5.372,2.54a2.021,2.021,0,0,1,1.456,2,1.2,1.2,0,0,0,.23.881c1.444,1.073.142,1.681-.306,2.54-1.62,3.109-4.405,3.467-7.439,3.344a2.556,2.556,0,0,0-.4-0.012c-1.755.206-3.507,0.486-5.268,0.578a1.71,1.71,0,0,1-1.315-.885c-0.541-1.389-1.553-1.16-2.638-1.055-1.247.12-2.5,0.158-3.756,0.185-1.019.022-2.039-.046-3.059-0.036-2.932.029-5.882,0.93-8.731-.843-1.13-.7-2.738-0.631-4.122-0.942-0.647-.145-1.272-0.392-1.919-0.538a30.606,30.606,0,0,1-3.533-.763,28.453,28.453,0,0,1-3.833-1.81c-1.676-.9-3.257-1.987-4.983-2.763a11.869,11.869,0,0,0-3.18-.453c-0.7-1.305-1.542-2.835-3.554-3.2a1.765,1.765,0,0,1-1.173-.784c-0.926-2.091-3.143-1.822-4.7-2.729l0.3-.217c-1.224-1.577-2.442-3.159-3.682-4.723a0.831,0.831,0,0,0-.584-0.294c-1.384.051-1.75-.848-2.067-1.962a1.43,1.43,0,0,0-1.115-.818c-1.386.208-1.374-.754-1.593-1.611a4.8,4.8,0,0,0-.57-1.538q-1.943-2.817-3.994-5.56a20.075,20.075,0,0,1-3.847-8.442C125.322,200.978,125.43,198.727,123.225,197.521Zm79.106-43.7a21.206,21.206,0,0,0-2.547.607c-0.7.254-1.286,0.835-1.989,1.06a10.88,10.88,0,0,0-4.56,2.515c-1.317,1.326-3.666,2.08-2.878,4.722,0.052,0.174-.236.471-0.167,0.614a1.743,1.743,0,0,0,.709.952c2.409,0.557,3.164.125,3.936-2.227a2.392,2.392,0,0,1,2.061-1.8c1.176-.19,2.345-0.44,3.5-0.719a2.765,2.765,0,0,1,3.553,2.624c0.075,1.993.432,3.842,2.623,4.732a1.3,1.3,0,0,0,1.662-.135c0.894-.86,1.846-1.659,2.759-2.5,1.222-1.125,1.276-1.953.342-3.326-0.917-1.349-1.694-2.8-2.7-4.078a5.618,5.618,0,0,0-1.97-1.131,3.459,3.459,0,0,1-1.291-.519C204.654,154,203.545,153.957,202.331,153.825Zm-30.074,1.813a4.871,4.871,0,0,0-.631,3.712c0.309,1.086-.226,2.252.956,3.333,1.28,1.171,1.626,1.47,2.513-.067a20.186,20.186,0,0,0,2.328-7.528,4.643,4.643,0,0,0-2.559-4.716c-0.674-.328-1.272-0.811-1.937-1.163-1.151-.61-2.362-1.716-3.486-1.644a30.436,30.436,0,0,0-7.109,1.513,2.515,2.515,0,0,0-1.508,2.716,7.681,7.681,0,0,1-.014,1.953c-0.185.984,0.186,1.146,1.073,1.078,1.181-.091,2.373-0.031,3.56-0.035a2.651,2.651,0,0,0,1.158-.028C168.694,153.556,170.527,153.959,172.257,155.638Zm15.829,19.442a17.184,17.184,0,0,0,2.413,2.172,24.946,24.946,0,0,0,4.293,2.09,7.077,7.077,0,0,0,2.7.231,24.451,24.451,0,0,0,2.817-.419,4.684,4.684,0,0,0,3.006-2.005,2.907,2.907,0,0,1,1.024-.481c0.806-.4,1.886-0.6,2.348-1.247a6.322,6.322,0,0,0,1.507-4.453c-0.114-1.025-.594-1.527-1.589-1.149a2.005,2.005,0,0,1-1.106.313c-0.895-.382-1.25.316-1.831,0.671-1.646,1.005-3.338,1.935-5.034,2.856a1.689,1.689,0,0,1-.781-0.068c-0.735-.07-1.47-0.136-2.338-0.216-0.92-1.776-2.345-2.936-4.662-2.535C188.5,171.245,189.077,173.528,188.086,175.08Zm-20.8-9.356c-1.423-.444-2.86-0.9-4.3-1.339a16.723,16.723,0,0,0-2.765-.755c-0.823-.1-1.137-0.3-0.908-1.156a1,1,0,0,0-.266-0.884,23.908,23.908,0,0,0-2.274-1.17c-2-.972-2.265-1.4-1.906-3.616,0.166-1.023.59-2.005,0.757-3.029,0.2-1.225-.7-2.084-1.658-1.661a6.793,6.793,0,0,0-2.208,1.178c-1.041,1.088-2.678,1.927-2.214,3.9,0.23,0.978.4,1.973,0.684,2.935a3.789,3.789,0,0,0,.787,1.617c1.154,1.136,2.563,2.04,3.589,3.27,0.76,0.912,1.293,1.926,2.481,2.437a6.6,6.6,0,0,1,2.167,1.515,2.306,2.306,0,0,0,2.635.645c0.917-.262,1.945-0.189,2.818-0.533a5.963,5.963,0,0,0,2.116-1.54A4.676,4.676,0,0,0,167.285,165.724Zm-5.125,58.465,0.1,0.33a21.811,21.811,0,0,0,3.256-1.623,2.332,2.332,0,0,0,.7-2.9c-0.746-1.758-1.273-1.979-2.934-1.639-0.3.063-.615,0.1-0.918,0.167a4.027,4.027,0,0,1-4.15-.977,3.97,3.97,0,0,0-1.77-.512,2.14,2.14,0,0,1-.969-0.215,25.793,25.793,0,0,1-2.313-3.3c-0.771-1.4-1.368-1.6-2.493-.583a4.32,4.32,0,0,1-.766.528c-1.836,1.05-1.928,4.51-.093,5.547,2.271,1.284,4.237,2.975,6.771,3.981A15.18,15.18,0,0,0,162.16,224.189Zm-29.522-36.732,0.057,0.01a2.045,2.045,0,0,0,.061.759,6.122,6.122,0,0,0,4.118,3.122,1.029,1.029,0,0,0,.76,0,24.364,24.364,0,0,0,2.1-2.795,1.542,1.542,0,0,0-.04-1.375,1.661,1.661,0,0,1-.177-1.674,34.476,34.476,0,0,0,1.059-4.751,2.048,2.048,0,0,0-.426-1.626c-0.954-.82-3.718-0.46-4.655.412-0.636.593-1.376,1.082-1.966,1.714a2.505,2.505,0,0,0-.641,1.375C132.744,184.234,132.713,185.848,132.638,187.457Zm2.871-25.8a21.786,21.786,0,0,0,1.737,2.848c0.662,0.8,1.519.4,2.279-.068a0.885,0.885,0,0,1,.523-0.066c1.547,0.173,1.847-.913,2.21-2.056,0.368-1.16.925-2.258,1.343-3.4,0.513-1.406.991-2.826,1.423-4.259a1.231,1.231,0,0,0-.286-0.834,2.223,2.223,0,0,0-2.377-1.113c-1.814.359-2.654,1.139-2.908,2.464a1.776,1.776,0,0,1-.634,1.189C136.548,157.359,136.658,159.677,135.509,161.656Zm77.78,50.624a3.5,3.5,0,0,0,3.728-3.892,1.618,1.618,0,0,1,1.044-1.768,3.686,3.686,0,0,0,1.9-1.592,3.47,3.47,0,0,0-3.482-4.378,6.689,6.689,0,0,0-2.936,1.383c-0.306.213-.107,1.065-0.268,1.585-0.521,1.682.131,4.027-2.5,4.56a0.513,0.513,0,0,0-.207.319C210.06,210.024,211.705,212.306,213.288,212.28Zm-30.907-7.531c-0.581.158-1.677,0.139-2.171,0.675a4.088,4.088,0,0,0-.782,2.611,1.9,1.9,0,0,0,1.3,1.257c1.09,0.194,2.3-.194,3.1.977a1.078,1.078,0,0,0,.64.066,3.572,3.572,0,0,0,3.6-3.494,9.241,9.241,0,0,1,.941-2.986,3.584,3.584,0,0,0-.976-4.323c-0.629-.411-1.363-0.651-1.82.2a34.851,34.851,0,0,0-1.851,3.881C184.035,204.475,183.707,205.069,182.381,204.748ZM154.129,141.12a17.371,17.371,0,0,0-3.647.063,6.632,6.632,0,0,0-2.319,1.477c-0.362.284-.5,0.856-0.869,1.127-2.505,1.856-2.546,3.418-.086,5.163a2.43,2.43,0,0,0,3.663-.516c0.8-.94,1.658-1.84,2.4-2.827,0.507-.678.8-1.51,1.285-2.212C155.228,142.407,154.212,141.869,154.129,141.12Zm36.718,54.335a5.043,5.043,0,0,0,1.444-1.662,1.418,1.418,0,0,0-1.323-1.776,1.434,1.434,0,0,1-1.033-.707,2.67,2.67,0,0,0-1.757-1.823c-0.645-.348-1.222-0.822-1.859-1.187-0.826-.473-1.758-1.364-2.513-1.244a9.447,9.447,0,0,0-5.252,3.15,1.045,1.045,0,0,0-.165.95,1.407,1.407,0,0,0,.9.24,14.83,14.83,0,0,1,1.676.1c1.517,0.332,3.007.795,4.532,1.076a10.172,10.172,0,0,0,2.055-.128,3.365,3.365,0,0,1,1.592.124,1.477,1.477,0,0,1,.21,1.289C189,195.032,189.835,195.093,190.847,195.455Zm13.936,27.365c0.76,1.778,2.057,1.944,3.512,1.912a2.568,2.568,0,0,1,1.809.376c0.8,1.221,2.264.961,3.232,1.719a1.082,1.082,0,0,0,.714-0.225,5.894,5.894,0,0,0,1.583-3.736,0.571,0.571,0,0,0-.184-0.335c-1.867-1.142-3.659-2.7-6.077-1.814C207.826,221.282,206.366,222.085,204.783,222.82ZM177.547,203.3c-0.863-1.18-1.592-2.347-2.494-3.359-0.786-.883-2.1-0.547-3.26.627-0.9.915-.254,1.583,0.339,2.229C173.27,204.031,175.674,204.273,177.547,203.3Z"/>
  <path d="M202.331,153.825c1.214,0.132,2.323.173,3.044,1.394a3.459,3.459,0,0,0,1.291.519,5.618,5.618,0,0,1,1.97,1.131c1.008,1.274,1.784,2.728,2.7,4.078,0.934,1.374.88,2.2-.342,3.326-0.913.84-1.866,1.639-2.759,2.5a1.3,1.3,0,0,1-1.662.135c-2.19-.89-2.548-2.738-2.623-4.732a2.765,2.765,0,0,0-3.553-2.624c-1.159.279-2.328,0.529-3.5,0.719a2.392,2.392,0,0,0-2.061,1.8c-0.772,2.352-1.527,2.785-3.936,2.227a1.743,1.743,0,0,1-.709-0.952c-0.069-.144.219-0.44,0.167-0.614-0.788-2.642,1.561-3.4,2.878-4.722a10.88,10.88,0,0,1,4.56-2.515c0.7-.225,1.29-0.806,1.989-1.06A21.206,21.206,0,0,1,202.331,153.825Z"/>
  <path d="M172.257,155.638c-1.73-1.679-3.563-2.082-5.656-.875a2.651,2.651,0,0,1-1.158.028c-1.187,0-2.379-.056-3.56.035-0.886.068-1.258-.094-1.073-1.078a7.681,7.681,0,0,0,.014-1.953,2.515,2.515,0,0,1,1.508-2.716,30.436,30.436,0,0,1,7.109-1.513c1.124-.072,2.335,1.034,3.486,1.644,0.665,0.352,1.262.835,1.937,1.163a4.643,4.643,0,0,1,2.559,4.716,20.186,20.186,0,0,1-2.328,7.528c-0.887,1.537-1.233,1.238-2.513.067-1.182-1.081-.647-2.247-0.956-3.333A4.871,4.871,0,0,1,172.257,155.638Z"/>
  <path d="M188.086,175.08c0.991-1.552.412-3.835,2.767-4.242,2.317-.4,3.742.759,4.662,2.535,0.868,0.08,1.6.147,2.338,0.216a1.689,1.689,0,0,0,.781.068c1.7-.921,3.388-1.85,5.034-2.856,0.581-.355.936-1.053,1.831-0.671a2.005,2.005,0,0,0,1.106-.313c0.995-.378,1.475.124,1.589,1.149a6.322,6.322,0,0,1-1.507,4.453c-0.462.646-1.542,0.852-2.348,1.247a2.907,2.907,0,0,0-1.024.481,4.684,4.684,0,0,1-3.006,2.005,24.451,24.451,0,0,1-2.817.419,7.077,7.077,0,0,1-2.7-.231,24.946,24.946,0,0,1-4.293-2.09A17.184,17.184,0,0,1,188.086,175.08Z"/>
  <path d="M167.285,165.724a4.676,4.676,0,0,1-.466,1.816,5.963,5.963,0,0,1-2.116,1.54c-0.872.345-1.9,0.272-2.818,0.533a2.306,2.306,0,0,1-2.635-.645,6.6,6.6,0,0,0-2.167-1.515c-1.189-.511-1.721-1.526-2.481-2.437-1.026-1.231-2.435-2.135-3.589-3.27a3.789,3.789,0,0,1-.787-1.617c-0.283-.962-0.454-1.957-0.684-2.935-0.464-1.973,1.173-2.812,2.214-3.9a6.793,6.793,0,0,1,2.208-1.178c0.957-.423,1.858.436,1.658,1.661-0.167,1.023-.59,2.005-0.757,3.029-0.359,2.211-.092,2.644,1.906,3.616a23.908,23.908,0,0,1,2.274,1.17,1,1,0,0,1,.266.884c-0.229.86,0.085,1.056,0.908,1.156a16.723,16.723,0,0,1,2.765.755C164.425,164.823,165.862,165.28,167.285,165.724Z"/>
  <path d="M162.16,224.189A15.18,15.18,0,0,1,156.586,223c-2.535-1.005-4.5-2.7-6.771-3.981-1.835-1.037-1.742-4.5.093-5.547a4.32,4.32,0,0,0,.766-0.528c1.125-1.021,1.722-.816,2.493.583a25.793,25.793,0,0,0,2.313,3.3,2.14,2.14,0,0,0,.969.215,3.97,3.97,0,0,1,1.77.512,4.027,4.027,0,0,0,4.15.977c0.3-.068.614-0.1,0.918-0.167,1.661-.341,2.188-0.119,2.934,1.639a2.332,2.332,0,0,1-.7,2.9,21.811,21.811,0,0,1-3.256,1.623Z"/>
  <path d="M132.638,187.457c0.075-1.61.107-3.223,0.252-4.826a2.505,2.505,0,0,1,.641-1.375c0.59-.632,1.329-1.122,1.966-1.714,0.937-.873,3.7-1.233,4.655-0.412a2.048,2.048,0,0,1,.426,1.626,34.476,34.476,0,0,1-1.059,4.751,1.661,1.661,0,0,0,.177,1.674,1.542,1.542,0,0,1,.04,1.375,24.364,24.364,0,0,1-2.1,2.795,1.029,1.029,0,0,1-.76,0,6.122,6.122,0,0,1-4.118-3.122,2.045,2.045,0,0,1-.061-0.759Z"/>
  <path d="M135.509,161.656c1.15-1.979,1.04-4.3,3.311-5.3a1.776,1.776,0,0,0,.634-1.189c0.254-1.325,1.093-2.1,2.908-2.464a2.223,2.223,0,0,1,2.377,1.113,1.231,1.231,0,0,1,.286.834c-0.432,1.432-.91,2.853-1.423,4.259-0.418,1.146-.975,2.244-1.343,3.4-0.363,1.144-.664,2.23-2.21,2.056a0.885,0.885,0,0,0-.523.066c-0.759.464-1.617,0.865-2.279,0.068A21.786,21.786,0,0,1,135.509,161.656Z"/>
  <path d="M213.288,212.28c-1.583.026-3.228-2.256-2.72-3.783a0.513,0.513,0,0,1,.207-0.319c2.633-.533,1.981-2.878,2.5-4.56,0.161-.52-0.037-1.373.268-1.585a6.689,6.689,0,0,1,2.936-1.383,3.47,3.47,0,0,1,3.482,4.378,3.686,3.686,0,0,1-1.9,1.592,1.618,1.618,0,0,0-1.044,1.768A3.5,3.5,0,0,1,213.288,212.28Z"/>
  <path d="M182.381,204.748c1.326,0.32,1.654-.274,1.984-1.132a34.851,34.851,0,0,1,1.851-3.881c0.457-.855,1.191-0.615,1.82-0.2a3.584,3.584,0,0,1,.976,4.323,9.241,9.241,0,0,0-.941,2.986,3.572,3.572,0,0,1-3.6,3.494,1.078,1.078,0,0,1-.64-0.066c-0.8-1.171-2.011-.783-3.1-0.977a1.9,1.9,0,0,1-1.3-1.257,4.088,4.088,0,0,1,.782-2.611C180.7,204.887,181.8,204.907,182.381,204.748Z"/>
  <path d="M154.129,141.12c0.083,0.749,1.1,1.288.424,2.275-0.48.7-.778,1.534-1.285,2.212-0.739.988-1.594,1.888-2.4,2.827a2.43,2.43,0,0,1-3.663.516c-2.46-1.745-2.42-3.306.086-5.163,0.367-.272.507-0.844,0.869-1.127a6.632,6.632,0,0,1,2.319-1.477A17.371,17.371,0,0,1,154.129,141.12Z"/>
  <path d="M190.847,195.455c-1.012-.362-1.851-0.423-1.493-1.594a1.477,1.477,0,0,0-.21-1.289,3.365,3.365,0,0,0-1.592-.124,10.172,10.172,0,0,1-2.055.128c-1.525-.281-3.015-0.744-4.532-1.076a14.83,14.83,0,0,0-1.676-.1,1.407,1.407,0,0,1-.9-0.24,1.045,1.045,0,0,1,.165-0.95,9.447,9.447,0,0,1,5.252-3.15c0.755-.119,1.686.772,2.513,1.244,0.638,0.365,1.214.839,1.859,1.187a2.67,2.67,0,0,1,1.757,1.823,1.434,1.434,0,0,0,1.033.707,1.418,1.418,0,0,1,1.323,1.776A5.043,5.043,0,0,1,190.847,195.455Z"/>
  <path d="M204.783,222.82c1.583-.735,3.043-1.539,4.59-2.1,2.418-.884,4.21.672,6.077,1.814a0.571,0.571,0,0,1,.184.335,5.894,5.894,0,0,1-1.583,3.736,1.082,1.082,0,0,1-.714.225c-0.968-.757-2.436-0.5-3.232-1.719a2.568,2.568,0,0,0-1.809-.376C206.84,224.764,205.543,224.6,204.783,222.82Z"/>
  <path d="M177.547,203.3c-1.873.977-4.277,0.734-5.414-.5-0.593-.646-1.241-1.314-0.339-2.229,1.156-1.174,2.474-1.509,3.26-.627C175.955,200.95,176.684,202.117,177.547,203.3Z"/>
</svg>
