<svg id="Layer_1" data-name="Layer 1" xmlns="http://www.w3.org/2000/svg" viewBox="0 0 489.587 303.434">
  <defs>
    <style>
      .cls-1 {
        fill: #ea3d37;
      }

      .cls-2 {
        fill: #eaab33;
      }
    </style>
  </defs>
  <title>178ca980-3c58-4a6f-8722-191eb018bc6b</title>
  <path id="_Compound_Path_" data-name="&lt;Compound Path&gt;" d="M144.208,169.661c-0.571-2.175-1.33-4.665-1.857-7.2-0.422-2.036-.574-4.13-0.81-6.2a4.049,4.049,0,0,1,.256-0.795,2.81,2.81,0,0,0,.078-1.444c-1.31-2.6-1.016-5.416-1.057-8.152-0.085-5.688.089-11.379-.015-17.066-0.063-3.424.9-6.657,1.406-9.975,0.367-2.384.7-4.774,1.162-7.14,0.248-1.277.757-2.5,1.1-3.763,0.214-.8.279-1.634,0.508-2.426,0.254-.877.616-1.723,0.935-2.582,0.765-2.063,1.525-4.128,2.306-6.185a3.453,3.453,0,0,1,.591-1.125c1.971-2.135,2.594-5.033,4.215-7.359,0.438-.628.947-1.207,1.421-1.81a4.477,4.477,0,0,0,1.013-1.347c0.519-2.059,2.248-3.218,3.412-4.787a70.024,70.024,0,0,1,5.093-6.485c2.85-3.02,5.266-6.453,8.825-8.815,4.607-3.058,9.033-6.387,13.592-9.52a26.214,26.214,0,0,1,4.215-2.256,81.914,81.914,0,0,0,10.988-6.482c1.866-1.206,3.753-2.39,5.706-3.444,1.245-.672,2.646-1.047,3.944-1.63,1.454-.653,2.866-1.4,4.3-2.087a3.374,3.374,0,0,1,1.162-.434c2.212-.133,4.1-1.166,6.033-2.083,4.029-1.914,8.339-2.23,12.7-2.412,3.98-.166,7.953-0.52,11.931-0.758a13.228,13.228,0,0,1,2.442.1,18.126,18.126,0,0,0,5.926-.2,4.063,4.063,0,0,1,2.086.015c2.821,1.035,5.753.893,8.67,1.062a45.064,45.064,0,0,1,9.591,1.525c2.375,0.665,4.871.89,7.289,1.422a18.92,18.92,0,0,1,2.412,1.056c2.244,0.847,4.523,1.6,6.753,2.485,2.541,1,5.048,2.094,7.561,3.167,2.945,1.257,5.557,3.218,8.8,3.882,1.107,0.227,2.05,1.256,3.068,1.918a2.215,2.215,0,0,0,.7.44c2.494,0.4,4.2,2.239,6.269,3.409,1.909,1.08,3.715,2.339,5.611,3.441a3.608,3.608,0,0,1,1.843,1.751,3.4,3.4,0,0,0,1.639,1.831,2.7,2.7,0,0,0,2.145-.658,20.687,20.687,0,0,1,8.018-4.254c1.469-.407,2.749-1.537,4.079-2.394a7.059,7.059,0,0,1,2.428-.855,21.557,21.557,0,0,0,4.132-1.74c0.475-.219.884-0.58,1.357-0.8,2.581-1.209,5.157-2.432,7.768-3.573,1.287-.562,2.706-0.839,3.962-1.456,2.044-1,3.974-2.24,6.008-3.266,1.187-.6,2.5-0.952,3.727-1.469,0.935-.393,1.833-0.871,2.749-1.309,1.382-.661,2.758-1.335,4.149-1.976,1.6-.736,3.2-1.463,4.812-2.158,2.1-.9,4.219-1.775,6.33-2.659a1.172,1.172,0,0,0,.384-0.164,6.594,6.594,0,0,1,4.912-1.9,0.576,0.576,0,0,0,.307-0.055c2.243-1.565,4.989-1.7,7.451-2.63a11.739,11.739,0,0,0,2.062-1.086,34.248,34.248,0,0,1,9.041-3.876,2.254,2.254,0,0,0,.7-0.235c1.833-1.317,4.029-1.7,6.1-2.412a7.19,7.19,0,0,0,.8-0.29,64.091,64.091,0,0,1,8.844-3.475c2.875-.893,5.639-2.154,8.428-3.309,0.875-.362,1.645-0.977,2.518-1.346,0.766-.324,1.621-0.429,2.414-0.7a11.445,11.445,0,0,0,2-.859,3.84,3.84,0,0,1,2.859-.768c0.419,0.088.963-.561,1.485-0.8,1.369-.625,2.745-1.239,4.141-1.8,2.669-1.078,5.341-2.151,8.036-3.159,1.139-.426,2.359-0.633,3.508-1.035,0.641-.225,1.179-0.759,1.824-0.955,1.235-.374,2.518-0.588,3.772-0.905,0.615-.156,1.2-0.465,1.817-0.577a16.092,16.092,0,0,1,2.141-.151c0.56-.025,1.121-0.01,1.681-0.032,0.839-.032,1.676-0.1,2.515-0.11,0.454,0,.914.15,1.364,0.12a5.468,5.468,0,0,1,5.917,3.725,32.132,32.132,0,0,0,2.5,4.1,1.618,1.618,0,0,1,.372.745,35.386,35.386,0,0,1-.372,4.586,23.244,23.244,0,0,1-1.467,5.439c-0.681,1.486-.707,3.218-1.965,4.522a25.511,25.511,0,0,0-2.636,3.819,52.37,52.37,0,0,1-6.136,7.991c-1.044,1.067-2.278,1.947-3.338,3-0.871.866-1.569,1.905-2.428,2.786-0.56.574-1.389,0.905-1.89,1.516a19.551,19.551,0,0,0-2.645,3.776A12.984,12.984,0,0,1,463,50.431a12.77,12.77,0,0,0-2.671,3.581,5.639,5.639,0,0,1-2.293,2.545,3.278,3.278,0,0,0-.865.919c-0.912,1.055-1.815,2.117-2.728,3.172a30.418,30.418,0,0,0-1.994,2.3,28.521,28.521,0,0,1-6.052,6.008,30.725,30.725,0,0,0-5.135,5.132,27.3,27.3,0,0,1-1.972,1.892c-0.427.433-.772,0.946-1.187,1.391a22.739,22.739,0,0,1-1.776,1.783,19.845,19.845,0,0,1-1.884,1.347c-2.551,1.716-4.034,4.459-6.256,6.49-0.673.615-1.38,1.192-2.073,1.786a1.088,1.088,0,0,0-.319.268c-1.646,3.721-5.22,5.368-8.275,7.5a35.084,35.084,0,0,0-4.484,3.927c-0.955.941-2.037,1.752-3.029,2.657-0.963.877-1.845,1.845-2.833,2.691-1.01.864-2.1,1.629-3.162,2.438-0.949.726-1.889,1.462-2.846,2.177-3.2,2.394-6.354,4.861-9.637,7.139a47.458,47.458,0,0,0-4.789,4.367,6.957,6.957,0,0,1-1.644,1.312,14.924,14.924,0,0,0-3.408,2.618c-1.6,1.374-3.416,2.494-5.046,3.836-1.468,1.208-3.417,1.672-4.691,3.177a4.325,4.325,0,0,1-1.38.774c-2.063,1.049-4.152,2.053-6.175,3.175a1.728,1.728,0,0,0-.583,1.342c0.048,2.017.244,4.029,0.318,6.046,0.086,2.33.2,4.668,0.105,6.993a18.368,18.368,0,0,1-.811,3.742,9.237,9.237,0,0,0-.223,3.865,8.7,8.7,0,0,1-.207,3.459c-0.894,3.428-1.894,6.83-2.944,10.213-0.408,1.314-1.084,2.543-1.593,3.829-0.9,2.27-1.689,4.584-2.664,6.819-0.62,1.421-1.634,2.675-2.222,4.106-1.1,2.682-1.984,5.453-3.038,8.156a24.463,24.463,0,0,1-1.6,3.11c-0.734,1.3-1.521,2.563-2.29,3.839-1.463,2.427-2.856,4.9-4.423,7.26a53.746,53.746,0,0,1-3.4,4.228c-3.189,3.878-6.995,7.144-10.631,10.57a46.955,46.955,0,0,1-4.686,3.488c-1.922,1.4-3.767,2.933-5.793,4.166-4.729,2.876-8.921,6.594-14.012,8.9a64.616,64.616,0,0,0-7.594,3.6,37.319,37.319,0,0,1-8.091,3.459c-3.5,1.169-7.084,2.077-10.633,3.094-2.589.741-5.149,1.617-7.777,2.174-2.809.6-5.684,0.88-8.528,1.315-2.9.444-5.787,1.033-8.7,1.332-5.323.545-10.65,1.179-15.99-.106a51.369,51.369,0,0,0-5.288-.49,27.606,27.606,0,0,1-8.5-2.119c-1.83-.87-4.04-0.929-6.07-1.4a21.2,21.2,0,0,1-2.076-.7,25.671,25.671,0,0,0-3.617-1.2c-1.868-.34-3.789-0.381-5.667-0.677a7.411,7.411,0,0,1-2.436-.9A42.883,42.883,0,0,0,191.9,243.8a1.431,1.431,0,0,1-.605-0.181,5.663,5.663,0,0,0-4.877-1.166,12.466,12.466,0,0,0-3.38,1.392c-1.56.73-3.091,1.52-4.645,2.261-1.509.72-3.033,1.408-4.547,2.116-0.307.144-.59,0.347-0.906,0.465a20.887,20.887,0,0,1-4.548,1.59c-2.768.331-4.27,2.728-6.648,3.611a3.426,3.426,0,0,1-.564.286c-3.021.455-5.315,2.366-7.865,3.8a59.9,59.9,0,0,1-5.751,2.42c-2.371,1.022-4.71,2.118-7.081,3.137-1.182.508-2.435,0.854-3.606,1.383-1.952.88-3.855,1.868-5.8,2.771-1.023.476-2.083,0.869-3.127,1.3-1.989.817-3.976,1.642-5.971,2.445-0.75.3-1.551,0.488-2.274,0.839-1.517.735-3,1.544-4.493,2.325a1.243,1.243,0,0,1-.456.245c-1.9-.053-3.555.826-5.3,1.383-0.9.288-1.862,0.375-2.764,0.656a20.281,20.281,0,0,0-1.863.867c-1.945.835-3.9,1.641-5.847,2.477-1.319.568-2.621,1.173-3.936,1.752-1.121.493-2.223,1.049-3.379,1.441a35.6,35.6,0,0,0-6.158,2.178c-1.368.762-2.835,1.35-4.274,1.979a11.251,11.251,0,0,1-1.619.511c-1.737.463-3.516,0.8-5.207,1.4-1.439.5-2.753,1.353-4.168,1.937-2.161.891-4.378,1.644-6.54,2.529-2.564,1.05-5.315,1.543-7.771,2.977a18,18,0,0,1-5.1,1.674c-2.332.528-4.538,1.588-7.017,1.532-2.85-.064-5.295,1.516-7.977,2.157a2.333,2.333,0,0,1-.909.225,8.416,8.416,0,0,0-4.625.4,16.786,16.786,0,0,1-3.428.423,19.647,19.647,0,0,1-7.295-.573c-0.569-.165-1.314.325-1.989,0.459a2.3,2.3,0,0,1-1.376.087c-1.391-.872-2.956-0.856-4.479-1.082a1.057,1.057,0,0,1-.6-0.151c-0.859-1.144-2.218-1.267-3.4-1.791a11.455,11.455,0,0,1-4.7-3.686c-0.607-.832-1.138-1.729-1.811-2.5a5.244,5.244,0,0,1-1.177-3.346c-0.142-3.017-.111-6.025,1.273-8.837A59.748,59.748,0,0,1,4.2,276.035a48.908,48.908,0,0,1,4.126-5.069c1.438-1.7,2.905-3.37,4.366-5.049a48.627,48.627,0,0,1,3.381-3.808c2.065-1.921,4.243-3.724,6.42-5.519,0.879-.725,1.894-1.282,2.824-1.948a9.74,9.74,0,0,0,.909-0.868c1.214-1.136,2.359-2.361,3.663-3.381,1.995-1.56,4.1-2.978,6.161-4.454,0.172-.123.38-0.2,0.541-0.337,3.241-2.728,6.388-5.577,9.742-8.158a79.423,79.423,0,0,1,8.843-5.949c2.1-1.2,4.063-2.553,6.029-3.932,0.653-.458,1.423-0.745,2.091-1.185a28.078,28.078,0,0,0,3.859-2.71,32.777,32.777,0,0,1,6.151-4.461c1.563-.9,2.991-2.032,4.537-2.964,1.429-.861,2.945-1.578,4.405-2.391a14.173,14.173,0,0,0,1.922-1.243c2.118-1.681,4.042-3.607,6.777-4.4a4.5,4.5,0,0,0,2.229-1.724c0.878-1.282,2.38-1.44,3.47-2.3,0.566-.447,1.3-0.678,1.883-1.106,1.2-.881,2.37-1.816,3.531-2.753,1.279-1.033,2.5-2.137,3.816-3.124,0.737-.554,1.633-0.889,2.407-1.4,1.8-1.185,3.544-2.445,5.35-3.614,0.664-.43,1.7-0.5,2.11-1.064a9.46,9.46,0,0,1,4.379-3.538c1.295-.5,2.235-1.88,3.391-2.794a8.931,8.931,0,0,1,2.062-1.224,11,11,0,0,0,4.517-3.543,2.336,2.336,0,0,1,1.66-1.144,3.947,3.947,0,0,0,1.41-.885c1.967-1.345,3.928-2.7,5.9-4.035,0.2-.132.506-0.1,0.687-0.247,0.613-.483,1.2-1,1.78-1.523C142.367,171.422,143.184,170.63,144.208,169.661ZM247.721,38.508c-2.093,0-4.186-.008-6.279,0a23.807,23.807,0,0,0-4.037.1c-2.945.527-5.867,1.2-8.775,1.91a42.784,42.784,0,0,0-4.829,1.517c-1.15.43-2.2,1.134-3.341,1.582-2.151.841-4.363,1.525-6.5,2.387-1.833.737-3.609,1.618-5.4,2.461-2.309,1.088-4.615,2.185-6.9,3.314a24.088,24.088,0,0,1-2.6,1.438,29.431,29.431,0,0,0-7.161,4.093,35.984,35.984,0,0,1-3.659,2.548,68.216,68.216,0,0,0-10.519,7.21c-2.858,2.269-5.636,4.647-8.333,7.105a54.827,54.827,0,0,0-5.218,5.438,50.384,50.384,0,0,0-2.775,4.4c-1.6,2.4-3.274,4.755-4.909,7.135a60.232,60.232,0,0,0-6.571,12.724,29.349,29.349,0,0,0-1.212,4.73,8.068,8.068,0,0,1-.916,3.218,6.245,6.245,0,0,0-1.022,2.66c-0.234,2.041-.245,4.107-0.358,6.163-0.131,2.371-.244,4.744-0.424,7.111-0.1,1.27-.458,2.531-0.457,3.8,0,3.368.135,6.737,0.219,10.105,0.032,1.275.038,2.551,0.112,3.824,0.144,2.476.3,4.951,0.5,7.422,0.163,1.968.294,3.949,0.65,5.886,0.364,1.981,1.015,3.908,1.483,5.872,0.451,1.892.8,3.809,1.246,5.7,0.354,1.5.76,2.987,1.2,4.465,0.518,1.758,1.094,3.5,1.641,5.248a1.443,1.443,0,0,1,.193.785c-0.9,1.274.2,1.991,0.721,2.891a12.636,12.636,0,0,1,2.025,5.353c0.068,0.9-.033,1.771.946,2.273a1.179,1.179,0,0,1,.262.555q0.365,0.863.726,1.729c0.607,1.459,1.157,2.945,1.833,4.371s1.456,2.779,2.218,4.15c0.328,0.59.77,1.119,1.076,1.718,0.252,0.493.3,1.1,0.584,1.565,0.606,0.983,1.285,1.924,1.977,2.85,1.119,1.5,2.192,3.039,3.432,4.43,1.6,1.794,2.342,4.2,4.638,5.554,1.523,0.9,2.528,2.648,3.826,3.957,1.067,1.076,2.234,2.053,3.334,3.1a1.067,1.067,0,0,0,1.487-.014,26.444,26.444,0,0,1,4.9-2.243,53.344,53.344,0,0,0,8.832-2.925c1.905-.923,3.816-1.842,5.76-2.678,0.993-.427,2.087-0.617,3.1-1.013,0.884-.346,1.717-0.825,2.568-1.252,1.986-1,3.981-1.974,5.952-3a32.883,32.883,0,0,1,4.673-2.468,20.8,20.8,0,0,0,5.769-2.829,2.428,2.428,0,0,1,.593-0.228,58.212,58.212,0,0,0,10.82-5.462,8.229,8.229,0,0,1,.736-0.4,28.587,28.587,0,0,0,4.22-2.1,15.774,15.774,0,0,1,5.751-2.715,12.448,12.448,0,0,0,5.515-2.539,79.09,79.09,0,0,1,6.872-4.918c0.835-.568,1.8-0.945,2.688-1.433,2.117-1.159,4.521-1.792,6.3-3.582a8.283,8.283,0,0,1,2.078-1.257c1.992-1.047,4.034-2,5.991-3.113,2.843-1.611,5.463-3.641,8.731-4.426a3.346,3.346,0,0,0,1.341-.777c1.226-1.085,2.335-2.314,3.625-3.312,1.357-1.05,2.934-1.814,4.3-2.856,1.4-1.069,2.572-2.435,3.991-3.47,1.587-1.157,3.332-2.1,5.024-3.109,0.355-.212.821-0.243,1.164-0.468,1.387-.907,2.719-1.9,4.12-2.781,1.938-1.221,3.923-2.367,5.883-3.554,2.115-1.28,4.172-2.67,6.354-3.823a32.841,32.841,0,0,0,5.147-2.982,31.811,31.811,0,0,1,6.431-3.451,12.216,12.216,0,0,0,4.781-4.09,9.558,9.558,0,0,1,2.889-2.524c3.383-2.1,6.959-3.956,9.781-6.8a33.746,33.746,0,0,1,6.193-5.119,1.53,1.53,0,0,0,.718-2.047c-0.624-2.026-1.316-4.032-1.884-6.073-0.405-1.457-.553-2.988-0.994-4.431-0.794-2.6-1.723-5.15-2.592-7.722a61.144,61.144,0,0,1-2.212-6.717c-0.865-4.071-3.028-7.552-4.788-11.2a35.752,35.752,0,0,0-3.7-5.167,1.828,1.828,0,0,1-.458-0.7,6.324,6.324,0,0,0-1.954-3.926c-0.876-.888-1.423-2.164-2.4-2.871a11.379,11.379,0,0,1-2.975-3.636,5.458,5.458,0,0,0-2.947-2.6,3.8,3.8,0,0,1-1.419-1.029c-0.444-.48-0.673-1.168-1.138-1.619-1.381-1.342-2.814-2.633-4.268-3.9-0.405-.352-0.982-0.5-1.428-0.816-0.535-.38-0.984-0.885-1.524-1.256-0.695-.477-1.45-0.864-2.169-1.308-2.187-1.35-4.324-2.787-6.566-4.038-1.653-.922-3.452-1.579-5.161-2.4-0.857-.413-1.636-0.989-2.5-1.394-0.555-.261-1.423-0.155-1.75-0.548-0.862-1.034-2.009-1.171-3.157-1.536-2.54-.807-5.051-1.725-7.525-2.718-2.866-1.151-5.864-1.923-8.669-3.277a24.8,24.8,0,0,0-5.77-1.783c-2.523-.519-5.13-0.638-7.65-1.171a62.649,62.649,0,0,0-10.966-1.223C253.829,38.429,250.774,38.508,247.721,38.508Zm-137.65,214.05c-3.347.062-6.741,0.544-10.013-.5-1.873-.6-3.905-0.892-5.434-2.281-1.1-1-2.073-2.131-3.167-3.134a3.465,3.465,0,0,1-1.269-2.706,55.9,55.9,0,0,1,.357-5.828,36.676,36.676,0,0,1,1.194-5.584,11.2,11.2,0,0,1,1.559-2.831c1.484-2.242,3.017-4.451,4.545-6.664a9.416,9.416,0,0,1,1.219-1.555c0.8-.749,1.762-1.33,2.5-2.125,1.22-1.308,2.3-2.74,3.472-4.1a18.779,18.779,0,0,1,1.481-1.5c1.127-1.046,2.271-2.075,3.414-3.1,0.233-.209.522-0.358,0.74-0.579,1.487-1.508,2.538-3.341,4.267-4.724,2.319-1.856,4.188-4.27,6.272-6.424,1.073-1.109,2.139-2.233,3.3-3.246,2.419-2.109,4.829-4.239,7.372-6.193,2.943-2.261,6.03-4.335,9.043-6.505,1.5-1.078,3.014-2.134,4.426-3.315,0.558-.467,1.689-1.141.274-2.019a0.74,0.74,0,0,1-.091-0.508c0.024-.874-0.492-0.967-1.112-0.695a38.027,38.027,0,0,0-3.618,1.738c-2.279,1.3-4.567,2.608-6.742,4.073-1.964,1.323-3.806,2.834-5.661,4.313-1.976,1.575-4.214,2.779-6.034,4.6a20.067,20.067,0,0,1-3.745,2.326c-1.26.785-2.516,1.579-3.739,2.42-1.828,1.258-3.591,2.613-5.445,3.831-2.782,1.829-5.616,3.577-8.43,5.356a15.3,15.3,0,0,1-3.084,1.874c-2.352.778-3.808,2.795-5.89,3.93a31.32,31.32,0,0,0-3.224,2.407c-1.173.855-2.4,1.639-3.559,2.508-1.588,1.188-3.092,2.492-4.717,3.625-1.416.988-3.122,1.612-4.4,2.738-3.415,3.017-7.551,4.9-11.246,7.457-2.333,1.617-4.666,3.235-6.949,4.919-0.671.495-1.107,1.3-1.768,1.817-1.224.953-2.51,1.832-3.813,2.674-2.581,1.668-5.346,3.079-7.42,5.437a2.067,2.067,0,0,1-.331.268c-1.532,1.14-3.116,2.218-4.586,3.434-2.138,1.767-4.191,3.636-6.285,5.457-1.324,1.151-2.645,2.308-3.99,3.434-1.947,1.629-3.888,3.266-5.883,4.834a41.518,41.518,0,0,0-4,2.911c-2.964,2.981-5.77,6.12-8.627,9.207a4.082,4.082,0,0,0-.549.885,60.733,60.733,0,0,1-2.978,5.578c-1.726,2.572-3.049,5.165-2.225,8.362a10.263,10.263,0,0,0,.691,1.564q0.484,1.079.965,2.159a3.812,3.812,0,0,0,.411.925c0.922,1.1,2.565,1.556,2.855,3.234a0.885,0.885,0,0,0,.536.232q2.961,0.648,5.925,1.276a6.159,6.159,0,0,0,1.215.213c2.458,0.015,4.919.061,7.375-.024s4.958-.071,7.245-1.246a3.644,3.644,0,0,1,.932-0.172q3.221-.643,6.44-1.293a41.2,41.2,0,0,1,4.445-.9,24.921,24.921,0,0,0,8.136-2.025,50.681,50.681,0,0,1,9.161-3.254,33.615,33.615,0,0,0,4.093-1.132c2.34-.882,4.634-1.89,6.936-2.873,0.8-.342,1.534-0.878,2.357-1.134,2.733-.853,5.5-1.595,8.24-2.432a19.717,19.717,0,0,0,3.188-1.23c1.714-.873,3.326-1.951,5.056-2.789a44.691,44.691,0,0,1,4.887-1.955,23.671,23.671,0,0,1,3.952-1.046,10.428,10.428,0,0,0,3.841-1.378,23.793,23.793,0,0,1,3.675-1.656c2.91-1.136,5.846-2.207,8.759-3.335,1.121-.434,2.178-1.229,3.321-1.357A5.055,5.055,0,0,0,123.168,266a2.062,2.062,0,0,1,.926-0.509,25.907,25.907,0,0,0,6.594-2.45c1.857-.914,3.839-1.577,5.771-2.336,2.621-1.03,4.608-3.192,7.464-3.9,1.985-.493,3.78-1.706,5.708-2.481,2.636-1.059,4.943-2.92,7.883-3.243a1.8,1.8,0,0,0,.682-0.291c1.03-.622,2.045-1.27,3.079-1.886a7.139,7.139,0,0,1,1.46-.735c0.749-.235,1.573-0.258,2.295-0.546,1.793-.716,3.556-1.511,5.314-2.312,1.723-.785,3.422-1.622,5.138-2.422,0.382-.178.793-0.292,1.189-0.439,2.465-.915,4.939-1.809,7.388-2.765a5.813,5.813,0,0,0,1.241-.916,6.58,6.58,0,0,1,.98-0.734c0.7-.345,1.436-0.6,2.143-0.922,2.32-1.066,4.619-2.182,6.954-3.214a61.031,61.031,0,0,0,6.534-2.822,25.432,25.432,0,0,1,4.77-2.055,13.8,13.8,0,0,0,3.87-2.045,7.151,7.151,0,0,1,2.8-1.366,7.547,7.547,0,0,0,2.248-.921c2.669-1.45,5.421-2.748,8.119-4.145,1.216-.629,2.391-1.34,3.566-2.045,1.744-1.046,3.251-2.5,5.349-2.929a4.3,4.3,0,0,0,2.031-.767,30.288,30.288,0,0,1,7.376-5.193c2.95-1.438,5.909-2.862,8.809-4.4,2.273-1.2,4.461-2.565,6.686-3.858a16.914,16.914,0,0,0,1.859-1.107c2.014-1.548,3.926-3.213,6.387-4.1a25.963,25.963,0,0,0,4.766-2.2,46.129,46.129,0,0,0,4.132-3.215,9.942,9.942,0,0,1,.975-0.633q6.005-3.655,12.015-7.3a9.21,9.21,0,0,1,2.2-1.232c1.84-.489,3.713-0.815,4.971-2.461a2.786,2.786,0,0,1,.554-0.3c0.472-.354.935-0.723,1.389-1.1,1.379-1.148,2.683-2.4,4.152-3.422a33.932,33.932,0,0,1,3.592-1.8A7,7,0,0,1,306.2,171.4c2.008-.3,3.1-2.415,5.179-2.493a0.592,0.592,0,0,0,.227-0.21c0.681-.671,1.322-1.389,2.051-2,1.283-1.081,2.435-2.435,4.35-2.384a1.124,1.124,0,0,0,.5-0.14,55.781,55.781,0,0,0,5.606-2.867c3.366-2.193,6.6-4.582,9.889-6.9a30.612,30.612,0,0,1,3.975-2.784,14.04,14.04,0,0,0,3.109-2.639,19.025,19.025,0,0,1,2.893-2.292,13.117,13.117,0,0,0,4-3.106,9.14,9.14,0,0,1,1.787-1.8c2.323-1.693,4.667-3.362,7.065-4.947,1.182-.781,2.525-1.313,3.746-2.04,1.661-.989,3.312-2,4.9-3.1,2.963-2.045,5.892-4.141,8.811-6.249,1.815-1.311,3.6-2.665,5.371-4.037,1.519-1.176,2.986-2.42,4.5-3.6,1.549-1.213,3.169-2.339,4.675-3.6,1.071-.9,1.959-2.013,3.015-2.932a13.294,13.294,0,0,1,1.969-1.141c1.149-.688,2.312-1.358,3.419-2.109a8.326,8.326,0,0,0,2.258-1.854,13.379,13.379,0,0,1,4.117-3.6,19.789,19.789,0,0,0,2.622-2.021c0.695-.621,1.209-1.453,1.93-2.034,1.312-1.058,2.943-1.8,4.032-3.035,1.585-1.8,3.843-2.809,5.181-4.888a14.393,14.393,0,0,1,2.8-2.662c1.709-1.5,3.38-3.058,5.189-4.43a17.707,17.707,0,0,0,3.893-3.841,19.523,19.523,0,0,1,4.669-4.244c0.992-.724,2.018-1.4,3.02-2.114a5.546,5.546,0,0,0,1.07-.858c1.486-1.763,2.867-3.618,4.423-5.315a56.844,56.844,0,0,1,4.647-4.491c2-1.732,4.238-3.225,4.862-6.049a1.015,1.015,0,0,1,.292-0.44c0.86-.869,1.771-1.691,2.585-2.6,1.806-2.017,3.545-4.094,5.354-6.108,0.56-.623,1.367-1.036,1.878-1.689,1.535-1.962,2.908-4.053,4.478-5.985a38.228,38.228,0,0,1,5.109-5.74,22.32,22.32,0,0,0,4.245-4.432c1.723-2.51,3.009-5.316,4.655-7.884,0.8-1.241,1.722-2.326,1.8-3.9,0.116-2.364,1.445-4.441,1.557-6.87,0.082-1.77-.616-3.231-0.976-4.825a1.147,1.147,0,0,0-.581-0.732c-1.467-.546-2.983-1.486-4.438-1.412-1.935.1-3.839,0.971-5.736,1.576-2.338.745-4.658,1.544-6.978,2.344q-3.185,1.1-6.35,2.25c-1.089.4-2.159,0.85-3.227,1.3-1.574.666-3.115,1.419-4.714,2.015-2.267.845-4.621,1.471-6.853,2.395-2.118.877-4.1,2.072-6.194,3.02a20.991,20.991,0,0,1-4.165,1.478,18.929,18.929,0,0,0-4.671,1.319c-1.913.958-3.938,1.694-5.913,2.528-1.291.545-2.566,1.132-3.874,1.631-0.849.323-1.908,0.3-2.589,0.816-2.154,1.619-4.8,2.014-7.15,3.129-1.079.512-2.22,0.9-3.345,1.307-1.792.654-3.655,1.149-5.377,1.948a68.691,68.691,0,0,1-9.558,3.815c-1.763.517-3.594,0.777-5.233,1.946s-3.757,1.669-5.621,2.552c-2.666,1.263-5.289,2.616-7.938,3.914-2.884,1.413-6.112,1.98-8.878,3.732a38.568,38.568,0,0,1-4.7,2.179c-2.329,1.064-4.648,2.151-6.985,3.2a47.17,47.17,0,0,0-4.932,2.161,11.89,11.89,0,0,1-4.369,2.027,1.815,1.815,0,0,0-.537.313c-2.531,1.454-4.859,3.292-7.767,4.033a5.071,5.071,0,0,0-1.438.676,1.188,1.188,0,0,0-.288,2.034c0.163,0.187.337,0.365,0.509,0.545,1.232,1.292,2.211,1.384,3.644.364a8.685,8.685,0,0,1,1.089-.667c2.233-1.137,4.459-2.291,6.717-3.378,1.175-.565,2.41-1,3.619-1.5,0.711-.291,1.449-0.527,2.126-0.882,1.47-.77,2.9-1.621,4.369-2.389a1.922,1.922,0,0,1,1.212-.222,3.758,3.758,0,0,0,2.916-.557,13.289,13.289,0,0,1,7.261-2.411,7.992,7.992,0,0,0,3.9-.764,33.8,33.8,0,0,1,5.544-1.973c1.53-.544,3-1.265,4.528-1.807,1.226-.434,2.513-0.694,3.76-1.073,2.528-.768,5.03-1.627,7.574-2.333,2.614-.725,5.266-1.314,7.9-1.961a2.12,2.12,0,0,1,1.013-.207c2.022,0.774,3.785-.387,5.625-0.766a26.188,26.188,0,0,0,4-1.548,3.829,3.829,0,0,1,1.028-.234c1.348-.122,2.7-0.272,4.048-0.3a19.283,19.283,0,0,1,2.883.217c0.793,0.1,1.575.3,2.358,0.464a5.1,5.1,0,0,1,1.6.418c1.362,0.849,3.033,1.412,3.414,3.3a3.613,3.613,0,0,0,.459.7,8.167,8.167,0,0,1,1.193,2.56c0.267,2.847.2,5.729-1.252,8.3-0.98,1.744-2.226,3.336-3.322,5.016-0.587.9-1.065,1.87-1.665,2.76-1.551,2.3-3.023,4.67-4.757,6.826-1.212,1.508-2.139,3.243-3.843,4.423-1.265.877-2.124,2.34-3.163,3.543-2.21,2.561-4.375,5.162-6.645,7.669-1.457,1.61-3.06,3.09-4.612,4.614-1.109,1.089-2.245,2.152-3.365,3.23-1.508,1.452-3,2.919-4.522,4.358-1.893,1.793-3.838,3.532-5.7,5.358-1.093,1.072-2.007,2.329-3.113,3.387-0.877.839-1.992,1.427-2.879,2.258-1.663,1.558-3.234,3.213-4.848,4.824-1.711,1.708-3.371,3.471-5.158,5.1-1.274,1.159-2.706,2.147-4.092,3.178-2.115,1.572-4.251,3.117-6.384,4.666a1.226,1.226,0,0,1-.488.2,4.374,4.374,0,0,0-3.334,2.794,1.889,1.889,0,0,1-1.083,1.011,6,6,0,0,0-3.6,2.759,6.785,6.785,0,0,1-1.362,1.451c-1.984,1.5-4.009,2.937-6.02,4.4-0.422.306-.838,0.623-1.277,0.9-1.669,1.069-3.227,2.474-5.051,3.1a16.375,16.375,0,0,0-5.9,3.95c-2.683,2.537-5.884,4.237-8.95,6.159-1.49.934-3.168,1.564-4.7,2.441-1.612.923-3.158,1.964-4.719,2.973-2.519,1.629-5.035,3.26-7.534,4.919a27.591,27.591,0,0,1-3.089,2.152,8,8,0,0,0-2.741,1.793,8.175,8.175,0,0,1-2.037,1.265,14.524,14.524,0,0,0-1.5.873,37.865,37.865,0,0,1-4.939,3.762,18.147,18.147,0,0,0-4.311,2.927,5.781,5.781,0,0,1-1.1.842c-1.389.807-2.784,1.606-4.2,2.362s-2.838,1.442-4.26,2.157c-1.134.57-2.31,1.069-3.4,1.717-2.2,1.309-4.328,2.734-6.527,4.042s-4.466,2.554-6.708,3.814a42.13,42.13,0,0,0-5.15,2.923,35.852,35.852,0,0,1-6.6,3.937c-1.94.917-3.848,1.9-5.764,2.865-1.549.78-2.924,1.955-4.8,1.977a2.577,2.577,0,0,0-1.115.56c-1.275.8-2.482,1.733-3.82,2.406-2.8,1.41-5.751,2.491-8.528,4-3.706,2.018-7.655,3.587-11.462,5.425-2.47,1.192-4.867,2.534-7.312,3.779a4.993,4.993,0,0,1-1.854.68,8.542,8.542,0,0,0-4.417,1.636,2.088,2.088,0,0,1-1.937.584,1.716,1.716,0,0,0-.905.45,5.893,5.893,0,0,1-.948.638c-2.054.742-4.115,1.469-6.19,2.147-0.79.258-1.672,0.265-2.432,0.58-1.522.631-2.974,1.429-4.482,2.1-2.633,1.165-5.264,2.338-7.938,3.4-2.182.87-4.52,1.4-6.611,2.436a49.287,49.287,0,0,1-5.318,2.3c-1.841.658-3.464,1.885-5.514,2.014a4.116,4.116,0,0,0-1.889.552c-3.142,2-6.791,2.48-10.245,3.552-1.782.553-3.485,1.359-5.241,2-2.223.814-4.447,1.632-6.7,2.343-1.225.386-2.549,0.389-3.575,1.387a4.126,4.126,0,0,1-1.934,1.039,62.6,62.6,0,0,1-7.6,1.308C115.628,252.729,112.843,252.557,110.071,252.557ZM359.318,141.128a3.519,3.519,0,0,0-.945.311c-1.341.977-2.7,1.939-3.971,3-1.676,1.4-3.27,2.892-4.915,4.327-0.714.623-1.459,1.213-2.209,1.793-0.66.51-1.357,0.97-2.018,1.479-0.766.59-1.485,1.241-2.267,1.807-1.705,1.235-3.769,2.153-5.08,3.712-1.9,2.254-4.652,2.848-6.885,4.393a26.7,26.7,0,0,1-3.752,1.809,3.646,3.646,0,0,0-.4.347c-0.693.479-1.364,1-2.1,1.409-0.977.545-2.012,0.984-3.008,1.5-2.305,1.186-3.716,3.632-6.505,4.262-1.477.334-2.775,1.537-4.109,2.417-3.375,2.225-6.706,4.516-10.092,6.724-1.291.842-2.692,1.515-4.029,2.29-0.97.562-1.92,1.161-2.874,1.75-0.318.2-.611,0.437-0.934,0.624-1.142.659-2.294,1.3-3.437,1.957-0.391.225-.763,0.484-1.155,0.707-0.775.442-1.563,0.861-2.336,1.305a8.413,8.413,0,0,0-1.678,1.044c-1.058,1.012-1.861,2.3-3.4,2.742a12.249,12.249,0,0,0-2.733,1.074c-2.483,1.44-5.516,1.976-7.381,4.442a0.894,0.894,0,0,1-.263.172q-3.7,2.233-7.4,4.462a4.5,4.5,0,0,1-1.491.791,7.823,7.823,0,0,0-4.123,2.157,23.258,23.258,0,0,1-4.2,2.591c-1.235.668-2.567,1.156-3.822,1.79-1.027.519-2.02,1.111-3,1.716-1.009.623-1.932,1.4-2.985,1.934-1.954.983-4.131,1.6-5.932,2.794a57.572,57.572,0,0,1-8.8,5.154,11.131,11.131,0,0,0-2.223,1.213,13.45,13.45,0,0,1-4.287,2.231,16.548,16.548,0,0,0-2.237.946c-0.919.423-1.805,0.927-2.744,1.3-0.808.32-1.7,0.432-2.5,0.767s-1.487,1.119-2.276,1.2a9.2,9.2,0,0,0-4.655,2.185,17.286,17.286,0,0,1-5.027,2.528,7.42,7.42,0,0,0-1.734.347,19.361,19.361,0,0,1-5.608,2.477,1.935,1.935,0,0,0-1.432,1.8,1.794,1.794,0,0,0,1.13,1.765c0.83,0.472,1.62,1.014,2.448,1.492a12.882,12.882,0,0,0,2.158,1.124c2.343,0.808,4.7,1.594,7.079,2.272a38.622,38.622,0,0,0,5.482,1.227,37.78,37.78,0,0,1,8.81,1.862,12.6,12.6,0,0,0,2.9.655c2.766,0.359,5.544.629,8.312,0.977,1.752,0.22,3.489.571,5.244,0.759,1.335,0.143,2.688.153,4.033,0.167,1.732,0.018,3.466.02,5.2-.044,1.375-.051,2.749-0.179,4.117-0.335s2.728-.415,4.1-0.583c1.126-.138,2.283-0.1,3.386-0.329,3.989-.839,7.956-1.782,11.94-2.642,2.248-.485,4.528-0.827,6.77-1.338,3.389-.773,6.723-1.849,10.144-2.4a29.346,29.346,0,0,0,8.82-3.319c2.647-1.367,5.242-2.833,7.874-4.229,1.285-.682,2.672-1.194,3.888-1.977,2.263-1.457,4.485-2.987,6.631-4.611,2.942-2.226,5.8-4.565,8.687-6.86a21.924,21.924,0,0,0,2.946-2.416c2.156-2.445,4.189-5,6.257-7.521,1.057-1.289,2.119-2.575,3.113-3.912,1.014-1.365,1.814-2.911,2.944-4.165a38.393,38.393,0,0,0,5.259-7.958c1.288-2.438,2.329-5.012,3.389-7.563,0.673-1.62,1.12-3.333,1.785-4.957,0.452-1.1,1.217-2.082,1.644-3.193,0.835-2.169,1.506-4.4,2.294-6.588,0.647-1.794,1.406-3.548,2.043-5.345,0.707-1.995,1.24-4.054,2.018-6.019a16.577,16.577,0,0,0,1.1-6.128,25.318,25.318,0,0,1,.3-4.557A55.272,55.272,0,0,0,359.318,141.128Zm0.5-19.638,0.432,0.242a4.785,4.785,0,0,1,.563-0.883c1.07-1.075,2.131-2.163,3.269-3.163,1.11-.976,2.369-1.785,3.456-2.784,1.325-1.218,2.513-2.585,3.806-3.839,2.118-2.055,4.326-4.019,6.4-6.121,1.692-1.719,3.173-3.645,4.866-5.362,1.51-1.531,3.207-2.876,4.772-4.355,0.891-.842,1.663-1.808,2.528-2.679s1.805-1.659,2.655-2.539c1.684-1.744,3.3-3.551,5-5.285,1.648-1.687,3.451-3.233,5.007-5,1.173-1.33,2.08-2.885,3.673-3.818a3.431,3.431,0,0,0,.869-0.9c1.189-1.531,2.335-3.1,3.548-4.609,1.359-1.695,2.869-3.276,4.138-5.032,1.93-2.671,3.711-5.449,5.55-8.185A2.515,2.515,0,0,0,420.6,56.6c0.474-1.357.907-2.728,1.417-4.071a3.143,3.143,0,0,0-.925-4,11.7,11.7,0,0,0-1.785-1.47,4.257,4.257,0,0,0-2.13-.761q-4.326.234-8.633,0.773a29.536,29.536,0,0,0-3.144.962c-2.662.648-5.34,1.23-8.01,1.845-1.028.236-2.052,0.487-3.078,0.734-0.678.163-1.358,0.32-2.032,0.5-1.089.285-2.172,0.593-3.262,0.876-0.855.222-1.737,0.356-2.57,0.64-1.831.624-3.614,1.4-5.462,1.964-2.393.73-4.836,1.3-7.249,1.967a27.88,27.88,0,0,1-4.359,1.251,30.581,30.581,0,0,0-6.435,1.7c-1.2.4-2.352,0.93-3.527,1.4-2.453.972-4.966,1.818-7.341,2.954a20.818,20.818,0,0,1-4.85,1.938,1.776,1.776,0,0,0-1.025.479c-0.947,1.26-2.42,1.346-3.733,1.79-0.8.272-1.637,0.463-2.426,0.771a2.17,2.17,0,0,0-.838,3.738,22.627,22.627,0,0,1,2.016,2.581c0.321,0.474.351,1.15,0.687,1.606,1.051,1.425,1.191,3.463,2.963,4.4a0.892,0.892,0,0,1,.233.351c0.353,0.6.661,1.238,1.062,1.808a30.938,30.938,0,0,1,3.735,7.03c0.584,1.572,1.171,3.148,1.654,4.753,0.394,1.31.605,2.673,0.955,4,0.27,1.023.36,2.278,1.015,2.971,0.93,0.985,1.011,2.177,1.538,3.231,0.941,1.883.769,4.207,2.375,5.8a0.809,0.809,0,0,1,.137.395c0.579,2.763,1.147,5.528,1.738,8.288C359.437,120.359,359.645,120.92,359.814,121.489Zm-185.375,106c-1.826-1.651-3.465-3.1-5.064-4.6a14.385,14.385,0,0,1-1.428-1.664c-0.523-.666-0.964-1.4-1.519-2.034-1.4-1.6-2.909-3.119-4.257-4.766a22.187,22.187,0,0,1-2.339-3.54c-0.851-1.583-1.5-3.276-2.3-4.883-1.557-3.095-3.211-6.141-4.738-9.25a64.7,64.7,0,0,1-2.779-6.33c-0.672-1.844-1.022-3.8-1.565-5.7-0.477-1.66-1.505-1.924-2.831-.774-0.214.185-.382,0.428-0.606,0.6-1.292.968-2.587,1.932-3.9,2.875-0.57.411-1.19,0.752-1.764,1.159-0.673.477-1.309,1.006-1.981,1.484-0.986.7-2.038,1.319-2.97,2.085-0.692.569-1.2,1.357-1.856,1.974a24.636,24.636,0,0,1-2.116,1.714c-2.83,2.119-4.7,5.195-7.576,7.326-2.127,1.578-3.8,3.767-5.683,5.677a1.5,1.5,0,0,1-.651.508c-2.161.332-2.8,2.314-3.908,3.709-0.689.868-1.157,1.819-2.36,2.058a1.452,1.452,0,0,0-.689.457,26.213,26.213,0,0,0-2.32,2.593c-1.175,1.65-2.194,3.41-3.35,5.075a8.819,8.819,0,0,1-1.933,2.185,13.549,13.549,0,0,0-4.39,4.605c-0.642,1.222-1.765,2.074-2.3,3.479-0.359.938-1.352,1.722-1.8,2.849-1.043,2.639-.236,4.98.819,7.328a1.54,1.54,0,0,0,.585.388,2.347,2.347,0,0,1,.9.621c0.807,1.8,2.615,2.217,4.095,3.088,1.352,0.8,2.865.69,4.351,0.867a15.352,15.352,0,0,0,4.792.178,10.978,10.978,0,0,1,3.657-.268,14.4,14.4,0,0,0,5.872-.515c2.764-.7,5.474-1.628,8.192-2.508,2.993-.969,5.968-1.991,8.949-3a48.022,48.022,0,0,1,5.636-1.86,24.369,24.369,0,0,0,4.955-1.429c2.358-1.025,4.751-1.976,7.149-2.9,1.909-.739,3.87-1.347,5.77-2.108,1.768-.708,3.458-1.611,5.231-2.3,2.072-.808,4.238-1.384,6.285-2.247A31.208,31.208,0,0,0,174.439,227.49Z"/>
  <path id="_Compound_Path_2" data-name="&lt;Compound Path&gt;" class="cls-1" d="M247.721,38.508c3.053,0,6.108-.079,9.158.021a62.649,62.649,0,0,1,10.966,1.223c2.52,0.533,5.126.652,7.65,1.171a24.8,24.8,0,0,1,5.77,1.783c2.805,1.354,5.8,2.126,8.669,3.277,2.474,0.993,4.985,1.911,7.525,2.718,1.148,0.365,2.3.5,3.157,1.536,0.327,0.392,1.195.286,1.75,0.548,0.86,0.4,1.639.981,2.5,1.394,1.71,0.825,3.508,1.482,5.161,2.4,2.242,1.25,4.379,2.688,6.566,4.038,0.718,0.444,1.474.831,2.169,1.308,0.541,0.371.989,0.875,1.524,1.256,0.445,0.316,1.022.464,1.428,0.816,1.454,1.264,2.886,2.555,4.268,3.9,0.465,0.451.694,1.139,1.138,1.619a3.8,3.8,0,0,0,1.419,1.029,5.458,5.458,0,0,1,2.947,2.6,11.379,11.379,0,0,0,2.975,3.636c0.979,0.708,1.527,1.983,2.4,2.871a6.324,6.324,0,0,1,1.954,3.926,1.828,1.828,0,0,0,.458.7,35.752,35.752,0,0,1,3.7,5.167c1.76,3.65,3.923,7.131,4.788,11.2a61.144,61.144,0,0,0,2.212,6.717c0.87,2.573,1.8,5.127,2.592,7.722,0.441,1.443.589,2.974,0.994,4.431,0.568,2.041,1.26,4.047,1.884,6.073a1.53,1.53,0,0,1-.718,2.047,33.746,33.746,0,0,0-6.193,5.119c-2.822,2.845-6.4,4.705-9.781,6.8a9.558,9.558,0,0,0-2.889,2.524,12.216,12.216,0,0,1-4.781,4.09,31.811,31.811,0,0,0-6.431,3.451A32.841,32.841,0,0,1,319.5,150.6c-2.182,1.153-4.239,2.543-6.354,3.823-1.96,1.186-3.945,2.333-5.883,3.554-1.4.883-2.734,1.874-4.12,2.781-0.343.224-.809,0.256-1.164,0.468-1.692,1.009-3.437,1.952-5.024,3.109-1.419,1.035-2.593,2.4-3.991,3.47-1.363,1.043-2.94,1.807-4.3,2.856-1.29,1-2.4,2.227-3.625,3.312a3.346,3.346,0,0,1-1.341.777c-3.268.786-5.888,2.816-8.731,4.426-1.957,1.109-4,2.065-5.991,3.113a8.283,8.283,0,0,0-2.078,1.257c-1.781,1.79-4.184,2.423-6.3,3.582-0.891.488-1.853,0.865-2.688,1.433a79.09,79.09,0,0,0-6.872,4.918,12.448,12.448,0,0,1-5.515,2.539,15.774,15.774,0,0,0-5.751,2.715,28.587,28.587,0,0,1-4.22,2.1,8.229,8.229,0,0,0-.736.4,58.212,58.212,0,0,1-10.82,5.462,2.428,2.428,0,0,0-.593.228,20.8,20.8,0,0,1-5.769,2.829,32.883,32.883,0,0,0-4.673,2.468c-1.971,1.024-3.966,2-5.952,3-0.852.427-1.684,0.906-2.568,1.252-1.01.4-2.1,0.585-3.1,1.013-1.944.837-3.855,1.755-5.76,2.678a53.344,53.344,0,0,1-8.832,2.925,26.444,26.444,0,0,0-4.9,2.243,1.067,1.067,0,0,1-1.487.014c-1.1-1.045-2.267-2.021-3.334-3.1-1.3-1.309-2.3-3.06-3.826-3.957-2.3-1.352-3.039-3.76-4.638-5.554-1.24-1.391-2.313-2.934-3.432-4.43-0.692-.926-1.371-1.867-1.977-2.85-0.286-.465-0.331-1.072-0.584-1.565-0.307-.6-0.749-1.128-1.076-1.718-0.762-1.371-1.546-2.734-2.218-4.15s-1.226-2.912-1.833-4.371q-0.36-.866-0.726-1.729a1.179,1.179,0,0,0-.262-0.555c-0.979-.5-0.878-1.375-0.946-2.273a12.636,12.636,0,0,0-2.025-5.353c-0.525-.9-1.621-1.617-0.721-2.891a1.443,1.443,0,0,0-.193-0.785c-0.547-1.749-1.123-3.49-1.641-5.248-0.436-1.477-.841-2.966-1.2-4.465-0.447-1.893-.8-3.81-1.246-5.7-0.468-1.964-1.119-3.891-1.483-5.872-0.356-1.937-.486-3.919-0.65-5.886-0.205-2.471-.36-4.947-0.5-7.422-0.074-1.272-.081-2.549-0.112-3.824-0.083-3.368-.216-6.737-0.219-10.105,0-1.265.36-2.525,0.457-3.8,0.18-2.367.293-4.74,0.424-7.111,0.113-2.055.124-4.122,0.358-6.163a6.245,6.245,0,0,1,1.022-2.66,8.068,8.068,0,0,0,.916-3.218,29.349,29.349,0,0,1,1.212-4.73,60.232,60.232,0,0,1,6.571-12.724c1.635-2.379,3.306-4.735,4.909-7.135a50.384,50.384,0,0,1,2.775-4.4,54.827,54.827,0,0,1,5.218-5.438c2.7-2.458,5.475-4.836,8.333-7.105a68.216,68.216,0,0,1,10.519-7.21,35.984,35.984,0,0,0,3.659-2.548,29.431,29.431,0,0,1,7.161-4.093,24.088,24.088,0,0,0,2.6-1.438c2.289-1.129,4.6-2.226,6.9-3.314,1.789-.843,3.565-1.723,5.4-2.461,2.142-.862,4.354-1.546,6.5-2.387,1.145-.448,2.191-1.152,3.341-1.582a42.784,42.784,0,0,1,4.829-1.517c2.908-.71,5.83-1.382,8.775-1.91a23.807,23.807,0,0,1,4.037-.1C243.535,38.5,245.628,38.508,247.721,38.508Zm-62.933,114.78a3.632,3.632,0,0,0-4.163,3.371c-0.12,1.082-.45,2.142-0.567,3.224a3.737,3.737,0,0,0,.174,2.006,7.715,7.715,0,0,1,.875,4.605,4.905,4.905,0,0,0-.035,2.4,45.7,45.7,0,0,0,3.079,5.491,3.227,3.227,0,0,0,3.137,1.323,1.115,1.115,0,0,0,.747-0.681,1.393,1.393,0,0,0-.742-0.939c-2.1-.321-2.953-1.441-2.722-3.5a2.1,2.1,0,0,0-.676-1.443c-0.681-.667-1.262-1.208-0.9-2.33a4.5,4.5,0,0,0-.035-2.156c-0.279-1.391-1.537-2.526-1.055-4.133a5.387,5.387,0,0,0,.32-1.716c-0.066-1.55.814-2.644,1.626-3.8A17.874,17.874,0,0,0,184.788,153.287Zm10.15,13.895-0.062.006c0.1,0.982.187,1.964,0.294,2.944a3.526,3.526,0,0,0,.263,1.636,33.513,33.513,0,0,0,2.529,2.627,8.012,8.012,0,0,0,1.305,1.347,23.593,23.593,0,0,0,3.409,1.744,1.985,1.985,0,0,0,1.065-.739,4.321,4.321,0,0,0,.537-0.91c0.583-1,.461-1.177-0.637-1.517s-2.138-.8-3.193-1.236a7.432,7.432,0,0,1-1.945-.936c-0.537-.446-1.691-0.143-1.572-1.49a10.882,10.882,0,0,0-.8-5.9,3.118,3.118,0,0,0-.687-0.694,2.476,2.476,0,0,0-.574.9A17.818,17.818,0,0,0,194.937,167.182Zm80.211-79.469a18.59,18.59,0,0,0-.658,2.321,11.315,11.315,0,0,0-.3,3.746,6.266,6.266,0,0,0,2.894,4.27,6.2,6.2,0,0,1,1.853,1.333c0.912,1.226,2.239,1.326,3.516,1.54a0.844,0.844,0,0,0,1.109-.817c0.013-.7-0.425-0.644-0.914-0.7a2.8,2.8,0,0,1-1.464-.423c-0.974-.834-1.816-1.82-2.759-2.694-0.488-.452-1.1-0.767-1.618-1.191a1.891,1.891,0,0,1-.82-0.935c0.026-1.318.236-2.631,0.332-3.95A2.455,2.455,0,0,0,275.148,87.713Zm33.986,28.953c-0.658-2.362-.658-2.362-3.062-2.607a1.583,1.583,0,0,0-1.761,1.334c-0.209,1.325.522,2.127,2.05,2.145,1.03,0.012,2.236-.764,2.865.754a0.673,0.673,0,0,0,.192.079c1.322,0.866,2.631,1.754,3.971,2.591a6.807,6.807,0,0,0,1.274.484,4.5,4.5,0,0,0,.369-1.364,1.58,1.58,0,0,0-.645-0.866,5.56,5.56,0,0,1-1.361-.99C312.133,116.655,310.761,116.446,309.134,116.667ZM194.112,66.4a2.716,2.716,0,0,0-.571-0.905,0.991,0.991,0,0,0-.706.312q-1.351,1.2-2.649,2.45c-0.187.182-.224,0.511-0.4,0.718a12.532,12.532,0,0,1-1.424,1.578,25.859,25.859,0,0,0-3.075,2.5,16.853,16.853,0,0,0-2.183,3.7,1.828,1.828,0,0,0,.416,1.384,1.025,1.025,0,0,0,.994.071,10.1,10.1,0,0,0,2.135-2.84,4.263,4.263,0,0,1,1.918-2.716,1.15,1.15,0,0,0,.4-0.593,6.09,6.09,0,0,1,3.523-3.564,0.643,0.643,0,0,0,.285-0.136C193.235,67.708,193.672,67.049,194.112,66.4ZM173.88,125.954c1.953,0.085,2.493-.1,2.736-1.654a6.074,6.074,0,0,0-.472-3.334c-0.4-.86-1.5-0.384-2.318-0.244a2.988,2.988,0,0,1-.63.07c-1.557-.07-2.938,2.272-2.054,4.118C171.754,126.191,172.878,125.848,173.88,125.954Zm12.962-5.49c1.685-.431,3.5-0.887,5.306-1.371a0.7,0.7,0,0,0,.459-0.408,1.513,1.513,0,0,0-.091-1.053c-1.1-1.122-2.351-1.84-4-1.139-1.418.6-2.883,1.11-4.255,1.8a1.774,1.774,0,0,0-.407,1.38,1.51,1.51,0,0,0,.955.515C185.428,120.332,186.07,120.367,186.842,120.464Zm119.922-21a4.321,4.321,0,0,0-.274-0.97,10.775,10.775,0,0,0-1.625-2.439c-1.2-1.1-1.967-2.892-3.952-2.915a2.184,2.184,0,0,0-1.246.341,2.061,2.061,0,0,0,.386,1.541,9.1,9.1,0,0,1,3.792,4.241,2.144,2.144,0,0,0,.868,1.006,1.707,1.707,0,0,0,1.3.252A2.645,2.645,0,0,0,306.764,99.461ZM273.2,135.311a1.03,1.03,0,0,0,1.229-1.095,2.809,2.809,0,0,0-.008-1.351,2.793,2.793,0,0,1,.457-2.575,8.669,8.669,0,0,0,.838-2.236,1.126,1.126,0,0,0-.382-0.886,0.915,0.915,0,0,0-.834-0.078,3.846,3.846,0,0,0-2.439,3.627,29.476,29.476,0,0,1-.116,3.362C271.843,135.1,272,135.33,273.2,135.311Zm-29.057,25.384a1.424,1.424,0,0,0-1.35-1.92c-1.545-.247-1.935-0.018-1.67,1.5a6.534,6.534,0,0,1-.478,4.11,2.591,2.591,0,0,0,.3,1.916c0.341,0.677.836,0.491,1.146-.163a9.182,9.182,0,0,1,1.045-2.06A4.556,4.556,0,0,0,244.138,160.695Zm-1.514-8.535c-0.045-.28-0.082-0.479-0.109-0.68-0.168-1.24-.323-2.482-0.507-3.719a3.9,3.9,0,0,0-.389-1.711,2.456,2.456,0,0,0-1.6-.932,1.586,1.586,0,0,0-1.136,1.082,14.113,14.113,0,0,0,1.286,5.81,0.647,0.647,0,0,0,.511.248C241.3,152.255,241.932,152.2,242.624,152.159Zm55.169-31.488a12.139,12.139,0,0,0,1.554-.548c1.677-.808,1.4-2.52,1.687-3.941a1.082,1.082,0,0,0-.738-0.7,4.573,4.573,0,0,0-4.009,3.1A1.616,1.616,0,0,0,297.793,120.672Zm-94.3,65.742c-2.1-.069-3.149,1.36-4.46,2.213a1.943,1.943,0,0,0,.087,1.731,1.618,1.618,0,0,0,1.547.276,21.621,21.621,0,0,0,3.5-2.252,3.529,3.529,0,0,0,.587-1.508c-0.447-.151-0.893-0.3-1.342-0.449A0.355,0.355,0,1,1,203.49,186.414Zm3.866-63.464a1.141,1.141,0,0,0,1.207,1.389,5.679,5.679,0,0,1,3.4,1.438,1.317,1.317,0,0,0,1.18-.276,1.7,1.7,0,0,0-.216-1.12,8.077,8.077,0,0,0-.562-0.615,5.055,5.055,0,0,0-3.417-2.41C207.832,121.079,207.243,121.52,207.356,122.95Zm-36.612,8.833c0.056-1.581-.106-1.738-1.72-1.762-0.458-.007-0.914-0.1-1.372-0.108a0.936,0.936,0,0,0-.669.152c-0.361.619-1.016,1.392-.867,1.908a3.159,3.159,0,0,0,1.618,1.917A2.1,2.1,0,0,0,170.744,131.782ZM223.266,72.24a6.906,6.906,0,0,1,.417,1.016,1.8,1.8,0,0,0,3.171.839,7.759,7.759,0,0,0,1.282-1.35,2.8,2.8,0,0,0,.288-1.583,1.07,1.07,0,0,0-.8-0.661C226.136,70.93,224.392,70.753,223.266,72.24ZM219.281,181.16a3.842,3.842,0,0,0,2.97-1.441c0.934-.887.724-1.835-0.483-2.336a2.592,2.592,0,0,0-3.165.964,2.662,2.662,0,0,0-.8,1.644A1.29,1.29,0,0,0,219.281,181.16ZM217.986,59.009a8,8,0,0,0-1.262,2.121,12.363,12.363,0,0,0-.092,3.269,3.353,3.353,0,0,0,.693,1.2,10.67,10.67,0,0,0,.889-0.791,2.406,2.406,0,0,0,.244-0.579c0.337-.691.716-1.364,1.013-2.071a2.561,2.561,0,0,0,.424-1.574A7.781,7.781,0,0,0,217.986,59.009Zm21.719,5.6c0.037,2.029.43,2.512,1.476,2.081a4.155,4.155,0,0,0,2.5-2.426,1.684,1.684,0,0,0-.944-2.034,1.705,1.705,0,0,0-1.622.1A13,13,0,0,0,239.705,64.609ZM181.951,185.488a4.16,4.16,0,0,0-1.626.931,1.53,1.53,0,0,0,.621,2.091,2.9,2.9,0,0,0,2.893.329,2.248,2.248,0,0,0,1.274-1.308,1.953,1.953,0,0,0-.973-1.248A11.645,11.645,0,0,0,181.951,185.488Zm29.292,0.1c1.077-.61,2.279-1.184,3.353-1.94a0.858,0.858,0,0,0-.329-1.508c-1.3-.427-4.1.392-4.815,1.508a1.2,1.2,0,0,0,.157,1.141A6.234,6.234,0,0,0,211.242,185.586Zm77.3-59.171a0.889,0.889,0,0,0,.057.377c0.237,0.476.51,0.935,0.769,1.4a9.166,9.166,0,0,0,1.35-.86,10.109,10.109,0,0,0,1.249-1.44,1.35,1.35,0,0,0-.115-1.819,1.284,1.284,0,0,0-1.664-.684A3.771,3.771,0,0,0,288.547,126.415Zm-66.719,7.914a11.07,11.07,0,0,0-1.46-2.481,3.3,3.3,0,0,0-1.978-.53,1.182,1.182,0,0,0-.883.657,1.987,1.987,0,0,0,1.25,2.3c0.426,0.232.8,0.55,1.22,0.8a2.191,2.191,0,0,0,.994.5A4.646,4.646,0,0,0,221.828,134.329Zm3.712,21.344,0.177,0.123a10.091,10.091,0,0,0,.224,1.25,1.245,1.245,0,0,0,2.227.636c1.031-.912.734-3.656-0.5-4.287a0.891,0.891,0,0,0-.823.063C226.362,154.16,225.967,154.928,225.54,155.672Zm20.248-82.218a2.289,2.289,0,0,0-.716-0.788,3.417,3.417,0,0,1-2.814-2.256,1.074,1.074,0,0,0-.869-0.541,1.281,1.281,0,0,0-.836.82,2.507,2.507,0,0,0,.524,1.578,13.542,13.542,0,0,0,2.38,2.032,1.93,1.93,0,0,0,1.436.215A3,3,0,0,0,245.788,73.455ZM219.7,72.369a3.1,3.1,0,0,0,.91-0.277,1.72,1.72,0,0,0,.785-0.856,1.227,1.227,0,0,0-.612-0.837c-0.892-.554-1.822-1.051-2.76-1.524A0.978,0.978,0,0,0,217.2,68.8a1.443,1.443,0,0,0-.488.976A3.309,3.309,0,0,0,219.7,72.369Zm74.673,67.7c0.036,1.274.781,2.108,2.424,2.51a1.874,1.874,0,0,0,2.21-1.482,0.961,0.961,0,0,0-.429-0.761,21.655,21.655,0,0,0-3.109-1.162C295.088,139.067,294.222,138.82,294.372,140.064Zm17.806-3.179-0.043-.116c-0.489.167-.969,0.366-1.468,0.492a1.05,1.05,0,0,0-.861,1.489,2.325,2.325,0,0,0,1.375,1.008,2.079,2.079,0,0,0,2.413-1.094,1,1,0,0,0-.675-1.732A4.787,4.787,0,0,0,312.178,136.885Zm3.184-10.083a3.054,3.054,0,0,0,.893,2.81,1.246,1.246,0,0,0,.964.415,1.041,1.041,0,0,0,.581-0.823,15.5,15.5,0,0,0-.366-2.588c-0.158-.732-0.226-1.724-1.294-1.6S315.4,126.1,315.362,126.8Zm-22.6,10.576a2.769,2.769,0,0,0,1.2-.615,1.7,1.7,0,0,0-.182-1.36,7.074,7.074,0,0,0-1.739-1.667,1.235,1.235,0,0,0-1.787.232c-0.639.745-.049,1.033,0.338,1.464a10.5,10.5,0,0,0,.78.981A14.47,14.47,0,0,0,292.764,137.378Zm-128.3,8.56c-0.988-.015-2.244.884-2.226,1.593a2.122,2.122,0,0,0,1.739,1.765,2.071,2.071,0,0,0,1.94-1.519A2.707,2.707,0,0,0,164.465,145.938Zm59.858-5.536a7.062,7.062,0,0,1-.6-1.287,0.974,0.974,0,0,0-1.3-.746,1.71,1.71,0,0,0-1.164.68,2.253,2.253,0,0,0,.147,1.448,10.173,10.173,0,0,0,.747,1.256c0.369,0.7.951,0.853,1.393,0.249A9.465,9.465,0,0,0,224.323,140.4Zm4.524-73a1.389,1.389,0,0,0,.613.548c0.558-.077,1.33.1,1.477-0.83,0.164-1.036.434-2.056,0.6-3.093a5.939,5.939,0,0,0-.068-1.266,3.007,3.007,0,0,0-1.382.705A38.289,38.289,0,0,0,228.847,67.4ZM188.334,190.669c1.116,0.213,2.179.486,3.259,0.6,0.85,0.091,1.134-.39.86-1.215a2.634,2.634,0,0,0-2.343-1.641C189.03,188.537,188.53,189.118,188.334,190.669Zm8.434-126.761c-0.717-.014-1.684.835-1.417,1.385,0.577,1.192,2.718,1.761,3.7.921a1.458,1.458,0,0,0,.41-1.1,1.2,1.2,0,0,0-.673-0.822A12.58,12.58,0,0,0,196.768,63.908Zm4.27,55.787a4.432,4.432,0,0,0-1.782.421,3.5,3.5,0,0,0-.9,1.73,1.508,1.508,0,0,0,1.065.715,6.432,6.432,0,0,0,2.243-1,1.42,1.42,0,0,0,.356-1.276A2.023,2.023,0,0,0,201.038,119.695Zm106.694,20.71a1.832,1.832,0,0,0-1.7-1.758,1.953,1.953,0,0,0-1.994,1.3,1.305,1.305,0,0,0,.912,1.593C306.3,142.226,306.809,140.848,307.732,140.405ZM167.858,176.737c0.62-.437,1.255-0.83,1.819-1.308a1.276,1.276,0,0,0,.508-0.905,1.127,1.127,0,0,0-.749-0.77,3.769,3.769,0,0,0-2.138.54,3.312,3.312,0,0,0-.448,1.96A3.483,3.483,0,0,0,167.858,176.737Zm60.7-27.987a1.953,1.953,0,0,0-1.5-1.747,2.068,2.068,0,0,0-1.657,1.654,1.393,1.393,0,0,0,1.406,1.373A2.079,2.079,0,0,0,228.558,148.75Zm-57.205,32.144c0,0.929,1.011,2.114,1.74,1.932a2.1,2.1,0,0,0,1.266-1.158c0.225-.625-1.212-1.992-1.918-1.971A1.138,1.138,0,0,0,171.352,180.894ZM224.5,60.968c0.915,0.02,2.237-.767,2.13-1.283-0.139-.67-0.037-1.614-1.036-1.727a2.032,2.032,0,0,0-1.933,1.885C223.679,60.424,223.771,61.019,224.5,60.968ZM249.473,75a30.834,30.834,0,0,0,2.683-1.868,0.854,0.854,0,0,0,.052-1.442,1.145,1.145,0,0,0-1.688.088A3.981,3.981,0,0,0,249.473,75Zm-23.3,90.67a1.764,1.764,0,0,0-1.63,2.31,5.358,5.358,0,0,0,.489,1.127c0.369-.223.756-0.422,1.1-0.678a2.387,2.387,0,0,0,.568-0.628,1.625,1.625,0,0,0,.43-0.913A6.767,6.767,0,0,0,226.173,165.671Zm-62.588,5.094a2.853,2.853,0,0,0,2.811.71,0.981,0.981,0,0,0,.674-1.473,1.9,1.9,0,0,0-1.373-.906A10.734,10.734,0,0,0,163.585,170.765Zm1.317-32.094c-1.233.4-1.675,1.106-1.469,2.025a1.649,1.649,0,0,0,1.057.9,1.161,1.161,0,0,0,.874-0.687A12.888,12.888,0,0,0,164.9,138.672ZM248.308,62.5a5.185,5.185,0,0,0,2.721,2.435,0.865,0.865,0,0,0,.653-0.384,0.784,0.784,0,0,0-.188-0.7,3.925,3.925,0,0,0-1.188-.842A15.524,15.524,0,0,0,248.308,62.5Zm-83.477,97.87,0.046-.482a5.114,5.114,0,0,0-1.531-.934,1.513,1.513,0,0,0-.843,1.1,1.627,1.627,0,0,0,1.127.962A2.613,2.613,0,0,0,164.831,160.373Z"/>
  <path id="_Path_" data-name="&lt;Path&gt;" class="cls-2" d="M110.071,252.557c2.771,0,5.557.172,8.31-.05a62.6,62.6,0,0,0,7.6-1.308,4.126,4.126,0,0,0,1.934-1.039c1.026-1,2.35-1,3.575-1.387,2.257-.711,4.481-1.529,6.7-2.343,1.756-.643,3.459-1.449,5.241-2,3.454-1.072,7.1-1.551,10.245-3.552a4.116,4.116,0,0,1,1.889-.552c2.05-.129,3.674-1.356,5.514-2.014a49.287,49.287,0,0,0,5.318-2.3c2.091-1.038,4.429-1.565,6.611-2.436,2.673-1.066,5.305-2.239,7.938-3.4,1.508-.667,2.96-1.465,4.482-2.1,0.76-.315,1.642-0.322,2.432-0.58,2.076-.679,4.136-1.405,6.19-2.147A5.893,5.893,0,0,0,195,224.7a1.716,1.716,0,0,1,.905-0.45,2.088,2.088,0,0,0,1.937-.584,8.542,8.542,0,0,1,4.417-1.636,4.993,4.993,0,0,0,1.854-.68c2.445-1.245,4.842-2.587,7.312-3.779,3.808-1.838,7.756-3.407,11.462-5.425,2.778-1.512,5.725-2.593,8.528-4,1.338-.673,2.544-1.605,3.82-2.406a2.577,2.577,0,0,1,1.115-.56c1.88-.022,3.255-1.2,4.8-1.977,1.916-.965,3.825-1.948,5.764-2.865a35.852,35.852,0,0,0,6.6-3.937,42.13,42.13,0,0,1,5.15-2.923c2.242-1.26,4.5-2.5,6.708-3.814s4.328-2.734,6.527-4.042c1.088-.648,2.264-1.147,3.4-1.717,1.422-.715,2.856-1.409,4.26-2.157s2.813-1.555,4.2-2.362a5.781,5.781,0,0,0,1.1-.842,18.147,18.147,0,0,1,4.311-2.927,37.865,37.865,0,0,0,4.939-3.762,14.524,14.524,0,0,1,1.5-.873,8.175,8.175,0,0,0,2.037-1.265,8,8,0,0,1,2.741-1.793,27.591,27.591,0,0,0,3.089-2.152c2.5-1.659,5.016-3.291,7.534-4.919,1.561-1.01,3.107-2.05,4.719-2.973,1.531-.876,3.208-1.507,4.7-2.441,3.067-1.921,6.268-3.622,8.95-6.159a16.375,16.375,0,0,1,5.9-3.95c1.824-.625,3.381-2.031,5.051-3.1,0.439-.281.855-0.6,1.277-0.9,2.011-1.46,4.036-2.9,6.02-4.4A6.785,6.785,0,0,0,349,135.479a6,6,0,0,1,3.6-2.759,1.889,1.889,0,0,0,1.083-1.011,4.374,4.374,0,0,1,3.334-2.794,1.226,1.226,0,0,0,.488-0.2c2.133-1.549,4.269-3.093,6.384-4.666,1.387-1.031,2.818-2.019,4.092-3.178,1.787-1.625,3.447-3.388,5.158-5.1,1.614-1.611,3.185-3.266,4.848-4.824,0.887-.831,2-1.419,2.879-2.258,1.106-1.058,2.019-2.315,3.113-3.387,1.861-1.826,3.806-3.565,5.7-5.358,1.52-1.439,3.014-2.906,4.522-4.358,1.12-1.078,2.255-2.141,3.365-3.23,1.552-1.524,3.154-3,4.612-4.614,2.269-2.507,4.434-5.109,6.645-7.669,1.039-1.2,1.9-2.667,3.163-3.543,1.7-1.18,2.63-2.915,3.843-4.423,1.734-2.157,3.206-4.525,4.757-6.826,0.6-.89,1.078-1.861,1.665-2.76,1.1-1.681,2.343-3.273,3.322-5.016,1.447-2.576,1.519-5.458,1.252-8.3a8.167,8.167,0,0,0-1.193-2.56,3.613,3.613,0,0,1-.459-0.7c-0.381-1.892-2.052-2.455-3.414-3.3a5.1,5.1,0,0,0-1.6-.418c-0.783-.169-1.565-0.362-2.358-0.464a19.283,19.283,0,0,0-2.883-.217c-1.351.031-2.7,0.181-4.048,0.3a3.829,3.829,0,0,0-1.028.234,26.188,26.188,0,0,1-4,1.548c-1.84.379-3.6,1.54-5.625,0.766a2.12,2.12,0,0,0-1.013.207c-2.636.647-5.288,1.235-7.9,1.961-2.545.706-5.047,1.565-7.574,2.333-1.247.379-2.534,0.639-3.76,1.073-1.531.542-3,1.264-4.528,1.807a33.8,33.8,0,0,0-5.544,1.973,7.992,7.992,0,0,1-3.9.764,13.289,13.289,0,0,0-7.261,2.411,3.758,3.758,0,0,1-2.916.557,1.922,1.922,0,0,0-1.212.222c-1.471.768-2.9,1.619-4.369,2.389-0.677.354-1.416,0.591-2.126,0.882-1.208.495-2.444,0.932-3.619,1.5-2.258,1.086-4.483,2.24-6.717,3.378a8.685,8.685,0,0,0-1.089.667c-1.433,1.02-2.413.928-3.644-.364-0.171-.18-0.346-0.358-0.509-0.545a1.188,1.188,0,0,1,.288-2.034,5.071,5.071,0,0,1,1.438-.676c2.907-.74,5.236-2.579,7.767-4.033a1.815,1.815,0,0,1,.537-0.313,11.89,11.89,0,0,0,4.369-2.027,47.17,47.17,0,0,1,4.932-2.161c2.338-1.044,4.657-2.131,6.985-3.2a38.568,38.568,0,0,0,4.7-2.179c2.766-1.752,5.994-2.319,8.878-3.732,2.649-1.3,5.272-2.652,7.938-3.914,1.865-.883,3.978-1.38,5.621-2.552s3.47-1.429,5.233-1.946a68.691,68.691,0,0,0,9.558-3.815c1.723-.8,3.585-1.294,5.377-1.948,1.125-.41,2.266-0.8,3.345-1.307,2.348-1.114,5-1.509,7.15-3.129,0.681-.512,1.741-0.492,2.589-0.816,1.309-.5,2.583-1.086,3.874-1.631,1.975-.834,4-1.57,5.913-2.528a18.929,18.929,0,0,1,4.671-1.319,20.991,20.991,0,0,0,4.165-1.478c2.092-.948,4.076-2.143,6.194-3.02,2.232-.924,4.586-1.55,6.853-2.395,1.6-.6,3.14-1.35,4.714-2.015,1.068-.452,2.139-0.9,3.227-1.3q3.163-1.157,6.35-2.25c2.32-.8,4.641-1.6,6.978-2.344,1.9-.6,3.8-1.477,5.736-1.576,1.454-.075,2.971.866,4.438,1.412a1.147,1.147,0,0,1,.581.732c0.361,1.595,1.058,3.055.976,4.825-0.112,2.43-1.441,4.506-1.557,6.87-0.078,1.575-1,2.66-1.8,3.9-1.646,2.568-2.932,5.375-4.655,7.884a22.32,22.32,0,0,1-4.245,4.432,38.228,38.228,0,0,0-5.109,5.74c-1.57,1.932-2.943,4.023-4.478,5.985-0.511.653-1.318,1.066-1.878,1.689-1.81,2.013-3.548,4.091-5.354,6.108-0.814.909-1.726,1.731-2.585,2.6a1.015,1.015,0,0,0-.292.44c-0.624,2.824-2.866,4.317-4.862,6.049a56.844,56.844,0,0,0-4.647,4.491c-1.556,1.7-2.937,3.553-4.423,5.315a5.546,5.546,0,0,1-1.07.858c-1,.711-2.027,1.39-3.02,2.114a19.523,19.523,0,0,0-4.669,4.244A17.707,17.707,0,0,1,425.36,83.5c-1.809,1.372-3.479,2.929-5.189,4.43a14.393,14.393,0,0,0-2.8,2.662c-1.338,2.079-3.6,3.092-5.181,4.888-1.09,1.235-2.72,1.978-4.032,3.035-0.721.581-1.235,1.413-1.93,2.034a19.789,19.789,0,0,1-2.622,2.021,13.379,13.379,0,0,0-4.117,3.6,8.326,8.326,0,0,1-2.258,1.854c-1.107.751-2.27,1.421-3.419,2.109a13.294,13.294,0,0,0-1.969,1.141c-1.056.918-1.945,2.033-3.015,2.932-1.506,1.263-3.126,2.389-4.675,3.6-1.513,1.185-2.979,2.428-4.5,3.6-1.771,1.371-3.556,2.725-5.371,4.037-2.919,2.109-5.848,4.2-8.811,6.249-1.591,1.1-3.241,2.114-4.9,3.1-1.221.727-2.565,1.258-3.746,2.04-2.4,1.585-4.742,3.253-7.065,4.947a9.14,9.14,0,0,0-1.787,1.8,13.117,13.117,0,0,1-4,3.106,19.025,19.025,0,0,0-2.893,2.292,14.04,14.04,0,0,1-3.109,2.639A30.612,30.612,0,0,0,334,154.4c-3.285,2.317-6.523,4.706-9.889,6.9a55.781,55.781,0,0,1-5.606,2.867,1.124,1.124,0,0,1-.5.14c-1.915-.05-3.067,1.3-4.35,2.384-0.729.614-1.37,1.332-2.051,2a0.592,0.592,0,0,1-.227.21c-2.079.078-3.171,2.194-5.179,2.493a7,7,0,0,0-1.668,1.085,33.932,33.932,0,0,0-3.592,1.8c-1.469,1.017-2.773,2.274-4.152,3.422-0.454.378-.917,0.746-1.389,1.1a2.786,2.786,0,0,0-.554.3c-1.257,1.647-3.131,1.973-4.971,2.461a9.21,9.21,0,0,0-2.2,1.232q-6.011,3.646-12.015,7.3a9.942,9.942,0,0,0-.975.633,46.129,46.129,0,0,1-4.132,3.215,25.963,25.963,0,0,1-4.766,2.2c-2.461.887-4.373,2.551-6.387,4.1a16.914,16.914,0,0,1-1.859,1.107c-2.225,1.293-4.413,2.655-6.686,3.858-2.9,1.535-5.859,2.958-8.809,4.4a30.288,30.288,0,0,0-7.376,5.193,4.3,4.3,0,0,1-2.031.767c-2.1.426-3.6,1.883-5.349,2.929-1.175.705-2.35,1.416-3.566,2.045-2.7,1.4-5.45,2.7-8.119,4.145a7.547,7.547,0,0,1-2.248.921,7.151,7.151,0,0,0-2.8,1.366,13.8,13.8,0,0,1-3.87,2.045,25.432,25.432,0,0,0-4.77,2.055,61.031,61.031,0,0,1-6.534,2.822c-2.335,1.032-4.634,2.147-6.954,3.214-0.706.325-1.447,0.578-2.143,0.922a6.58,6.58,0,0,0-.98.734,5.813,5.813,0,0,1-1.241.916c-2.45.955-4.923,1.85-7.388,2.765-0.4.147-.807,0.261-1.189,0.439-1.716.8-3.415,1.637-5.138,2.422-1.758.8-3.521,1.6-5.314,2.312-0.722.288-1.546,0.311-2.295,0.546a7.139,7.139,0,0,0-1.46.735c-1.034.615-2.049,1.263-3.079,1.886a1.8,1.8,0,0,1-.682.291c-2.94.323-5.247,2.184-7.883,3.243-1.927.775-3.723,1.988-5.708,2.481-2.856.71-4.843,2.872-7.464,3.9-1.932.759-3.914,1.423-5.771,2.336a25.907,25.907,0,0,1-6.594,2.45,2.062,2.062,0,0,0-.926.509,5.055,5.055,0,0,1-3.042,1.214c-1.142.128-2.2,0.923-3.321,1.357-2.913,1.128-5.849,2.2-8.759,3.335a23.793,23.793,0,0,0-3.675,1.656,10.428,10.428,0,0,1-3.841,1.378,23.671,23.671,0,0,0-3.952,1.046,44.691,44.691,0,0,0-4.887,1.955c-1.729.838-3.342,1.916-5.056,2.789a19.717,19.717,0,0,1-3.188,1.23c-2.739.837-5.507,1.579-8.24,2.432-0.823.257-1.555,0.792-2.357,1.134-2.3.983-4.6,1.991-6.936,2.873a33.615,33.615,0,0,1-4.093,1.132,50.681,50.681,0,0,0-9.161,3.254,24.921,24.921,0,0,1-8.136,2.025,41.2,41.2,0,0,0-4.445.9q-3.218.657-6.44,1.293a3.644,3.644,0,0,0-.932.172c-2.288,1.175-4.784,1.161-7.245,1.246s-4.917.039-7.375,0.024a6.159,6.159,0,0,1-1.215-.213q-2.964-.631-5.925-1.276a0.885,0.885,0,0,1-.536-0.232c-0.29-1.678-1.933-2.136-2.855-3.234a3.812,3.812,0,0,1-.411-0.925q-0.48-1.081-.965-2.159a10.263,10.263,0,0,1-.691-1.564c-0.824-3.2.5-5.79,2.225-8.362a60.733,60.733,0,0,0,2.978-5.578,4.082,4.082,0,0,1,.549-0.885c2.857-3.087,5.662-6.226,8.627-9.207a41.518,41.518,0,0,1,4-2.911c2-1.568,3.936-3.205,5.883-4.834,1.346-1.126,2.666-2.283,3.99-3.434,2.094-1.82,4.148-3.689,6.285-5.457,1.47-1.215,3.054-2.293,4.586-3.434a2.067,2.067,0,0,0,.331-0.268c2.074-2.359,4.839-3.769,7.42-5.437,1.3-.842,2.589-1.722,3.813-2.674,0.661-.514,1.1-1.323,1.768-1.817,2.284-1.684,4.617-3.3,6.949-4.919,3.695-2.562,7.831-4.44,11.246-7.457,1.275-1.127,2.981-1.751,4.4-2.738,1.625-1.133,3.129-2.437,4.717-3.625,1.161-.869,2.386-1.653,3.559-2.508a31.32,31.32,0,0,1,3.224-2.407c2.083-1.136,3.538-3.152,5.89-3.93a15.3,15.3,0,0,0,3.084-1.874c2.814-1.779,5.649-3.527,8.43-5.356,1.853-1.219,3.616-2.574,5.445-3.831,1.223-.841,2.479-1.635,3.739-2.42a20.067,20.067,0,0,0,3.745-2.326c1.82-1.821,4.058-3.025,6.034-4.6,1.855-1.479,3.7-2.989,5.661-4.313,2.175-1.465,4.463-2.769,6.742-4.073a38.027,38.027,0,0,1,3.618-1.738c0.62-.272,1.136-0.179,1.112.695a0.74,0.74,0,0,0,.091.508c1.415,0.878.284,1.552-.274,2.019-1.412,1.181-2.93,2.237-4.426,3.315-3.013,2.171-6.1,4.244-9.043,6.505-2.543,1.954-4.953,4.084-7.372,6.193-1.161,1.012-2.227,2.137-3.3,3.246-2.084,2.154-3.953,4.568-6.272,6.424-1.729,1.384-2.78,3.216-4.267,4.724-0.218.221-.508,0.37-0.74,0.579-1.144,1.028-2.287,2.056-3.414,3.1a18.779,18.779,0,0,0-1.481,1.5c-1.167,1.358-2.252,2.791-3.472,4.1-0.741.795-1.706,1.376-2.5,2.125a9.416,9.416,0,0,0-1.219,1.555c-1.527,2.213-3.06,4.422-4.545,6.664a11.2,11.2,0,0,0-1.559,2.831,36.676,36.676,0,0,0-1.194,5.584,55.9,55.9,0,0,0-.357,5.828,3.465,3.465,0,0,0,1.269,2.706c1.094,1,2.069,2.136,3.167,3.134,1.529,1.389,3.561,1.682,5.434,2.281C103.331,253.1,106.724,252.619,110.071,252.557Z"/>
  <path id="_Compound_Path_3" data-name="&lt;Compound Path&gt;" class="cls-1" d="M359.318,141.128a55.272,55.272,0,0,1-.7,11.078,25.318,25.318,0,0,0-.3,4.557,16.577,16.577,0,0,1-1.1,6.128c-0.778,1.964-1.311,4.024-2.018,6.019-0.637,1.8-1.4,3.551-2.043,5.345-0.789,2.188-1.459,4.419-2.294,6.588-0.428,1.11-1.192,2.089-1.644,3.193-0.665,1.624-1.112,3.337-1.785,4.957-1.06,2.551-2.1,5.125-3.389,7.563a38.393,38.393,0,0,1-5.259,7.958c-1.13,1.253-1.93,2.8-2.944,4.165-0.993,1.337-2.056,2.623-3.113,3.912-2.068,2.522-4.1,5.076-6.257,7.521a21.924,21.924,0,0,1-2.946,2.416c-2.889,2.295-5.745,4.634-8.687,6.86-2.146,1.624-4.368,3.154-6.631,4.611-1.216.783-2.6,1.3-3.888,1.977-2.632,1.4-5.228,2.862-7.874,4.229a29.346,29.346,0,0,1-8.82,3.319c-3.421.551-6.755,1.628-10.144,2.4-2.242.511-4.522,0.853-6.77,1.338-3.985.86-7.952,1.8-11.94,2.642-1.1.232-2.26,0.191-3.386,0.329-1.369.168-2.727,0.426-4.1,0.583s-2.742.284-4.117,0.335c-1.73.065-3.464,0.062-5.2,0.044-1.345-.014-2.7-0.024-4.033-0.167-1.755-.188-3.492-0.539-5.244-0.759-2.768-.347-5.545-0.618-8.312-0.977a12.6,12.6,0,0,1-2.9-.655,37.78,37.78,0,0,0-8.81-1.862,38.622,38.622,0,0,1-5.482-1.227c-2.383-.678-4.736-1.464-7.079-2.272a12.882,12.882,0,0,1-2.158-1.124c-0.827-.478-1.618-1.019-2.448-1.492a1.794,1.794,0,0,1-1.13-1.765,1.935,1.935,0,0,1,1.432-1.8,19.361,19.361,0,0,0,5.608-2.477,7.42,7.42,0,0,1,1.734-.347,17.286,17.286,0,0,0,5.027-2.528,9.2,9.2,0,0,1,4.655-2.185c0.788-.078,1.483-0.864,2.276-1.2s1.691-.447,2.5-0.767c0.939-.372,1.825-0.875,2.744-1.3a16.548,16.548,0,0,1,2.237-.946,13.45,13.45,0,0,0,4.287-2.231,11.131,11.131,0,0,1,2.223-1.213,57.572,57.572,0,0,0,8.8-5.154c1.8-1.2,3.978-1.81,5.932-2.794,1.053-.53,1.976-1.311,2.985-1.934,0.98-.605,1.973-1.2,3-1.716,1.255-.634,2.587-1.122,3.822-1.79a23.258,23.258,0,0,0,4.2-2.591,7.823,7.823,0,0,1,4.123-2.157,4.5,4.5,0,0,0,1.491-.791q3.7-2.224,7.4-4.462a0.894,0.894,0,0,0,.263-0.172c1.865-2.466,4.9-3,7.381-4.442a12.249,12.249,0,0,1,2.733-1.074c1.538-.446,2.341-1.73,3.4-2.742a8.413,8.413,0,0,1,1.678-1.044c0.773-.445,1.561-0.864,2.336-1.305,0.392-.223.763-0.483,1.155-0.707,1.144-.656,2.3-1.3,3.437-1.957,0.324-.187.616-0.427,0.934-0.624,0.954-.59,1.9-1.188,2.874-1.75,1.337-.774,2.737-1.448,4.029-2.29,3.386-2.207,6.717-4.5,10.092-6.724,1.334-.879,2.632-2.083,4.109-2.417,2.789-.63,4.2-3.076,6.505-4.262,1-.512,2.031-0.952,3.008-1.5,0.733-.409,1.4-0.93,2.1-1.409a3.646,3.646,0,0,1,.4-0.347,26.7,26.7,0,0,0,3.752-1.809c2.232-1.546,4.988-2.139,6.885-4.393,1.311-1.558,3.375-2.477,5.08-3.712,0.782-.566,1.5-1.218,2.267-1.807,0.661-.509,1.358-0.969,2.018-1.479,0.75-.58,1.495-1.17,2.209-1.793,1.645-1.434,3.24-2.929,4.915-4.327,1.273-1.062,2.63-2.023,3.971-3A3.519,3.519,0,0,1,359.318,141.128ZM315.484,198.75a17.389,17.389,0,0,0-.559-2.325,1.177,1.177,0,0,0-1.091-.305,1.6,1.6,0,0,0-.848,1,28.541,28.541,0,0,0-.339,3.33c-0.072,1.106-.046,2.219-0.144,3.322a1.936,1.936,0,0,1-1.727,1.765,8.911,8.911,0,0,1-4.7-.113,1.888,1.888,0,0,0-1.007.14c-0.943.282-1.875,0.6-2.813,0.9-0.764.241-1.554,0.415-2.294,0.714-1.718.694-3.22,1.986-5.242,1.835a1.551,1.551,0,0,0-.7.236c-0.957.459-1.222,1.225-.452,1.918a3.274,3.274,0,0,0,2.24.932,9.073,9.073,0,0,0,4.549-1.826,3.613,3.613,0,0,1,2.492-.815,8.321,8.321,0,0,0,3.313-.23c1.917-.442,3.872-0.721,5.815-1.047,1.927-.323,2.865-1.127,3.1-3.065C315.308,203.157,315.337,201.176,315.484,198.75Zm-2.524-8.516a5.592,5.592,0,0,0,1.6-.607,8.267,8.267,0,0,0,1.443-1.68,3.753,3.753,0,0,1,4.093-1.755c0.859,0.171,1.748.185,2.62,0.292a1.019,1.019,0,0,0,1.237-1,1.483,1.483,0,0,0-.785-1.117,5.574,5.574,0,0,0-3.815-.391c-0.5.152-1.068,0.067-1.579,0.194a4.557,4.557,0,0,0-2.029.71C314.318,186.26,312.782,187.657,312.96,190.234Zm-50.591,22.688a5.013,5.013,0,0,1,.647.612c0.882,1.2,2.318.83,3.487,1.192a3.355,3.355,0,0,0,1.264-.539,1.446,1.446,0,0,1,.938-0.09c0.554,0.874,1.637.633,2.347,1.182a2.217,2.217,0,0,0,1.154-.183,2.2,2.2,0,0,0-.4-1.089A2.953,2.953,0,0,1,269.9,212.4a1.088,1.088,0,0,0-.387-0.041,38.513,38.513,0,0,1-3.924-.616C263.549,211.219,263.205,211.272,262.369,212.922Zm-0.292,12.226a16.407,16.407,0,0,1-.691-7.178,2.849,2.849,0,0,0-.583-1.147,3.793,3.793,0,0,0-.91.829c-0.43.786-.716,1.649-1.122,2.449a1.189,1.189,0,0,0,.375,1.806,1.962,1.962,0,0,1,.607.82c0.314,0.671.552,1.377,0.86,2.051A0.9,0.9,0,0,0,262.077,225.147Zm2.83,1.616c-1.7.22-1.726,0.255-1.26,1.811,0.27,0.9.935,1.149,2.011,0.5a1.172,1.172,0,0,1,1.909.468c0.389,0.677.9,0.509,1.426,0.22a3.683,3.683,0,0,0,.742-0.452,1.408,1.408,0,0,0,.576-0.767,1.207,1.207,0,0,0-.6-0.9C268.121,227.288,266.51,227.044,264.907,226.763Zm9.311,1.223a8.323,8.323,0,0,0,1.188-.329,1.917,1.917,0,0,0,.937-2.809,1.047,1.047,0,0,0-1.825-.249C273.368,225.711,273.332,226.06,274.218,227.985Zm4.146-7.522-1.219-1.519a3.868,3.868,0,0,0-1.168,1.305,1.007,1.007,0,0,0,.987,1.307A4.089,4.089,0,0,0,278.365,220.464Z"/>
  <path id="_Path_2" data-name="&lt;Path&gt;" d="M184.788,153.287a17.874,17.874,0,0,1-.939,1.718c-0.812,1.156-1.692,2.249-1.626,3.8a5.387,5.387,0,0,1-.32,1.716c-0.482,1.606.777,2.742,1.055,4.133a4.5,4.5,0,0,1,.035,2.156c-0.362,1.123.22,1.663,0.9,2.33a2.1,2.1,0,0,1,.676,1.443c-0.231,2.059.622,3.179,2.722,3.5a1.393,1.393,0,0,1,.742.939,1.115,1.115,0,0,1-.747.681,3.227,3.227,0,0,1-3.137-1.323,45.7,45.7,0,0,1-3.079-5.491,4.905,4.905,0,0,1,.035-2.4,7.715,7.715,0,0,0-.875-4.605,3.737,3.737,0,0,1-.174-2.006c0.116-1.082.446-2.142,0.567-3.224A3.632,3.632,0,0,1,184.788,153.287Z"/>
  <path id="_Path_3" data-name="&lt;Path&gt;" d="M194.937,167.182a17.818,17.818,0,0,1-.069-2.216,2.476,2.476,0,0,1,.574-0.9,3.118,3.118,0,0,1,.687.694,10.882,10.882,0,0,1,.8,5.9c-0.119,1.347,1.035,1.044,1.572,1.49a7.432,7.432,0,0,0,1.945.936c1.055,0.436,2.105.9,3.193,1.236s1.219,0.519.637,1.517a4.321,4.321,0,0,1-.537.91,1.985,1.985,0,0,1-1.065.739,23.593,23.593,0,0,1-3.409-1.744,8.012,8.012,0,0,1-1.305-1.347,33.513,33.513,0,0,1-2.529-2.627,3.526,3.526,0,0,1-.263-1.636c-0.107-.98-0.2-1.963-0.294-2.944Z"/>
  <path id="_Path_4" data-name="&lt;Path&gt;" d="M275.148,87.713a2.455,2.455,0,0,1,1.173,2.5c-0.1,1.318-.306,2.632-0.332,3.95a1.891,1.891,0,0,0,.82.935c0.517,0.424,1.13.739,1.618,1.191,0.943,0.873,1.785,1.86,2.759,2.694a2.8,2.8,0,0,0,1.464.423c0.489,0.051.927,0,.914,0.7a0.844,0.844,0,0,1-1.109.817c-1.277-.214-2.6-0.314-3.516-1.54a6.2,6.2,0,0,0-1.853-1.333,6.266,6.266,0,0,1-2.894-4.27,11.315,11.315,0,0,1,.3-3.746A18.59,18.59,0,0,1,275.148,87.713Z"/>
  <path id="_Path_5" data-name="&lt;Path&gt;" d="M309.134,116.667c1.627-.22,3-0.012,3.894,1.559a5.56,5.56,0,0,0,1.361.99,1.58,1.58,0,0,1,.645.866,4.5,4.5,0,0,1-.369,1.364,6.807,6.807,0,0,1-1.274-.484c-1.34-.837-2.649-1.725-3.971-2.591a0.673,0.673,0,0,1-.192-0.079c-0.629-1.518-1.836-.742-2.865-0.754-1.528-.018-2.259-0.82-2.05-2.145a1.583,1.583,0,0,1,1.761-1.334C308.475,114.305,308.475,114.305,309.134,116.667Z"/>
  <path id="_Path_6" data-name="&lt;Path&gt;" d="M194.112,66.4c-0.44.653-.877,1.312-1.329,1.961a0.643,0.643,0,0,1-.285.136,6.09,6.09,0,0,0-3.523,3.564,1.15,1.15,0,0,1-.4.593,4.263,4.263,0,0,0-1.918,2.716,10.1,10.1,0,0,1-2.135,2.84,1.025,1.025,0,0,1-.994-0.071,1.828,1.828,0,0,1-.416-1.384,16.853,16.853,0,0,1,2.183-3.7,25.859,25.859,0,0,1,3.075-2.5,12.532,12.532,0,0,0,1.424-1.578c0.171-.207.208-0.536,0.4-0.718q1.3-1.256,2.649-2.45a0.991,0.991,0,0,1,.706-0.312A2.716,2.716,0,0,1,194.112,66.4Z"/>
  <path id="_Path_7" data-name="&lt;Path&gt;" d="M173.88,125.953c-1-.1-2.127.238-2.739-1.042-0.883-1.846.5-4.187,2.054-4.118a2.988,2.988,0,0,0,.63-0.07c0.816-.14,1.916-0.616,2.318.244a6.074,6.074,0,0,1,.472,3.334C176.373,125.856,175.833,126.039,173.88,125.953Z"/>
  <path id="_Path_8" data-name="&lt;Path&gt;" d="M186.842,120.464c-0.772-.1-1.415-0.132-2.033-0.274a1.51,1.51,0,0,1-.955-0.515,1.774,1.774,0,0,1,.407-1.38c1.372-.692,2.837-1.2,4.255-1.8,1.649-.7,2.9.016,4,1.139a1.513,1.513,0,0,1,.091,1.053,0.7,0.7,0,0,1-.459.408C190.341,119.577,188.527,120.033,186.842,120.464Z"/>
  <path id="_Path_9" data-name="&lt;Path&gt;" d="M306.764,99.461a2.645,2.645,0,0,1-.752,1.057,1.707,1.707,0,0,1-1.3-.252,2.144,2.144,0,0,1-.868-1.006,9.1,9.1,0,0,0-3.792-4.241,2.061,2.061,0,0,1-.386-1.541,2.184,2.184,0,0,1,1.246-.341c1.985,0.023,2.747,1.811,3.952,2.915a10.775,10.775,0,0,1,1.625,2.439A4.321,4.321,0,0,1,306.764,99.461Z"/>
  <path id="_Path_10" data-name="&lt;Path&gt;" d="M273.2,135.311c-1.2.019-1.352-.214-1.255-1.231a29.476,29.476,0,0,0,.116-3.362,3.846,3.846,0,0,1,2.439-3.627,0.915,0.915,0,0,1,.834.078,1.126,1.126,0,0,1,.382.886,8.669,8.669,0,0,1-.838,2.236,2.793,2.793,0,0,0-.457,2.575,2.809,2.809,0,0,1,.008,1.351A1.03,1.03,0,0,1,273.2,135.311Z"/>
  <path id="_Path_11" data-name="&lt;Path&gt;" d="M244.138,160.695a4.556,4.556,0,0,1-1.006,3.387,9.182,9.182,0,0,0-1.045,2.06c-0.31.654-.8,0.84-1.146,0.163a2.591,2.591,0,0,1-.3-1.916,6.534,6.534,0,0,0,.478-4.11c-0.265-1.523.125-1.751,1.67-1.5A1.424,1.424,0,0,1,244.138,160.695Z"/>
  <path id="_Path_12" data-name="&lt;Path&gt;" d="M242.624,152.159c-0.692.039-1.32,0.1-1.948,0.1a0.647,0.647,0,0,1-.511-0.248,14.113,14.113,0,0,1-1.286-5.81,1.586,1.586,0,0,1,1.136-1.082,2.456,2.456,0,0,1,1.6.932,3.9,3.9,0,0,1,.389,1.711c0.184,1.238.338,2.479,0.507,3.719C242.543,151.68,242.579,151.88,242.624,152.159Z"/>
  <path id="_Path_13" data-name="&lt;Path&gt;" d="M297.793,120.672a1.616,1.616,0,0,1-1.505-2.092,4.573,4.573,0,0,1,4.009-3.1,1.082,1.082,0,0,1,.738.7c-0.29,1.421-.01,3.133-1.687,3.941A12.139,12.139,0,0,1,297.793,120.672Z"/>
  <path id="_Path_14" data-name="&lt;Path&gt;" d="M203.49,186.414a0.355,0.355,0,1,0-.08.009c0.449,0.144.9,0.3,1.342,0.449a3.529,3.529,0,0,1-.587,1.508,21.621,21.621,0,0,1-3.5,2.252,1.618,1.618,0,0,1-1.547-.276,1.943,1.943,0,0,1-.087-1.731C200.341,187.774,201.391,186.344,203.49,186.414Z"/>
  <path id="_Path_15" data-name="&lt;Path&gt;" d="M207.356,122.95c-0.113-1.43.476-1.871,1.6-1.595a5.055,5.055,0,0,1,3.417,2.41,8.077,8.077,0,0,1,.562.615,1.7,1.7,0,0,1,.216,1.12,1.317,1.317,0,0,1-1.18.276,5.679,5.679,0,0,0-3.4-1.438A1.141,1.141,0,0,1,207.356,122.95Z"/>
  <path id="_Path_16" data-name="&lt;Path&gt;" d="M170.744,131.782a2.1,2.1,0,0,1-3.011,2.106,3.159,3.159,0,0,1-1.618-1.917c-0.149-.516.505-1.289,0.867-1.908a0.936,0.936,0,0,1,.669-0.152c0.458,0.009.914,0.1,1.372,0.108C170.638,130.045,170.8,130.2,170.744,131.782Z"/>
  <path id="_Path_17" data-name="&lt;Path&gt;" d="M223.266,72.24c1.126-1.486,2.87-1.31,4.362-1.739a1.07,1.07,0,0,1,.8.661,2.8,2.8,0,0,1-.288,1.583,7.759,7.759,0,0,1-1.282,1.35,1.8,1.8,0,0,1-3.171-.839A6.906,6.906,0,0,0,223.266,72.24Z"/>
  <path id="_Path_18" data-name="&lt;Path&gt;" d="M219.281,181.16a1.29,1.29,0,0,1-1.481-1.169,2.662,2.662,0,0,1,.8-1.644,2.592,2.592,0,0,1,3.165-.964c1.207,0.5,1.417,1.449.483,2.336A3.842,3.842,0,0,1,219.281,181.16Z"/>
  <path id="_Path_19" data-name="&lt;Path&gt;" d="M217.986,59.009a7.781,7.781,0,0,1,1.908,1.574,2.561,2.561,0,0,1-.424,1.574c-0.3.707-.677,1.38-1.013,2.071a2.406,2.406,0,0,1-.244.579,10.671,10.671,0,0,1-.889.791,3.354,3.354,0,0,1-.693-1.2,12.363,12.363,0,0,1,.092-3.269A8,8,0,0,1,217.986,59.009Z"/>
  <path id="_Path_20" data-name="&lt;Path&gt;" d="M239.705,64.609a13,13,0,0,1,1.406-2.282,1.705,1.705,0,0,1,1.622-.1,1.684,1.684,0,0,1,.944,2.034,4.155,4.155,0,0,1-2.5,2.426C240.135,67.121,239.742,66.639,239.705,64.609Z"/>
  <path id="_Path_21" data-name="&lt;Path&gt;" d="M181.951,185.488a11.645,11.645,0,0,1,2.189.795,1.953,1.953,0,0,1,.973,1.248,2.248,2.248,0,0,1-1.274,1.308,2.9,2.9,0,0,1-2.893-.329,1.53,1.53,0,0,1-.621-2.091A4.16,4.16,0,0,1,181.951,185.488Z"/>
  <path id="_Path_22" data-name="&lt;Path&gt;" d="M211.242,185.586a6.234,6.234,0,0,1-1.633-.8,1.2,1.2,0,0,1-.157-1.141c0.715-1.116,3.517-1.935,4.815-1.508a0.858,0.858,0,0,1,.329,1.508C213.522,184.4,212.32,184.976,211.242,185.586Z"/>
  <path id="_Path_23" data-name="&lt;Path&gt;" d="M288.547,126.415a3.771,3.771,0,0,1,1.647-3.025,1.284,1.284,0,0,1,1.664.684,1.35,1.35,0,0,1,.115,1.819,10.109,10.109,0,0,1-1.249,1.44,9.165,9.165,0,0,1-1.35.859c-0.259-.465-0.532-0.924-0.769-1.4A0.889,0.889,0,0,1,288.547,126.415Z"/>
  <path id="_Path_24" data-name="&lt;Path&gt;" d="M221.828,134.329a4.646,4.646,0,0,1-.856,1.246,2.191,2.191,0,0,1-.994-0.5c-0.416-.253-0.794-0.571-1.22-0.8a1.987,1.987,0,0,1-1.25-2.3,1.182,1.182,0,0,1,.883-0.657,3.3,3.3,0,0,1,1.978.53A11.07,11.07,0,0,1,221.828,134.329Z"/>
  <path id="_Path_25" data-name="&lt;Path&gt;" d="M225.54,155.672c0.427-.745.822-1.512,1.309-2.216a0.891,0.891,0,0,1,.823-0.063c1.23,0.631,1.528,3.375.5,4.287a1.245,1.245,0,0,1-2.227-.636,10.091,10.091,0,0,1-.224-1.25Z"/>
  <path id="_Path_26" data-name="&lt;Path&gt;" d="M245.788,73.455a3,3,0,0,1-.895,1.06,1.93,1.93,0,0,1-1.436-.215,13.542,13.542,0,0,1-2.38-2.032,2.507,2.507,0,0,1-.524-1.578,1.281,1.281,0,0,1,.836-0.82,1.074,1.074,0,0,1,.869.541,3.417,3.417,0,0,0,2.814,2.256A2.289,2.289,0,0,1,245.788,73.455Z"/>
  <path id="_Path_27" data-name="&lt;Path&gt;" d="M219.7,72.369a3.309,3.309,0,0,1-2.983-2.589A1.443,1.443,0,0,1,217.2,68.8a0.978,0.978,0,0,1,.819.072c0.938,0.473,1.868.97,2.76,1.524a1.227,1.227,0,0,1,.612.837,1.72,1.72,0,0,1-.785.856A3.1,3.1,0,0,1,219.7,72.369Z"/>
  <path id="_Path_28" data-name="&lt;Path&gt;" d="M294.372,140.064c-0.15-1.245.716-1,1.1-.9a21.655,21.655,0,0,1,3.109,1.162,0.961,0.961,0,0,1,.429.761,1.874,1.874,0,0,1-2.21,1.482C295.153,142.173,294.408,141.338,294.372,140.064Z"/>
  <path id="_Path_29" data-name="&lt;Path&gt;" d="M312.178,136.885a4.787,4.787,0,0,1,.742.048,1,1,0,0,1,.675,1.732,2.079,2.079,0,0,1-2.413,1.094,2.325,2.325,0,0,1-1.375-1.008,1.05,1.05,0,0,1,.861-1.489c0.5-.127.979-0.326,1.468-0.492Z"/>
  <path id="_Path_30" data-name="&lt;Path&gt;" d="M315.362,126.8c0.035-.7-0.3-1.669.777-1.79s1.137,0.872,1.294,1.6a15.5,15.5,0,0,1,.366,2.588,1.041,1.041,0,0,1-.581.823,1.246,1.246,0,0,1-.964-0.415A3.054,3.054,0,0,1,315.362,126.8Z"/>
  <path id="_Path_31" data-name="&lt;Path&gt;" d="M292.764,137.378a14.47,14.47,0,0,1-1.391-.965,10.5,10.5,0,0,1-.78-0.981c-0.387-.431-0.977-0.719-0.338-1.464a1.235,1.235,0,0,1,1.787-.232,7.074,7.074,0,0,1,1.739,1.667,1.7,1.7,0,0,1,.182,1.36A2.769,2.769,0,0,1,292.764,137.378Z"/>
  <path id="_Path_32" data-name="&lt;Path&gt;" d="M164.465,145.938a2.707,2.707,0,0,1,1.453,1.839,2.071,2.071,0,0,1-1.94,1.519,2.122,2.122,0,0,1-1.739-1.765C162.22,146.822,163.477,145.923,164.465,145.938Z"/>
  <path id="_Path_33" data-name="&lt;Path&gt;" d="M224.323,140.4a9.465,9.465,0,0,1-.776,1.6c-0.442.6-1.025,0.452-1.393-.249a10.173,10.173,0,0,1-.747-1.256,2.253,2.253,0,0,1-.147-1.448,1.71,1.71,0,0,1,1.164-.68,0.974,0.974,0,0,1,1.3.746A7.062,7.062,0,0,0,224.323,140.4Z"/>
  <path id="_Path_34" data-name="&lt;Path&gt;" d="M228.847,67.4a38.289,38.289,0,0,1,1.235-3.935,3.007,3.007,0,0,1,1.382-.705,5.939,5.939,0,0,1,.068,1.266c-0.162,1.037-.431,2.056-0.6,3.093-0.147.93-.919,0.753-1.477,0.83A1.389,1.389,0,0,1,228.847,67.4Z"/>
  <path id="_Path_35" data-name="&lt;Path&gt;" d="M188.334,190.669c0.2-1.551.7-2.131,1.776-2.255a2.634,2.634,0,0,1,2.343,1.641c0.274,0.825-.01,1.305-0.86,1.215C190.513,191.154,189.45,190.882,188.334,190.669Z"/>
  <path id="_Path_36" data-name="&lt;Path&gt;" d="M196.768,63.908a12.58,12.58,0,0,1,2.018.382,1.2,1.2,0,0,1,.673.822,1.458,1.458,0,0,1-.41,1.1c-0.98.84-3.121,0.271-3.7-.921C195.085,64.743,196.051,63.894,196.768,63.908Z"/>
  <path id="_Path_37" data-name="&lt;Path&gt;" d="M201.038,119.695a2.023,2.023,0,0,1,.98.591,1.42,1.42,0,0,1-.356,1.276,6.432,6.432,0,0,1-2.243,1,1.508,1.508,0,0,1-1.065-.715,3.5,3.5,0,0,1,.9-1.73A4.432,4.432,0,0,1,201.038,119.695Z"/>
  <path id="_Path_38" data-name="&lt;Path&gt;" d="M307.732,140.405c-0.923.442-1.428,1.821-2.785,1.139a1.305,1.305,0,0,1-.912-1.593,1.953,1.953,0,0,1,1.994-1.3A1.832,1.832,0,0,1,307.732,140.405Z"/>
  <path id="_Path_39" data-name="&lt;Path&gt;" d="M167.858,176.737a3.483,3.483,0,0,1-1.007-.483,3.312,3.312,0,0,1,.448-1.96,3.769,3.769,0,0,1,2.138-.54,1.127,1.127,0,0,1,.749.77,1.276,1.276,0,0,1-.508.905C169.113,175.907,168.478,176.3,167.858,176.737Z"/>
  <path id="_Path_40" data-name="&lt;Path&gt;" d="M228.558,148.75a2.079,2.079,0,0,1-1.754,1.281,1.393,1.393,0,0,1-1.406-1.373A2.068,2.068,0,0,1,227.055,147,1.953,1.953,0,0,1,228.558,148.75Z"/>
  <path id="_Path_41" data-name="&lt;Path&gt;" d="M171.352,180.894a1.138,1.138,0,0,1,1.087-1.2c0.706-.022,2.143,1.345,1.918,1.971a2.1,2.1,0,0,1-1.266,1.158C172.364,183.008,171.354,181.823,171.352,180.894Z"/>
  <path id="_Path_42" data-name="&lt;Path&gt;" d="M224.5,60.968c-0.727.051-.82-0.544-0.839-1.125a2.032,2.032,0,0,1,1.933-1.885c1,0.112.9,1.056,1.036,1.727C226.736,60.2,225.413,60.988,224.5,60.968Z"/>
  <path id="_Path_43" data-name="&lt;Path&gt;" d="M249.473,75a3.981,3.981,0,0,1,1.047-3.222,1.145,1.145,0,0,1,1.688-.088,0.854,0.854,0,0,1-.052,1.442A30.834,30.834,0,0,1,249.473,75Z"/>
  <path id="_Path_44" data-name="&lt;Path&gt;" d="M226.173,165.671a6.767,6.767,0,0,1,.958,1.218,1.625,1.625,0,0,1-.43.913,2.387,2.387,0,0,1-.568.628c-0.345.255-.732,0.455-1.1,0.678a5.358,5.358,0,0,1-.489-1.127A1.764,1.764,0,0,1,226.173,165.671Z"/>
  <path id="_Path_45" data-name="&lt;Path&gt;" d="M163.585,170.765a10.734,10.734,0,0,1,2.113-1.67,1.9,1.9,0,0,1,1.373.906,0.981,0.981,0,0,1-.674,1.473A2.853,2.853,0,0,1,163.585,170.765Z"/>
  <path id="_Path_46" data-name="&lt;Path&gt;" d="M164.9,138.672a12.888,12.888,0,0,1,.462,2.242,1.161,1.161,0,0,1-.874.687,1.649,1.649,0,0,1-1.057-.9C163.227,139.778,163.67,139.071,164.9,138.672Z"/>
  <path id="_Path_47" data-name="&lt;Path&gt;" d="M248.308,62.5a15.524,15.524,0,0,1,2,.509,3.925,3.925,0,0,1,1.188.842,0.784,0.784,0,0,1,.188.7,0.865,0.865,0,0,1-.653.384A5.185,5.185,0,0,1,248.308,62.5Z"/>
  <path id="_Path_48" data-name="&lt;Path&gt;" d="M164.831,160.373a2.613,2.613,0,0,1-1.2.649,1.627,1.627,0,0,1-1.127-.962,1.513,1.513,0,0,1,.843-1.1,5.114,5.114,0,0,1,1.531.934Z"/>
  <path id="_Path_49" data-name="&lt;Path&gt;" d="M315.484,198.75c-0.147,2.426-.176,4.408-0.411,6.365-0.233,1.938-1.17,2.742-3.1,3.065-1.943.326-3.9,0.6-5.815,1.047a8.321,8.321,0,0,1-3.313.23,3.613,3.613,0,0,0-2.492.815,9.073,9.073,0,0,1-4.549,1.826,3.274,3.274,0,0,1-2.24-.932c-0.77-.693-0.5-1.459.452-1.918a1.551,1.551,0,0,1,.7-0.236c2.022,0.151,3.524-1.14,5.242-1.835,0.74-.3,1.53-0.473,2.294-0.714,0.939-.3,1.87-0.617,2.813-0.9a1.888,1.888,0,0,1,1.007-.14,8.911,8.911,0,0,0,4.7.113,1.936,1.936,0,0,0,1.727-1.765c0.1-1.1.071-2.216,0.144-3.322a28.541,28.541,0,0,1,.339-3.33,1.6,1.6,0,0,1,.848-1,1.177,1.177,0,0,1,1.091.305A17.389,17.389,0,0,1,315.484,198.75Z"/>
  <path id="_Path_50" data-name="&lt;Path&gt;" d="M312.96,190.234c-0.178-2.577,1.358-3.974,2.781-5.356a4.557,4.557,0,0,1,2.029-.71c0.511-.127,1.08-0.041,1.579-0.194a5.574,5.574,0,0,1,3.815.391,1.483,1.483,0,0,1,.785,1.117,1.019,1.019,0,0,1-1.237,1c-0.873-.107-1.761-0.121-2.62-0.292A3.753,3.753,0,0,0,316,187.947a8.267,8.267,0,0,1-1.443,1.68A5.592,5.592,0,0,1,312.96,190.234Z"/>
  <path id="_Path_51" data-name="&lt;Path&gt;" d="M262.369,212.922c0.837-1.65,1.18-1.7,3.219-1.177a38.513,38.513,0,0,0,3.924.616,1.088,1.088,0,0,1,.387.041,2.953,2.953,0,0,0,1.906,1.605,2.2,2.2,0,0,1,.4,1.089,2.217,2.217,0,0,1-1.154.183c-0.71-.549-1.793-0.307-2.347-1.182a1.446,1.446,0,0,0-.938.09,3.355,3.355,0,0,1-1.264.539c-1.168-.362-2.605.012-3.487-1.192A5.013,5.013,0,0,0,262.369,212.922Z"/>
  <path id="_Path_52" data-name="&lt;Path&gt;" d="M262.077,225.147a0.9,0.9,0,0,1-1.465-.37c-0.309-.674-0.546-1.38-0.86-2.051a1.962,1.962,0,0,0-.607-0.82,1.189,1.189,0,0,1-.375-1.806c0.407-.8.693-1.663,1.122-2.449a3.793,3.793,0,0,1,.91-0.829,2.849,2.849,0,0,1,.583,1.147A16.407,16.407,0,0,0,262.077,225.147Z"/>
  <path id="_Path_53" data-name="&lt;Path&gt;" d="M264.907,226.763c1.6,0.281,3.213.525,4.8,0.878a1.207,1.207,0,0,1,.6.9,1.408,1.408,0,0,1-.576.767,3.683,3.683,0,0,1-.742.452c-0.528.29-1.038,0.457-1.426-.22a1.172,1.172,0,0,0-1.909-.468c-1.076.645-1.741,0.4-2.011-.5C263.181,227.018,263.208,226.983,264.907,226.763Z"/>
  <path id="_Path_54" data-name="&lt;Path&gt;" d="M274.218,227.985c-0.886-1.926-.85-2.275.3-3.388a1.047,1.047,0,0,1,1.825.249,1.917,1.917,0,0,1-.937,2.809A8.323,8.323,0,0,1,274.218,227.985Z"/>
  <path id="_Path_55" data-name="&lt;Path&gt;" d="M278.365,220.464a4.089,4.089,0,0,1-1.4,1.094,1.007,1.007,0,0,1-.987-1.307,3.868,3.868,0,0,1,1.168-1.305Z"/>
</svg>
